<?xml version="1.0" encoding="utf-8"?>
<!-- Generator: $$$/GeneralStr/196=Adobe Illustrator 27.6.0, SVG Export Plug-In . SVG Version: 6.00 Build 0)  -->
<svg version="1.1" id="Calque_1" xmlns="http://www.w3.org/2000/svg" xmlns:xlink="http://www.w3.org/1999/xlink" x="0px" y="0px"
	 viewBox="0 0 439.8 779" style="enable-background:new 0 0 439.8 779;" xml:space="preserve">
<style type="text/css">
	.st0{opacity:3.000000e-02;stroke:#000000;stroke-miterlimit:10;enable-background:new    ;}
</style>
<path class="st0" d="M437,521.4c-3.1,0.6-6.3,1.7-9.4,1.7c-3.9,0-7.9-0.7-11.8-1.4c-9.6-1.8-14.7,2.1-15.9,11.8
	c-1.4,11.3,3.3,19.5,12,26.1c3.5,2.7,7,5.4,10,8.6c4.4,4.6,3.9,8.4-1.5,11.9c-8.1,5.2-17.3,8-26.6,10.2c-8.7,2-17.4,3.8-26.2,5.5
	c-9.8,1.8-18.2,6.2-25.4,13c-4.3,4.1-9.3,7.4-15.1,8.9c-2.5,0.6-5.1,1-7.6,0.9c-5.2-0.1-9.2-2.9-10.4-8c-1-4.5-1.5-9.1-1.7-13.7
	c-0.7-13.9-3.9-27-12.4-38.3c-3.6-4.8-7.7-9.2-11.6-13.8c-0.8-0.9-1.5-1.8-2.1-2.8c-4-6.1-3.2-10.6,2.5-15.1
	c0.8-0.6,1.5-1.2,2.4-1.7c7.5-4,10.6-10.5,10.9-18.8c0.2-5.6,0.7-11.1,1.3-16.7c0.9-7.7,5.1-12.8,12.4-15.3
	c4.9-1.6,9.8-3.2,14.6-5.1c8.8-3.5,12.9-10.3,12-19.5c-1.2-12.7-3-25.4-4.5-38c-1.6-13.8-8-24.5-20.3-31.4c-4.2-2.3-8.3-4.9-12.7-7
	c-5.8-2.9-9.7-2.4-13.8,2.6c-12.4,15.2-30,18.3-47.7,20.7c-4.9,0.6-10.4-1.3-15.3-3c-8.5-2.9-16.9-6.4-25.2-9.8
	c-5-2-10-2.1-15.1-0.7c-6.2,1.7-12.4,3.4-18.7,5c-5.6,1.5-10,4.5-13.6,9.2c-2.5,3.3-5.3,6.6-8.5,9.2c-5,4.1-10.8,3.2-14.7-1.8
	c-4.4-5.6-4.2-12.1,0.9-16c2.4-1.9,5.2-3.5,8.1-4.5c8.6-3,12.6-9.5,14.2-18c0.8-4.1,1.4-8.3,2.3-12.4c2.8-12.5,8.8-15.4,20.3-9.8
	c3.2,1.5,6.3,3.3,9.5,4.8c4.6,2.2,8.7,1.3,12.4-2.2c7-6.6,10.3-15.1,13.3-23.9c3.1-8.9,6.6-17.7,9.8-26.5c1.7-4.7,3.1-9.6,4.6-14.4
	c0.3-1,0.5-2.1,0.8-3.1c2.1-7.5,5.1-9.9,13-9.7c9.2,0.3,18,2.7,26.7,5.6c9.7,3.2,16.8,9.7,23.5,16.9c12.9,13.8,29.1,20.7,47.5,22.7
	c9.7,1.1,15-2.8,16.1-12.5c1.6-14.5,2.5-29.1,3.1-43.6c0.3-7.2-1.6-14.2-5.4-20.6c-2.5-4.3-6.1-7.1-10.8-8.7
	c-3.7-1.3-7.6-2.4-11.3-3.8c-9.7-3.7-16.8-14.9-15.4-24.4c0.8-5.3,3.6-9.4,7.5-12.8c6-5.3,12.1-10.3,15.2-18
	c2.5-6.3,4-12.6-0.1-18.8c-6.4-9.5-20.5-11.1-27.9-2.5c-5.3,6.1-9.1,13.5-13.5,20.3c-5.9,9-9.5,18.9-11.9,29.4
	c-2.2,9.6-6.1,18.6-13.1,25.8c-4.2,4.3-9.2,7-15.3,7.3c-4.2,0.2-7.8-1.1-10.9-4c-4.5-4.4-7.5-9.6-9.4-15.6
	c-1.8-5.8-0.4-10.8,3.9-15.1c2.6-2.7,5.4-5.3,7.8-8.1c6.2-7.3,4.7-13.6-4.3-17.1c-8.1-3.2-16.5-2.5-24.7-0.5
	c-4,0.9-7.8,2.3-11.6,3.7c-7.3,2.8-14.6,3.1-22.1,1c-0.4-0.1-0.8-0.2-1.2-0.3c-9.1-3-17.4-1.3-24.7,4.9
	c-7.6,6.5-16.4,10.5-25.8,13.4c-8,2.5-15,6.6-19.9,13.6c-3.9,5.6-7.7,11.4-11,17.3c-2.6,4.7-1.6,7.5,3.2,9.8
	c8.3,3.9,15.2,9.7,22.1,15.5c5.2,4.4,11.2,6.2,17.9,5.6c5.4-0.4,10.9-1.1,16.4-1.1c11.5,0.1,19.6,10.7,16,21
	c-0.9,2.6-2.7,5.2-4.8,7.1c-7.2,6.4-15.3,11.4-24.4,14.7c-7.9,2.8-13,0.8-16.7-6.7c-1.7-3.4-2.9-6.9-4.7-10.2
	c-3.6-6.7-9.5-9.1-16.9-6.9c-1.3,0.4-2.7,0.9-3.9,1.5C91.6,279.7,89,285.7,93,296c2,5.2,4.5,10.2,7.3,15c3.6,6.4,4.2,12.5,0.1,18.8
	c-2.8,4.2-3.3,9-3,13.9c0.5,8,1.1,16.1,1.1,24.1c0.1,14.2-6.8,19.8-20.7,17.1c-8.3-1.6-16.5-3.8-25.2-3.1c-5.8,0.5-11.2,2-16.1,5.1
	c-1.5,1-3.1,1.9-4.8,2.6c-5.9,2.5-11.2-0.6-11.9-7c-0.6-5.1,1.3-9.5,3.5-13.8c3.8-7.2,7.5-14.5,11.2-21.7c3-5.9,2.7-11.5,0-17.6
	c-2-4.6-3.3-9.8-3.7-14.8c-0.5-6.8,3-11.9,9.4-14.3c4.1-1.6,8.5-2.2,12.7-3.4c5.8-1.7,11.9-2.9,17.4-5.5c7.7-3.6,9.4-8.6,7-16.8
	c-1-3.4-2.2-6.7-3.6-10c-2.8-6.7-7.2-11.9-14.1-14.7c-7.4-3-14.6-6.2-22.2-8.7c-10.2-3.4-19.2-0.8-26.8,7c-1.2,1.2-2.6,2.3-4.1,3.1
	C5.4,251.9,4,252,2.6,252c8.3-4.3,13.6-13.4,24.2-13.7c7.6-0.2,14.4,2.2,21.2,4.9c4.4,1.8,8.6,3.9,13,5.7
	c6.2,2.7,10.6,7.3,13.3,13.4c1.9,4.4,3.5,9,4.9,13.6c1.9,6.3-0.2,11.3-5.5,15.2c-5.5,4-11.8,5.6-18.2,6.9c-2.8,0.6-5.7,1.1-8.5,1.6
	c-13.8,2.5-17.6,12.3-13,24.8c0.5,1.5,1.2,3,1.9,4.4c3.4,6.3,3.2,12.6,0,18.8c-3.4,6.6-6.8,13.2-10.1,19.8c-1.4,2.9-3,5.7-3.9,8.8
	c-0.6,2.1-0.7,4.5-0.4,6.6c0.8,5,4.9,7.1,9.6,5.3c0.7-0.3,1.4-0.5,2-1c11.5-8.3,24.2-8.1,37.4-5.4c4.7,1,9.5,1.9,14.3,2.1
	c6.1,0.3,10.2-2.8,11.3-8.8c0.9-4.8,1-9.8,0.9-14.7c-0.1-6.4-1.1-12.9-0.9-19.3c0.1-3.9,1.1-8.2,3-11.6c3.4-6.1,3.4-11.6,0-17.6
	c-2.8-5-5.4-10.3-7.5-15.6c-4-9.9-1.8-16.3,7.2-21.5c2.9-1.7,6.3-2.7,9.7-3.3c6.7-1.1,11.8,1.7,15,7.5c2,3.6,3.4,7.4,5.2,11
	c3.2,6.3,7.3,8.3,14,6c9.7-3.3,18.3-8.6,25.7-15.6c4-3.8,5.1-8.7,3.4-13.9c-1.7-5.4-5.4-9.2-11.1-10.1c-4.1-0.6-8.3-0.2-12.5-0.1
	c-2.9,0.1-5.8,0.5-8.7,0.7c-7.4,0.5-13.7-2.3-19.1-7.1c-6.3-5.6-12.9-10.6-20.5-14.3c-5.4-2.6-6.6-6.7-3.6-12
	c3-5.4,6.4-10.7,9.9-15.8c5.6-8.1,13.5-13.1,22.8-15.9c8.7-2.6,16.8-6.4,23.8-12.4c7.8-6.7,16.5-8.7,26.4-5.6
	c8.4,2.6,16.7,1.9,24.9-1.4c8.2-3.3,16.9-5.5,25.8-4.4c4.4,0.6,8.9,1.7,12.8,3.8c6.2,3.3,7.4,9.3,3.4,15c-2.6,3.6-5.8,6.9-9,10
	c-5.1,5-6.4,10.6-3.4,17c1.6,3.4,3.5,6.7,5.7,9.6c5.1,6.7,11.8,8,19.4,4.4c8.2-4,12.6-11.2,15.8-19.1c2-4.9,3.6-10.1,4.8-15.3
	c2.2-10.3,7.2-19.3,12.6-28.1c3.5-5.7,6.7-11.6,10.9-16.6c8.5-10.4,23.9-9.4,31.6,1.5c3.7,5.2,3.3,10.9,1.5,16.7
	c-2.1,6.7-5.8,12.4-11.1,17c-1.8,1.6-3.6,3.1-5.3,4.7c-9.9,8.9-10.1,21.3-0.1,30.3c2.7,2.4,6.3,4,9.6,5.6c2.4,1.1,5.1,1.6,7.7,2.4
	c8.8,2.8,13.6,9.3,16.2,17.8c2.5,8.3,2.7,16.7,2.1,25.2c-0.7,9.3-1.5,18.6-2.4,27.9c-0.1,1.5-0.4,3-0.7,4.5
	c-2,10.5-7.6,14.9-18.2,13.6c-18.9-2.3-35.8-9.3-48.6-23.9c-12.9-14.8-29.9-19.9-48.4-21.3c-7.3-0.5-9.5,1.7-11.7,8.8
	c-2.7,8.4-5.8,16.6-8.6,24.9c-2.6,7.6-5.2,15.2-7.8,22.9c-2.3,6.6-5.4,12.9-10,18.2c-6,7-11.3,7.9-19.3,3.5
	c-2.8-1.5-5.7-3.1-8.6-4.4c-8.2-3.7-13.6-1.1-15.7,7.6c-1.3,5.5-2.3,11.1-3.4,16.7c-1.6,8-6.1,13.5-13.8,16.4
	c-2.9,1.1-5.7,2.6-8.1,4.5c-4.6,3.4-4.8,9-0.9,13.9c3.6,4.5,8.7,5.3,12.9,1.5c3.3-3,6.2-6.5,9-10c3.2-4,7.2-6.7,12.1-8.1
	c7-1.9,14.2-3.6,21.2-5.6c6.9-2,13.1,0.2,19.4,2.7c6.8,2.7,13.6,5.4,20.3,8.1c7.9,3.2,16,4,24.3,1.6c5.3-1.5,10.6-2.8,15.8-4.4
	c8-2.4,14.6-6.8,20.2-13.2c6.3-7.2,10.2-8,18.6-3.6c6,3.1,11.8,6.7,17.3,10.6c7.9,5.5,12.3,13.5,13.8,22.8
	c2.2,13.8,3.9,27.6,5.4,41.5c0.4,4-0.1,8.5-1.4,12.3c-2.1,6.5-7.7,9.5-13.7,11.7c-4,1.5-8.1,2.7-12.2,4.1
	c-6.5,2.2-10.6,6.5-11.4,13.4c-0.7,5.5-1.3,11.1-1.5,16.7c-0.2,9.1-3.6,16.2-11.8,20.7c-1.1,0.6-2.1,1.4-3.1,2.2
	c-3.4,2.8-4.4,6.1-2.3,10c1.6,2.9,3.7,5.5,5.9,8c5.8,6.5,11.3,13.2,15.1,21.2c4.5,9.5,5.9,19.7,6.6,30c0.2,3.5,0.4,7.1,1.1,10.5
	c1.2,6.1,4.8,8.7,11,8.5c7-0.2,13.1-3.1,17.9-7.8c10.5-10.2,23.3-14.8,37.4-17c13.3-2.1,26.4-5,38.6-11c1.9-0.9,3.8-2.1,5.5-3.3
	c3.3-2.4,3.7-5.1,0.9-8.2c-2.3-2.5-5-4.7-7.6-6.9c-5.7-4.6-11.7-9-14.1-16.3c-2.2-6.9-2.3-13.7,0.9-20.4c2.2-4.5,5.9-6.8,10.9-6.6
	c2,0.1,4.1,0.3,6,0.8c6,1.5,11.9,1.7,17.8-0.2c0.5-0.2,1-0.1,1.5-0.2C436.8,520.5,436.9,521,437,521.4L437,521.4z"/>
<path class="st0" d="M1.9,272.4c0.3-0.2,0.6-0.6,1-0.7c6.4-1.7,10.7-6.2,14.6-11.1c0.9-1.1,1.7-2.2,2.6-3.3
	c6.9-8.3,13.2-10.1,23-5.8c5.1,2.2,9.9,5.2,14.4,8.3c2.3,1.6,4.3,4,5.7,6.4c6.7,10.9,2.8,20.8-9.5,24.1c-4.7,1.3-9.5,2-14.2,2.9
	c-8.1,1.5-13.5,6.2-14.9,14.4c-1,6-1.5,12.2-1.2,18.2c0.5,9.4-2.3,17.1-8.7,24C3.4,362,2.9,376.7,6.2,391.9
	c1.4,6.3,5.2,11.4,10.5,15c7.5,5.2,9.8,11.2,6.2,19.8c-1.9,4.4-1.9,9.2,0,13.9c2.7,6.6,9.5,9,15.7,5.4c7.8-4.5,10-13.9,4.9-21.4
	c-1.5-2.2-3.4-4.2-5.1-6.2c-2.8-3.1-3.5-6.6-1.7-10.4c1.7-3.7,3.4-7.4,5.7-10.8c5.5-8.4,12.9-11.2,22.6-8.6
	c4.1,1.1,8.1,2.8,12.1,4.5c5.2,2.2,10.5,3,16,2.8c1.2-0.1,2.4,0,3.5-0.1c8.1-0.9,14,2.7,18.9,8.7c2.4,3,5.1,5.9,8,8.3
	c6.6,5.5,13.4,5.9,20.4,0.8c4.6-3.4,8.6-7.4,13.1-10.9c9.4-7.3,19.6-7.3,29.5-1.5c12,7,23.5,14.6,35.3,21.8c3,1.9,6.1,3.6,9.3,5
	c3.4,1.5,5.5,0.4,6.6-3.2c0.4-1.2,0.7-2.5,0.9-3.8c1.3-10.2,7.4-16.8,16.4-20.7c8.8-3.7,17.9-6.6,26.9-9.9c3.2-1.2,6.3-2.8,9.5-4
	c13-5,27.4,1.3,31,14.6c3.5,13,5.6,26.4,8,39.7c0.5,3,0,6.2-0.5,9.3c-1.5,9.1-7.5,13.9-16.1,15.8c-4.5,1-9.1,1.6-13.6,2.5
	c-6.3,1.3-9,4.5-9.4,10.9c-0.3,4.8-0.3,9.7-0.5,14.5c-0.5,10.7-5.7,18.2-15.6,22.4c-2.6,1.1-5.2,2.2-7.6,3.5
	c-4.6,2.6-5.8,5.7-4.7,10.8c1.4,6.4,5,11.5,9.8,16c5.6,5.3,12.1,9.9,16.7,16c12,15.7,12.8,33.1,5.8,51.2c-2.1,5.5-6.3,8.7-12,9.6
	c-12.7,2-25,5.3-37,9.7c-7.8,2.8-15.4,2-23.1-1.6c-7.4-3.5-15.2-6.4-23.1-9c-7.3-2.4-12.1-6.5-13.2-14.5c-0.8-6.2-4-11.4-6.9-16.9
	c-5-9.5-9.5-19.2-14.2-28.8c-1.6-3.4-3.2-6.8-5-10.1c-2.3-4-6-5.7-10.6-5c-2.6,0.4-5.3,1-7.9,1.6c-10,2.5-20,3.8-30.3,3
	c-8.5-0.7-15.9-3.5-21.7-9.9c-1.6-1.7-3.3-3.4-5.1-5c-5.3-4.6-11.4-5.2-15.6-1.9c-4.5,3.7-5.7,11.5-2.5,17.1c1.2,2,2.6,4,4.2,5.6
	c7.4,6.9,10.6,15.7,11.8,25.5c1.3,10.4,3.3,20.6,8,30c4.4,8.8,10.1,16.7,17.9,22.9c5.6,4.5,11.5,4.8,17.7,1.6c3.1-1.6,6.2-3.5,9.4-5
	c10.2-4.5,18.7,1.4,17.4,12.4c-1.4,12-4.2,23.7-8.6,34.9c-3.6,9-8.2,11.4-17.7,9.3c-4.3-1-8.5-2.3-12.6-3.8c-16.7-6-33-4.3-49.5,1.3
	c-10.6,3.6-21.5,6.6-32.5,9c-5.2,1.2-10.9,0.3-16.4,0.8c-4.1,0.3-8.2,1.3-12.3,2c-0.6,0.1-1.1,0.1-2-0.5c0.7-0.4,1.4-1.1,2.2-1.3
	c3.3-0.7,6.8-1.9,10.1-1.7c17.6,1.1,34-3.4,50.2-9.6c17.5-6.7,35.1-7.5,52.8-0.7c3.3,1.3,6.7,2.2,10.2,3c8.3,2,13.4-0.1,15.9-8.3
	c3.5-11.5,6.4-23.2,8.5-35c1.6-9-5.6-14.2-14.2-10.9c-3.2,1.2-6.1,3.1-9.1,4.7c-8.5,4.5-14.7,4-21.9-2.3
	c-12.6-11-19.9-25.1-23.1-41.4c-0.9-4.5-1.6-9.1-2.2-13.7c-1.1-8.6-4.6-15.9-10.7-22.2c-2.7-2.8-4.9-6.3-6.1-10
	c-2.1-5.8,0.6-13,5-15.8c4.6-3,10.8-2.2,16.1,2.1c1.3,1.1,2.7,2.2,3.8,3.5c8,9.9,18.8,12.4,30.6,11.6c7.2-0.5,14.4-2,21.6-3.1
	c2.6-0.4,5.3-1.1,7.9-1.5c5.3-0.9,9.6,0.8,12.4,5.4c2,3.3,3.5,6.9,5.2,10.3c4.7,9.5,9.1,19.2,14.1,28.5c3.2,6,6.4,11.9,7.4,18.7
	c0.9,6.3,4.9,9.6,10.5,11.7c8.9,3.3,17.9,6.7,26.6,10.5c6.5,2.8,13,3.1,19.5,0.8c12.1-4.3,24.3-7.9,37-9.8
	c6.4-0.9,10.4-4.8,12.4-10.8c6.5-18.9,4.4-42.5-17.2-58.6c-6.2-4.6-11.9-10-14.7-17.5c-0.8-2-1.3-4.1-1.6-6.2
	c-0.6-4.5,1.1-8,5.2-10.2c3-1.6,6.2-3,9.3-4.4c8.9-4,13.1-11.1,13.6-20.6c0.2-4.2,0.4-8.4,0.5-12.6c0.2-9.1,2.9-12.5,11.8-14.6
	c3.9-0.9,7.8-1.4,11.7-2.1c9.8-1.9,15.1-7.2,15.8-17.2c0.4-5.4-0.1-11-1.1-16.3c-1.6-9.2-3.8-18.3-5.9-27.4
	c-3.2-13.6-16.6-20.7-29.7-15.9c-12.1,4.5-24.2,8.9-36.1,13.7c-9.1,3.7-14.9,10.4-16,20.5c-0.1,0.6-0.2,1.3-0.4,1.9
	c-1.3,5.7-4.1,7.3-9.6,5.2c-2.5-1-4.9-2.3-7.1-3.7c-12-7.5-24-15-36-22.5c-10.8-6.7-21.6-5.7-31.2,2.5c-3.5,3-6.8,6.3-10.5,9
	c-8,5.8-15.8,5.3-23.2-1.2c-2.9-2.5-5.6-5.3-8-8.4c-4.6-5.8-10.3-8.5-17.7-7.8c-8.3,0.8-16.2-0.7-23.8-4.4c-1.9-0.9-4-1.7-6-2.3
	c-11.2-3.3-17.5-0.9-23.8,8.9c-1.8,2.9-3.2,6.1-4.7,9.2c-1.5,3.3-0.8,6.2,1.6,8.9c2.1,2.3,4.2,4.7,5.8,7.3c5.2,8.8,1.2,20-8.1,23.4
	c-6.8,2.5-13.4-0.3-15.6-7.1c-1.1-3.2-1.1-6.9-1.1-10.4c0-2,0.5-4.1,1.3-5.9c3.1-6.6,0.8-11-4.5-15.5c-17-13.7-18.9-40.4-4.4-58
	c1.5-1.8,2.9-3.7,4.4-5.5c3.5-4.3,4.9-9.2,4.8-14.6c0-6.2,0-12.5,0.6-18.6c0.6-6.5,2.5-13,8.7-16.5c3.6-2,8-2.9,12.1-4
	c3.3-0.9,6.8-1.1,10.1-2.1c12.2-3.6,15.5-13.7,7.6-23.6c-6.5-8.1-15.4-12.5-25.6-14.2c-5-0.8-9,1.5-12.2,5.2
	c-3.4,3.8-6.5,7.7-10,11.3c-3,3.1-6.7,4.9-10.9,5.7C2.1,273,2,272.7,1.9,272.4L1.9,272.4z"/>
<path class="st0" d="M362.9,1.8c-4.5,3.7-9.1,7.4-13.5,11.2c-5.4,4.6-11.5,7.2-18.5,7.2c-10.5,0-21,0-31.5-0.5
	c-11.7-0.5-21.9-5.6-31.6-11.8c-2.6-1.7-5.4-3.2-8.2-4.4c-4.8-2-8.2-0.3-9.8,4.6c-2.6,7.8-0.1,14.6,4.8,20.7
	c3.4,4.3,7,8.4,10.4,12.7c3.5,4.4,4.3,9.5,3.4,14.9c-1.6,9.9-0.3,12,9.4,14.8c3.8,1.1,7.6,2.1,11.5,3.2c8,2.1,12.6,7.3,13,15.5
	c0.4,7.3,0.5,14.6,0.2,21.8c-0.3,8.2,0.2,8.8,7.8,12.2c7.8,3.5,15.6,7.2,22.8,11.8c13.7,8.6,16.8,19.9,10.4,35
	c-3.5,8.2-8.2,15.5-15,21.5c-1.7,1.5-3.3,3.1-4.8,4.8c-5.5,6.4-3.5,15,4.4,18.2c2.5,1,5.1,1.8,7.7,2.4c9.5,2.1,16,7.8,20.2,16.4
	c4.5,9.3,6.1,19.2,6.1,29.4c0,15.6-0.1,31.1-0.2,46.7c0,1.5-0.2,3-0.4,4.5c-1.3,7.4-5.2,11.5-12.7,11.6c-6.5,0.1-13.1-0.6-19.4-2.1
	c-12.7-2.9-25.4-6.3-36.2-13.8c-5.7-3.9-10.7-8.9-15.5-13.9c-7.4-7.6-15.4-13.6-26.3-14.9c-9.5-1.1-15.1,1.6-17.2,10.9
	c-2.9,12.6-9.1,23.5-15.6,34.4c-5.2,8.9-10.1,17.9-14.8,27.1c-4.3,8.4-3.2,14,4.7,19.2c16.2,10.7,33.6,15.7,52.8,8.4
	c5.8-2.2,9.7-6.5,12.4-12c1.1-2.3,2.2-4.6,3.5-6.9c4.1-7.3,10.4-9.4,18-5.7c2.1,1,4.2,2.2,6,3.7c8,6.5,16,13,23.9,19.6
	c11.4,9.4,16.5,22.3,19.5,36.1c1.6,7.1,2.5,14.4,3.9,21.5c0.3,1.6,0.8,3.1,1.5,4.5c1.9,3.9,4.9,5.2,9.1,4.1c2.2-0.6,4.3-1.4,6.5-1.9
	c6.1-1.4,10.3,0.3,13.3,5.8c2.6,4.8,3.9,10,3.4,15.5c-0.6,6-3.9,9.4-9.9,9.9c-3,0.2-6.1,0.2-9-0.4c-9.9-2.3-19.6-1.5-29.2,1.8
	c-4.8,1.6-9.7,2.9-14.4,4.7c-9,3.4-13,10.4-11.4,19.8c0.8,4.5,2.2,9,3.9,13.3c2.8,7.1,3.1,14.2-0.6,20.9c-4.5,8.2-3.8,15.8-0.1,24
	c3.8,8.3,6.9,16.9,10.3,25.4c2.6,6.4,5.7,9.6,13,6.1c9-4.3,18.5-4.9,28.3-5.1c11.2-0.2,22.3-1.5,32.8-5.7c2.1-0.8,4.1-2,5.9-3.3
	c3.6-2.7,4.1-5.6,2-9.6c-0.6-1.1-1.2-2.3-2-3.3c-9.8-12.1-11.6-26.2-10.3-41.1c0.4-4.6,1.2-9.2,2.6-13.6c3.5-11,12.4-15.8,23.7-13.1
	c2.2,0.5,4.3,1.3,6.4,2.2c4.4,1.9,8.7,4,13.9,6.4c-1.6,0.1-2.3,0.3-2.8,0.1c-2.7-1-5.4-2.2-8-3.3c-2.4-1-4.6-2.2-7.1-3.1
	c-12-4.3-22,0.3-25,12.5c-4.5,18.2-4.1,35.9,7.8,51.9c6.3,8.5,4.7,13.7-5.1,18c-8.7,3.8-17.9,5.2-27.3,5.8
	c-4.9,0.3-9.9,0.5-14.8,0.7c-6.4,0.2-12.5,1.5-18.4,4.1c-9.9,4.3-13.7,2.5-17.6-7.7c-3.4-9.1-7.1-18.2-10.9-27.2
	c-2.8-6.7-3.1-13.1,0.5-19.5c4.5-8,4-16,0.8-24.5c-1.9-5-2.9-10.5-3.3-15.9c-0.5-7,2.9-12.8,9.4-15.1c10.1-3.7,20.6-6.8,31.1-9.2
	c4.4-1,9.3,0.4,14,0.8c3.2,0.3,6.4,0.9,9.6,0.8c6.4-0.1,10.3-3.8,9.8-10.1c-0.4-4.5-1.6-9.1-3.4-13.2c-2-4.7-5.9-6.1-11-5
	c-1.7,0.4-3.3,0.9-5,1.4c-7.7,2.4-12.5-0.4-14.2-8.3c-1-4.4-1.2-9-2.3-13.3c-1.9-8-3.8-16.1-6.3-23.9c-2.7-8.1-7.6-14.9-14.2-20.3
	c-8.5-7-17.1-14-25.7-20.9c-1.6-1.3-3.6-2.3-5.6-3c-6.2-2.2-11.2-0.1-14.4,5.7c-1.3,2.4-2.5,4.8-3.6,7.2
	c-3.3,7.1-8.8,11.6-16.2,13.7c-19.7,5.4-37.4,0.6-53.3-11.5c-6-4.6-7.2-10.2-4-17c3.8-8,8.3-15.8,12.6-23.6
	c3.1-5.5,6.1-11.1,9.5-16.5c3.9-6.3,6.3-13.1,8.1-20.2c3.6-14.4,11.4-18.6,25.7-14.3c7.3,2.2,13.9,5.7,18.6,11.6
	c13.7,17,32.2,25.2,52.8,29.7c5.9,1.3,12,2.4,18.1,2.5c8.9,0.2,13.2-4.3,13.5-13.2c0.2-5.2-0.2-10.5-0.2-15.8
	c0.1-11.3,0.5-22.5,0.5-33.8c0-9.4-1.8-18.5-5.9-27.2c-4.1-8.5-10.5-13.9-19.7-16c-3-0.7-6.1-1.6-8.8-3.1
	c-8.3-4.6-9.6-13.6-3.1-20.5c2.7-2.9,5.7-5.6,8.4-8.4c6.5-6.9,10.7-15,12.8-24.2c2.3-10-0.8-18.3-9.4-23.8
	c-7.8-4.9-15.9-9.3-24.3-13.1c-9.5-4.3-10-4.7-9.7-15c0.2-6.5,0.2-13.1-0.1-19.6c-0.4-8.1-4.4-13.5-12.5-15.5c-4-1-7.9-2.1-11.8-3.2
	c-1.4-0.4-2.9-0.9-4.2-1.5c-4.9-2.2-7.3-5.3-6-10.4c2.7-10.4-1.2-18.1-8.2-25.2c-2.8-2.9-5.3-6.2-7.5-9.6
	c-3.4-5.1-4.2-10.8-2.7-16.7c1.8-7.1,5.9-9.5,13.4-6.3c5.5,2.3,10.4,6,15.7,8.9c8.5,4.6,17.7,7.1,27.5,7c7.6,0,15.2,0.1,22.9,0.4
	c9.4,0.3,17.2-2.9,23.9-9.3c2.6-2.5,5.6-4.7,8.5-6.9c0.9-0.7,2.2-0.9,3.3-1.4C362.9,1.4,362.9,1.6,362.9,1.8L362.9,1.8z"/>
<path class="st0" d="M2,566.2c1.6-0.3,3.2-0.6,4.8-0.8c10.1-1.4,20.1-3.6,29.5-7.7c4.5-2,8-4.9,9.9-9.6c2.1-5.2,4-10.4,6.2-15.6
	c4.5-10.9,11.1-14.4,22.7-12.2c7.5,1.4,13.7,4.9,18.8,10.5c1.1,1.2,2.2,2.4,3.2,3.6c9,10.1,19.8,12.4,32.3,6.9
	c10.9-4.9,19.9-12.6,29-20.1c2.5-2,5.1-4,7.8-5.6c3.2-1.8,6.6-2.2,9.6,0.4c2.9,2.5,2.9,5.8,1.9,9.2c-1.5,4.8-3.7,9.5-4.6,14.4
	c-2.2,12.3,1,23.8,7,34.3c3.7,6.4,9.1,11.8,13.8,17.7c2.2,2.7,4.5,5.2,6.6,7.9c12.9,16,29.9,21.9,49.9,19.7
	c6.6-0.7,13.1-2.5,19.5-4.1c15.1-3.7,22-14.1,20-29.7c-1.3-10.1-6.1-18.2-13.9-24.6c-5.4-4.5-11.4-8.6-16.1-13.8
	c-6.9-7.7-12.3-16.6-14.4-27c-1.7-8.3,2.3-13,10.7-13.4c3.4-0.2,6.9-0.1,10.3-0.6c9-1.4,13.9-8.2,13-17.2c-0.8-7.9-5-14.3-8.4-21.1
	c-3.4-6.7-8.6-10.6-15.8-12.5c-14.3-3.7-27.4-10.5-40.6-17.1c-6.7-3.4-13.5-6.6-20-10.4c-3.8-2.2-6.9-5.4-10.3-8.2
	c-1.8-1.5-3.5-3.2-5.3-4.7c-7.4-5.9-14.4-6-22.1-0.5c-3.9,2.8-7.8,5.7-11.9,8.2c-9.6,5.8-18.9,4.2-27.7-2.1
	c-2.3-1.7-4.6-3.5-6.8-5.4c-4.8-3.8-10.2-5.9-16.3-6.1c-7.7-0.3-15.4-0.5-23.2-0.6c-5.1-0.1-6.3,1.2-7.2,6.2
	c-1.5,7.9-2.5,16-4.7,23.6c-3.1,10.4-10.5,17.3-20.3,21.6c-9.4,4.1-18.7,1.5-24.6-7.3c-2.7-3.9-4.5-8.5-6.4-12.9
	c-2-5.2-3.9-10.4-5.9-15.6c-0.2-0.5-0.1-1,0.6-1.9c1.1,1.9,2.3,3.8,3.1,5.8c2.5,6.4,4.5,13,7.4,19.2c1.6,3.4,4.3,6.5,7.1,9
	c6.2,5.4,13.2,5,20.1,1.4c9.1-4.7,15.7-11.8,18.3-21.8c1.6-6.1,2.4-12.4,3.5-18.6c0.3-1.7,0.5-3.4,0.8-5.1c0.7-3.1,2.7-5.1,5.8-5
	c10.1,0.2,20.2,0.3,30.2,1c5.6,0.4,10.1,3.8,14.5,7.2c3.7,2.9,7.6,5.6,11.8,7.7c6,2.9,12.2,2.2,17.9-1c3.9-2.2,7.6-4.8,11.2-7.5
	c10.9-7.9,18.4-7.3,28.5,1.6c5.4,4.7,10.7,9.9,17,13.1c16.3,8.2,33,15.4,49.7,22.8c3.9,1.7,8.2,2.6,12.2,4.2
	c2.1,0.9,4.4,2.1,5.8,3.9c5.7,7.7,10.8,15.9,12.9,25.3c2.9,12.7-3.4,21.3-16.4,22.7c-3.3,0.4-6.7,0.1-10,0.5
	c-4.9,0.6-7.4,3.3-7.3,8.2c0.1,3.2,0.8,6.7,2.1,9.7c5,11.9,12.1,22.1,23,29.5c10.2,7,17.8,15.9,19.3,28.8c1.1,9.4,0,18.4-7.3,25.2
	c-2.6,2.4-6,4.6-9.3,5.5c-10.4,2.5-21,5.8-31.5,5.9c-17.5,0.2-32.8-6.3-44-20.8c-4.6-5.9-10.3-11-14.8-17
	c-11.2-14.9-16.7-31.4-11.3-50.1c0.9-3,2.2-5.8,3.2-8.8c1-2.8,0.7-5.4-1.6-7.4s-5.1-1.8-7.5-0.3c-2.9,1.8-5.6,4-8.4,6
	c-8.1,5.9-15.9,12.1-24.2,17.5c-3.8,2.4-8.4,3.8-12.9,4.8c-10.1,2.1-18.6-1.2-25.3-9.1c-5.5-6.5-11.5-12.2-20.3-13.8
	c-12.2-2.2-18.1,0.2-22.6,11.7c-1.9,5-3.8,10-5.9,15c-2.1,4.9-5.8,8.2-10.6,10.3c-10.6,4.6-21.9,7-33.3,8.2c-0.5,0-1-0.1-1.5-0.1
	C2.1,566.8,2.1,566.5,2,566.2L2,566.2z"/>
<path class="st0" d="M1.8,490.5c1.1-0.3,2.2-1,3.3-0.9c4.8,0.4,9.6,0.9,14.4,1.5c4,0.5,8,1.5,12.1,1.8c3.9,0.3,5.7-1.1,5.5-5
	c-0.7-10.8,4.5-18.4,12.3-24.9c9.3-7.6,15.6-17.3,19.9-28.4c3.8-9.6,10-16.5,21.3-16.9c6.7-0.3,12.7,1.8,18.3,5.2
	c2.9,1.8,5.9,3.5,8.9,5.1c10.7,5.6,21.1,4.4,31.2-1.9c3-1.9,6.1-3.7,9.2-5.4c6-3.2,11.8-2.6,17.2,1.5c2,1.6,4.2,3.1,5.8,5
	c7.9,9,18,13.9,29.3,17.1c10.6,3,20.5,7.6,29.4,14.2c5,3.6,9.2,8,11.8,13.8c2.7,6.2,2,9.5-3.3,13.7c-11.9,9.5-14.8,22-11.5,36.1
	c1,4.2,3.6,8.2,5.9,12.1c6.4,10.9,14.7,20,25.6,26.7c5.5,3.4,10.1,7.9,13.3,13.7c5.6,10.2,4,23.3-4.2,30.1c-2.5,2.1-5.6,3.8-8.7,4.7
	c-11.5,3.5-23.2,4.6-34.8,0.6s-19.1-11.5-20.1-24.4c-0.4-5.7-1.8-6.6-7-6.5c-19.4,0.6-32.1-17.7-24.9-35.9c1.4-3.6,3.7-7,5.9-10.3
	c8.1-12.4,3.4-29-10.2-35.2c-6.8-3.1-12.1-2-17,4.5c-8.6,11.3-19.1,20.6-30.7,28.6c-1.8,1.2-3.6,2.3-5.5,3.3
	c-7.3,3.6-14.2,2.7-20.2-2.8c-2-1.8-3.9-3.7-5.8-5.6c-7.5-7.6-17.3-10.4-27.2-13.2c-4.9-1.4-9.8-2.6-14.7-3.6
	c-5.1-1-7.5,0.5-8.8,5.5c-1.5,5.6-2.7,11.3-4.2,16.9c-5.6,20.5-21.8,28.9-39.5,30.3c-0.6,0-1.2-0.2-1.9-1c0.9-0.2,1.8-0.4,2.8-0.5
	c8.6-1,16.8-3.4,23.9-8.7c8.8-6.6,12.4-16.1,14.9-26.3c1-4,1.7-8,2.9-11.9c1.4-4.6,4.1-6.8,8.6-5.9c13.2,2.6,26.5,5.1,38,12.4
	c4.4,2.8,7.9,6.8,11.9,10.2c6.6,5.7,13,6.5,20.4,1.9c12.4-7.8,23.7-17,32.6-28.9c1.4-1.9,3.1-3.6,4.9-5.1c4.7-3.9,10.6-4.4,15.9-1.4
	c7.1,4.1,11.8,10.1,14.4,17.9c2.1,6.5,0.5,12.3-3,17.8c-1.4,2.3-3,4.4-4.4,6.7c-5.9,9.8-5,22.8,2.2,31.7c4.5,5.5,10.4,7.2,17.2,7
	c8.4-0.3,9.3,0.2,10.3,8.6c1.3,11.9,8.4,18.7,19.1,22.3c12.4,4.2,24.7,3.1,36.5-1.7c10.5-4.2,14.8-15.3,11.2-26.9
	c-2.4-7.6-7.3-13.2-13.9-17.2c-13.2-8-22.3-19.6-29.9-32.6c-8.4-14.2-4.1-36.6,8.9-45.3c5-3.4,5.4-6,3.1-11.6
	c-2.8-6.8-8-11.3-13.9-15.2c-9.2-6.2-19.3-10.3-29.9-13.3c-9.5-2.7-17.9-7.2-24.7-14.5c-2.5-2.6-5.3-5-8.2-7.2
	c-4.4-3.3-9.3-3.8-14.3-1.2c-3.4,1.8-6.8,3.7-10.1,5.8c-11.7,7.4-23.4,7.1-35.3,0.3c-4.3-2.5-8.7-5.3-13.4-7
	c-12.7-4.6-22.8-0.3-28.9,11.8c-3,5.9-5.2,12.4-9.1,17.7c-4.7,6.4-10.7,12-16.4,17.6c-4.9,4.9-8.1,10.2-7.6,17.4
	c0.1,1-0.1,1.9-0.2,2.9c-0.4,4.5-2.4,6.2-6.9,6.3c-0.5,0-1.1,0-1.6-0.1c-9.4-0.9-18.4-4.8-28.2-3C1.8,491,1.8,490.7,1.8,490.5
	L1.8,490.5z"/>
<path class="st0" d="M436.8,353.5c-0.3,0.2-0.6,0.6-0.9,0.7c-6.4,1.5-9.7,6-11.3,11.9c-0.9,3.3-1.6,6.7-2.1,10.1
	c-1.2,8.3-4.8,15.3-11,21c-7,6.5-13.8,13.2-19,21.4c-2.4,3.8-6,5.9-10.5,5.9c-4.7,0-9.5,0-14.1-0.5c-5.9-0.7-10.4-4-13.5-9
	c-3.5-5.5-6.9-11.1-10.1-16.9c-4.9-8.9-11.7-16.1-19-22.9c-6.3-5.8-12.1-12.1-18.1-18.2c-5.1-5.2-10.5-10.1-15.5-15.4
	c-3.9-4.1-7.7-8.3-11-12.9c-2.4-3.2-4.7-6-8.6-7.4c-6-2.2-11.1-5.7-14.7-11c-1.2-1.8-2.4-3.7-2.8-5.7c-0.3-1.8-0.1-4.4,1-5.5
	c0.9-1,3.9-1.2,5.2-0.4c3.4,2,6.7,4.3,9.3,7.2c2.8,3.1,4.8,6.8,7,10.4c1.7,2.8,3.9,4.9,7.2,5.5c22.2,4.5,44.4,9.2,66.6,13.4
	c5.5,1,11.4,0.9,17,0.3c3.1-0.3,6.4-1.9,9-3.8c5.2-3.7,5.7-8.3,2.4-13.8c-2-3.4-4.3-6.7-5.8-10.4c-4.9-11.3-5.5-23.3-4.7-35.4
	c1.5-23.1-5.8-42.9-22-59.4c-1.6-1.7-3.5-3.2-5.2-4.8c-3.9-3.5-4.8-6.4-2.7-11.2c3.3-7.6,6.9-15,10.3-22.5
	c2.6-5.7,4.2-11.7,4.2-18.1c0-8.8-3.2-16.1-10.1-21.7c-3.8-3-7.7-5.8-11.5-8.8c-11.6-8.9-16.5-20.7-13.8-35.1
	c1.1-6.2,3-12.3,4.3-18.5c1.7-8.3,3.5-16.6,4.8-25c1.3-8,4.7-14.4,12.1-18.2c7.8-4,13.5-10.5,19.8-16.4c8.9-8.5,18.4-9.6,29.1-3.4
	c1.9,1.1,3.8,2.1,5.5,3.4c7.5,5.7,15.9,7,25,5.8c5.3-0.7,10.7-1.2,16-1.8c0.7-0.1,1.4,0,2.9,0c-1,0.8-1.3,1.2-1.7,1.3
	c-7.4,0.8-14.7,1.8-22.1,2.4c-7,0.6-13.4-1.2-19.2-5.2c-2.6-1.8-5.4-3.5-8.2-5.1c-8.9-4.9-17-4.1-24.7,2.4c-1.7,1.4-3.4,2.9-4.9,4.6
	c-5,5.5-10.6,10-17.1,13.6c-5.2,2.9-8.9,7-10.1,13c-3.2,15.4-6.6,30.8-9.8,46.3c-2.9,14.1,1.6,25.6,12.9,34.4
	c2.8,2.2,5.6,4.4,8.5,6.4c14.4,9.8,16.7,24.3,11.7,38.6c-2.9,8.4-7.2,16.3-10.8,24.4c-0.5,1.1-1,2.2-1.4,3.3
	c-1.8,4.8-1.1,6.5,2.5,10.3c5.4,5.7,10.9,11.3,15.4,17.6c9.8,13.6,12.7,29.1,12,45.5c-0.5,10.1-0.7,20.3,2.5,30
	c1.6,4.9,4.1,9.4,6.2,14c0.3,0.6,0.7,1.1,1,1.6c5.2,8.3,2.9,15.4-6.2,19.4c-5.5,2.5-11.4,2.5-17.1,1.8c-8.7-1.1-17.4-2.5-26-4.2
	c-14.3-2.8-28.5-6.2-42.9-9c-6.2-1.2-10.3-4.3-13.6-9.6c-2.8-4.6-6.6-8.7-10.3-12.6c-1.8-1.9-4.7-3.8-7.2-1.7
	c-2.6,2.2-0.5,5.1,0.7,7.3c2.9,5.2,7.2,9.3,12.8,11.3c5.9,2.1,9.9,5.9,13,11.3c1.8,3.2,4.4,6.2,7.3,8.5c9.6,7.4,17,17,25.1,25.8
	c3,3.3,6.4,6.4,9.9,9.2c11,8.8,18.5,20.2,25,32.4c1.2,2.4,2.8,4.6,4.2,6.9c4.1,6.9,10.3,10.1,18.2,10.2c1.1,0,2.1,0.1,3.2,0.2
	c7.6,0.7,13.1-1.9,17.6-8.5c4.4-6.5,10.2-12.1,15.9-17.6c5.9-5.8,10-12.2,11.3-20.4c0.8-4.9,2.1-9.6,3.6-14.3
	c1.4-4.3,4.5-7.2,8.8-8.8c1-0.4,2.2-0.5,3.3-0.7L436.8,353.5L436.8,353.5z"/>
<path class="st0" d="M1.8,160.2c0.2-0.6,0.2-1.4,0.6-1.9c7-8.3,10.6-18.3,14.5-28.2c2.1-5.2,3.9-10.5,6.2-15.6
	c4.3-9.4,10.8-11.6,17.7-2.3c2.2,2.9,4.3,5.9,6.8,8.6c7.8,8.3,18.5,7.2,24.7-2.5c1.7-2.8,2.7-6,3.7-9.2c1.3-4.1,2-8.4,3.6-12.3
	c2.6-6.6,6.6-8.1,13-5.2c3.4,1.5,6.7,3.4,10.3,4.6c12.4,4.1,22.7-0.6,32.1-8.3c3.1-2.6,5.7-5.9,8.8-8.5c5.4-4.5,10.8-9.1,16.6-13.1
	c7.9-5.4,16.5-9.7,24-15.5c12.9-9.9,29.1-10,41.6,4.9c2,2.4,3.9,4.9,5.8,7.3c4.3,5.6,5.9,11.8,4.2,18.8c-0.5,2.1-0.8,4.2-1.1,6.3
	c-1.6,12.9,5.6,24.6,18.3,28.1c7.1,1.9,14.5,2.7,21.8,3.9c5.3,0.9,10.6,1.4,15.9,2.5c3.7,0.8,5.2,3.1,4.3,6.7
	c-3.9,15.2-9.4,29.8-20.1,41.6c-6.2,6.9-9,6.9-16.4,1.1c-8.8-6.9-18.7-10.6-29.9-9.8c-8.3,0.6-16.7,1.6-24.8,3.4
	c-8.8,1.9-17.3,2.5-26.1,0.5c-9.2-2.1-17.7-0.2-25.1,5.8c-7,5.7-14,11.4-23.1,13.5c-2.2,0.5-4.3,1.2-6.6,1.7
	c-8.9,2-16.1,6.8-22.1,13.6c-9.1,10.4-18.5,20.6-27.7,30.9c-5.7,6.3-12.7,7.6-20.5,5.8c-3-0.7-6-1.8-9-2.6c-8.5-2.1-17-4.3-25.7-6
	c-6.6-1.3-11.8-4.4-15.5-10c-0.5-0.8-0.7-1.8-1.3-3.3c0.9,0.5,1.3,0.6,1.4,0.9c4.2,7.4,10.9,10.2,19,11.7c8.7,1.6,17.4,3.9,25.9,6.5
	c13.7,4.1,19.3,2.5,28.7-8.2c8.5-9.8,17.3-19.4,26-29c5.3-5.9,12-9.9,19.8-11.4c11.1-2.2,20.5-7.1,29-14.5c7.4-6.4,16.1-9.3,25.8-7
	c10.1,2.4,19.9,1.2,29.9-0.9c7.6-1.6,15.5-2.3,23.3-2.8c11.2-0.7,21,3.4,29.8,10.2c6.7,5.1,9,4.9,14.6-1.4
	c10.1-11.4,15.2-25.3,19.3-39.6c1-3.7-0.1-5.4-3.9-6c-9.4-1.5-18.9-2.6-28.4-4.1c-7.9-1.2-15.1-3.9-20.9-9.8
	c-5.8-5.9-8.3-12.9-7.2-21.1c0.1-1.1,0.1-2.2,0.5-3.2c4.1-12-1.2-21-9-29.3c-3.8-4-7.7-7.8-13.1-9.7c-8-2.8-15.5-1.8-22.5,2.6
	c-10.9,6.9-21.9,13.5-32.4,21c-6.2,4.4-11.7,10-17.2,15.4c-6.9,6.7-14.6,11.5-24.2,13.1c-6.3,1.1-12.1-0.6-17.7-3.3
	c-2.5-1.2-5-2.5-7.6-3.4c-3.5-1.2-6-0.5-7.7,2.7c-1.8,3.6-3.1,7.5-4.1,11.4c-1.7,6.8-3.4,13.3-9.4,17.8c-6.9,5.3-14.7,5.1-21-0.9
	c-2.9-2.8-5.3-6.2-7.8-9.4c-6.5-8.5-11.8-8-16,1.9c-3.6,8.5-6.5,17.3-10.4,25.7c-2.7,5.8-6.2,11.2-9.5,16.8c-0.5,0.9-1.3,1.5-2,2.3
	C2.2,160.4,2,160.3,1.8,160.2L1.8,160.2z"/>
<path class="st0" d="M255.4,604.3c-5.2-0.3-10.1-1.2-14.5-3.9c-4.7-2.8-7.4-6.8-7.2-12.4c0.1-3,0.4-6,0.7-9c0.2-2.9,0.6-5.8,0.6-8.7
	c-0.2-13-8.2-18.7-20.8-18.6c-3.4,0-6.7,1.3-10.1,1.9c-2.3,0.4-5.2,1.3-6.4-1.1c-0.9-1.8-0.4-4.5,0.2-6.6c0.8-2.6,2.6-4.9,3.8-7.4
	c4.3-8.8,3.9-17.6-0.2-26.4c-4.4-9.4-10-18-16.6-26c-5.6-6.6-12.7-9.2-21.2-8.5c-4.4,0.4-7.5,2.3-8.8,6.7c-1,3.3-1.9,6.6-3.1,9.8
	c-3.3,9.5-9.6,16.4-18.2,21.3c-3.4,2-7,3.7-10.7,5.3c-5.3,2.2-10.6,2-15.5-1c-8.5-5.2-17.8-8.5-27.1-11.7c-8.7-3-16.9-7-21.5-15.8
	c-4.8-9-4.2-17.5,1.9-26c5.5-7.8,10.7-15.8,15.3-24.1c6.1-10.8,14.2-14.5,26.1-10.5c5.4,1.8,10.7,3.8,16,5.9
	c11.6,4.6,22.5,3.3,32.8-3.6c1.8-1.2,3.8-2.1,5.7-3c6.6-3.2,12.6-1.9,17.7,3.1c2.8,2.7,5.3,5.6,7.9,8.5c4.2,4.9,9.4,7.5,15.8,8.4
	c6.7,0.9,13.5,1.8,19.9,3.8c4.9,1.6,9.5,4.5,13.6,7.6c6,4.5,7.2,10.9,4.9,17.9c-2.8,8.2-6,16.3-8.5,24.6c-5.4,18.1-0.4,33.6,12,47.2
	c4.7,5.1,10.9,7.8,17,10.9c4.1,2.1,8.2,4.2,12,6.8c4.4,3,7.2,7.3,8.3,12.6c2,9.8-2.9,17.8-12.6,20.4
	C261.5,603.6,258.4,603.8,255.4,604.3L255.4,604.3z M166.5,475.9c7,0.1,13.1,2.4,17.8,7.6c8.8,9.6,15.7,20.4,20.2,32.6
	c3,8.1,2,16.1-1.9,23.7c-1.3,2.5-2.8,4.8-3.9,7.4c-0.5,1.2-0.7,3.3,0,4.2c0.7,0.8,2.7,1,4,0.9c2-0.2,3.9-1,5.9-1.5
	c15.8-3.7,27.3,4.8,27.7,20.4c0,1-0.1,1.9-0.1,2.9c-0.4,4.3-0.9,8.5-1.2,12.8c-0.4,6.4,2.8,10.7,8.4,13.2c7.8,3.4,15.7,3.4,23.5,0.1
	c1.8-0.8,3.5-2.1,4.9-3.6c5.8-6.1,5.2-17.4-2-23.4c-5.1-4.1-11-7.5-17-10.2c-12.6-5.7-20.5-15.5-25.9-27.8
	c-4.7-10.7-3.5-21.5-0.5-32.2c2.2-7.7,5.4-15.1,8-22.8c2.5-7.3,1-12.6-4.9-17.5c-1.6-1.4-3.4-2.6-5.3-3.6
	c-7.8-4.6-16.5-5.8-25.3-6.6c-7.2-0.6-13.2-3.4-17.9-8.9c-2.7-3.2-5.5-6.3-8.6-9.1c-4.2-3.9-9.1-5.2-14.5-2.6
	c-3.9,1.9-7.6,3.9-11.4,5.9c-6.5,3.5-13.3,5.2-20.5,3.1c-8.1-2.3-16.1-5.2-24.1-7.9c-11.4-3.7-18.5-1.1-24.2,9.4
	c-4.8,8.8-9.8,17.4-16.1,25.2c-5.8,7.2-6,15.1-1.8,23.2c4,7.9,11,11.9,18.8,14.7c10.4,3.8,20.9,7.3,30.4,13c3.7,2.2,7.9,2.8,11.8,1
	c5.7-2.6,11.5-5.3,16.7-8.8c8.5-5.7,12.5-14.4,15-24C154.6,478.1,157.8,475.9,166.5,475.9L166.5,475.9z"/>
<path class="st0" d="M1.6,170.2c0.5-0.8,0.8-1.8,1.4-2.5c7-8.2,12.7-17.3,17.8-26.8c1.8-3.5,4.1-6.8,6.7-9.8
	c3.2-3.8,6.4-4.3,10.9-2.1c2.1,1,4.2,2.2,6.2,3.4c7.8,4.8,15.7,4.9,23.9,0.6c7.3-3.9,14-8.6,18.3-15.8c3.9-6.5,9.5-8.9,16.8-9.6
	c17.3-1.5,32.5-8.1,44.4-20.9c8.5-9.1,18.9-15.4,29.8-21.1c4.9-2.6,9.6-5.7,14.6-8.2c15.9-8.1,31.8,6.8,31.7,20.5
	c0,2.5,0.1,5-0.3,7.4c-2,12.1,3.4,21.4,11.1,29.9c6.4,7.1,14.4,10.9,23.7,12.7c2.8,0.5,5.6,1.4,8.3,2.4c6.4,2.5,9.2,7.6,8,14.1
	c-1.4,7.5-6.5,12.5-13,12.6c-1.8,0-3.7,0-5.4-0.4c-12.6-3.4-25.3-2.3-38.1-0.6c-4.6,0.6-9.1,1.4-13.8,1.6
	c-7.3,0.3-14.7,1.1-21.8,0.2c-14.1-1.8-26.1,1.7-36.7,10.9c-6.5,5.6-14.1,9.2-22.8,9.4c-11.5,0.3-19.7,6.1-26.8,14.5
	c-8.1,9.6-16.4,19-24.9,28.2c-7.2,7.8-16.2,10.2-26.4,7s-20.5-6.2-30.5-10.1C8.3,215.1,5.1,208.8,2,203c-0.3-0.6-0.1-1.4,0.4-2.4
	c0.6,1,1.3,2.1,1.8,3.1c4.3,8.4,10.9,14,20,16.5c6.9,1.9,13.9,3.7,20.8,5.9c11,3.5,19.9,0.2,27.2-8c8.2-9.2,16.3-18.5,24.3-27.9
	c6.9-8.1,15.2-13.3,26.3-13.6c8.2-0.2,15.3-3.4,21.8-8.6c6.6-5.2,13.3-10.4,22-11.4c4.6-0.6,9.5-0.8,14.1-0.3
	c10,1.1,19.9,0.5,29.9-0.8c6.4-0.9,12.8-1.6,19.2-2.2c8.1-0.9,16.1-0.5,24,1.2c1.5,0.3,2.9,0.6,4.4,0.8c9.4,1.4,16.9-6.1,15.4-15.6
	c-0.7-4.2-3.6-6.8-7.5-8c-5.4-1.7-11.1-2.8-16.4-4.7c-18.2-6.6-29.1-24.1-27.1-43.4c0.9-9.1-1.5-16.8-8.9-22.5
	c-5.9-4.6-12.6-5.9-19.4-2.6c-8,3.9-15.5,8.7-23.4,12.9c-8,4.2-14.8,9.7-21.1,16.2c-13,13.4-29,20.5-47.4,22
	c-6.1,0.5-10.5,2.9-13.8,8.1C83,126.3,75,132,65.5,136c-7.2,3-13.8,2-20.4-1.6c-2.5-1.4-5-2.9-7.6-4.1c-3.7-1.8-6-1.5-8.6,1.7
	c-2.8,3.5-5.4,7.2-7.5,11.2c-5.3,9.9-11.5,19.1-18.9,27.4C2.2,170.4,1.9,170.3,1.6,170.2L1.6,170.2z"/>
<path class="st0" d="M145.9,348.9c-0.5,3.9-0.8,8.9-2,13.7c-2.7,11-17.7,18.7-28.3,14.9c-3.6-1.3-5.6-4.3-6.7-7.8
	c-3-9.4-1.1-17.9,5-25.4c4.7-5.7,10.1-10.9,14.8-16.5c4.2-5,7.6-10.7,11.9-15.6c9.4-10.5,21.3-17.5,33.8-23.7
	c3.9-1.9,7.6-4.5,10.8-7.4c4.6-4.1,5.1-9,1.9-14.3c-2.6-4.3-5.7-8.3-8.9-12.2c-6.2-7.4-14.5-8.5-23.5-7.4c-2.2,0.3-4.5,0.5-6.7,0.8
	c-12.6,2.2-22-3.2-29.9-12.4c-10.9-12.7-5.2-25.6,4.4-32.3c3.6-2.5,7.7-4.1,11.7-6c7.3-3.5,15-6.4,22-10.4c6.4-3.7,12.9-5.3,20-3.4
	c12.4,3.3,24.4,2.8,36.2-2.3c2.9-1.2,6.3-1.6,9.4-1.5c4.4,0.1,5.9,3.4,3.5,7.2c-1.2,1.9-2.6,3.7-3.9,5.5c-3.1,4.4-4.2,9.3-2.1,14.3
	c2,4.7,4.8,9.1,6.8,13.9c2.6,6.2,5.2,12.4,7.2,18.9c1.4,4.5-0.1,6.5-4.6,8.1c-4.1,1.4-8.3,2.2-12.4,3.6c-5.9,2-10.8,5.2-13.7,11
	c-2,4-2.3,8,0.1,11.7c4.9,7.3,5.8,15,3.7,23.4c-2.4,10.2-4.6,20.5-7,30.7c-0.4,1.6-1.4,3.1-2.3,4.6c-4.6,7.1-9.8,8.9-17.6,5.9
	c-4.5-1.7-8.8-4.1-13.4-5.5c-3.8-1.2-8-1.8-12-1.8c-4.9,0-7.7,2.9-8.2,7.8C145.7,341.8,145.9,344.9,145.9,348.9L145.9,348.9z
	 M144,347.6c0.1-3.1,0.1-6.2,0.5-9.3c0.7-5.3,3.5-8,8.8-8.7c6.1-0.9,11.7,0.9,17.2,3.2c3.8,1.6,7.5,3.3,11.3,4.7
	c4.9,1.9,9.3,0.7,12.3-3.6c2.4-3.4,4.6-7.1,5.6-11.1c2.2-8.2,3.4-16.6,5.2-24.9c1.9-8.4,1.4-16.3-3.6-23.7
	c-2.6-3.9-2.2-8.1-0.2-12.3c3.2-6.8,9-10.5,15.9-12.6c3.7-1.2,7.5-2,11.1-3.2c3.7-1.2,4.7-2.8,3.8-6.6c-1.1-4-2.2-8.1-4-11.9
	c-2.9-6.4-6.5-12.6-9.5-19c-2.8-6-2-11.9,1.9-17.4c1.2-1.8,2.6-3.4,3.7-5.2c1.7-2.7,0.8-4.8-2.4-4.9c-2.8-0.1-5.9,0.2-8.5,1.3
	c-12.1,5.2-24.5,6-37.2,2.5c-6.9-1.9-12.9-0.4-19,3.2c-6.3,3.6-13.1,6.4-19.6,9.5c-4.9,2.4-10.2,4.2-14.6,7.3
	c-6.8,4.8-10.7,11.7-8.6,20.4c3,12.1,17.7,22.3,30,21.3c4.6-0.4,9.2-1.3,13.8-1.2c4.3,0.1,9,0.3,12.9,2c9.7,4.3,15.2,13,19.2,22.4
	c0.9,2.3,0.3,5.9-1,8.2c-1.6,3-4.2,5.7-7.1,7.7c-4.1,2.9-8.8,5-13.2,7.3c-13,6.9-24.6,15.5-33.2,27.9c-4.4,6.4-9.9,12.1-15,18
	c-1.9,2.2-4,4.2-5.7,6.5c-5.4,7.2-7.5,15.3-4.2,23.9c1,2.5,3.3,5.3,5.7,6.4c7,3.1,19.9-2,23.9-8.6C144,361.2,144,354.4,144,347.6
	L144,347.6z"/>
<path class="st0" d="M191.6,148.9c-9.8-0.5-20.1-0.9-29.8,2.8c-5.9,2.2-11.3,5.6-16.8,8.7c-4.9,2.8-9.5,6.2-15.5,5.5
	c-3.2-0.4-6.5-1.3-9.6-2.5c-7.2-2.8-9.3-2.4-14.1,3.7c-9.3,11.8-18.3,23.8-27.8,35.4c-3.8,4.7-8.3,9-12.8,13
	c-4.9,4.4-10.8,6.1-17.4,5.2c-9.5-1.4-18.8-3.8-27.2-8.6c-9.3-5.2-14.2-13.8-16.3-24C3,182,5.1,176.6,8.6,171.8
	c5.4-7.5,10.9-14.9,16.2-22.4c4.6-6.5,10.6-8.7,18.3-6.1c9.5,3.3,18.4,2.1,27.3-2.8c6.8-3.7,14.1-6.3,21.1-9.6
	c3.6-1.7,7.3-3.4,10.2-5.9c7.4-6.3,15.8-11.1,24.6-15.1c11.1-5,21.6-11,30.8-19.1c5.7-5,12.3-8.5,19.7-10.7c5.4-1.6,10.6-3.4,16-5
	c8.5-2.5,13.3,0.2,13.9,8.9c0.7,10.8,5.6,19.3,12.2,27.4c4.1,5,7.6,10.4,11.3,15.6c1,1.4,1.7,3,2.3,4.6c1.9,5.5,0.4,9.4-4.7,12.2
	c-6.6,3.6-13.8,4.6-21.1,5C202,149.2,197,148.9,191.6,148.9L191.6,148.9z M194.5,147.8c5.6-0.4,13.2-0.5,20.6-1.5
	c4.3-0.6,8.6-2.1,12.5-4.1c4.5-2.2,5.6-5.8,3.5-10.3c-1.6-3.6-3.8-7-6.1-10.2c-3.9-5.5-8.1-10.8-12.2-16.2
	c-4.4-5.8-6.6-12.3-7.1-19.7c-0.6-9.2-4.4-11.6-13.3-8.9c-4.4,1.3-8.8,2.8-13.2,4.1c-7.6,2.2-14.7,5.6-20.7,10.8
	c-9.1,7.9-19.2,14.1-30.2,18.9c-9.6,4.2-18.5,9.4-26.5,16.2c-2.3,2-5.2,3.4-8,4.7c-7.7,3.6-15.7,6.5-23.2,10.5
	c-9.1,4.9-18.2,5.9-27.9,2.5c-0.6-0.2-1.2-0.3-1.9-0.5c-5.2-1.3-9.7-0.1-12.9,4.2c-6.6,8.9-13.1,17.8-19.4,26.9
	c-2.4,3.4-3.3,7.5-2.6,11.7c1.8,10.8,6.9,19.8,17,24.4c7.5,3.4,15.8,5.5,23.8,7.6c6.5,1.7,12.7-0.1,17.7-4.6
	c4.2-3.7,8.4-7.7,12-12.1c9.2-11.4,17.9-23.3,27.2-34.7c7.4-9.1,8.3-9.2,19.1-4.8c5.9,2.4,11.5,2.1,17-1c2.2-1.3,4.4-2.6,6.6-4
	c7.8-5.2,16.1-9.2,25.6-9.9C178.7,147.4,185.7,147.8,194.5,147.8L194.5,147.8z"/>
<path class="st0" d="M201.6,776.6c-0.4-0.3-0.9-0.6-1-1c-1.6-3.8-3.4-7.5-4.6-11.3c-2.8-8.9-0.1-15.9,8.2-22.5
	c3.5-2.8,7.3-5.4,10.6-8.3c3.7-3.3,3.6-7-0.6-9.5c-3.5-2.1-7.6-3.3-11.6-4.2c-4.1-1-8.6-1-12.7-2c-16.2-3.9-25.6-14.4-27.4-31.7
	c-1.4-12.6-1.1-25.3,2.5-37.7c3.5-12.3,10.5-17.6,23.3-17.2c2.7,0.1,5.4,0.5,8,1.1c12.8,3.1,18.6,11.5,16.4,24.5
	c-1,6-3.1,11.8-4.9,17.6c-1.2,3.9-2.2,7.8,0.9,11.2c3.3,3.6,7.6,3.9,11.9,2.6c7.1-2.1,14.1-4.6,21.1-6.8c3.9-1.2,7.8-2.5,11.8-3.1
	c5.9-0.9,9.4,1.3,11.6,6.8c1.1,2.9,2.2,5.9,2.7,8.9c1.9,9.7,6.9,17.3,14.5,23.3c4.2,3.3,8.5,6.7,13.4,8.7c8.9,3.6,17.4,0.5,25.7-3.4
	c9.2-4.4,18.5-8.5,27.8-12.6c15.5-6.7,30.2-4.5,43.5,5.3c9.9,7.3,20.7,11,32.7,12c3.1,0.2,6.1,1.3,9,2.1c0.9,0.2,1.6,1,2.2,2.2
	c-0.5-0.1-1-0.1-1.4-0.2c-5.1-1.1-10.2-2.7-15.4-3.3c-8.7-1-16.7-3.7-23.9-8.8c-4.2-2.9-8.6-5.6-13.2-7.9c-9.7-4.8-19.8-5-29.7-1.1
	c-10.3,4-20.3,8.7-30.3,13.3c-6.1,2.8-12.2,5.3-19,5.3c-9,0-15.8-4.5-22.3-10.1c-7.9-6.8-13.4-15-15.3-25.4
	c-0.4-2.1-1.1-4.2-1.8-6.2c-2.1-6.4-5.8-8.8-12.3-7.1c-7.9,2.1-15.6,4.9-23.4,7.3c-3.4,1-6.8,2.2-10.2,2.7c-9.2,1.5-15.1-5-12.8-14
	c1.5-6,3.9-11.8,5.2-17.9c1.6-7.2,1.1-14.2-4.9-19.6c-6.7-6.1-22.2-8-30.2-3.7c-4.3,2.3-6.8,6.3-8.3,10.7c-4.9,14.8-5.6,30-2.6,45.2
	c3.2,15.7,13.9,24.2,30.9,26.5c5.4,0.7,10.7,2,16,3.3c1.5,0.4,2.9,1.5,4,2.5c4.1,3.7,4.3,7.5,0.2,11.3c-3.3,3-7.1,5.6-10.6,8.4
	c-9.6,7.8-11.2,14.5-6.3,25.7c1.1,2.6,2.1,5.2,3.2,7.8C202.2,776.3,201.9,776.4,201.6,776.6L201.6,776.6z"/>
<path class="st0" d="M436.6,33c-1,0-1.9,0-2.9,0c-12.1-0.7-22.3,3.2-30.5,12.4c-2.4,2.7-5,5.4-8,7.5c-10,6.7-21.6,1.3-23.3-10.7
	c-0.2-1.7-0.4-3.3-0.6-5.2c-0.8,0.2-1.3,0.2-1.8,0.4c-4.8,2.4-9.5,4.9-14.4,7.2c-5.7,2.8-10,7-11.5,13.2c-2.5,10.5-5,21.1-6.3,31.8
	c-1.5,12,4.5,20.6,15,26.1c3.8,2,7.7,3.9,11.5,5.8c6.2,3.1,9.1,8.1,9.3,15c0.3,9.6,0.8,19.3,1.3,28.9c0.4,6.7-1.4,12.9-3.8,19.1
	c-1.9,5-3.6,10.4-4.2,15.7c-0.8,5.9,1.8,11.2,5.5,15.7c3,3.8,7.1,5.6,11.7,3.9c11.2-4.2,22.5-8.5,33.5-13.3
	c6.6-2.8,8.7-8.4,7.6-15.4c-0.8-5.4-1-10.9,3.6-15c2.4-2.1,5.2-3.8,7.8-5.7l0.8,1.1c-0.8,0.6-1.6,1.4-2.5,1.9
	c-6.6,3.6-9.6,9-8.3,16.5c1.9,11-2.4,15.8-11.7,19.7c-9,3.8-18.1,7.5-27.2,10.8c-9.4,3.4-16,0.1-20.2-9.4
	c-3.9-8.7-2.6-17.1,1.3-25.2c4.3-8.8,5.1-17.7,4.1-27.3c-0.8-7-0.8-14.1-0.8-21.2c0-7.5-3.4-12.3-10-15.4c-4.7-2.1-9.3-4.5-13.6-7.3
	c-8.3-5.3-12.7-13.1-12.4-23c0.4-12.3,2.9-24.3,7-35.9c2-5.7,6.1-9.8,11.5-12.5c5.1-2.5,10.1-5.1,15.2-7.7c2.4-1.2,3.2-0.5,3.8,2.3
	c0.8,3.6,1.2,7.5,3,10.6c3.2,5.7,10,7.5,15.7,4.2c3.7-2.1,7.1-5.2,10-8.4c8.4-9.1,18.6-13.5,31-13c1.3,0,2.5,0.4,3.8,0.6
	C436.7,32.3,436.7,32.7,436.6,33L436.6,33z"/>
<path class="st0" d="M436.8,25.2c-0.5,0.2-0.9,0.5-1.4,0.5c-9.4,1.2-18.8,2.2-28.1,3.6c-6.2,1-11.1-0.8-15.5-5
	c-3.2-3-6.6-5.8-10.3-8c-4.9-2.9-9.9-2.1-14.4,1.4c-1.2,0.9-2.3,2-3.4,3c-6.1,5.8-12.1,11.9-18.4,17.5c-5.2,4.6-8.1,10.2-9.6,16.8
	c-2.4,10.7-4.6,21.4-6.5,32.2c-2.7,15.2,2.7,26.9,15.6,35.3c7.6,5,15,10.3,17.1,20c2.5,11.7,3,23.4-1.5,34.9
	c-1.3,3.4-2.7,6.8-3.9,10.2c-3,8.4-1.5,16.3,2.7,23.9c4.4,8.1,9.1,16.1,16.2,22.3c3.1,2.6,5.6,3,8.3,0.2
	c10.2-10.2,23.1-15.4,36.4-19.9c6-2,11.9-4.2,16.4-9c0.2,0.2,0.4,0.4,0.6,0.5c-0.6,0.8-0.9,2-1.7,2.4c-4.1,2.3-8.1,4.7-12.4,6.6
	c-4.5,2-9.2,3.6-13.9,5.2c-8.7,3-16.2,7.8-22.8,14.1c-4.8,4.6-8.7,4.6-13.4-0.3c-7.9-8.2-14-17.7-18-28.3
	c-2.5-6.8-1.6-13.5,0.8-20.2c2.6-7.2,6.4-14.2,6.3-22.2c-0.1-6.6-0.5-13.3-1.5-19.8c-0.9-5.8-4.3-10.5-9-14
	c-3.5-2.7-7.1-5.2-10.7-7.8c-10.2-7.6-15.2-17.8-13.3-30.2c2.1-13.8,5.2-27.4,8.3-41c1.1-5.1,4.4-9.2,8.3-12.8
	c6.4-6,12.9-12,19.1-18.1c7.4-7.3,15-8.1,23.3-1.8c2.6,1.9,4.9,4.2,7.2,6.4c3.7,3.6,7.9,4.9,13,4.1c7.5-1.2,15-2.4,22.6-3.4
	c2.5-0.3,5.1,0,7.6,0C436.8,24.6,436.8,24.9,436.8,25.2L436.8,25.2z"/>
<path class="st0" d="M117.2,753.1c0.6-7.4,1.1-12.5,1.5-17.6c0.3-4.8-0.7-6.4-5.3-7.9c-11.1-3.6-22.4-5.1-33.8-1.6
	c-6.2,1.9-11.4,5.3-15.2,10.4c-9.5,12.7-28.1,14.7-40.9,6.8C15,737.9,8,731.6,5,721.8c-3.2-10.2,0.8-16.8,11.4-18.7
	c9.5-1.7,19.1-2.7,28.5-5c9.3-2.2,18.2-5.8,27.3-8.5c15.4-4.5,29.3-1.5,41.2,9.6c5.7,5.3,9.1,11.8,9.8,19.4c0.5,5.3,2.8,9,7.4,11.5
	c12.1,6.7,13.9,20.4,10.9,30.2c-1.3,4.2-3.4,7.9-7.1,10.5c-5.7,4-12.4,2.3-14.6-4.4C118.2,761.4,117.8,756.1,117.2,753.1
	L117.2,753.1z M119,749.8l-0.6,0.1c0.8,5,1,10.3,2.6,15.1c2.4,7.5,9.2,8.3,14.7,2.5c7.5-7.9,8.7-27.6-5-35.6c-5.2-3-8.2-6.8-9.1-13
	c-2.3-15.5-15.2-27.4-30.7-29.5c-8-1-15.6,0.4-23.1,2.9c-16.4,5.5-32.8,11.1-50.2,12c-1.1,0-2.1,0.4-3.1,0.6c-7,1.9-9.7,6-8.6,13.1
	c0.3,1.8,0.7,3.6,1.4,5.3c5,11.9,14.5,19,26.5,22c10.8,2.7,20.9,0,28.5-9.1c1.6-1.9,3.3-3.7,5.2-5.3c14.8-12,31.1-9.8,47.7-4.7
	c4.1,1.3,5.5,4.4,5.2,8.5C119.8,740,119.4,744.9,119,749.8L119,749.8z"/>
<path class="st0" d="M436.6,595.7c-8.1-5.7-16.8-4.6-25.5-2.3c-10.8,2.8-21.5,5.8-32.3,8.9c-8.2,2.3-15.7,6.4-22.6,11.4
	c-12.8,9.3-27,14.9-42.6,15.8c-12.3,0.8-20.2,6.2-25.8,16.9c-4.2,8-6.6,15.8-5,24.7c1.1,6.1,2.4,12.2,4.5,18
	c3.6,10.2,21.2,15.4,29.1,12.6c3.7-1.3,6.5-3.6,8.7-6.8c1.3-1.9,2.8-3.9,4.5-5.4c4-3.6,9.5-4.7,13.7-1.7c8.3,6,17.7,8.5,27.4,10.6
	c9.4,2.1,18.2,5.8,26.4,10.9c10.7,6.6,22.2,10.1,34.7,10.4c1.7,0,3.3,0.3,5,0.5c0,0.3,0,0.7,0,1c-0.8,0.1-1.6,0.2-2.4,0.2
	c-13.4-0.2-25.9-3.2-37.4-10.4c-9.7-6.1-20.4-10-31.6-12.3c-7.5-1.5-14.6-3.9-21-8.6c-5.6-4.1-11.9-2.7-16.1,2.9
	c-0.5,0.6-0.8,1.3-1.2,1.9c-5.4,8-12.2,10.6-21.7,8.5c-12.8-2.8-20.6-10.3-22.7-23.5c-1.2-7.7-2.9-15.3-0.8-23
	c2.3-8.8,7.4-16.2,13.3-22.9c2.9-3.3,7.1-4.3,11.3-4.8c12-1.5,23.9-3,34.9-8.4c4.3-2.1,8.5-4.6,12.5-7.3
	c8.9-6.1,18.3-11.2,28.9-13.8c12-3,23.9-6.3,35.9-9.2c5.5-1.3,10.9-0.5,16,2.2c1,0.5,1.9,1.4,2.8,2.1L436.6,595.7L436.6,595.7z"/>
<path class="st0" d="M347.4,268.3c-1.1,5.5-2.6,15-5,24.2c-2.5,9.5-8.2,13.1-18.1,12c-12.7-1.4-23.2-7.2-32.1-16.2
	c-1.1-1.1-2.3-2.3-3.3-3.5c-6.3-7.9-14.6-12.6-24.1-16c-6.4-2.2-12.5-5.1-18.5-8.2c-2.4-1.3-4.5-3.7-6.1-6c-3.1-4.4-2-7.6,2.9-9.7
	c3.8-1.6,7.6-3,11.4-4.4c10.5-3.9,17-11.9,22.3-21.3c3.8-6.7,7.8-13.3,11.9-19.9c1.1-1.7,2.4-3.3,3.9-4.7c3-2.7,5.1-2.1,6.6,1.6
	c1.8,4.5,3.3,9.1,5.3,13.4c3.1,6.5,6.7,12.8,12.7,17.2c2.9,2.1,6.1,4,9.5,5.2C340.7,237.2,347.6,243.2,347.4,268.3L347.4,268.3z
	 M346,266.9c-0.4-22.3-6.3-28.5-19.1-32.9c-7.1-2.5-13.3-6.4-17.2-12.9c-3.9-6.5-7-13.4-10.5-20.2c-1.1-2.1-2.2-4.2-3.3-6.3
	c-1.9,1.7-4.2,3-5.5,5c-4.8,7.5-9.4,15.1-13.7,22.9c-5.6,9.9-13.5,16.8-24.3,20.4c-3,1-6,2.2-9,3.5c-3.4,1.5-4.2,3.4-2.2,6.6
	c1.3,2.1,3,4.3,5.1,5.6c4.1,2.5,8.4,4.9,12.9,6.4c13.2,4.3,24.8,10.6,33.9,21.7c7.7,9.3,18.3,14.3,30.3,16.2
	c9.1,1.4,14.9-1.6,17.2-10.4C343.3,282.7,344.9,272.6,346,266.9L346,266.9z"/>
<path class="st0" d="M436.8,712.9c-1.2,0.2-2.3,0.6-3.5,0.8c-10.8,1.4-20.5-1.7-30.1-6.4c-9.1-4.5-18.4-8.8-27.8-12.7
	c-7.4-3.1-14.2-7.1-19.9-12.8c-6.5-6.5-14.3-8.2-23.1-7.1c-7,0.9-14,1.9-21.1,2.2c-9.9,0.5-15.1-4.9-15.3-14.9
	c-0.1-11.5,6-21,16.7-25c5.7-2.1,11.8-3.3,17.6-5c10.6-3.1,21.2-6.3,31.8-9.4c5.4-1.5,10.7-3.3,16.2-4.2c7.2-1.1,13.2-3.8,18.5-8.9
	c5.6-5.4,12.4-8.8,20.3-9.7c7.3-0.8,13.5,1.6,18.8,6.6c0.5,0.5,0.8,1.2,1.7,2.5c-1.2-0.5-1.7-0.5-2-0.8c-9.8-9.7-21.5-8-31.6-2
	c-2.7,1.6-5.2,3.7-7.6,5.9c-4.1,3.7-8.7,6-14.1,7.2c-9.4,2.2-18.6,5.1-27.9,7.6c-12.2,3.3-24.5,6.5-36.7,9.9
	c-7.6,2.1-14.3,6-17.4,13.6c-1.7,4-2.6,8.7-2.5,13.1c0,7.8,5,12.3,12.9,12.1c5.1-0.1,10.2-1,15.4-1.5c3.8-0.4,7.7-0.8,11.5-1
	c6.7-0.4,12.7,1.6,17.4,6.3c7.5,7.4,16.5,12.1,26.1,16c9,3.6,17.7,8.2,26.5,12.4c9,4.2,18.3,6.1,28.2,4.3c0.3,0,0.6,0.1,0.9,0.2
	C436.7,712.4,436.8,712.6,436.8,712.9L436.8,712.9z"/>
<path class="st0" d="M327.3,339.3c9.4,1.6,18.9,2.7,28.1,5c11.6,2.9,22.3,1.9,33.2-2.9c7.2-3.2,15.1-4.7,22.7-7
	c1-0.3,2.1-0.3,3.2-0.4c6.1-0.3,7.9,2.1,6.4,8.1c-2.1,8.1-4.5,16.2-5.6,24.4c-1.8,13.3-8.5,23.4-18.5,31.7c-3.5,2.9-6.7,6-10.5,8.5
	c-10.6,7.1-21.3,5.6-29.6-4.1c-5.7-6.7-10.8-13.9-16.6-20.4c-4.8-5.4-10.4-9.9-15.2-15.3c-3.4-3.9-6.6-8.3-8.7-13
	c-4.1-9.2-0.7-13.9,9.4-14.1c0.5,0,1.1,0,1.6,0C327.2,339.7,327.3,339.5,327.3,339.3L327.3,339.3z M327.9,341c0,0.2-0.1,0.4-0.1,0.7
	c-1.6,0-3.2-0.1-4.8,0c-6,0.6-8.4,3.9-6.2,9.5c1.7,4.2,3.9,8.5,6.8,11.9c5.5,6.4,12.1,11.9,17.7,18.2c5.9,6.6,11,13.7,16.7,20.4
	c8,9.4,18.8,10.6,28.6,3.1c4-3,7.6-6.6,11.5-9.8c9.8-8,14.3-18.6,16.1-30.9c1.1-7.3,3.2-14.4,5-21.6c1.5-5.7,0.4-7.2-5.6-6.7
	c-0.9,0.1-1.7,0.1-2.5,0.4c-7.3,2.2-14.9,3.7-21.8,6.8c-11.1,4.9-22,6.1-33.8,3C346.5,343.5,337.1,342.5,327.9,341L327.9,341z"/>
<path class="st0" d="M2,688.4c3.1-0.1,6.3-0.5,9.4-0.1c11.8,1.4,23.6,2.2,35-1.9c5.3-1.9,10.7-4,16.1-5.7c10.5-3.2,21-6,31.5-9
	c3.1-0.9,6.2-1.8,9.1-3.2c5.5-2.7,7.3-6.7,4.7-12.2c-3.4-7.1-7.1-14.3-11.8-20.5c-10.1-13.2-16.7-27.7-19.8-43.9
	c-0.8-3.8-1.9-7.8-3.9-11.2c-1.8-3-4.4-5.9-7.4-7.7c-7-4.1-12.2-3-17.4,3.2c-3.4,4.1-6.4,8.6-9.4,13c-7.4,10.9-17.3,18.7-29,24.4
	c-2,1-4.4,1.2-6.7,1.8c-0.1-0.4-0.2-0.7-0.3-1.1c1.9-0.6,3.8-0.9,5.6-1.7c11.9-5.5,21.9-13.5,29.3-24.4c2.5-3.7,5-7.5,7.8-11.1
	c8.7-11.3,23-9.8,29.2,3.2c1.7,3.7,3.1,7.6,3.8,11.6c3.1,16,9.6,30.3,19.7,43.2c3.8,4.9,6.7,10.5,9.9,15.8c0.7,1.2,1.2,2.5,1.6,3.8
	c2.9,8.3,0.9,13.2-7.5,16.2c-5.9,2.1-12.3,3-18.3,4.9c-10.7,3.4-21.4,7-32,10.7C40,690.4,28.7,692,17,690.4
	c-4.9-0.7-9.9-0.6-14.9-0.9C2.1,689.1,2,688.8,2,688.4L2,688.4z"/>
<path class="st0" d="M437.4,626.3c-2.9-3.6-4.9-6.8-7.6-9.3c-5.6-5.3-12.5-4.5-16.9,1.7c-1.9,2.6-3.4,5.5-5,8.3
	c-3.4,6-8.5,9.3-15.5,9c-1.9-0.1-3.9-0.1-5.8-0.5c-11.7-2.7-23.2-1.9-34.8,0.8c-9.2,2.1-18.5,3.7-27.6,6.1c-3.7,1-7.1,3.4-10.2,5.8
	c-3.1,2.5-4.4,6.1-3.3,10.2c1.1,4,4.2,6.1,8,6.5c4.5,0.6,9.2,0.6,13.8,0.5c6.9-0.1,13.9-0.8,20.1,2.9c3.5,2.1,6.9,4.5,9.8,7.3
	c6.6,6.5,14.3,11.3,22.8,14.9c9,3.8,17.7,8.2,26.8,11.8c4.3,1.7,9.1,2.8,13.7,2.8c3.7,0,7.4-2,11.3-3.1c-0.4,0.4-0.9,1.4-1.6,1.9
	c-4.5,2.9-9.5,3.8-14.5,2.6c-5.3-1.3-10.4-3.2-15.5-5.3c-8.4-3.5-16.6-7.5-25-11.2c-7.1-3.1-13.2-7.5-18.6-13
	c-7.2-7.3-15.6-11-26-10.2c-5,0.4-10.1,0.4-15.1,0.1c-5.2-0.3-9.7-2.4-11.3-7.9c-1.5-4.9,0.6-10.2,5.8-13.5
	c3.7-2.3,7.7-4.5,11.9-5.4c13.8-2.9,27.6-5.3,41.5-7.5c3.9-0.6,8.1,0.3,12.2,0.6c2,0.2,4,0.7,6,1c11.6,1.8,16-0.5,21.7-10.8
	c1.6-3,3.6-5.9,6-8.2c3.8-3.6,9.5-4.1,13.6-0.9c3.2,2.4,5.7,5.7,8.3,8.8C437,623.4,437,624.6,437.4,626.3L437.4,626.3z"/>
<path class="st0" d="M351,776.4c0.1-5.1,1.8-9.8,3.9-14.3c3.5-7.7,9.7-13,16.3-17.9c3.8-2.8,7.7-5.5,11.4-8.4
	c5.9-4.8,5.8-9.5-0.2-14.3c-6.1-4.9-13-5.9-20.4-4.2c-10.5,2.5-20.6,6.3-29.7,12.2c-12.9,8.2-26.6,11.5-41.5,7.8
	c-5.6-1.4-10.8-4.5-16.3-6.8c-5.2-2.2-10.5-4.4-15.8-6.3c-3.1-1.1-5.6-0.2-7.2,3c-4.4,8.3-12.4,12.2-20.2,16.3
	c-4.7,2.5-9.4,5.2-13.7,8.3c-6,4.5-7,9.4-3.7,16.1c1.5,2.9,3.4,5.7,4.8,8.9c-0.6-0.4-1.4-0.7-1.8-1.2c-1.4-1.9-2.8-3.8-3.9-5.9
	c-4.3-8.3-3.3-14.2,4.4-19.7c5.4-3.9,11.5-7.1,17.5-10.2c6.5-3.4,12.2-7.6,15.8-14.2c1.5-2.8,4-4.2,7-3.2c6.2,2.2,12.8,4,18.5,7.2
	c12.3,6.9,25.1,9.4,38.8,5.8c5.2-1.4,10.2-3.9,14.9-6.6c9.7-5.5,19.7-10.1,30.5-12.9c9.1-2.4,17.5-1.2,24.5,5.7
	c5.1,5,5,10.1-0.5,14.5c-4.8,3.9-9.9,7.5-14.9,11.2c-9.1,6.8-15,15.5-16.7,26.9c-0.1,0.8-0.5,1.5-0.8,2.2
	C351.7,776.5,351.4,776.4,351,776.4L351,776.4z"/>
<path class="st0" d="M110.4,1.4c0.8,0.5,1.8,0.9,2.5,1.5c11.4,10.4,13.7,24,5.4,37.1c-3.9,6.1-9.4,11.1-14,16.7
	c-2.6,3.1-5.1,6.3-7.2,9.8c-2.5,4.2-2.1,8.6,0.6,12.8c6.5,10,17.3,12.4,27.3,5.7c2.7-1.8,5.3-3.8,7.3-6.3c7-8.8,15.8-15,25.9-19.6
	c8.7-3.9,16.5-9.3,23.4-15.7c8.6-8,18.9-10.7,30.3-9.9c4.9,0.3,9.8,0.8,14.8,1.2c3.7,0.3,4.3-0.3,4.7-4c1-8.6,1.9-17.3,3-25.9
	c0.1-1.1,0.5-2.1,0.8-3.1c0.3,0.1,0.6,0.1,0.9,0.2c-0.1,0.9-0.1,1.7-0.2,2.6c-1,8.7-2,17.5-3,26.2c-0.5,5-1.4,5.9-6.5,5.5
	c-6.2-0.4-12.4-1-18.6-1.2c-9.1-0.3-17.2,2.5-23.9,8.7c-9.1,8.3-19.3,14.6-30.4,19.7c-7.8,3.5-13.8,9.3-19.3,15.7
	c-3.8,4.4-8.1,8-13.6,10c-10.3,3.7-21.8-1.5-25.7-11.7c-2.3-6.2-0.1-11.5,3.7-16.2c4.1-5,8.7-9.5,13.1-14.2c5.2-5.6,8.6-12,9.6-19.6
	c1.1-7.8-0.8-14.7-6.6-20.3c-1.6-1.6-3.3-3-5-4.5C109.9,2.1,110.1,1.8,110.4,1.4L110.4,1.4z"/>
<path class="st0" d="M323.8,533.9c0.6-8.3-1.5-17-4.9-25.5c-5-12.8-1.2-19.9,12.2-22.9c9.2-2.1,18.4-0.5,27.5,1.1
	c2.9,0.5,5.7,1.2,8.5,2c11,3,15.4,8,16.7,19.4c1.2,10,1.8,20.1,3.3,30.1c1.1,7.3,2.9,14.5,4.9,21.6c3.3,11.2,1.2,15.5-10,18.5
	c-7.5,2.1-15.1,1.8-22.6,0c-8.3-2.1-16-5.5-22.9-10.7c-8.5-6.5-12.7-15.2-12.8-25.9C323.7,539.3,323.8,537.1,323.8,533.9
	L323.8,533.9z M373,578.4c3.4-0.8,8.7-1.7,13.6-3.5c4.7-1.7,6-4.9,5-9.8c-0.3-1.7-0.9-3.3-1.3-5c-1.6-7.1-3.7-14.2-4.7-21.3
	c-1.6-11-2.5-22.2-3.9-33.2c-1-7.4-5.2-12.2-12.4-14.5c-9.6-3.1-19.4-4.7-29.5-4.8c-3.9,0-7.9,0.7-11.7,1.8
	c-9,2.7-11.8,8.4-8.8,17.4c1.4,4.2,3.5,8.2,4.1,12.5c1.1,7.7,1.4,15.6,1.7,23.4c0.3,7,1.6,13.5,6.2,18.9
	C341.8,572.2,355.6,577,373,578.4L373,578.4z"/>
<path class="st0" d="M2.2,677.5c2,0.4,4,0.7,5.9,1.3c5.2,1.5,10.4,3.5,15.7,4.6c9.5,2,18.5-0.7,27.3-4.2c10.8-4.3,21.5-8.6,32.2-13
	c11.4-4.7,14.3-12.6,8.6-23.8c-2.1-4-4.4-7.9-7.2-11.4c-6-7.7-9.8-16.2-12.1-25.7c-1.2-5.2-3-10.3-5.6-15c-3.4-6.2-9.4-7.2-15.4-3.3
	c-2,1.3-3.9,2.7-5.4,4.5c-9.2,11-20.9,19-32.3,27.5c-2.4,1.8-4.8,3.6-7.4,5.2c-1.2,0.8-2.8,1-4.1,1.1c7.4-5.4,15-10.5,22.1-16.2
	c7-5.7,13.4-12,20-18c1.9-1.7,3.7-3.6,5.8-5.1c6.6-4.8,14.3-3.4,18.1,3.8c2.5,4.6,4.3,9.6,5.5,14.7c2.2,9.7,6.4,18.3,12.3,26.3
	c3.6,4.9,6.7,10.3,8.8,15.9c3.3,8.8,0.1,15.7-8.4,19.6c-7.9,3.6-16.1,6.5-24.2,9.8c-5.2,2.1-10.3,4.3-15.5,6.3
	c-12.3,4.8-24.4,3.8-36.4-1c-2.8-1.1-5.7-1.9-8.6-2.8C2,678.1,2.1,677.8,2.2,677.5L2.2,677.5z"/>
<path class="st0" d="M117.8,556.1c9.3,1,18.6,1.8,27.8,3c6.7,0.8,11.9,4.4,15,10.4c4.1,7.9,8.2,15.8,11.4,24.1
	c4.7,12.2-2.1,22.4-15.1,23.4c-1.1,0.1-2.1,0.2-3.2,0.2c-9.9-0.4-18.9,2.2-26.9,8.1c-0.7,0.5-1.4,0.9-2.2,1.3
	c-8.5,4.7-15.5,3.5-21.9-3.8c-9.7-11.1-14.3-24.3-15.1-38.9c-0.3-6.1-0.2-12.2,0.3-18.3c0.5-5.8,3.3-8.6,9.1-9
	c6.8-0.5,13.7-0.1,20.6-0.1C117.7,556.4,117.7,556.2,117.8,556.1L117.8,556.1z M113.1,557.5c0,0.1,0,0.1,0,0.2c-4.2,0-8.4,0-12.6,0
	c-0.5,0-1.1,0.1-1.6,0.1c-6.8,0.8-9.5,2.9-9.6,9.7c-0.1,8.9,0.1,17.8,1.3,26.6c1.5,10.5,6.2,19.8,13.3,27.8
	c5.9,6.7,11.6,7.8,19.5,3.7c1.7-0.9,3.4-1.8,5-3c6.5-4.6,13.8-6.7,21.8-6.8c2.6,0,5.2-0.1,7.7-0.3c7.2-0.7,12.5-4.8,13.6-11.2
	c0.6-3.4,0.2-7.4-1.1-10.7c-2.9-7.4-6.3-14.5-9.9-21.6c-3.7-7.2-9.8-11.2-17.9-11.9C132.7,559.2,122.9,558.3,113.1,557.5
	L113.1,557.5z"/>
<path class="st0" d="M1.8,148.6c0-0.7-0.1-1.5,0.1-2.1c3.5-9.7,6.9-19.4,10.6-29c2.3-5.8,4.5-11.7,8-16.7c5.2-7.7,13.7-8.6,21.1-3.1
	c2.9,2.2,5.2,5,7.8,7.6c1.6,1.6,3,3.4,4.7,4.8c3.3,2.7,6.3,2.3,8.9-1.1c1.1-1.4,2.1-3.1,2.6-4.8c2.5-8,5.3-15.9,7-24.1
	c2.6-12.6-3.2-22.5-11.8-31.1c-3.1-3-7.2-2.9-11.3-2.6c-3.3,0.3-6.6,0.7-10,0.8c-5.9,0.2-10.5-2.4-13.4-7.3
	c-2.5-4.2-4.7-8.7-6.8-13.1c-3.7-7.9-8.8-14.5-16.9-18.2C2.2,8.4,2,8,2.1,7c1.1,0.4,2.2,0.7,3.2,1.2C12.1,12,16.6,17.7,20,24.4
	c2.1,4.2,4.1,8.5,6.3,12.7c3.4,6.5,8.8,9.4,16.2,8.6c3-0.3,6-0.7,9-0.9c5.4-0.4,9.9,1.5,13.4,5.7c8.8,10.9,13,22.8,7.9,36.8
	c-1.9,5.1-3,10.5-4.8,15.7c-0.9,2.5-2.2,4.9-3.7,7.1c-2.7,3.7-6.7,4.3-10.4,1.5c-2-1.5-3.5-3.4-5.3-5.2c-2.6-2.6-4.9-5.5-7.8-7.6
	c-6.4-4.8-13.8-4.2-18.4,2.4c-3.4,4.9-5.8,10.7-8,16.3c-3.8,9.6-7.1,19.4-10.6,29c-0.3,0.8-0.8,1.4-1.2,2.2
	C2.3,148.6,2,148.6,1.8,148.6L1.8,148.6z"/>
<path class="st0" d="M431.2,682.8c-0.3,1.7-0.4,4-1.1,6.1c-1.6,5.2-5.2,7.6-10.7,7.4c-1.1,0-2.2,0-3.2-0.3c-14.6-4-29-8.8-41.3-17.9
	c-4.4-3.2-8-7.4-11.9-11.3c-7.1-7-15.1-11.6-25.4-11.1c-1.5,0.1-3.1,0-4.4-0.5c-1.1-0.4-2.8-1.5-2.9-2.4c-0.1-1,1.3-2.2,2.3-3
	c1-0.7,2.4-1,3.6-1.3c8.1-1.7,16.1-3.4,24.2-5c7.6-1.5,15.2-0.9,22.6,1.1c9.5,2.5,19.1,3.9,29,2.3c5.5-0.9,9,1.5,11.2,6.5
	C427.3,662.4,430.5,671.9,431.2,682.8L431.2,682.8z M331.7,652c0,0.4,0.1,0.9,0.1,1.3c2,0.3,4,0.9,6,0.8c10.3-0.5,18.4,4,25.6,10.9
	c4.1,3.9,7.9,8.2,12.4,11.7c10.8,8.5,23.8,12.6,36.7,16.7c12.6,4,18.2-1,16.9-14.2c-0.9-8.6-3.6-16.8-7.2-24.6
	c-2.6-5.8-4.1-6.9-10.4-6.1c-9.8,1.2-19.2-0.3-28.7-2.3c-5.8-1.2-12-2.3-17.8-1.6c-10.1,1.2-20,3.7-30,5.8
	C334,650.5,332.9,651.4,331.7,652L331.7,652z"/>
<path class="st0" d="M32.7,679.2c-11.2-0.1-17.8-5.9-19-16.9c-0.7-6.3-1.3-12.6-2.3-18.8c-1.9-11.1,2.9-19.2,11.3-25.6
	c6-4.6,12.5-8.7,18.7-13.1c3.2-2.2,6.1-4.8,9.4-6.7c5.6-3.2,10.4-1.7,12.8,4.3c1.5,3.5,2.3,7.4,3,11.1c1.3,7.3,4.4,13.5,9.6,18.9
	c2.9,3,5.4,6.5,7.3,10.1c3.3,6.4,1.8,12.6-4.3,16.3c-7.4,4.5-15.2,8.4-22.9,12.3c-5.3,2.6-10.7,4.9-16.2,7
	C37.7,678.8,35.1,678.8,32.7,679.2L32.7,679.2z M12.6,637.8c0.9,8.7,1.9,16.6,2.6,24.5c0.8,8.6,5.2,13.7,13.7,14.9
	c3.3,0.5,7,0.4,10.2-0.6c14.2-4.2,26.7-12.2,39.5-19.3c5.8-3.2,6.5-9.6,3-15.6c-1.7-2.9-3.8-5.8-6.2-8.1c-5.6-5.6-9-12.1-10.2-20
	c-0.6-3.6-1.5-7.2-2.8-10.5c-2.2-5.3-6.3-6.6-11.1-3.4c-6.1,4-12,8.2-17.9,12.6c-5,3.7-10,7.3-14.6,11.6
	C14.5,627.6,12.5,632.8,12.6,637.8L12.6,637.8z"/>
<path class="st0" d="M136.6,1.8c0.1,0.8,0.3,1.5,0.2,2.3c-1.8,15.2-2.9,30.5-7.3,45.4c-1.5,4.9-3.9,8.7-8.6,11
	c-2.5,1.2-4.7,2.9-7,4.5c-0.7,0.5-1.2,1.2-1.7,1.9c-2.1,2.9-2.3,5.8-0.5,7.6c1.8,1.8,5.5,1.9,7.9-0.6c2.5-2.6,4.7-5.6,6.3-8.8
	c2.3-4.5,5.7-6.9,10.5-8.1c8.2-2.1,16.6-3.8,24.2-7.3c6.5-3,12.3-7.8,17.6-12.7c7.3-6.7,15.3-11.5,25.1-12.7
	c12.4-1.6,19.5-8.5,21.7-20.6c0.1-0.6,0.4-1.2,0.8-2.2c0.4,0.8,0.9,1.2,0.8,1.5c-1.7,7.7-3.9,15.3-11.5,19.1c-4.1,2-8.7,3.1-13.2,4
	c-8.4,1.6-15.7,5.2-21.6,11.3c-10.8,11.3-24.1,17.7-39.4,20.1c-7.2,1.1-12.4,4.4-15.5,11.4c-1.2,2.9-3.9,5.3-6.5,7.3
	c-2.8,2.1-6.6,1.5-8.6-0.6s-2.4-5.5-0.2-8.3c2-2.6,4.5-5.2,7.3-6.5c6.9-3.1,10.4-8.3,11.5-15.5c2-13.4,4.1-26.7,6.1-40.1
	c0.2-1.2,0.4-2.3,0.6-3.5C136,1.8,136.3,1.8,136.6,1.8L136.6,1.8z"/>
<path class="st0" d="M263.1,776.7c-0.5-0.1-1.1-0.1-1.4-0.4c-4.3-3.9-9.8-5.1-15.1-6.7c-3.5-1-7-2.1-10.1-3.9
	c-4.8-2.7-5.1-7.7-0.8-11.1c2.7-2.2,5.9-3.9,9.1-5.4c3.8-1.8,7.7-3.2,11.6-4.9c6.3-2.8,12.8-3.3,19.5-2c11.2,2.2,22.5,2.7,34,2.4
	c10.6-0.3,20.5-3.1,29.9-7.9c4.8-2.5,10.1-4,15.2-6c0.7-0.3,1.5-0.5,2.2-0.3c1.8,0.5,4.1,0.7,5,2c0.6,0.9-0.4,3.5-1.4,4.8
	c-2.4,3-5.3,5.6-7.9,8.5c-6.1,6.8-8.9,15.3-12.4,23.5c-1,2.5-2.1,5-3.1,7.5c-0.3-0.1-0.6-0.2-0.8-0.2c0-0.5-0.2-1.2,0-1.6
	c3.5-7.9,6.6-16.1,10.8-23.7c2.6-4.7,6.9-8.4,10.3-12.7c1.3-1.6,2-3.7,3-5.6c-2.2-0.1-4.5-0.8-6.5-0.3c-3.6,0.9-7.3,2-10.5,3.9
	c-15.6,9.3-32.6,10.8-50.1,9.5c-6.3-0.5-12.6-1.5-18.8-2.4c-6.1-0.9-12-0.5-17.7,2c-5.9,2.6-11.8,5.2-17.5,8.1
	c-2.6,1.3-5.5,3.2-5.1,6.8s3.5,4.8,6.3,5.8c3.5,1.3,7.2,2,10.8,3.1C255.9,770.7,260.2,772.4,263.1,776.7L263.1,776.7z"/>
<path class="st0" d="M298,458.2c-8.1-0.6-14.5-1.1-20.8-1.7c-5.5-0.5-9.6-3.5-12.4-8.2c-2.9-5-5.7-10.1-8.3-15.3
	c-1.3-2.6-2.3-5.4-2.9-8.2c-1.9-9.8,2.2-17,12.2-21c9.8-3.9,20-5.7,30.6-5.2c7.4,0.3,12.5,3.9,15.3,10.8c2.2,5.5,4.8,10.8,7.1,16.2
	c2.9,6.6,4.9,13.3,3.2,20.6c-1.3,5.3-4.4,9-9.6,10.2C307.2,457.6,301.7,457.8,298,458.2L298,458.2z M294.4,456.4c0-0.2,0-0.3,0-0.5
	c4.7,0,9.5,0.4,14.1-0.1c8.3-0.9,13.1-6.6,12.6-15c-0.2-3.6-0.9-7.3-2.2-10.6c-3-7.6-6.4-15-9.7-22.4c-1.9-4.3-5.5-6.8-10-7.2
	c-12.9-1.2-25.3,0.5-36.7,7c-6.5,3.7-8.8,9.3-7.4,16.6c1.7,8.5,6.7,15.5,10.8,22.9c2.6,4.8,6.7,7.5,12.1,8
	C283.5,455.5,289,455.9,294.4,456.4L294.4,456.4z"/>
<path class="st0" d="M2.5,18c1.7,1.3,3.7,2.4,4.9,4c3.2,4.3,6.1,8.8,8.9,13.3c2.3,3.8,4,7.9,6.3,11.6c3.8,6,9.5,9.1,16.6,9.6
	c2.4,0.2,4.7,0.3,7.1,0.4c9.2,0.5,14.7,5,16.8,14c1.3,5.8,0.4,11.3-2.2,16.6c-2.2,4.3-5.4,5.5-9.9,4.1c-2.8-0.9-5.4-2.1-8.1-3.1
	c-12.9-4.4-23.3-0.7-30,11.4c-3.4,6.1-6.2,12.5-9.2,18.8c-0.4,0.8-0.7,1.5-1.6,2.2c0-0.8-0.3-1.8,0-2.4c4.1-7.9,7.5-16.2,12.6-23.4
	c7.2-10.2,17.5-12.4,29.1-7.8c2.4,0.9,4.8,2,7.2,2.8c4.2,1.4,6.7,0.3,8.7-3.6c2.6-5.2,3-10.7,1.6-16.3c-1.8-6.9-6.3-10.7-13.5-11.5
	c-2.6-0.3-5.1-0.5-7.7-0.5c-9.5-0.3-16.2-5-20.7-13.1c-2-3.7-3.4-7.7-5.7-11.2c-3.1-4.7-6.8-9-10.4-13.3C2.9,20,1.7,20,0.9,19.7
	C1.4,19.2,1.9,18.6,2.5,18z"/>
<path class="st0" d="M437,150.9c-0.2,0.8-0.2,1.2-0.3,1.3c-5.9,3.4-12.1,5.1-18.7,2.6c-3.5-1.4-5-4.6-3.5-8.2c0.9-2.2,2.4-4.3,4-6.1
	c1.6-2,3.7-3.6,5.4-5.5c4.4-4.6,4.5-8.6,0.3-13.3c-4-4.4-8-8.7-10-14.4c-3.7-10.6-3-20.9,2.1-30.9c2.4-4.7,4.1-9.6,4.9-14.9
	c0.4-2.8,1.5-5.9,3.2-8.2c2.9-3.8,8.1-2.7,9.5,1.9c0.6,2.1,0.9,4.5,0.5,6.6c-1,5.3-0.5,10.2,2.2,14.9c0.4,0.7,0.4,1.7,0.3,2.6
	c-3.1-4.2-5.2-8.7-4.5-14.2c0.4-2.4,0.5-4.9,0.5-7.4c0-2.4-0.9-4.5-3.6-5s-4.3,1.1-5.2,3.3c-0.8,2-1.1,4.1-1.7,6.2
	c-1.4,4.5-2.2,9.2-4.3,13.3c-6.7,12.8-7.2,30.9,5.8,43.4c1.1,1,2,2.2,2.9,3.4c2.7,3.7,2.9,7.3,0.1,11c-2.2,2.9-5,5.3-7.4,8.1
	c-2.4,2.6-5.3,5.5-3.5,9.3c1.9,3.9,6,3.8,9.6,3.4c2.9-0.4,5.8-1.5,8.6-2.3C435,151.7,435.8,151.4,437,150.9L437,150.9z"/>
<path class="st0" d="M243.3,376.7c-9.2-0.4-16.6-2.1-23.3-6c-8.1-4.6-10.2-11.8-5.9-20c3.9-7.5,9.7-12.5,18.7-11.5
	c8.4,0.9,16.4,3.5,23.5,8.2c5.4,3.6,8,8.7,7,15.2c-1.1,6.6-5.3,10.7-11.6,12.5C248.5,376,245.2,376.3,243.3,376.7L243.3,376.7z
	 M242.2,375.4c2.6-0.4,5.3-0.6,7.9-1.3c6.8-1.8,11.2-6.5,11.7-12.5c0.6-6.8-2.9-11.5-8.6-14.1c-5.7-2.6-11.7-4.6-17.8-6.3
	c-7.5-2-13.4,1-18,6.9c-6.8,8.7-4.9,17.3,4.9,22.2C228.6,373.4,235.2,375,242.2,375.4L242.2,375.4z"/>
<path class="st0" d="M71.3,376.1c-7-1-14.1-1.6-21-3c-8.2-1.6-11.4-7-9.3-15c2.4-9.3,8.2-16.4,16.1-21.8c1.4-0.9,3.9-1.3,5.5-0.7
	c8.6,3.3,16.7,7.7,21.5,16c1.8,3.2,2.9,7.2,3.1,11c0.4,7.2-3.8,11.7-10.9,12.7c-1.6,0.2-3.2,0.2-4.8,0.4
	C71.3,375.9,71.3,376,71.3,376.1L71.3,376.1z M67.4,374.1c15.1,0.4,20.2-5.1,17.8-15.7c-0.4-1.6-1-3.3-1.8-4.8
	c-4.7-8.5-12.6-13-21.2-16.3c-1.4-0.5-3.8,0-5.1,0.9c-6.5,4.8-11.6,10.9-14.1,18.7c-2.8,8.4,0.1,13.4,8.7,15
	C57.8,373.1,64.1,373.7,67.4,374.1L67.4,374.1z"/>
<path class="st0" d="M436.7,489.7c-0.5-0.2-1.1-0.4-1.6-0.6c-7-2.8-13.7-6.3-20.9-8.2c-10.4-2.8-16.8-8.9-19.9-19
	c-2.4-7.7-4.6-15.4-4.4-23.6c0.2-8.4,3.2-12,11.5-13.2c8.5-1.3,17-2.1,25.5-3.4c5.5-0.8,6.3-1.4,10.4-5c-0.5,1-0.8,2.6-1.6,3
	c-2.9,1.5-5.9,3.1-9.1,3.6c-7.8,1.3-15.8,2-23.6,3.1c-9.4,1.4-11.5,3.9-11.5,13.4c0.1,10.3,3,19.9,7.6,29c2.6,5.1,7.1,7.9,12.5,9.5
	c8,2.4,16.2,4.4,23.3,9c0.8,0.5,1.5,1.1,2.3,1.6L436.7,489.7L436.7,489.7z"/>
<path class="st0" d="M382.7,270.1c0.4-2.7,0.6-5.9,1.4-9.1c1-4.5,3.8-6.1,8.2-4.6c2.8,1,5.5,2.5,8,4c6.9,4.3,13.8,8.7,20.6,13.2
	c2.8,1.9,5.6,4,8,6.5c4.4,4.6,3.3,10.6-2.7,12.6c-4.1,1.4-8.8,1.8-13.2,1.5c-5.3-0.4-10.6-1.7-15.8-3c-9.6-2.3-12.9-6.2-13.9-16
	C382.9,273.9,382.8,272.3,382.7,270.1L382.7,270.1z M384.2,270.6c0.2,2.6,0.3,4.6,0.6,6.6c0.9,6.9,4.9,11,11.6,12.5
	c4.4,1,8.8,2.1,13.2,2.8c3.6,0.5,7.3,0.8,10.9,0.5c3.8-0.3,7.8-1.4,9-5.5c1.2-4.3-1.9-7.1-5.1-9.2c-9.7-6.5-19.6-12.7-29.4-19
	c-0.8-0.5-1.8-0.8-2.7-1.1c-3.9-1.3-5.9-0.3-6.9,3.8C384.7,264.9,384.5,268,384.2,270.6L384.2,270.6z"/>
<path class="st0" d="M81.5,1.8c-0.1,1,0.1,2-0.3,2.9c-2,4.6-3.5,9.6-6.4,13.5c-3.7,5.1-4.7,9.9-2.1,15.6c2.2,4.7,4.1,9.7,6.9,14.1
	c3.3,5.3,6.8,5.8,11.9,2c5.3-3.9,9.5-8.7,12.3-14.6c3-6.1,2.4-11.9-2.2-17C97.8,14,93.8,9.8,89.9,5.5c-0.9-1-1.7-2.2-2.1-3.8
	C88.4,1.9,89,2,89.4,2.4c4.3,4.7,8.7,9.4,12.9,14.3c5.8,6.7,6.8,13.6,2,21c-3.3,5-7.6,9.6-12.1,13.6C87.1,55.8,82,55,78.7,49.1
	c-3.5-6.3-6.1-13.2-8.8-19.9c-1.1-2.9-0.3-6,1.7-8.5c4.2-5.4,7.6-11.2,8.7-18.1C80.4,2.3,80.7,2,81,1.7C81.1,1.7,81.3,1.8,81.5,1.8
	L81.5,1.8z"/>
<path class="st0" d="M160.2,2.3c-2,1.8-4,3.5-6,5.2c-7.9,7-10.1,16-8.9,26c0.8,6.2,4.3,8.7,10.5,8.1c5.1-0.5,9.1-3.1,12.8-6.2
	c2.9-2.5,5.8-5.2,8.4-7.9c5.5-5.6,12.2-9,19.7-10.9c2.5-0.6,4.9-1.5,7.3-2.5c5-1.9,8.8-5.3,11.2-10.1c0.4-0.9,1-1.7,1.9-2.2
	c-1,4.9-3.7,8.9-8,11.2c-4.5,2.4-9.4,4.2-14.3,5.7c-6.8,2.1-12.4,5.6-17.5,10.4c-4.5,4.2-9.5,8-14.3,11.8c-0.8,0.7-1.9,1-2.9,1.3
	c-10.5,3.5-16.4-0.9-16.8-11.9C142.9,18,148.7,9.2,158,2.2c0.4-0.3,1.1-0.4,1.7-0.6C159.9,1.8,160,2,160.2,2.3L160.2,2.3z"/>
<path class="st0" d="M188.3,776.5c-2.8-7.4-5.9-14.8-6.3-22.9c-0.2-4.2-0.2-8.4-0.5-12.5c-0.3-4-2.3-6.9-6.1-8.3
	c-2.4-0.9-4.9-1.7-7.4-2c-5.3-0.6-9.4,1.6-11.2,6.7c-1.7,4.7-2.5,9.7-3.8,14.6c-2.1,7.8-4.3,15.5-6.5,23.2c-0.1,0.5-0.6,1-1.4,1.4
	c0-0.6-0.1-1.3,0-1.9c2.4-9,4.8-18,7.1-27c0.9-3.3,1.6-6.7,2.7-9.9c2.1-6.3,6.8-9.2,13.4-8.6c10.1,0.8,15.1,5.9,14.9,16
	c-0.2,9.2,1.3,17.9,4.7,26.4c0.6,1.5,1,3.1,1.5,4.7C189.1,776.3,188.7,776.4,188.3,776.5L188.3,776.5z"/>
<path class="st0" d="M268.5,112.4c-7.1-0.7-13.6-2.2-18.8-7.2c-3.9-3.7-5.5-8.2-3.9-13.4c1.6-5.5,5.6-8.6,11.1-9.4
	c7.5-1,14.8,0.3,21.4,4.2c2.4,1.4,4.6,3.6,6.1,6c4.1,6.6,1.5,14.4-5.7,17.2C275.5,111.2,272,111.6,268.5,112.4z M260.9,83.8
	c-0.5,0-1.5,0-2.6,0.1c-5.4,0.4-9.5,3.3-10.9,8c-1.6,5.1,0,9.5,4,12.6c2.6,2,5.6,4,8.7,4.5c5,0.8,10.2,1,15.2,0.4
	c4.7-0.6,8.4-3.5,9.3-8.6c1-5.3-1.6-9.2-5.7-12.1C273.7,85.1,267.7,84,260.9,83.8L260.9,83.8z"/>
<path class="st0" d="M94.5,776.6c-0.4-0.5-1-1-1.3-1.7c-3.8-8.1-10.8-12-19-14c-12.7-3.1-25-0.8-36.9,3.9
	c-6.5,2.5-12.5,2.5-18.5-0.8c-1.1-0.6-2.3-1.1-3.6-1.5c-5.9-1.8-8.9-0.6-11.9,4.9C3.1,768,2.9,768.5,2,769c0-0.8-0.2-1.6,0-2.3
	c1.4-4.1,6.2-7.1,10.5-6.3c2.6,0.5,5.2,1.3,7.6,2.6c5.4,2.8,10.8,2.8,16.4,0.6c8.1-3.2,16.5-5.3,25.4-5.4c8.9-0.1,17.3,1.4,24.8,6.5
	c4.2,2.9,7,6.7,8.6,11.4C95,776.3,94.8,776.5,94.5,776.6L94.5,776.6z"/>
<path class="st0" d="M398,776.6c3.7-4.4,7.9-8.7,11.2-13.6c6.3-9.5-3-19.6-11.5-18.6c-12.5,1.4-22.5,7.5-28.7,18.8
	c-1.9,3.5-2.6,7.5-1,11.5c0.1,0.4,0.2,0.8,0.2,1.3c0,0.2-0.2,0.3-1,1.2c-0.5-2.6-1.3-4.7-1.3-6.8c0-5.4,2.2-10,5.8-14
	c6.2-6.8,13.7-11.3,22.7-13.3c6.4-1.4,11.7,0.5,15.7,5.6c4,5.2,3.7,10.8,0.1,15.9c-3,4.1-6.8,7.6-10.3,11.3
	c-0.3,0.3-0.7,0.5-1.1,0.6C398.3,776.7,397.9,776.6,398,776.6L398,776.6z"/>
<path class="st0" d="M2.1,555.1c1.9-0.3,3.7-0.5,5.6-0.8c14.6-2.4,25.2-14,26.4-28.8c0.8-10.3-4.5-17.8-15.4-20.6
	c-4.4-1.1-9.1-0.8-13.7-1.1c-1-0.1-2,0.2-3.1-0.4c0.5-0.3,0.9-0.8,1.4-0.9c10.3-1.6,19.7,0,27.4,7.6c4.2,4.2,5.2,9.4,4.9,15.1
	c-1,16.6-14.1,29.8-30.7,31c-0.9,0.1-1.8-0.1-2.7-0.1C2.1,555.8,2.1,555.4,2.1,555.1L2.1,555.1z"/>
<path class="st0" d="M172.4,657.6c0.6-13.4,12.9-21.5,23.8-15.5c4.7,2.6,6.9,6.8,6.7,12c-0.2,7.6-3.9,13.5-10.3,17.6
	c-7,4.4-14.9,1.8-18.1-5.8C173.5,663.3,173.1,660.4,172.4,657.6L172.4,657.6z M174.1,657.7c0.5,2.3,0.8,4.7,1.6,6.8
	c2.7,7.3,9.8,9.8,16.4,5.7c6-3.7,9.1-9.3,9.4-16.3c0.2-5-2.9-9.4-7.6-11.3C184.2,638.8,174.3,646.3,174.1,657.7L174.1,657.7z"/>
<path class="st0" d="M436.9,217.7c-1.2,0.5-2.3,1.2-3.6,1.6c-8,2.9-16.1,5.8-24.1,8.9c-1.6,0.6-3.1,1.9-4.4,3.2
	c-3.4,3.3-4.3,7.7-1.4,11.3c3.6,4.6,7.9,8.8,12.4,12.4c6,4.9,12.6,9.2,19,13.8c0.9,0.6,1.6,1.5,2.8,2.5c-0.9,0.2-1.3,0.4-1.5,0.3
	c-10-7.7-20.1-15.3-30.1-23c-0.4-0.3-0.8-0.8-1.1-1.2c-7-8-6.2-15.2,3.1-20.4c5.2-2.9,11-4.7,16.6-6.8c3.9-1.4,7.9-2.5,11.9-3.7
	C436.6,217,436.8,217.3,436.9,217.7L436.9,217.7z"/>
<path class="st0" d="M436.4,453c-1.5-3.1-2.9-6.3-4.6-9.3c-4.7-8.9-17.2-10.6-24.3-3.4c-3,3.1-3.6,6.8-2.7,10.7
	c2.3,9.8,9.5,14.3,18.5,16.9c3.4,1,6.9,1.8,10.3,2.7c1.1,0.3,2.2,0.8,4,1.5c-1,0.4-1.4,0.7-1.6,0.6c-7-2.2-14.3-3.9-21.1-6.7
	c-5.6-2.3-9.4-7-11.1-13.1c-2.5-8.7,0.9-15,9.6-17.7c9-2.8,15.8,0,20.2,8.4c1.1,2.2,2.1,4.5,3.1,6.7c0.3,0.8,0.4,1.6,0.5,2.5
	C436.9,452.8,436.7,452.9,436.4,453L436.4,453z"/>
<path class="st0" d="M60,303.8c3.7,0.4,6.5,0.5,9.2,1.1c5.3,1.2,7.9,5.2,6.2,10.4C73,322.7,67.7,328,61,331.7
	c-1.3,0.7-3.9,0.5-5.1-0.3c-4.3-2.9-8.8-5.8-12.2-9.7c-5.2-5.9-3.1-12.9,4.4-15.5C52.1,304.8,56.6,304.5,60,303.8L60,303.8z
	 M74.4,313.6c0-4-1.8-6.4-5.2-7.1c-7.3-1.5-14.6-1.2-21.5,1.5c-5.6,2.2-7,6.9-3.6,12c3.2,4.8,7.6,8.2,12.9,10.3
	c1.5,0.6,4.1,0.1,5.3-0.9c3.7-3.4,7.1-7.1,10.2-11C73.7,316.8,74.1,314.6,74.4,313.6L74.4,313.6z"/>
<path class="st0" d="M318.3,776.2c1.3-3,2.8-6,3.8-9.1c1.8-5.6,0.2-8.7-5.4-10.3c-10.4-2.9-21-3.2-31.5-0.3c-6.1,1.6-8.3,5.5-7,11.7
	c0.6,2.8,1.4,5.5,2.1,8.2c-0.4,0.1-0.7,0.2-1.1,0.4c-0.5-1.5-1.1-2.9-1.6-4.4c-3.4-11.2-0.5-16.1,11-18.3c9.1-1.7,18.2-1.3,27.1,0.8
	c7.8,1.8,10.1,6.1,7.5,13.6c-1,2.9-2.6,5.6-3.9,8.4C319,776.7,318.7,776.4,318.3,776.2L318.3,776.2z"/>
<path class="st0" d="M3,29.5c2.3,3.4,4.8,6.7,6.7,10.2c3.5,6.3,6.5,12.8,10,19c1.6,2.8,3.9,5.1,5.7,7.8c2.2,3.2,2.1,5.7-0.7,8.3
	c-7.1,6.5-14.3,12.9-21.5,19.3c-0.3,0.2-0.7,0.3-1.5,0.1c0.4-0.6,0.7-1.4,1.2-1.8C9.3,86.6,15.5,80.8,22,75.2c4.1-3.5,4.5-5.2,1-9.3
	c-5.3-6.4-9.1-13.7-12.7-21.2c-2.1-4.5-5.2-8.6-7.8-12.9c-0.3-0.5-0.5-1-0.8-1.5C2.2,30.1,2.6,29.8,3,29.5L3,29.5z"/>
<path class="st0" d="M1.9,284.9c4.4-0.7,8.8-1.2,13.1,0.1c2.5,0.8,3.6,2.8,3.4,5.3c-1,11.8-0.9,24-5.1,35.2
	c-2.5,6.6-7,12.4-10.6,18.5c-0.4-0.2-0.8-0.4-1.2-0.6c0.4-1,0.7-2.2,1.3-3.1c2.5-3.9,5.9-7.4,7.5-11.6c2.2-5.7,3.5-11.9,4.6-18
	s1.5-12.3,2-18.5c0.4-4.7-0.8-6-5.5-6.3c-2.2-0.2-4.5,0.1-6.7,0.1c-0.9,0-1.8,0-2.7,0C2,285.6,2,285.2,1.9,284.9L1.9,284.9z"/>
<path class="st0" d="M268,199.3c-0.3,6.3-2.4,11.6-7.1,15.6c-6.4,5.5-15,3.5-16.8-3.8c-0.9-3.5,0.2-6.8,2.6-9.2
	c3.4-3.4,7-6.7,10.9-9.4c5.7-4.1,9.1-2.4,10.1,4.5C267.9,197.8,267.9,198.7,268,199.3z M266.6,199c-0.2-1.2-0.4-3-1-4.6
	c-0.9-2.5-2.9-3.6-5-1.9c-4.6,3.6-9.3,7.2-13.4,11.4c-2.9,3-2.4,7.2,0,10c2.4,2.7,6.3,3.5,10,1.5C263.6,212.1,265.9,206.3,266.6,199
	L266.6,199z"/>
<path class="st0" d="M277,1.5c0.6,0.2,1.3,0.2,1.7,0.6c8.7,7.4,18.9,9.1,29.8,8.3c8.2-0.6,16.5-0.9,24.6-2.2
	c4.4-0.7,8.4-3.5,12.6-5.3c0.9-0.4,1.7-1,2.9-1c-3.2,3.6-7.1,6.5-11.8,7.1c-10.5,1.4-21.1,2.2-31.6,3c-6.3,0.5-12.5-0.3-18.2-3
	c-3.7-1.8-7.1-4.2-10.6-6.3C276.6,2.3,276.8,1.9,277,1.5L277,1.5z"/>
<path class="st0" d="M1.8,604.8c5.6,0.5,10.1-1.9,14.3-4.8c5.9-4,10.5-9.2,13.1-15.9c2.8-7.3,0.2-11.5-7.5-11.5
	c-5.6,0-11.1,0.7-16.7,1c-1,0.1-1.9,0.2-2.9,0.2c0-0.3-0.1-0.5-0.1-0.8c0.6-0.2,1.2-0.7,1.8-0.7c6.5-0.5,13-1.3,19.5-1.2
	c6.9,0.2,9.9,4.6,7.9,11.2c-3.8,12.2-12.3,19.8-24.3,23.6c-1.5,0.5-3.2,0.2-4.8,0.3C1.9,605.8,1.9,605.3,1.8,604.8L1.8,604.8z"/>
<path class="st0" d="M18,1.4c0.8,0.3,1.7,0.6,2.4,1c4.8,3.2,8.3,7.6,10.6,13c1.3,3.2,2.8,6.5,4.7,9.5c2.3,3.4,6.3,3.7,9.6,1.2
	c2.7-2,3.1-4.2,1.1-6.9c-2-2.6-4.3-5-6.3-7.7c-2.2-2.8-3.8-5.9-3.6-10.3c0.7,0.8,1.2,1.1,1.3,1.5c0.9,4.9,3.8,8.6,7,12.1
	c0.9,0.9,1.7,1.9,2.5,2.9c2.6,3.7,2.6,6.3-0.1,8.9c-3.3,3.1-7.8,3.8-10.8,1.2c-1.7-1.5-3.3-3.5-4.1-5.6c-3.1-8-6.8-15.5-14.9-19.9
	C17.6,2,17.8,1.7,18,1.4L18,1.4z"/>
<path class="st0" d="M2.1,549c0.8-0.1,1.6-0.2,2.4-0.2c10.6-0.6,19.7-9.2,20.8-19.8c1.1-10-5.7-17.5-16.2-17.6
	c-2.4,0-4.7,0.3-7.2-0.2c0.7-0.3,1.4-0.8,2.1-1c12.5-2.4,26.6,5.6,22.2,22.4c-2.6,9.7-11.1,16.9-20.7,17.6c-1.1,0.1-2.2,0-3.3,0
	C2.1,549.8,2.1,549.4,2.1,549L2.1,549z"/>
<path class="st0" d="M38.3,282.9c-3.4-0.5-5.9-0.6-8.3-1.2c-3.1-0.7-4.4-2.7-3.7-5.8c1.3-5.2,4-9.6,9.5-11.2
	c4.7-1.4,11.7,1.3,14.7,5.3c3.1,4.2,2.1,9-2.8,10.8C44.5,282.1,40.9,282.4,38.3,282.9L38.3,282.9z M38.7,281.3
	c2.3-0.4,5.2-0.7,7.9-1.6c4.4-1.4,5.4-5.3,2.5-8.9c-3.3-3.9-7.6-5.7-12.6-4.6c-4.8,1-7,5-8.4,9.3c-0.9,2.7,0.1,4.3,3,4.9
	C33.4,280.8,35.8,281,38.7,281.3L38.7,281.3z"/>
<path class="st0" d="M253.1,710.8c0,7.5-2.6,9.4-8.9,7.5c-4.5-1.4-8.6-3.4-11.6-7.1c-3.2-3.9-2.6-8.1,1.6-11c7.2-5.2,16-2,18.2,6.5
	C252.8,708.2,253,710,253.1,710.8L253.1,710.8z M251.6,711.5c0-5.2-2.2-9.6-5.5-11.3c-3.9-1.9-7.5-1.2-10.9,1.2s-4.2,6-1.1,8.7
	c3,2.7,6.7,5,10.4,6.6C249.5,718.8,251.6,717.1,251.6,711.5L251.6,711.5z"/>
<path class="st0" d="M437.1,534.7c-3.9,1-7.9,2.1-11.8,2.9c-2.4,0.5-4.9,0.5-7.3,1.1c-4.7,1.1-6,4.8-2.7,8.3c2.1,2.2,4.8,4,7.4,5.5
	c3.5,1.9,7.2,3.3,10.8,5c1.2,0.5,2.4,1.2,4.4,2.2c-1.4,0.3-1.9,0.5-2.1,0.4c-6.1-2.9-12.1-5.8-18.1-8.9c-1.2-0.6-2.2-1.7-3.2-2.7
	c-4.5-4.9-2.9-10.1,3.6-11.4c6.2-1.3,12.5-2.3,18.8-3.4C436.9,534,437,534.4,437.1,534.7L437.1,534.7z"/>
<path class="st0" d="M436.5,259.9c-1.2-1-2.4-1.9-3.5-2.9c-3.4-3-6.8-5.9-10.1-8.9c-1-0.9-1.9-2-2.8-3.1c-4.4-5.9-3.4-10.9,3.3-14.1
	c3.9-1.9,8.3-2.9,12.4-4.2c0.3-0.1,0.7,0.2,1.2,0.9c-1.1,0.4-2.2,0.8-3.3,1.2c-3.6,1.3-7.4,2.3-10.8,4c-4.3,2.2-5.3,6.2-2.3,9.9
	c3,3.8,6.8,7,10.3,10.4c2,2,4.2,3.9,6.3,5.8C437,259.3,436.7,259.6,436.5,259.9L436.5,259.9z"/>
<path class="st0" d="M148.7,266.9c2.9,0,5.6,0.7,7,3.5c1.3,2.8,0.1,5.2-1.7,7.4c-2.4,2.9-5.4,4.8-9.3,5.2c-3.4,0.3-5.9-1.3-7.2-4.2
	c-1.3-3.1-0.9-6.8,1.7-8.5c2.8-1.8,6-2.8,9.1-4.2C148.5,266.4,148.6,266.6,148.7,266.9L148.7,266.9z M148.7,267.5
	c-3.1,1.5-6.1,2.4-8.5,4.1c-2.3,1.6-2.3,4.2-1.2,6.7c1.1,2.4,3.2,3.9,5.7,3.1c2.8-0.9,5.7-2.4,7.8-4.4c1.3-1.2,2.2-4.1,1.6-5.6
	C153.4,269.7,150.8,268.9,148.7,267.5L148.7,267.5z"/>
<path class="st0" d="M388.5,1.3c1.2,0.4,2.5,0.5,3.5,1.1c12.5,8.3,25.8,8.1,39.5,3.9c1.5-0.5,3.1-0.8,4.7-1.2c0.2,0,0.4,0.2,0.5,0.3
	c-1.8,2.4-17.3,5.6-24.6,5.4c-9-0.2-16.3-4.7-23.8-8.7C388.4,1.9,388.5,1.6,388.5,1.3L388.5,1.3z"/>
<path class="st0" d="M307.3,178.9c-2.2,0-3.2-1.4-2.8-3.4c1.1-5.7,3.9-10.5,9-13.4c3.5-2,6.9,0.3,6.8,4.2
	C320.2,171.6,312.4,179.1,307.3,178.9z M319.3,166.5c-0.9-1.2-1.4-2.7-2.2-2.9c-1.2-0.3-3-0.2-3.8,0.6c-2.1,2.1-4.1,4.4-5.6,6.9
	c-1,1.7-0.9,3.9-1.3,5.9c2-0.6,4.2-1,6.1-1.8c1.3-0.6,2.5-1.7,3.4-2.9C317.1,170.6,318.1,168.6,319.3,166.5L319.3,166.5z"/>
<path class="st0" d="M1.5,540.5c10-0.9,15.2-5.7,14.4-12.9c-0.7-6-4.8-7.9-13.8-6.5c1.3-2.8,6.6-3.3,10.6-1.1
	c4.9,2.7,6.3,9.8,3,15.3C12.2,541,5.9,543.5,1.5,540.5z"/>
<path class="st0" d="M1.7,482.6c0.8-0.6,1.7-1.3,2.5-2c5.7-4.3,6.9-8.7,4.1-15.2c-1.9-4.2-3.9-8.4-5.8-12.6c-0.5-1-0.6-2.2-0.9-3.3
	c0.3-0.1,0.5-0.2,0.8-0.3c0.8,1.7,1.7,3.4,2.5,5.1c2,4.7,4.4,9.3,6,14.2C12.8,474.5,7.9,482,1.7,482.6L1.7,482.6z"/>
<path class="st0" d="M76.1,777.3C64.8,768,53.9,767,43,777.1c0.9-4.2,7.1-7.9,13.7-8.6C64.5,767.7,73.5,771.5,76.1,777.3z"/>
<path class="st0" d="M206,2.7c-2.7,1.6-5.2,3.8-8.1,4.6c-5.3,1.3-10.9,2.2-16.4,2.4c-4.6,0.2-7-3.8-5.4-8.4c0.3,0.8,0.7,1.2,0.8,1.8
	c0.9,4.2,2,5.3,6.2,5.3c7.4-0.1,14.5-1.3,20.6-6.1c0.4-0.4,1.1-0.5,1.6-0.7C205.6,2,205.8,2.3,206,2.7L206,2.7z"/>
<path class="st0" d="M173.4,776.6c-0.3-1-0.6-2.1-0.9-3.1c-1-2.8-1.9-5.7-3.2-8.4c-0.6-1.2-2.2-2.8-3.1-2.7
	c-1.2,0.2-2.8,1.6-3.3,2.9c-1.2,2.7-1.9,5.7-2.7,8.5c-0.3,0.9-0.5,1.8-1.3,2.7c-0.1-0.5-0.5-1.1-0.4-1.5c1-3.6,1.8-7.3,3.3-10.7
	c0.7-1.6,2.8-3.3,4.4-3.4c1.4-0.1,3.6,1.6,4.3,3.1c1.7,3.3,2.7,7,3.9,10.5c0.2,0.6-0.1,1.3-0.1,2L173.4,776.6L173.4,776.6z"/>
<path class="st0" d="M410.9,775.6c5-4.4,9.7-9.2,15-13.1c3.7-2.7,8.7-1.3,11.1,2.2c-0.7-0.1-1.3-0.1-1.6-0.3c-5-3-9.2-1.4-13,2.3
	c-2.8,2.7-5.4,5.5-8.1,8.2c-0.7,0.7-1.5,1.3-2.2,1.9C411.6,776.4,411.2,776,410.9,775.6L410.9,775.6z"/>
<path class="st0" d="M322.7,2.3c-10.7,1.8-21.5,5.3-33-0.3c6,0.5,11.4,1.4,16.7,1.3c5.4-0.1,10.8-1.3,16.3-2
	C322.7,1.6,322.7,2,322.7,2.3L322.7,2.3z"/>
<path class="st0" d="M8.4,583.4c2.9,0,4.8,1.6,4.8,4c0,2.8-3.4,5.8-6.5,5.9c-2.7,0-4.9-1.9-5-4.3C1.8,586.1,4.9,583.4,8.4,583.4z
	 M5.7,591.8c3.3-0.1,6.4-2.5,5.8-4.2c-0.3-1.1-2-2.3-3.2-2.5c-2.4-0.4-5.2,2.1-4.7,4C3.9,590.2,5.2,591.2,5.7,591.8L5.7,591.8z"/>
<path class="st0" d="M163.4,363.9c0-3,1.7-5.2,4-5.2c2.5,0,4.8,2.5,4.8,5.1c0,2.8-2.2,5-4.8,5C165,368.7,163.4,366.8,163.4,363.9
	L163.4,363.9z M163.6,363.9c1.7,1.5,3.1,3.4,3.8,3.1c1.3-0.5,2.9-2.1,3-3.2c0-1.1-1.7-2.7-3-3.2
	C166.8,360.4,165.4,362.3,163.6,363.9L163.6,363.9z"/>
<path class="st0" d="M1.4,324c0.7-1.8,1.1-2.8,1.4-3.8c1-3.7,2.5-7.4,2.5-11c0.1-2.8-1.8-5.5-2.8-8.4c2.2,0,3,2.1,3.7,4
	C8.3,310.5,6.3,319.6,1.4,324L1.4,324z"/>
<path class="st0" d="M1.6,69.2c4.1-7.4,1.9-14.6-0.3-22.5C6.5,52,6.8,66.7,1.6,69.2z"/>
<path class="st0" d="M240.4,48.4c-1.4-2.1-2.5-3.4-3.2-4.8c-0.1-0.3,1.2-1.2,1.9-1.9c1.1,1.2,2.4,2.4,3.4,3.7
	C242.7,45.7,241.5,46.8,240.4,48.4L240.4,48.4z"/>
<path class="st0" d="M112.5,506.1c-8.1-1.4-17.6-2.7-27-4.7c-3-0.6-6-2.4-8.6-4.2c-7.2-4.8-10.2-13.7-6.4-21.9
	c3.9-8.6,8.7-17,13.7-25.1c3.4-5.6,9.1-7.7,15.6-7.2c7.9,0.6,15.4,2.8,22.3,6.8c4.1,2.4,6.7,5.9,8,10.4c2.3,7.8,4.7,15.6,7.3,23.3
	c3.5,10.3-0.5,18.3-11.1,20.9C122.3,505.5,118.1,505.5,112.5,506.1L112.5,506.1z M110.7,504.4c5.3-0.3,9.4-0.2,13.4-0.9
	c11.1-1.9,15.3-9.8,11.4-20.4c-2.4-6.5-4.4-13.2-6.2-19.9c-1.3-4.9-3.3-9.3-7.9-12c-6.9-3.9-14.3-6.2-22.3-6.6
	c-6.4-0.4-11.3,2.4-14.5,7.8c-4.2,7.2-8.4,14.5-12.1,22c-4.2,8.6-1.4,17.7,6.7,22.6c2.4,1.5,5.2,2.8,7.9,3.4
	C95.2,502,103.5,503.2,110.7,504.4L110.7,504.4z"/>
<path class="st0" d="M226.7,476.3c-1.1,8.5-4.3,16.3-9.5,23.2c-2.2,2.9-5.7,3.2-8.5,0.5c-7.4-6.9-12.4-15.4-13.6-25.6
	c-0.7-5.6,1.7-9.3,7-11.3c6.9-2.7,13.6-1.8,19.5,2.5C225.1,468.2,227,471.7,226.7,476.3L226.7,476.3z M210,462.9
	c-2.9,0.6-5.2,0.9-7.4,1.7c-4.3,1.6-6.7,5.1-6.1,9.5c1.3,9.7,5.9,17.8,12.9,24.5c2.6,2.5,5.1,2.1,7.1-0.7c4.2-6,7.2-12.7,8.4-20
	c0.9-5.8-1.2-9.7-6.5-12.3C215.7,464.2,212.6,463.6,210,462.9z"/>
<path class="st0" d="M258.1,579.1c3.3-0.1,6.2,2.6,6.4,6c0.1,3.1-2.2,5.4-5.4,5.5c-3.4,0.1-6.1-2.4-6.2-5.7
	C252.8,581.8,255.2,579.2,258.1,579.1z M259,589c2.1-0.2,3.8-1.2,4-3.8c0.1-2.2-2.2-4.4-4.6-4.5c-2.2,0-4.1,1.9-4,4.1
	C254.4,587.1,256.3,588.9,259,589L259,589z"/>
<path class="st0" d="M178.2,196.8c3.8,0.5,7.7,0.9,11.5,1.6c4.6,0.8,8.7,2.7,11.7,6.3c4.5,5.4,8.8,10.8,13,16.4
	c1.1,1.4,1.9,3.1,2.6,4.8c2.2,5.2,0.4,10.1-4.7,12.4c-7.6,3.4-15.4,4.7-23.2,0.6c-7.8-4.1-16-4.2-24.5-2.6
	c-6.1,1.2-12.2,2.5-18.4,3.3c-7.8,1-14.4-1.5-19.2-7.9c-6-7.9-4.5-17.8,3.7-23.4c2-1.4,4.2-2.8,6.6-3.3c12.2-2.8,24.5-5.3,36.8-7.9
	c1.3-0.3,2.8,0,4.2,0C178.2,197,178.2,196.9,178.2,196.8L178.2,196.8z M178,198.2c-3.6,0.4-6.7,0.5-9.8,1.1
	c-8.8,1.8-17.7,3.6-26.4,5.8c-3.4,0.8-6.8,2.2-9.7,4c-6.5,4-8.9,10.7-6.2,17.2c2.9,7,8.1,11.7,15.9,11.6c6.1,0,12.3-1.3,18.4-2.5
	c10.5-2.2,20.6-2.8,30.7,2.4c7,3.7,14.5,2.1,21.4-1.4c3.6-1.9,4.9-5.4,3.6-9.3c-0.5-1.6-1.2-3.2-2.3-4.6c-4.1-5.4-8.2-10.7-12.5-16
	c-2.7-3.3-6.2-5.6-10.5-6.5C186.3,199.4,181.9,198.9,178,198.2L178,198.2z"/>
<path class="st0" d="M180.9,298.4c7.9-0.1,11.7,3,12.9,9.5c0.9,5.1-0.1,9.8-2.5,14.3c-2.3,4.1-5.9,5.9-10.5,5.1
	c-6.5-1.1-12.1-4.2-17.2-8.3c-4.2-3.4-4.5-8.4-0.8-12.4C168.1,301.1,174.8,298.8,180.9,298.4L180.9,298.4z M181.1,299.9
	c-5.8,0.4-12.2,2.5-17.1,7.9c-3,3.3-2.9,6.8,0.3,9.6c4.8,4.2,10.4,7.1,16.8,8.3c3.7,0.7,6.8-0.7,8.8-4c2.5-4.1,3.3-8.6,2.6-13.3
	C191.6,302.6,188.2,299.8,181.1,299.9z"/>
<path class="st0" d="M128.7,354.5c0.9,1.6,1.9,2.5,1.7,3.1c-0.3,0.9-1.4,1.5-2.2,2.2c-0.6-0.7-1.6-1.4-1.6-2
	C126.8,356.8,127.7,356,128.7,354.5z"/>
<path class="st0" d="M42,154c12.3,3.2,23.1-0.5,33.4-6.8c2.6-1.6,5.8-2.4,8.8-2.9c6.9-1.1,12,3.3,11.4,10.3
	c-0.3,3.6-1.2,7.6-3.1,10.6c-8,12.3-16,24.6-24.9,36.3c-8.5,11.2-17.9,13.3-31.5,9c-8.4-2.7-15.8-6.8-20-15
	c-3.5-6.8-3.8-13.8,0.2-20.3c3.3-5.3,7.3-10.3,11.3-15.2C31.4,155.6,36.2,153.5,42,154L42,154z M41.3,155.6
	c-4.8-0.4-8.8,1.2-11.8,4.9c-4.3,5.3-8.6,10.7-12.2,16.5c-3.5,5.6-2.9,11.7,0.1,17.6c4.8,9.4,13.4,13,22.9,15.5
	c9.3,2.4,17.2,0.4,23.8-6.6c2.5-2.7,4.9-5.7,7.1-8.7c5.8-8.4,11.6-16.7,17.1-25.3c2.4-3.8,4.6-8.1,5.7-12.4
	c1.9-7.9-3.2-12.7-11-10.7c-4.2,1.1-8.2,3.1-12.1,5.2c-7.2,4-14.6,6.1-22.8,4.9C45.8,155.9,43.6,155.8,41.3,155.6L41.3,155.6z"/>
<path class="st0" d="M170.5,98.9c3.3,0.8,6.2,1.2,8.9,2.3c9.5,4,18.1,9.4,25.7,16.3c2.1,1.9,3.9,4.3,5.3,6.8
	c2.3,4.1,0.9,8.2-3.5,9.7c-3.7,1.2-7.7,1.8-11.6,2.1c-16.1,1.6-31.8,5.2-46.4,12.4c-2,1-4.1,1.8-6.2,2.6c-7.1,2.8-12.8,1.1-17.9-5.2
	c-6.4-7.9-7.8-14.6-3.2-20.8c2.6-3.5,6.3-6.5,10.2-8.6c9.1-5.1,18.4-9.7,27.8-14.2C163,100.7,167,100,170.5,98.9L170.5,98.9z
	 M120.4,130.9c-0.1,14.3,12.7,23.1,24,17.7c16.6-7.9,33.9-12.7,52.2-14.1c2.2-0.2,4.5-0.4,6.7-0.8c6.7-1.2,8.4-5.3,4.6-10.8
	c-1.6-2.2-3.5-4.4-5.7-6c-5.9-4.2-12.1-8.2-18.3-12c-8.2-5-16.6-5.1-25.1-0.5c-3.8,2-7.7,3.7-11.5,5.7c-6.7,3.6-13.5,7.1-19.9,11.2
	C123.4,123.7,120.5,127.5,120.4,130.9L120.4,130.9z"/>
<path class="st0" d="M81,696.3c4.7,0.3,9.1,1,12.5,4.5c2.9,3.1,2.8,6.6-0.7,9.1c-1.8,1.3-3.9,2.2-6,3c-10.3,3.6-20.7,7.1-31,10.7
	c-5.3,1.8-10.7,3.2-16.4,1.7c-1-0.3-2.1-0.6-3-1c-2.5-1.2-5.1-2.6-5.4-5.8c-0.4-3.4,2.1-5.1,4.5-6.4c13.6-7,27.5-13,42.7-15.6
	C79.2,696.3,80.2,696.3,81,696.3L81,696.3z M44.3,724.9c3.9-1,7.7-1.7,11.4-2.9c8.9-3,17.8-6.2,26.7-9.3c3-1.1,6.2-2,8.9-3.6
	c3.5-2,3.6-5.2,0.5-7.8c-1.1-1-2.5-2-3.8-2.2c-4-0.5-8.3-1.6-12-0.6c-10.2,2.8-20.2,6.5-30.1,10.1c-3.8,1.4-7.4,3.4-10.8,5.6
	c-3.7,2.5-3.5,5.6,0.5,7.7C38.2,723.4,41.3,724,44.3,724.9L44.3,724.9z"/>
<path class="st0" d="M339.2,264.6c-0.3,6.3-2.1,13.2-5.9,19.5c-3.9,6.7-10.2,9.3-17.8,7.5c-6.9-1.6-12.3-5.5-16.6-10.9
	c-1.2-1.5-2.4-3-3.3-4.7c-4.1-8-10.6-13-19.2-15.5c-2.1-0.6-4.2-1.7-6.1-2.9c-3.3-2.1-4.2-5-2.2-8.3c5.6-9.6,11.5-19.1,17.4-28.6
	c1-1.6,2.6-2.8,4.2-3.9c2.5-1.9,5.5-1.9,7.7,0.2c3.5,3.3,6.7,6.9,9.8,10.6c4.2,5.1,9,9.1,15,11.9c3,1.4,6,3,8.6,4.9
	C336.7,248.8,339.5,255.5,339.2,264.6L339.2,264.6z M337.6,265c0.1-12.5-4.2-19-15.2-23.8c-6.6-2.9-12.1-7.3-16.6-12.9
	c-2.7-3.3-5.5-6.6-8.5-9.6c-2.5-2.5-5.4-2.2-8.1,0.2c-1,0.9-1.9,1.8-2.5,2.9c-5.8,9.3-11.5,18.6-17.1,27.9c-1.7,2.8-0.9,5.2,2,6.8
	c2.7,1.5,5.6,2.6,8.5,3.7c6.3,2.2,11.3,6,14.7,11.8c0.9,1.6,1.9,3.1,3,4.6c4.4,6.5,10,11.5,17.8,13.5c7.3,1.8,12.9-0.5,16.7-7
	C335.7,277,337.4,270.4,337.6,265L337.6,265z"/>
<path class="st0" d="M341,349.5c6.6,1.6,13.4,2.9,19.9,4.9c7.6,2.3,15,2,22.4-0.8c3.8-1.4,7.8-2.4,11.8-3.2
	c5.9-1.1,10.2,1.9,11.4,7.8c1.9,9.2-0.6,17.7-6.7,24.6c-4.8,5.4-10.5,10.1-16.4,14.3c-6.5,4.6-13.8,4.3-20-1c-5-4.3-9.5-9.3-14.1-14
	c-5-5.1-10.1-10.3-15-15.5c-1.6-1.7-2.9-3.7-3.9-5.9c-2.3-5-0.2-8.9,5.2-10c1.7-0.3,3.4-0.4,5.1-0.6
	C340.9,349.9,341,349.7,341,349.5L341,349.5z M405.6,363.9c0.1-9.7-4.4-13.4-13.3-11.5c-1.1,0.2-2.3,0.5-3.4,1
	c-11.5,5.3-22.9,5-34.7,0.7c-4.4-1.6-9.2-1.9-13.9-2.3c-3.2-0.3-6.8-0.1-8.5,3.2c-1.7,3.3,0.3,6.4,2.4,8.8c3.6,4.1,7.5,8,11.2,11.9
	c5.8,6,11.4,12.3,17.5,18c6.6,6.1,13.1,6.8,20.5,1.8c5.4-3.7,10.4-8.3,15-13.1C403.3,377.1,405.3,370.4,405.6,363.9L405.6,363.9z"/>
<path class="st0" d="M383.4,554.9c0.5,12-4.5,16.8-14,16c-9.1-0.8-15.9-5.8-22.4-11.7c-8.6-7.9-13.6-17.6-14.9-29.2
	c-0.8-7.2-2.1-14.5-2.8-21.7c-0.8-8.4,2.6-12.3,10.9-13c7.8-0.6,15.4,0.5,22.7,3.6c6.1,2.6,10.4,7.1,12.2,13.4
	c2.2,7.5,4,15.1,5.4,22.8C382,542.5,382.8,550,383.4,554.9L383.4,554.9z M345.7,496c-0.1,0.2-0.1,0.5-0.2,0.7c-1.1,0-2.1,0-3.2,0
	c-9.4,0.3-12.2,3.3-11.3,12.6c0.6,6.2,1.8,12.3,2.4,18.5c1.2,12.2,6,22.4,15.2,30.6c6.5,5.8,13.4,10.9,22.6,10.9
	c7.3,0,11-3.5,10.6-10.7c-0.9-14.8-2.9-29.5-7.2-43.7c-1.9-6.4-5.4-11.9-12-14.3C357.2,498.6,351.4,497.5,345.7,496L345.7,496z"/>
<path class="st0" d="M113.7,562.1c14.1,0.5,26.8,4.8,36.8,15.1c3.2,3.3,5.2,8.1,6.8,12.5c1.8,5.1-0.1,9.8-5.2,11.8
	c-10.9,4.2-20.9,9.8-31.1,15.2c-6.8,3.6-12.3,1.8-17.3-4.5c-8.2-10.5-11.5-22.4-9.7-35.6c1.3-9.8,6.5-14.2,16.5-14.5
	C111.5,562.1,112.6,562.1,113.7,562.1L113.7,562.1z M94.4,582.6c0.6,11.2,4,21,11.2,29.4c4.4,5.1,8.9,6.2,14.9,3.3
	c3.8-1.9,7.3-4.5,11.1-6.4c6-2.9,12.2-5.2,18.2-8c5.8-2.6,7.3-6.5,5.5-12.6c-2.2-7.1-6.9-12.2-13.1-16c-10.6-6.5-22-10.1-34.6-8.4
	c-4.7,0.6-8.9,2.5-10.6,7.3C95.8,574.8,95.3,578.8,94.4,582.6L94.4,582.6z"/>
<path class="st0" d="M390.9,661.5c4.8,1.7,9.2,3.3,13.6,4.8c0.5,0.2,0.9,0.6,1.3,0.9c3.2,2.5,4.8,6.1,3.8,8.5
	c-1.1,2.5-3.9,3.5-8.4,2.9c-5.5-0.8-10.4-3.1-14-7.1c-1.5-1.6-2.8-4.7-2.2-6.4C385.4,663.4,388.6,662.7,390.9,661.5L390.9,661.5z
	 M404.2,677.4c0.7-0.4,3-0.9,3.5-2.2s-0.4-3.3-1.1-4.9c-0.4-0.9-1.4-1.6-2.3-2.2c-4.2-3-9-4.1-14-4.1c-1.4,0-2.9,1-4.3,1.5
	c0.6,1.5,0.7,3.4,1.8,4.5C391.9,674.5,397.2,676.7,404.2,677.4L404.2,677.4z"/>
<path class="st0" d="M19.9,641.4c0.1-11.9,5.3-19.2,14.5-23c1-0.4,2-0.8,3-1.1c9-2.9,13-1,16.8,7.7c1.9,4.3,3.8,8.6,6,12.8
	c3.3,6.6,2.9,12.5-2.3,18c-5.1,5.5-10.5,10.5-17.8,12.8c-7.9,2.5-13.5-0.2-15.8-8.2C22.3,653.4,21,646,19.9,641.4L19.9,641.4z
	 M21.5,639.7c0.1,0.6,0.1,2.1,0.4,3.6c1.2,5.5,2.2,11.2,3.9,16.6c2.4,7.7,7.6,10,15,7.1c7.9-3,13.7-8.7,18.5-15.4
	c2.1-2.9,2.3-6.2,0.9-9.5c-2.9-6.6-5.9-13.1-8.9-19.6c-1.2-2.5-3.1-4.4-6-4.7C33.6,616.4,21.5,627.1,21.5,639.7z"/>
<path class="st0" d="M281.6,409.1c6.7,0.2,12.5,2.6,16.6,7.6c4,4.7,7.8,9.8,10.5,15.3c4.1,8.2,0.1,14.1-9.1,14.1
	c-9.6,0-18.1-3.4-25.1-10c-2.8-2.7-5.5-5.8-7.4-9.2c-3.8-6.8-1.1-13.4,6.3-15.9C276.1,410,278.9,409.7,281.6,409.1L281.6,409.1z
	 M296.7,444.4c11.1,0.3,14.5-4.5,10.3-12.8c-2.7-5.2-6.3-10-10.3-14.3c-5.8-6.4-13.4-7.8-21.6-5.4c-7.9,2.3-10.4,8.5-5.9,15.4
	C276,437.9,285.8,443.8,296.7,444.4L296.7,444.4z"/>
<path class="st0" d="M63.1,366.3c-1.8-0.6-4.1-1-6-2.1c-3.9-2.1-4-6.9-0.5-9.6c4.2-3.3,11.3-2.2,14.4,2.2c2.4,3.4,1.2,7.1-2.7,8.5
	C66.8,365.8,65.1,365.9,63.1,366.3L63.1,366.3z M63.8,364.8c1.6-0.4,3.3-0.6,4.7-1.3c2.2-1,2.8-2.8,1.7-5c-2.1-4.1-8.6-5.6-12.3-2.8
	c-3.1,2.4-2.8,6,0.7,7.7C60.1,364,62,364.3,63.8,364.8L63.8,364.8z"/>
<path class="st0" d="M97.2,491.8c-2-0.4-4.1-0.7-6.1-1.3c-4.1-1.3-6.5-4.5-6.3-8.7c0.5-8.7,3.7-16.7,9.8-22.9
	c7.5-7.6,21.4-3.3,24.8,7.2c0.1,0.2,0.1,0.4,0.2,0.6c3.8,13.7-0.6,20.9-14.5,23.8C102.5,491.1,99.9,491.4,97.2,491.8L97.2,491.8z
	 M119.4,474.7c-0.6-2.7-0.9-5.5-1.8-8.1c-1.8-5.4-5.7-8.7-11.4-9.6c-5.7-0.9-10.4,1.1-13.2,6c-2.7,4.9-5,10.2-6.6,15.6
	c-1.8,6.2,1.3,10.7,7.7,11c5.2,0.2,10.6-0.8,15.7-2.2C116.6,485.6,119.2,481.5,119.4,474.7L119.4,474.7z"/>
<path class="st0" d="M308,261.7c-0.1-5.6,1.6-8.8,5-9.8c3.9-1.2,10,1.3,12.4,5.1c2.9,4.7,2.5,11.1-1.1,15.3c-3.2,3.7-8,4-11.6,0.7
	C309,269.7,308.1,265.5,308,261.7L308,261.7z M309.4,260.8c0.2,4,0.9,7.9,4,10.9c2.7,2.6,6.6,2.6,9.2,0c5.4-5.3,3.8-14.4-3.1-17.5
	C313.4,251.4,309.3,254.1,309.4,260.8L309.4,260.8z"/>
<path class="st0" d="M339.8,525.4c-0.3-17,8.2-22.4,19.2-16.3c3.3,1.9,6.5,4.9,8.4,8.1c5.8,10.2,8.1,21.4,7.2,33.2
	c-0.4,4.9-3,8-6.9,7.8c-2.2-0.1-4.6-0.6-6.4-1.7C348.7,548,340.4,536.7,339.8,525.4L339.8,525.4z M341.2,523.3
	c0.7,12.7,8.5,24,21.1,32c5.9,3.8,10.3,1.2,10.8-5.8c0.8-11.1-1.6-21.7-7-31.3c-1.8-3.2-5.1-6.2-8.5-8
	C348,505.2,341.2,509.6,341.2,523.3L341.2,523.3z"/>
<path class="st0" d="M114.6,568.4c10.4,0.3,19.1,7.1,20.7,16.3c1.2,6.9-3,11.2-7.5,15.4c-1,0.9-2.2,1.7-3.4,2.4
	c-8.6,5.8-15.8,4-20.9-5.1c-2.9-5.2-4.1-10.8-3.3-16.7C101.2,572.6,106.3,568.2,114.6,568.4L114.6,568.4z M114.1,569.9
	c-6.4,0-10.7,2.9-12,9c-1.8,8.5,0.3,16.2,6.3,22.5c3.1,3.2,6.8,3.8,10.9,2.1c4.9-2.1,9-5.3,12.2-9.6c2.8-3.8,3.1-7.9,1.3-12.2
	C130,574.8,122.3,569.9,114.1,569.9L114.1,569.9z"/>
<path class="st0" d="M41.4,640.3c0.1,3.1-1.7,5.5-4,5.7c-2.7,0.2-4.9-2.6-5.1-6.2c-0.1-3.2,1.5-5.5,4-5.6
	C39.2,634,41.3,636.6,41.4,640.3L41.4,640.3z M40.2,641.1c-0.8-2.9-0.9-5.6-3.8-5.3c-1,0.1-2.6,2.7-2.5,4c0.2,1.6,2,3.1,3.1,4.6
	C38.2,643.2,39.3,642.1,40.2,641.1L40.2,641.1z"/>
<path class="st0" d="M118.6,585.8c-0.9,0.7-2.2,2.4-3.6,2.5c-2.4,0.3-3.6-1.8-3.6-4c0-2,1.1-3.5,3.3-3.5
	C117.3,580.9,118.2,582.6,118.6,585.8L118.6,585.8z M117.7,584.4c-1.4-0.9-2.2-1.7-3.2-1.8c-0.4-0.1-1.6,1.4-1.4,1.9
	c0.3,0.9,1.3,1.6,1.9,2.4C115.7,586.2,116.4,585.5,117.7,584.4z"/>
</svg>
