<?xml version="1.0" encoding="utf-8"?>
<!-- Generator: Adobe Illustrator 27.5.0, SVG Export Plug-In . SVG Version: 6.00 Build 0)  -->
<svg version="1.1" id="Calque_2_00000027595419586273337070000014900237311828539041_"
	 xmlns="http://www.w3.org/2000/svg" xmlns:xlink="http://www.w3.org/1999/xlink" x="0px" y="0px" viewBox="0 0 295.5 387.1"
	 style="enable-background:new 0 0 295.5 387.1;" xml:space="preserve">
<style type="text/css">
	.st0{fill:#F7C900;stroke:#050505;stroke-width:3;stroke-miterlimit:10;}
	.st1{fill:none;stroke:#050505;stroke-width:3;stroke-miterlimit:10;}
</style>
<path class="st0" d="M126.4,4c30.8,0,127.7,12.9,127.5,21.8c-0.8,34.8-4.3,154.4-3.1,180.1s-64.4,127.1-121,129.6
	c-29.5,1.3-65.8-30.8-89.6-64.2C21.6,245,11.9,217,11.4,209.5C10.3,191.9,4.1,25.8,4.1,25.8S52.5,4,126.4,4z"/>
<polyline class="st0" points="36.3,132.1 68.3,77.3 129,158.7 190.9,79.7 223.4,134.5 "/>
<path class="st1" d="M88.5,133.4c0,0,0.6-48.5,25.7-57.8s43.6,70.6,43.6,70.6"/>
<path class="st1" d="M171.4,134.5c0,0-0.6-48.5-26.1-57.8s-44.2,70.6-44.2,70.6"/>
<path class="st0" d="M88.5,158.7c0,0,12.2,101.3,40.5,102S173.1,159,173.1,159"/>
</svg>
