<?xml version="1.0" encoding="UTF-8"?><svg id="Calque_1" xmlns="http://www.w3.org/2000/svg" viewBox="0 0 296.06 238.76"><defs><style>.cls-1{fill:#fff;}.cls-1,.cls-2{stroke:#000;stroke-miterlimit:10;}.cls-2{fill:none;}</style></defs><path class="cls-1" d="m1.79,160.16c.21-.64.24-1.42.64-1.89,7.02-8.29,10.58-18.34,14.51-28.21,2.07-5.18,3.91-10.47,6.21-15.55,4.27-9.41,10.84-11.61,17.7-2.26,2.16,2.94,4.31,5.91,6.8,8.56,7.78,8.25,18.54,7.21,24.65-2.49,1.74-2.76,2.72-6.04,3.74-9.18,1.33-4.07,2.03-8.36,3.57-12.34,2.57-6.63,6.59-8.09,13.03-5.23,3.43,1.52,6.74,3.4,10.28,4.58,12.4,4.12,22.72-.58,32.11-8.26,3.14-2.57,5.67-5.88,8.78-8.5,5.39-4.54,10.81-9.1,16.6-13.1,7.85-5.41,16.5-9.73,24.03-15.52,12.88-9.9,29.08-10.03,41.62,4.87,2,2.38,3.89,4.86,5.78,7.33,4.28,5.61,5.93,11.81,4.24,18.79-.5,2.08-.83,4.22-1.1,6.35-1.62,12.95,5.64,24.62,18.27,28.1,7.09,1.95,14.52,2.7,21.81,3.92,5.29.88,10.64,1.43,15.88,2.53,3.69.78,5.25,3.07,4.33,6.67-3.9,15.19-9.35,29.76-20.08,41.61-6.2,6.85-9.02,6.89-16.42,1.12-8.82-6.88-18.71-10.65-29.9-9.81-8.32.63-16.69,1.58-24.83,3.35-8.78,1.91-17.33,2.52-26.13.53-9.23-2.1-17.67-.22-25.1,5.84-7,5.71-14.01,11.43-23.13,13.53-2.2.51-4.35,1.18-6.55,1.69-8.91,2.04-16.05,6.79-22.05,13.64-9.12,10.4-18.53,20.56-27.74,30.89-5.66,6.34-12.68,7.59-20.54,5.77-3.03-.7-5.96-1.81-8.98-2.55-8.54-2.08-17.05-4.28-25.66-5.99-6.6-1.31-11.8-4.39-15.49-9.98-.53-.8-.73-1.82-1.31-3.34.92.54,1.3.62,1.42.85,4.2,7.37,10.93,10.21,18.98,11.67,8.73,1.58,17.35,3.93,25.86,6.47,13.69,4.08,19.3,2.52,28.66-8.23,8.53-9.79,17.31-19.35,25.99-29.01,5.34-5.95,11.99-9.87,19.76-11.42,11.05-2.19,20.54-7.11,29.01-14.48,7.36-6.41,16.08-9.27,25.75-7.03,10.15,2.35,19.93,1.19,29.94-.95,7.61-1.63,15.48-2.31,23.27-2.78,11.22-.68,21.01,3.43,29.81,10.2,6.68,5.14,9.02,4.93,14.59-1.36,10.09-11.4,15.19-25.28,19.27-39.6,1.04-3.65-.1-5.37-3.87-5.97-9.43-1.51-18.92-2.63-28.36-4.07-7.89-1.2-15.15-3.86-20.92-9.76-5.79-5.92-8.29-12.9-7.23-21.13.14-1.06.14-2.18.48-3.18,4.09-11.96-1.16-21.01-8.97-29.33-3.77-4.02-7.7-7.75-13.05-9.66-7.96-2.84-15.46-1.83-22.5,2.64-10.86,6.89-21.92,13.53-32.4,20.97-6.24,4.43-11.67,10.04-17.2,15.38-6.89,6.66-14.63,11.5-24.23,13.09-6.34,1.05-12.12-.59-17.74-3.28-2.51-1.2-5-2.51-7.62-3.43-3.47-1.23-6.04-.52-7.67,2.74-1.79,3.6-3.09,7.53-4.05,11.45-1.66,6.76-3.44,13.31-9.37,17.82-6.91,5.25-14.74,5.12-21.02-.94-2.91-2.81-5.32-6.16-7.77-9.41-6.47-8.54-11.75-8.01-15.96,1.92-3.6,8.5-6.55,17.28-10.37,25.67-2.65,5.82-6.24,11.21-9.48,16.75-.5.86-1.33,1.52-2.01,2.27-.19-.11-.38-.23-.58-.34Z"/><path class="cls-1" d="m1.65,170.18c.47-.83.82-1.76,1.42-2.48,6.96-8.24,12.72-17.26,17.76-26.79,1.84-3.48,4.15-6.79,6.68-9.81,3.23-3.85,6.36-4.28,10.93-2.07,2.12,1.03,4.18,2.21,6.19,3.44,7.85,4.8,15.74,4.92,23.85.58,7.31-3.9,13.98-8.56,18.31-15.77,3.87-6.46,9.52-8.91,16.78-9.55,17.29-1.52,32.47-8.11,44.43-20.91,8.53-9.13,18.92-15.38,29.79-21.08,4.94-2.59,9.61-5.7,14.57-8.21,15.94-8.08,31.77,6.8,31.66,20.47-.02,2.47.11,4.98-.29,7.4-1.99,12.13,3.35,21.4,11.12,29.91,6.44,7.06,14.43,10.94,23.68,12.67,2.83.53,5.65,1.35,8.34,2.39,6.36,2.47,9.18,7.61,7.95,14.05-1.43,7.51-6.47,12.46-12.97,12.6-1.81.04-3.71.02-5.44-.45-12.65-3.43-25.34-2.3-38.06-.62-4.58.6-9.15,1.4-13.75,1.62-7.27.34-14.66,1.11-21.81.19-14.07-1.83-26.11,1.73-36.72,10.9-6.54,5.65-14.05,9.18-22.78,9.38-11.47.26-19.72,6.06-26.84,14.46-8.11,9.57-16.42,18.97-24.93,28.19-7.21,7.81-16.22,10.21-26.44,7.01-10.21-3.2-20.53-6.19-30.46-10.14-6.31-2.51-9.48-8.78-12.67-14.54-.32-.58-.11-1.45.37-2.42.6,1.04,1.26,2.06,1.8,3.13,4.27,8.4,10.86,13.97,19.98,16.51,6.93,1.93,13.91,3.68,20.76,5.86,10.99,3.51,19.88.18,27.24-8.03,8.24-9.17,16.35-18.46,24.35-27.85,6.95-8.15,15.25-13.31,26.28-13.64,8.22-.24,15.34-3.45,21.76-8.6,6.55-5.25,13.33-10.4,22.01-11.44,4.65-.56,9.46-.8,14.1-.27,10.03,1.15,19.93.52,29.86-.83,6.38-.87,12.79-1.55,19.2-2.24,8.07-.88,16.08-.5,24.02,1.25,1.47.32,2.95.61,4.43.83,9.42,1.43,16.93-6.14,15.35-15.59-.71-4.24-3.64-6.79-7.55-8.02-5.42-1.7-11.05-2.77-16.38-4.71-18.2-6.63-29.11-24.13-27.14-43.36.94-9.13-1.48-16.78-8.87-22.54-5.93-4.63-12.62-5.88-19.35-2.61-8,3.89-15.52,8.72-23.4,12.86-7.99,4.2-14.84,9.74-21.1,16.2-12.96,13.37-28.97,20.47-47.43,21.96-6.08.49-10.54,2.94-13.77,8.09-5.5,8.78-13.52,14.46-22.98,18.42-7.15,3-13.83,2.04-20.39-1.57-2.54-1.4-5.03-2.91-7.64-4.14-3.73-1.76-6.01-1.53-8.61,1.67-2.82,3.47-5.39,7.24-7.49,11.18-5.28,9.88-11.46,19.08-18.9,27.43-.28-.13-.56-.26-.83-.38Z"/><path class="cls-1" d="m191.65,148.94c-9.78-.48-20.1-.95-29.81,2.78-5.86,2.25-11.33,5.56-16.82,8.67-4.87,2.76-9.53,6.16-15.47,5.47-3.25-.38-6.5-1.34-9.56-2.53-7.16-2.77-9.28-2.4-14.11,3.73-9.28,11.79-18.32,23.79-27.78,35.44-3.82,4.71-8.29,8.96-12.82,13.03-4.86,4.36-10.84,6.12-17.36,5.19-9.52-1.36-18.78-3.82-27.19-8.56-9.3-5.25-14.19-13.79-16.33-23.99-1.27-6.08.84-11.46,4.32-16.34,5.36-7.51,10.86-14.92,16.25-22.42,4.64-6.46,10.61-8.74,18.27-6.09,9.51,3.29,18.41,2.06,27.26-2.79,6.75-3.7,14.09-6.31,21.06-9.63,3.56-1.69,7.29-3.4,10.25-5.92,7.45-6.35,15.77-11.13,24.62-15.07,11.14-4.97,21.56-11.03,30.83-19.07,5.73-4.97,12.34-8.51,19.67-10.66,5.35-1.57,10.62-3.43,15.98-5,8.49-2.48,13.33.17,13.93,8.87.74,10.83,5.64,19.32,12.24,27.37,4.07,4.97,7.64,10.36,11.33,15.63.97,1.39,1.72,2.99,2.29,4.6,1.92,5.46.43,9.39-4.66,12.18-6.57,3.6-13.83,4.6-21.13,5.04-4.92.3-9.87.06-15.25.06Zm2.88-1.17c5.62-.37,13.16-.49,20.58-1.5,4.27-.58,8.55-2.15,12.46-4.05,4.5-2.18,5.6-5.76,3.51-10.27-1.65-3.57-3.77-6.98-6.06-10.2-3.91-5.51-8.12-10.81-12.2-16.19-4.42-5.82-6.63-12.34-7.13-19.66-.63-9.25-4.4-11.61-13.32-8.9-4.42,1.34-8.81,2.77-13.24,4.06-7.62,2.22-14.66,5.59-20.67,10.82-9.07,7.9-19.24,14.05-30.2,18.88-9.59,4.23-18.52,9.44-26.54,16.25-2.33,1.98-5.19,3.43-7.99,4.73-7.68,3.56-15.7,6.48-23.15,10.47-9.13,4.89-18.24,5.86-27.93,2.47-.61-.21-1.25-.32-1.87-.48-5.2-1.28-9.73-.05-12.94,4.25-6.61,8.86-13.06,17.83-19.42,26.86-2.43,3.45-3.32,7.5-2.6,11.69,1.84,10.75,6.86,19.77,16.96,24.36,7.54,3.43,15.76,5.48,23.83,7.55,6.51,1.67,12.7-.12,17.73-4.56,4.25-3.74,8.43-7.68,11.98-12.07,9.23-11.43,17.92-23.3,27.15-34.72,7.37-9.12,8.27-9.2,19.11-4.76,5.92,2.42,11.51,2.14,16.99-1.01,2.23-1.28,4.44-2.62,6.59-4.04,7.8-5.18,16.15-9.17,25.57-9.87,6.93-.52,13.93-.1,22.79-.1Z"/><path class="cls-1" d="m110.39,1.4c.82.51,1.75.9,2.46,1.54,11.38,10.35,13.72,24.05,5.43,37.11-3.86,6.07-9.4,11.07-14.02,16.68-2.58,3.13-5.11,6.35-7.19,9.82-2.54,4.23-2.09,8.61.6,12.78,6.48,10.01,17.35,12.36,27.35,5.68,2.65-1.77,5.3-3.82,7.28-6.28,7.02-8.75,15.79-15.04,25.95-19.57,8.71-3.88,16.46-9.26,23.43-15.71,8.62-7.98,18.85-10.7,30.27-9.94,4.93.33,9.84.8,14.77,1.15,3.72.27,4.26-.26,4.67-3.96.97-8.64,1.95-17.27,2.97-25.9.13-1.06.53-2.08.81-3.12.31.06.61.12.92.18-.05.86-.07,1.73-.17,2.59-.99,8.74-2.04,17.48-2.96,26.22-.53,4.99-1.45,5.88-6.54,5.54-6.21-.41-12.41-1.04-18.63-1.23-9.06-.27-17.19,2.54-23.92,8.68-9.05,8.26-19.29,14.62-30.41,19.66-7.81,3.54-13.81,9.3-19.32,15.7-3.75,4.36-8.09,7.98-13.61,9.98-10.27,3.73-21.77-1.5-25.67-11.73-2.35-6.17-.14-11.52,3.66-16.15,4.07-4.96,8.7-9.47,13.07-14.19,5.17-5.58,8.56-12.05,9.61-19.64,1.08-7.81-.79-14.71-6.55-20.31-1.61-1.56-3.34-3-5.01-4.49.25-.36.5-.73.75-1.09Z"/><path class="cls-1" d="m1.84,148.55c.04-.72-.09-1.5.15-2.15,3.5-9.68,6.87-19.41,10.65-28.97,2.27-5.75,4.54-11.69,7.99-16.74,5.23-7.67,13.7-8.64,21.12-3.07,2.88,2.16,5.24,5.03,7.82,7.6,1.59,1.59,3,3.39,4.73,4.81,3.27,2.67,6.29,2.3,8.91-1.06,1.1-1.42,2.09-3.07,2.61-4.77,2.46-8,5.31-15.93,6.96-24.11,2.55-12.58-3.2-22.54-11.84-31.06-3.07-3.03-7.23-2.91-11.27-2.56-3.31.29-6.63.66-9.95.77-5.88.19-10.48-2.36-13.44-7.35-2.52-4.23-4.7-8.67-6.81-13.13-3.74-7.89-8.79-14.48-16.94-18.24-.31-.14-.51-.54-.45-1.48,1.08.39,2.23.65,3.23,1.2,6.75,3.71,11.33,9.41,14.71,16.19,2.11,4.23,4.12,8.5,6.29,12.69,3.4,6.55,8.82,9.41,16.16,8.61,2.99-.32,5.97-.74,8.97-.94,5.4-.38,9.91,1.48,13.35,5.72,8.85,10.92,13.02,22.81,7.94,36.8-1.86,5.14-3.04,10.52-4.83,15.69-.86,2.49-2.15,4.94-3.71,7.07-2.73,3.73-6.73,4.26-10.43,1.46-1.95-1.47-3.51-3.44-5.26-5.17-2.58-2.57-4.91-5.46-7.79-7.63-6.42-4.84-13.84-4.16-18.41,2.39-3.43,4.93-5.8,10.7-8.02,16.34-3.77,9.58-7.05,19.35-10.56,29.03-.28.77-.81,1.45-1.23,2.17-.22-.03-.44-.07-.66-.1Z"/><path class="cls-1" d="m136.56,1.8c.07.77.29,1.55.2,2.3-1.78,15.23-2.91,30.55-7.29,45.39-1.46,4.93-3.94,8.66-8.61,11-2.48,1.24-4.73,2.93-7.03,4.51-.69.47-1.21,1.21-1.72,1.9-2.14,2.94-2.3,5.79-.48,7.64,1.8,1.82,5.47,1.88,7.87-.63,2.48-2.59,4.66-5.62,6.31-8.8,2.31-4.48,5.73-6.86,10.52-8.12,8.18-2.14,16.65-3.83,24.23-7.35,6.46-3,12.28-7.83,17.59-12.72,7.28-6.69,15.34-11.45,25.11-12.73,12.41-1.63,19.5-8.49,21.74-20.65.11-.6.42-1.17.8-2.21.42.77.89,1.21.82,1.54-1.7,7.68-3.91,15.3-11.54,19.13-4.05,2.03-8.69,3.1-13.18,3.99-8.38,1.65-15.71,5.17-21.59,11.33-10.81,11.32-24.11,17.71-39.39,20.14-7.22,1.14-12.42,4.37-15.46,11.38-1.24,2.86-3.93,5.34-6.5,7.3-2.8,2.14-6.64,1.51-8.6-.57-1.96-2.09-2.4-5.47-.2-8.32,1.98-2.55,4.46-5.2,7.31-6.49,6.9-3.11,10.43-8.27,11.53-15.46,2.04-13.35,4.06-26.71,6.09-40.06.18-1.17.38-2.33.57-3.5.3.02.59.05.89.07Z"/><path class="cls-1" d="m2.45,18.05c1.67,1.32,3.73,2.36,4.95,4.02,3.16,4.3,6.09,8.79,8.86,13.35,2.27,3.75,3.95,7.87,6.3,11.58,3.81,6.03,9.53,9.1,16.64,9.56,2.36.15,4.71.3,7.07.42,9.25.49,14.68,4.95,16.79,14.01,1.34,5.76.43,11.35-2.21,16.58-2.15,4.26-5.38,5.52-9.92,4.05-2.75-.89-5.39-2.12-8.12-3.06-12.93-4.44-23.27-.65-29.95,11.38-3.38,6.08-6.18,12.49-9.23,18.75-.37.75-.72,1.51-1.64,2.25,0-.83-.29-1.8.04-2.45,4.08-7.88,7.5-16.25,12.57-23.44,7.2-10.2,17.47-12.36,29.15-7.76,2.4.94,4.76,1.97,7.2,2.79,4.23,1.41,6.73.32,8.72-3.63,2.64-5.23,3.04-10.72,1.6-16.3-1.79-6.94-6.27-10.68-13.47-11.45-2.56-.27-5.13-.45-7.71-.54-9.48-.33-16.22-5-20.67-13.15-2-3.67-3.39-7.71-5.7-11.16-3.13-4.67-6.84-8.97-10.41-13.33-.45-.55-1.58-.54-2.4-.79.51-.56,1.03-1.12,1.54-1.68Z"/><path class="cls-1" d="m81.53,1.82c-.09.96.07,2.03-.3,2.87-2,4.58-3.49,9.56-6.36,13.53-3.71,5.1-4.7,9.94-2.05,15.56,2.24,4.74,4.14,9.69,6.87,14.14,3.27,5.32,6.78,5.75,11.86,2.04,5.27-3.86,9.47-8.71,12.34-14.61,2.97-6.12,2.41-11.87-2.23-17.01-3.87-4.3-7.83-8.52-11.71-12.82-.91-1.01-1.65-2.19-2.12-3.83.53.24,1.2.34,1.56.73,4.35,4.73,8.72,9.44,12.94,14.29,5.81,6.68,6.82,13.59,1.96,20.96-3.3,5.02-7.55,9.61-12.09,13.57-5.14,4.48-10.21,3.7-13.52-2.16-3.54-6.3-6.14-13.16-8.79-19.92-1.14-2.91-.31-5.99,1.65-8.52,4.18-5.42,7.64-11.16,8.66-18.08.05-.32.43-.59.66-.89.22.06.45.12.67.18Z"/><path class="cls-1" d="m160.17,2.26c-1.99,1.75-3.98,3.49-5.96,5.25-7.86,6.98-10.14,15.96-8.92,25.98.76,6.22,4.29,8.7,10.51,8.11,5.06-.48,9.11-3.1,12.84-6.23,2.95-2.48,5.75-5.17,8.44-7.93,5.5-5.63,12.21-8.98,19.74-10.94,2.48-.65,4.92-1.54,7.31-2.47,4.99-1.95,8.76-5.32,11.23-10.11.44-.86,1.01-1.65,1.92-2.2-1.04,4.88-3.72,8.88-7.99,11.17-4.5,2.41-9.38,4.24-14.27,5.75-6.75,2.07-12.38,5.64-17.51,10.42-4.53,4.22-9.5,7.96-14.34,11.84-.81.65-1.91.97-2.92,1.3-10.47,3.48-16.35-.92-16.81-11.92-.51-12.32,5.24-21.1,14.61-28.12.45-.33,1.1-.39,1.66-.58.15.23.3.47.45.7Z"/><path class="cls-1" d="m268.55,112.45c-7.09-.71-13.57-2.24-18.77-7.18-3.88-3.67-5.51-8.15-3.95-13.43,1.63-5.52,5.58-8.63,11.12-9.37,7.55-1.01,14.83.35,21.38,4.24,2.39,1.42,4.62,3.61,6.1,5.96,4.15,6.6,1.55,14.39-5.71,17.24-3.23,1.27-6.77,1.72-10.17,2.54Zm-7.66-28.68c-.45.02-1.52.04-2.59.12-5.41.42-9.48,3.35-10.95,8.04-1.61,5.11-.04,9.47,4.04,12.59,2.57,1.97,5.62,3.97,8.71,4.49,4.97.84,10.21,1.01,15.22.43,4.71-.55,8.35-3.54,9.29-8.59.98-5.29-1.65-9.17-5.73-12.06-5.17-3.66-11.14-4.84-17.99-5.03Z"/><path class="cls-1" d="m2.99,29.52c2.26,3.4,4.76,6.67,6.73,10.23,3.48,6.27,6.51,12.79,10.02,19.05,1.56,2.78,3.88,5.13,5.73,7.76,2.25,3.2,2.09,5.74-.72,8.3-7.11,6.5-14.31,12.89-21.49,19.31-.28.25-.72.32-1.55.09.39-.62.68-1.37,1.2-1.85,6.34-5.76,12.62-11.58,19.11-17.16,4.05-3.48,4.5-5.18,1.05-9.31-5.34-6.41-9.12-13.69-12.66-21.2-2.12-4.51-5.19-8.58-7.81-12.85-.3-.49-.53-1.02-.79-1.54.39-.28.79-.56,1.18-.84Z"/><path class="cls-1" d="m17.99,1.39c.82.34,1.72.56,2.44,1.04,4.84,3.25,8.34,7.58,10.59,13,1.35,3.25,2.75,6.55,4.68,9.45,2.3,3.44,6.28,3.72,9.58,1.24,2.66-2.01,3.14-4.24,1.14-6.92-1.98-2.65-4.33-5.03-6.35-7.66-2.17-2.82-3.75-5.92-3.58-10.3.73.8,1.24,1.09,1.3,1.46.88,4.87,3.75,8.57,6.98,12.07.87.94,1.74,1.9,2.49,2.94,2.64,3.67,2.58,6.32-.12,8.86-3.29,3.1-7.84,3.78-10.77,1.18-1.7-1.51-3.29-3.5-4.12-5.6-3.14-7.99-6.75-15.54-14.88-19.89.21-.29.42-.57.62-.86Z"/><path class="cls-1" d="m206.04,2.71c-2.7,1.57-5.23,3.82-8.14,4.55-5.34,1.33-10.89,2.21-16.38,2.44-4.59.2-6.97-3.81-5.35-8.36.34.76.67,1.24.78,1.77.94,4.23,1.98,5.29,6.24,5.26,7.4-.05,14.5-1.33,20.55-6.07.45-.35,1.07-.48,1.61-.71.23.37.45.74.68,1.12Z"/><path class="cls-1" d="m1.64,69.15c4.1-7.37,1.89-14.63-.32-22.54,5.15,5.44,5.5,20.06.32,22.54Z"/><path class="cls-1" d="m240.43,48.43c-1.41-2.06-2.47-3.36-3.16-4.84-.13-.28,1.21-1.25,1.87-1.91,1.15,1.22,2.42,2.37,3.36,3.74.18.26-.95,1.42-2.07,3.01Z"/><path class="cls-2" d="m194.52,147.77c-8.86,0-15.86-.42-22.79.1-9.41.7-17.76,4.69-25.57,9.87-2.14,1.42-4.35,2.76-6.59,4.04-5.48,3.15-11.08,3.43-16.99,1.01-10.84-4.44-11.74-4.36-19.11,4.76-9.23,11.43-17.92,23.29-27.15,34.72-3.54,4.39-7.73,8.32-11.98,12.07-5.03,4.44-11.22,6.24-17.73,4.56-8.07-2.07-16.29-4.13-23.83-7.55-10.1-4.59-15.12-13.61-16.96-24.36-.72-4.19.17-8.24,2.6-11.69,6.36-9.03,12.81-18.01,19.42-26.86,3.21-4.3,7.74-5.53,12.94-4.25.63.15,1.27.27,1.87.48,9.69,3.39,18.8,2.42,27.93-2.47,7.44-3.99,15.46-6.91,23.15-10.47,2.8-1.3,5.66-2.75,7.99-4.73,8.02-6.81,16.95-12.02,26.54-16.25,10.96-4.83,21.13-10.98,30.2-18.88,6.01-5.23,13.04-8.6,20.67-10.82,4.43-1.29,8.83-2.71,13.24-4.06,8.91-2.71,12.69-.35,13.32,8.9.49,7.32,2.71,13.85,7.13,19.66,4.09,5.38,8.29,10.68,12.2,16.19,2.29,3.22,4.4,6.63,6.06,10.2,2.09,4.51.98,8.08-3.51,10.27-3.9,1.9-8.19,3.47-12.46,4.05-7.42,1-14.95,1.13-20.58,1.5Zm-152.5,6.22c-5.79-.45-10.62,1.61-14.23,6.05-3.98,4.89-7.97,9.84-11.28,15.19-4.03,6.5-3.74,13.45-.24,20.26,4.24,8.25,11.59,12.32,20,15.02,13.59,4.36,22.97,2.21,31.46-8.99,8.86-11.67,16.9-23.98,24.87-36.29,1.93-2.98,2.81-7.01,3.09-10.64.55-6.99-4.48-11.39-11.43-10.29-3.02.48-6.23,1.3-8.8,2.88-10.36,6.33-21.15,9.98-33.44,6.82Zm128.5-55.04c-3.54,1.06-7.53,1.75-11.05,3.41-9.41,4.45-18.76,9.07-27.83,14.16-3.83,2.15-7.55,5.16-10.18,8.63-4.66,6.14-3.27,12.87,3.16,20.75,5.17,6.33,10.81,7.99,17.95,5.21,2.1-.82,4.21-1.63,6.23-2.63,14.66-7.19,30.28-10.71,46.42-12.36,3.92-.4,7.93-.9,11.63-2.15,4.42-1.49,5.79-5.54,3.52-9.67-1.37-2.49-3.2-4.88-5.3-6.79-7.6-6.91-16.24-12.32-25.7-16.31-2.62-1.11-5.56-1.44-8.85-2.26Z"/><path class="cls-1" d="m42.03,153.99c12.29,3.16,23.08-.49,33.44-6.82,2.57-1.57,5.78-2.4,8.8-2.88,6.95-1.1,11.97,3.3,11.43,10.29-.28,3.63-1.16,7.65-3.09,10.64-7.97,12.31-16.02,24.62-24.87,36.29-8.49,11.19-17.87,13.34-31.46,8.99-8.41-2.7-15.76-6.77-20-15.02-3.5-6.81-3.79-13.76.24-20.26,3.31-5.34,7.3-10.3,11.28-15.19,3.61-4.44,8.44-6.49,14.23-6.05Zm-.71,1.61c-4.75-.36-8.85,1.25-11.77,4.85-4.3,5.31-8.56,10.73-12.16,16.52-3.48,5.61-2.87,11.74.09,17.55,4.77,9.37,13.4,13.02,22.93,15.46,9.27,2.38,17.23.41,23.75-6.62,2.54-2.74,4.93-5.67,7.06-8.74,5.8-8.35,11.62-16.71,17.05-25.31,2.42-3.83,4.62-8.08,5.67-12.45,1.89-7.86-3.19-12.72-11.01-10.72-4.19,1.07-8.25,3.05-12.05,5.18-7.16,4-14.59,6.12-22.82,4.89-2.22-.33-4.48-.42-6.73-.62Z"/><path class="cls-1" d="m170.53,98.95c3.29.81,6.23,1.15,8.85,2.26,9.46,4,18.09,9.4,25.7,16.31,2.1,1.91,3.93,4.3,5.3,6.79,2.27,4.14.9,8.18-3.52,9.67-3.7,1.25-7.71,1.75-11.63,2.15-16.14,1.65-31.76,5.17-46.42,12.36-2.02.99-4.13,1.81-6.23,2.63-7.13,2.77-12.78,1.12-17.95-5.21-6.43-7.88-7.81-14.61-3.16-20.75,2.64-3.48,6.35-6.48,10.18-8.63,9.07-5.09,18.42-9.71,27.83-14.16,3.52-1.67,7.5-2.35,11.05-3.41Zm-50.1,31.98c-.07,14.31,12.68,23.05,23.96,17.7,16.58-7.85,33.88-12.71,52.16-14.14,2.24-.18,4.49-.42,6.7-.83,6.66-1.21,8.44-5.29,4.55-10.81-1.59-2.25-3.51-4.44-5.74-6.01-5.95-4.19-12.06-8.17-18.27-11.96-8.18-4.99-16.57-5.13-25.06-.52-3.76,2.04-7.74,3.69-11.51,5.73-6.69,3.6-13.46,7.11-19.89,11.15-3.97,2.49-6.81,6.23-6.88,9.68Z"/><path class="cls-2" d="m120.43,130.93c.08-3.45,2.91-7.19,6.88-9.68,6.43-4.03,13.2-7.54,19.89-11.15,3.77-2.03,7.75-3.68,11.51-5.73,8.49-4.61,16.88-4.47,25.06.52,6.21,3.79,12.32,7.77,18.27,11.96,2.23,1.57,4.15,3.76,5.74,6.01,3.9,5.52,2.11,9.6-4.55,10.81-2.21.4-4.46.65-6.7.83-18.28,1.43-35.58,6.29-52.16,14.14-11.28,5.34-24.03-3.39-23.96-17.7Z"/></svg>