<?xml version="1.0" encoding="utf-8"?>
<!-- Generator: Adobe Illustrator 27.5.0, SVG Export Plug-In . SVG Version: 6.00 Build 0)  -->
<svg version="1.1" id="Calque_1" xmlns="http://www.w3.org/2000/svg" xmlns:xlink="http://www.w3.org/1999/xlink" x="0px" y="0px"
	 viewBox="0 0 612 376.87" style="enable-background:new 0 0 612 376.87;" xml:space="preserve">
<path d="M0,345.96c0.61-0.12,1.29-0.11,1.83-0.38c3.76-1.9,7.07-0.73,8.03,3.29c0.49,2.04,1.61,2.26,3.22,3.02
	c2.21,1.05,4.27,3,5.63,5.07c1.23,1.88,0.66,3.79-2.04,4.91c-3.04,1.26-5.66,0.74-8.38-0.49c-0.91-0.41-1.82-0.85-3.06-1.43
	c-0.04-3.63-0.89-7.29-5.23-8.9C0,349.35,0,347.65,0,345.96L0,345.96z"/>
<path d="M612,47.61c-2.31-0.18-4.61-0.35-6.92-0.53c-0.03-0.18-0.07-0.37-0.1-0.55c0.39-0.16,0.78-0.31,1.17-0.47
	c0,0.15-0.02,0.31-0.02,0.46c-12.83-1.27-25.66-2.55-38.83-3.86c0.46-0.53,0.77-0.89,0.68-0.79h-17.32l-0.16-0.78
	c1.07-0.25,2.14-0.73,3.21-0.73c6.44,0.03,12.91-0.12,19.33,0.34c6.8,0.49,13.56,1.59,20.33,2.45c4.71,0.59,9.42,1.15,14.11,1.86
	c1.54,0.23,3.01,0.86,4.52,1.31L612,47.61L612,47.61z"/>
<path d="M0,300.06h4.19c-1.17-1.36-2-2.31-3.35-3.88c1.76,0.83,2.87,1.36,3.98,1.88c0.2-0.15,0.4-0.3,0.6-0.46
	c-0.72-1.05-1.43-2.1-2.19-3.21h5.02c0.01-0.21,0.02-0.42,0.03-0.63c-1.88-0.17-3.77-0.33-5.83-0.51c1.26-3.7,3.57-6.2,6.97-6.96
	c1.47-0.32,3.44,0.96,4.94,1.91c0.31,0.19-0.27,2.26-0.83,3.25c-1.36,2.39-3.17,4.53-4.37,6.98c-1.36,2.76-3.16,3.6-6.03,2.62
	c-0.97-0.33-2.09-0.26-3.14-0.37c0-0.21,0-0.42,0-0.64L0,300.06z"/>
<path d="M0,272.65c2.85,1.27,2.86,1.28,2.68,5c2.2,0.33,4.43,0.67,6.66,1.01c-1.82,5.81-3.8,6.97-9.34,5.46v-11.48V272.65z"/>
<path d="M0,250.97c1.98-0.45,4.8,1.58,4.54,3.65c-0.42,3.32-0.79,6.84-4.54,8.46V250.97L0,250.97z"/>
<path d="M0,301.97c0.1,0,0.21,0.01,0.31,0.02c5.51,0.55,5.83,1.17,2.93,5.88c-1.03,1.68-2.16,3.29-3.24,4.93c0-3.61,0-7.23,0-10.84
	V301.97z"/>
<path d="M0,285.4h4.67l0.7,0.75c-1.79,1.66-3.58,3.32-5.37,4.98C0,289.22,0,287.3,0,285.4L0,285.4z"/>
<path d="M601.21,48.22c2.24,0.09,4.48,0.14,6.71,0.27c1.36,0.08,2.72,0.26,4.08,0.39v1.28c-3.63-0.68-7.25-1.36-10.88-2.04
	L601.21,48.22L601.21,48.22z"/>
<path d="M0,215.27c1.3,0.24,2.6,0.47,4.56,0.83c-1.83,1.46-3.2,2.54-4.56,3.63C0,218.24,0,216.76,0,215.27L0,215.27z"/>
<path d="M57.93,221.73c1.74-3.71,4.48-6.06,8.8-6.86c-3.36-0.77-6.72-1.55-10.08-2.32c-0.06,0.27-0.11,0.53-0.17,0.8
	c1.68,0.3,3.35,0.61,5,0.91c-2.23,5.43-6.56,6.75-13.1,3.67c0.85-0.97,1.64-1.89,2.43-2.8c0.8,1.02,1.48,1.88,2.16,2.74
	c-0.45-2.84,0.36-5.36,2.45-7.56c1.55-1.63,3.14-3.21,4.47-4.56c-1.18-1.11-2.35-1.92-3.02-3.03c-0.16-0.26,1.27-2.09,2.09-2.2
	c1.29-0.16,2.68,0.53,4.87,1.07c1.5-1.46,3.82-3.57,5.96-5.84c1.4-1.49,2.62-2.51,4.86-1.51c1.6,0.71,3.45,0.85,5.84,1.4
	c-2.57,2.31-3.82,5.5-7.8,5.28c0.49,0.2,0.98,0.41,1.65,0.69c-0.88,1.04-1.73,2.04-2.58,3.04c0.12,0.19,0.25,0.37,0.37,0.56
	c0.99-0.56,1.98-1.12,2.39-1.35c2.99,0.64,5.48,1.17,8.3,1.78c-1.93,2.05-3.97,4.23-5.53,5.89c0.2,2.79,0.36,5.03,0.58,8.09
	c-2.98-0.26-5.62-0.68-8.26-0.65c-1.47,0.01-3.03,0.6-4.33,1.32c-0.3,0.16,0.3,1.94,0.57,3.44c-0.43,0.49-1.25,1.44-2.25,2.6
	c3.26,1.4,6.31,2.72,9.07,3.91c0.41,1.47,0.8,2.83,1.16,4.21c0.11,0.41,0.33,1.03,0.15,1.23c-1.74,1.9-2.77,3.82-0.74,6.17
	c0.05,0.06-0.41,0.57-0.63,0.86c-0.41-0.34-1.06-0.6-1.2-1.02c-0.73-2.19-1.32-4.42-2.55-6.49c0.63,2.54,1.25,5.08,1.97,8
	c-1.41,0.08-2.7,0.15-4.09,0.22c-0.43-1.45-0.81-2.74-1.18-4.02l-0.49,0.09c0.2,1.21,0.41,2.43,0.66,3.92
	c-2.14-0.17-4.05-0.32-6.32-0.5c0.79-1.12,1.63-2.31,2.59-3.67c-2.62-0.87-5.15-0.9-7.26-3.21c-1.27-1.39-4.79-0.72-7.3-0.97
	c-0.4-0.04-0.8-0.08-1.72-0.92c2.1-1.53,4.09-3.24,6.34-4.5c1.12-0.63,2.72-0.36,4.09-0.61c0.29-0.05,0.48-0.6,0.99-1.27
	c-4.59-0.55-8.84-1.07-13.1-1.51c-0.14-0.01-0.37,0.83-0.69,1.59c2.15-0.11,3.96-0.2,6.32-0.32c-2.08,3.62-4.24,6.09-9.18,6
	c1.6,1.08,2.23,1.5,2.96,1.99c-1.55,1.73-2.71,3.97-4.52,4.77c-1.83,0.8-4.28,0.18-6.54,0.41l5.28,0.97
	c0.16,0.25,0.32,0.51,0.48,0.76c-3.31,2.56-6.62,5.12-9.92,7.67c1.66,2.53,1.1,3.74-2.24,5.12l0.09,0.1
	c0.14-0.82,0.29-1.64,0.5-2.84c-1.65-0.82-3.4-1.68-5.07-2.51c0-0.96,0.07-1.89-0.01-2.8c-0.26-3.13,2.38-7.6,5.42-7.67
	c3.19-0.07,4.09-2.25,5.85-3.99c-7.3-6.27-9.47-14-6.91-23.22c0.37,0.63,0.79,1.34,1.49,2.53c1.38-2.03,2.33-3.43,3.4-5.01
	c1.83,2.47,3.63,1.83,5.34-0.4c0.1,3.97,7.5,3.64,5.05,9.11c0.55-0.45,1.1-0.89,1.89-1.53c0.18,0.59,0.35,0.94,0.38,1.3
	c0.35,4.35,1.01,4.44,4.71,2.74c1.79-0.82,4.36,0.05,7.08,0.18c-1.05,1.79-1.78,3.03-2.51,4.26c0.16,0.11,0.31,0.22,0.47,0.33
	c1.62-1.37,3.24-2.74,4.86-4.12c0.99,0.31,1.98,0.62,2.66,0.83c-1.09,0.72-2.27,1.5-3.46,2.28c0.16,0.43,0.32,0.87,0.48,1.3
	c1.74-0.29,3.52-0.44,5.19-0.96c0.42-0.13,0.7-1.46,0.61-2.17c-0.06-0.47-0.89-1.12-1.44-1.18c-1.34-0.17-2.72-0.04-4.08-0.03
	L57.93,221.73z"/>
<path d="M8.16,314.99c0.96,0.27,2.05,0.56,3.2,0.88c-0.93-4.73-0.6-5.35,2.05-5.16c0.25-1.43,0.52-2.76,0.69-4.1
	c0.08-0.63,0.16-1.37-0.08-1.91c-1.17-2.64-0.36-4.22,2.29-4.8c0.96-0.21,2.1-0.86,2.62-1.66c2.2-3.36,4.29-6.8,6.21-10.33
	c0.64-1.17,0.6-2.71,0.87-4.08c0.71,0.55,1.42,1.09,2.14,1.64c-0.89-0.36-1.77-0.71-1.87-0.75c-0.51-1.88-0.89-3.27-1.29-4.73
	c0.49-0.91,1.2-2.22,1.91-3.54c-0.3-0.26-0.61-0.52-0.91-0.77c2.55-0.6,5.09-1.22,7.64-1.78c0.61-0.13,1.52,0.16,1.84-0.18
	c2.43-2.55,3.49-1.12,4.08,1.23c1.26-0.86,2.43-1.66,4.17-2.85c-1.99-0.28-3.7-0.53-6.42-0.91c3.74-5.11,7.09-9.7,11.03-15.07
	c1.01,1.38,2.11,2.41,2.63,3.68c1.27,3.11,2.26,6.32,3.67,10.38c-1.8-0.44-3.11-0.76-4.43-1.08c-0.37,0.85-0.84,1.95-1.59,3.68
	c2.38-0.83,4.33-1.5,6.41-2.22c0.68,0.96,1.28,1.81,1.89,2.65c1.09,1.51,1.64,2.73-0.85,3.55c-0.64,0.21-1.27,1.75-1.2,2.61
	c0.53,5.96-3.04,9.28-8.9,8.29c-1.35-0.23-2.81,0.16-5.24,0.34c1.92,1.47,3.19,2.43,5.04,3.84c-2.92-0.68-5.13-1.19-7.33-1.7
	c0.22,0.41,0.47,1.11,0.91,1.64c2.2,2.68-1.3,4.38-1.11,6.7c-0.81-0.38-2-0.53-2.37-1.16c-1.71-2.99-3.2-6.12-4.76-9.2
	c-0.27,0.1-0.54,0.21-0.81,0.31c1.41,3.33,2.82,6.65,4.35,10.26c-1.17,0.47-2.47,0.98-4.09,1.63c-1.4-3.11-2.7-6.02-4-8.92
	c-0.18,0.07-0.36,0.14-0.54,0.22c1.14,2.86,2.29,5.72,3.54,8.85c-1.58,0.18-2.81,0.32-4.18,0.48c-0.68-1.51-1.32-2.93-1.96-4.34
	c-0.17,0.05-0.34,0.1-0.52,0.15c0.44,1.37,0.87,2.74,1.37,4.31c-1.47,0.19-2.77,0.35-4.08,0.52c-0.02,0.25-0.03,0.5-0.05,0.75
	c1.62,0.15,3.25,0.29,4.79,0.43c0.1,0.92,0.21,1.86,0.31,2.8c0.68-0.08,1.78,0.05,1.97-0.3c0.45-0.85,0.48-1.92,0.66-2.8
	c2.3-0.79,4.91-1.69,7.4-2.55c0.23,0.88,0.58,1.86,0.73,2.86c0.13,0.86,0.03,1.76,0.03,2.64l-1.26,0.55
	c2.03,1.31,4.02,2.67,6.08,3.91c2.89,1.73,3.11,4.54,3.21,7.43c-4.55,1.65-5.59,1.31-8.59-2.43c-0.42-0.52-1.44-0.74-2.2-0.79
	c-4.81-0.35-6.21-1.52-7.55-5.9c-0.3-0.99-1.46-1.78-2.36-2.49c-0.18-0.14-0.96,0.49-1.56,0.81c-0.27-0.69-0.69-1.73-1.38-3.48
	c-0.94,4.11,1.85,6.56,2.43,9.95c-3.28,0.85-6.59,1.72-9.9,2.58c-0.02,0.18-0.04,0.36-0.06,0.54c1.5,0.1,3.01,0.2,5.24,0.34
	c0.84,3.12,1.81,6.72,2.87,10.69c-5.02,1.76-7.01-4.06-11.37-4.21c0.67,1.36,1.34,2.71,2.01,4.07c-0.25,0.13-0.51,0.26-0.76,0.39
	c-0.99-1.74-1.98-3.48-2.96-5.22c-0.1,0.03-0.2,0.07-0.3,0.1c0.35,1.03,0.7,2.07,1.17,3.48c-1.49-0.33-2.77-0.62-4.31-0.97v6.83
	c-3.44-0.69-4.03-2.17-2.33-5.06c2.19-3.71,4.01-7.65,6.02-11.54L8.16,314.99z"/>
<path d="M35.89,171.05c2.52-1,5.05-0.99,7.25-3.31c2.96-3.11-0.68-5.14,0.15-7.71c0.56-0.26,1.41-0.69,2.29-1.07
	c3.76-1.64,9.99,0.18,11.95,3.47c1.98,3.33,0.33,6.52-3.61,6.95c-0.51,0.06-1.01,0.17-1.67,0.28c0.21,0.85,0.43,1.55,0.54,2.26
	c0.11,0.73,0.12,1.47,0.17,2.22c0.75-0.11,1.44-0.22,2.45-0.38c-0.09,2.39,2.98,4.39,0.56,6.76c-1.29,1.26-3.09,2.01-4.71,2.9
	c-1.77,0.97-3.6,1.84-5.07,2.59c0.06,1.34,0.57,3.23,0.07,3.55c-1.22,0.77-2.9,0.81-4.79,1.23c0.16-1.9,0.25-2.98,0.4-4.8
	c-1.01,0.94-1.52,1.42-2.05,1.91c-4.55-2.9-5.13-6.15-1.76-9.76c-1.19-1.42-2.37-2.83-3.57-4.26c-3.12,2.2-6.73,2.42-9.29,0.25
	c-1.8-1.53-3.31-3.41-2.29-5.92c1.55-3.8,3.41-4.61,8.8-3.57c3.24,0.63,4.21,3.27,4.18,6.4L35.89,171.05z"/>
<path d="M119.13,192.66c-3.81-0.34-7.63-0.69-10.55-0.95c0.37,3.33,0.74,6.64,1.18,10.55c-4.56,0.33-8.73,0.63-12.63,0.92
	c1.42-3.19,2.39-6.08,3.98-8.58c0.73-1.15,2.67-1.53,3.95-2.2c-0.49-0.42-1.34-1.16-2.78-2.4c-0.95,1.12-1.78,2.39-2.89,3.35
	c-1.22,1.06-2.91,2.81-4,2.55c-2.79-0.65-3.7,1.2-5.37,2.7c0.9,0.58,1.64,1.06,2.69,1.74c-5.12,4.69-10.29,0.23-15.57,1.1
	c2.84-4.5,6.08-6.75,11.11-5.22c-1.56-0.35-3.11-0.7-4.93-1.1c2.38-2.99,4.85-5.37,8.94-5.53c-0.71-0.24-1.41-0.49-2.13-0.74
	c0.12-1.73,5.07-4.9,8.27-4.91c-0.98-0.45-1.48-0.68-1.99-0.91c4.29-5.39,8.3-6.24,12.75-2.38c-2.27,1.99-4.49,3.94-6.85,6
	c2.15,0.83,4.5,1.73,7.18,2.76c3.33-3.11,6.91-6.45,10.5-9.79c0.2,0.14,0.4,0.27,0.6,0.41c-0.29,0.79-0.59,1.57-0.68,1.81
	c2.08,2.23,3.96,4.38,6.01,6.36c0.53,0.51,1.59,0.57,2.42,0.67c0.95,0.11,1.92,0.03,3.27,0.73c-1.5,1.34-3,2.68-4.71,4.21
	c-0.59-1.29-1.11-2.4-1.61-3.49c-2.07,0.78-4.12,1.56-6.18,2.34l0,0H119.13z"/>
<path d="M254.72,93.16c0.39-0.64,0.63-1.57,1.2-1.88c2.67-1.44,5.44-2.71,8.39-4.14c-2.41-3.56-5.4-1.83-7.98-1.35
	c-1.82,0.34-3.65,1.26-5.21,2.31c-3.99,2.71-7.91,2.65-12.46-0.12c6.44-1.91,11.39-6.95,19.16-5.84c-1.1-0.69-1.58-0.98-2.79-1.73
	c3.03-0.91,5.49-1.52,7.85-2.41c1.73-0.65,3.26-1.82,4.98-2.5c2.74-1.09,5.3-0.57,8.12,1.63c-2.17,1.01-3.92,1.82-5.68,2.63
	c2.11,3.59,4.73,3.64,8.11,1.75c2.48-1.39,5.33-2.13,8.7-3.43c-1.43,3.03-1.93,5.71-3.55,7.02c-1.34,1.09-3.99,0.56-6.1,1.22h5.39
	c1.68,3.59-0.6,5.08-2.79,6.13c-2.97,1.42-6.18,2.35-9.56,3.6c-0.08-1.39-0.16-2.76-0.26-4.55c-2.72,4.89-6.61,1.4-10.15,2.59
	c0.29-1.26,0.45-1.91,0.6-2.56c-1.1,4-4.15,0.65-5.99,1.62v0.01L254.72,93.16z"/>
<path d="M92.07,244.32c-0.39,1.01-0.77,1.98-1.15,2.97c-2.21-3.6-2.08-9.17,0.89-10.95c2.02-1.21,4.87-1.04,7.35-1.5
	c1.03-0.19,2.06-0.42,3.09-0.63c-0.08-0.29-0.16-0.58-0.24-0.87c-0.78,0.3-1.55,0.6-2.33,0.9c-0.09-0.23-0.28-0.49-0.22-0.58
	c3.95-5.76,4.64-6.15,9.09-4.57c-1.85,1.47-3.42,2.72-5.03,3.99c1.39,4.2,5.84,4.94,9.31,6.5c6.26,2.8,8.62,5.89,8.02,12.41
	c-1.83,0.38-3.78,0.43-5.37,1.2c-2.53,1.23-4.7,0.65-6.98-0.43c-0.95-0.45-1.95-0.78-2.95-1.13c-1.5-0.54-2.62-0.77-3.33-2.94
	c-0.61-1.84-2.85-4.56-6.32-3.6C94.86,245.38,93.54,244.65,92.07,244.32L92.07,244.32z"/>
<path d="M99.48,331.62c2.53,2.05,3.15,1.69,5.14-2.73c1.86,2.28,3.69,2.05,4.83,0.51c1.83,1.25,3.56,2.43,5.28,3.61
	c0.4,1.03-0.55,2.55,2.18,3.84c1.36,0.64,1.47,4.48,1.65,6.91c0.13,1.83-0.07,3.98-0.94,5.51c-1.11,1.96-2.78,3.95-4.71,5.01
	c-2.64,1.44-5.95,1.05-7.9-1.25c-3.76-4.43-7.46-9.1-5.89-15.69c0.4-1.69,0.24-3.5,0.36-5.71V331.62z"/>
<path d="M399.01,38.76c2.37-0.22,4.74-0.44,7.64-0.71c-3.2-0.79-5.79-1.43-8.38-2.07l0.19-0.96c6.82-0.45,13.58-3.32,20.47-0.18
	c-1.58,0.44-3.15,1.01-4.76,1.27c-1.78,0.29-3.6,0.3-5.41,0.43c0.04,0.41,0.09,0.82,0.13,1.23c3.78-0.54,7.56-1.16,11.36-1.58
	c3.77-0.42,7.55-0.64,11.33-0.95c-0.05-0.11-0.11-0.23-0.16-0.34h-12.57c-0.72-0.56-1.43-1.11-2.85-2.21
	c1.39,0.15,2.16,0.1,2.82,0.34c0.74,0.28,1.34,1.01,2.09,1.2c0.87,0.22,1.84,0.05,2.74,0.05c0.17-0.96,0.3-1.73,0.43-2.5
	c0.61,0.45,1.17,1.06,1.85,1.31c0.58,0.22,1.68,0.32,1.93,0c2.82-3.71,5.58-0.73,8.37-0.05c1.64,0.4,3.38,1.09,4.96,0.87
	c3.53-0.5,6.89-0.9,10.19,2.02c-1.91,0.13-3.69,0.74-5.06,0.23c-2.55-0.94-4.51,0.11-6.84,0.62c-4.8,1.06-9.78,1.3-14.68,1.89
	c-3.33,0.4-6.66,0.86-9.99,1.19c-0.55,0.06-1.14-0.41-1.73-0.59c-0.49-0.15-1.38-0.45-1.44-0.33c-1.77,3.18-5.63,0.87-8.17,3.48
	c1.85,0.17,3.34,0.31,4.86,0.45c0.62,3.77-4.06,8.14-7.75,7.13c-1.45-0.4-2.97-0.55-5.27-0.97c1.8-1.48,3.16-2.6,4.51-3.71
	c-1.77-2.61-4.28-2.56-7.12-1.76c-1.93,0.54-4.03,0.49-5.92,1.12c-3.48,1.15-6.53,0.5-9.56-1.61c3.55-0.86,7-1.69,10.46-2.53
	l-0.12,0.08c3.42,0.22,6.85,0.43,10.42,0.65c-0.8-0.51-1.57-1.01-2.43-1.56c1.36-0.41,2.5-0.75,3.64-1.09l-0.14,0.11L399.01,38.76z"
	/>
<path d="M218.39,83.63c0.64-1.76,1.02-2.8,1.4-3.84c-0.26-0.15-0.52-0.29-0.79-0.44c-0.64,1.07-1.28,2.14-2.08,3.48
	c-1.3-0.1-2.84-0.22-4.35-0.33c-0.29-4.35-0.07-4.59,6.48-7.15c-0.07,1.06-0.14,1.99-0.21,2.93l1.18,1.05
	c0.18-0.68,0.54-1.37,0.49-2.03c-0.21-2.89,1.6-2.9,3.68-2.88c0.83,0,2.29-0.42,2.4-0.9c0.63-2.68,2.56-2.36,4.47-2.29
	c1.21,3.06-1.48,2.28-3.34,2.84c1.12,0.63,1.79,1,2.56,1.43c-0.25,0.62-0.5,1.26-0.75,1.9c1.24-3.86,4.17-1.8,6.74-1.8
	c1.04-2.21,2.11-4.47,3.25-6.88h8.83c0.02-0.15,0.05-0.3,0.07-0.45c-0.73-0.28-1.46-0.56-3.13-1.21c2.86-2.29,5.28-4.22,7.7-6.15
	c0.25,0.17,0.5,0.34,0.76,0.52c-0.81,2.2-1.61,4.41-2.54,6.95c0.25,0.39,0.97,1.03,1.07,1.76c0.15,1.06,0.15,2.36-0.35,3.21
	c-0.24,0.4-1.82-0.07-2.78-0.01c-1.36,0.08-2.77,0.11-4.06,0.49c-1.51,0.44-2.92,1.22-4.4,1.86c0.33,1.28,0.63,2.45,1.08,4.2
	c2.26-0.97,4.56-1.67,6.56-2.88c3.97-2.4,7.74-1.99,11.81,0.48c-4.57,1.95-8.9,4.64-13.56,5.47c-2.84,0.51-6.22-1.78-9.3-2.97
	c-1-0.38-1.99-1.96-2.67-1.78c-1.99,0.53-4.29,1.24-5.59,2.67c-1.26,1.39-2.23,1.88-3.98,1.73c-0.86-0.08-1.77,0.66-2.68,0.8
	C221.19,83.6,219.98,83.56,218.39,83.63L218.39,83.63z"/>
<path d="M147.51,176.11c-1.25,1.67-2.33,3.66-3.69,3.93c-1.69,1.1-3.38,2.19-5.51,3.57c0.17-3.2,0.3-5.74,0.46-8.84
	c-2.69,1.46-4.74,2.22-6.43-0.16c-0.09-0.13-0.39-0.1-0.59-0.15c-1.11-0.32-2.22-0.64-3.33-0.95c0.83-1.31,1.38-2.96,2.53-3.87
	c5.11-4.1,10.35-8.04,15.65-11.89c0.85-0.62,2.26-0.46,3.48-0.68v6.28c0.27,0.03,0.53,0.05,0.8,0.08c0.12-1.72,0.24-3.44,0.4-5.67
	c1.95,0.25,3.69,0.48,5.42,0.7c-0.08,0.14-0.16,0.28-0.24,0.42c1.83-0.51,3.66-1.02,5.43-1.52c1.72,2.87,1.71,2.81-1.26,3.39
	c-0.53,0.1-0.84,1.1-1.4,1.4c-0.55,0.3-1.3,0.25-2.29,0.41c-0.82,2.22-1.93,5.26-3.05,8.3c-0.34-0.09-0.69-0.18-1.03-0.27
	c-0.48-1.36-0.95-2.72-1.28-3.66c-1.65,0.74-3.32,1.49-5.59,2.51v-7.73c-0.19,0-0.38,0-0.57,0v6.93h-3.98
	c-0.12-1.02-0.26-2.12-0.46-3.74c-0.64,1.94-1.13,3.4-1.66,5c1.92,0.09,3.99,0.18,5.91,0.27
	C146.04,172.28,146.78,174.2,147.51,176.11L147.51,176.11L147.51,176.11z"/>
<path d="M155.22,120.88c-5.26,2.97-8.81,6.76-14,8.01c-0.7,0.17-1.08,1.38-1.78,1.87c-3.89,2.76-7.76,5.55-11.79,8.09
	c-0.95,0.6-2.5,0.24-3.88,0.33c0-3.12-0.06-6.06,0.06-8.99c0.02-0.53,0.7-1.3,1.23-1.47c0.53-0.17,1.64,0.09,1.84,0.49
	c0.84,1.65,1.42,3.43,2.12,5.21c0.11-1.05,0.1-2.42,0.44-3.7c0.22-0.83,0.85-2.01,1.5-2.16c0.81-0.19,1.83,0.52,2.22,0.66
	c2.16-0.41,4.03-0.76,6.38-1.2c0.44-2.42,0.95-5.28,1.47-8.14c1.58-0.3,3.09-0.58,4.97-0.94c-2.16-0.79-3.91-1.43-5.79-2.11
	c2.1-2.1,3.93-3.93,5.9-5.91c0.3,0.61,0.54,1.1,0.47,0.95c1.1-1.57,2.39-3.41,3.67-5.24c0.16,3.38,1.46,4.43,4.1,3.49
	c-0.76,2.99-1.54,6.07-2.33,9.23c0.6,0.29,1.4,0.67,3.22,1.54L155.22,120.88z"/>
<path d="M185.97,98.54c2.97,1.27,5.03,0.87,5.82-2.45c0.16-0.66,1.52-1.02,1.69-1.69c0.26-0.98,0.18-2.97-0.15-3.06
	c-4.07-1.09-2.72-4.05-2.58-6.78c1.71-0.29,3.36-0.57,5.01-0.85c-0.21-0.17-0.43-0.35-0.64-0.52c0.96-1.43,1.64-3.49,2.96-4.07
	c0.99-0.44,3.24,0.67,4.17,1.74c1.1,1.26,1.38,3.22,2.04,4.93c4.57-3.69,14.62-2.79,16.48,1.96c-0.99-0.51-1.99-1.02-3.19-1.63
	c-2.14,1.05-4.72,1.94-6.83,3.47c-1.62,1.18-2.92,3.02-3.91,4.82c-1.48,2.68-3.45,1.9-5.59,1.4c-1.06-0.25-2.38-0.51-3.28-0.11
	c-2.94,1.33-5.69,3.08-8.64,4.4c-0.94,0.42-2.26-0.02-3.41-0.06c0.01-0.5,0.02-1,0.04-1.51L185.97,98.54z"/>
<path d="M193.23,118.34c-0.04-0.82,0.24-2.09-0.17-2.37c-2.15-1.49-4.48-2.73-7.08-3.5c0.64,0.39,1.28,0.78,1.96,1.19
	c-7.85,5.36-8.36,5.4-13.25,0.67c3.73-1.67,7.75-2.66,10.66-5c3.35-2.69,6.16-2.19,9.49-0.26c0.07-0.31,0.15-0.62,0.22-0.93
	c-1.3-0.81-2.61-1.63-3.86-2.41c1.58-1.48,2.87-3.14,4.56-4.11c1.21-0.69,3.4-1.15,4.37-0.52c3.76,2.46,5.18,2.13,6.19-2.32
	c1.56,0.46,3.12,0.92,5.57,1.65c-3.02,1.49-5.38,2.66-8.13,4.03c1.3,2.94,5.71,0.56,7.23,3.8c-1.35,0.83-2.74,1.68-4.15,2.54
	c-2-4.14-3.13-4.34-6.32-1.46c-0.47,0.43-1.37,0.35-1.92,0.73c-1.02,0.71-1.93,1.58-2.88,2.38c0.94,0.99,1.74,2.6,2.84,2.83
	c1.57,0.33,3.35-0.34,5.53-0.65v2.94c-0.43,0.44-0.86,0.88-1.29,1.32c-3.22-0.22-6.43-0.44-9.65-0.67l0.1,0.11L193.23,118.34z"/>
<path d="M128.31,214.08c0.2,2.65,0.41,5.3,0.61,7.95c-1.99-5.79-8.15-4.63-12.8-7.36c2.86-2.44,5.5-4.7,8.15-6.95
	c-0.32-0.15-0.65-0.31-0.97-0.46c-0.48-1.61-0.96-3.22-1.67-5.59c2.64,0.65,4.22,1.05,5.8,1.44c0.13-0.1,0.27-0.21,0.4-0.31
	c-0.87-0.73-1.74-1.45-2.74-2.28c0.19-0.82,0.42-1.83,0.75-3.3c0.79,0.34,1.74,0.43,2.08,0.93c1.65,2.46,3.23,2.08,5.01,0.2
	c1.09-1.15,2.52-2.04,3.44-3.3c2.16-2.98,4.6-2.67,7.46-0.96c-1.17,1.38-2.33,2.76-4.03,4.77c3.19-1.2,4.29-5.12,7.71-3.28
	c0.68,0.37,1.14,1.16,1.69,1.75c-0.19,0.21-0.37,0.43-0.56,0.64c-0.79-0.33-1.58-0.65-2.78-1.15c0.28,2.03,0.5,3.67,0.73,5.3
	c-0.17-0.27-0.33-0.54-0.5-0.81c-2.22,0.96-4.43,1.91-6.83,2.94c0.05-0.86,0.11-1.83,0.16-2.81c-0.22-0.07-0.43-0.14-0.65-0.21
	c-0.53,1.18-1.06,2.36-1.69,3.75c-1.49-0.67-2.99-1.35-3.92-1.77c-1.72,1.93-3.23,3.64-4.75,5.35c-0.07-0.15-0.15-0.3-0.22-0.45
	c-0.54,1.48-1.08,2.96-1.66,4.53c-1.15-0.27-2.02-0.47-2.8-0.65c0.74,0.95,1.46,1.87,2.37,3.04c0.36-0.13,1.34-0.49,2.31-0.85
	L128.31,214.08L128.31,214.08z"/>
<path d="M85.38,218.97c2.09-0.63,3.89-1.18,6.38-1.94c-2.27-1.73-3.53-3.85-5.6-0.79c-0.4,0.59-1.97,0.38-3.4,0.6
	c1.44-2.28,2.54-4.03,4.05-6.41c2.69,0.33,3.62-3.42,6.05-5.16c0.99-0.71,2.3-1.19,3.49-1.27c0.32-0.02,1,1.79,1.11,2.81
	c0.28,2.74,0.24,5.52,0.55,8.25c0.07,0.61,1.17,1.05,1.61,1.7c0.65,0.94,1.13,2,1.71,3.07c-1.16,1.29-2.21,2.46-3.43,3.81
	c-0.51-0.63-0.93-1.14-1.11-1.36c-1.45,2.45-2.82,5.11-4.53,7.55c-1.67,2.38-2.37,1.62-4.08-0.68
	C85.66,225.76,85.62,222.31,85.38,218.97z"/>
<path d="M122.44,168.16c-0.72,4.01-2.13,7.08-6.72,7.03c-3.37,4.96-7.83,1.91-12.81,1.55c2.41-1.88,4.34-3.35,6.21-4.88
	c0.45-0.37,0.71-0.97,1.05-1.47c-0.53-0.35-1.02-0.81-1.6-1.01c-0.47-0.16-1.05,0-1.58,0c-2.25,0.02-4.36-0.33-4.91-2.97
	c-0.53-2.54-0.1-4.79,2.45-6.22c0.9-0.51,1.62-1.34,2.53-2.12c1.09,0.5,2.25,1.04,3.1,1.43c1.63-0.74,3.07-1.4,4.52-2.05
	C113.01,161.12,116.61,164.94,122.44,168.16L122.44,168.16z"/>
<path d="M212.25,145.73c-0.69,0.35-1.38,0.7-2.52,1.28c0,2.4-0.26,5.1-4.49,5.72c-1.58,0.23-2.75,2.24-5.22,1.7
	c-1.14-0.25-2.97,1.73-4.2,2.98c-1.59,1.61-2.89,3.51-4.59,5.62c-1.55-3.43-1.35-3.75,6.02-11.48h-3.2
	c-1.73,2.79-3.53,5.71-5.45,8.81c-2.13-1.2-4.12-2.32-6.56-3.7c3.46-2.55,6.66-5.06,10.04-7.3c0.63-0.42,1.95,0.26,2.96,0.32
	c1.25,0.07,2.5,0.02,3.75,0.02c0.01-0.33,0.03-0.66,0.04-1c-1.36-0.26-2.73-0.52-4.81-0.92c4.82-3.3,8.9-6.3,13.22-8.89
	c1.14-0.68,3.04-0.1,5.29-0.1c-3.16,2.77-5.63,4.95-8.11,7.12c0.15,0.45,0.31,0.89,0.46,1.34c2.29-3.3,4.78-3.74,7.46-1.42
	l-0.11-0.1L212.25,145.73z"/>
<path d="M183.47,287.9c-2.7,0.5-5.72,1.6-7.07-1.62c-1.95-4.65,1.61-6.83,4.9-9.11c3.28,3.34,7.23,3.64,11.24,2.18
	c3.52,3.49,5.05,7.49,2.76,12.1c-0.54,1.09-1.9,1.98-3.09,2.51C189.1,295.36,185.56,292.91,183.47,287.9L183.47,287.9z"/>
<path d="M173.18,147.41h-4.09v-3.19c-0.17-0.01-0.34-0.02-0.52-0.03c-0.2,1.64-0.39,3.27-0.6,4.99c1.9-0.23,3.45-0.42,5.33-0.64
	v6.06c-0.39-0.06-1.25-0.19-1.32-0.2c-1.05,1.29-1.8,2.04-2.33,2.92c-0.32,0.54-0.16,1.36-0.47,1.91c-0.33,0.58-1.03,1.43-1.45,1.37
	c-0.94-0.14-1.8-0.77-3.53-1.6c-0.26-3.83-0.57-8.4-0.89-13.07c3.17-2.77,6.59-5.97,10.27-8.83c0.99-0.77,2.81-0.76,4.17-0.58
	c0.35,0.05,0.58,2.12,0.61,3.26c0.08,3.57,0.03,7.14,0.03,11.36c-0.64,0.45-2.01,1.42-3.15,2.22c-0.36-1.48-0.74-3.01-1.16-4.76
	c1.3-0.12,2.56-0.23,3.82-0.35c-0.01-0.28-0.02-0.55-0.03-0.83h-3.78v-6.8c-0.19,0-0.38,0-0.57-0.01c-0.12,2.25-0.23,4.5-0.35,6.78
	L173.18,147.41z"/>
<path d="M254.71,93.14c-2.16,3.18-3.39,6.59-3.17,10.54c0.05,0.95-0.76,2.22-1.55,2.86c-1.2,0.96-2.73,1.49-4.44,2.36
	c0.01-3.18-0.89-6.22,3.22-7.98c-2.83-0.34-5.18-0.79-7.52-0.78c-0.7,0-1.83,1.24-2,2.06c-0.66,3.17-0.7,6.49-1.6,9.57
	c-0.47,1.6-2.26,2.82-3.56,4.33c-2.61-2.86,1.25-5.56-0.61-7.41c-1.4,0.61-2.69,1.18-4.44,1.95v-4.83c-0.53,1.64-0.82,2.5-1.23,3.76
	c-1.63-0.24-3.35-0.49-5.07-0.75c-0.07-0.22-0.14-0.44-0.21-0.66c3.28-1.81,6.6-3.56,9.83-5.46c2.8-1.64,5.39-3.65,8.27-5.12
	c1.92-0.98,4.43-0.9,6.2-2.02C249.32,93.98,251.82,93.06,254.71,93.14l0.01-0.01L254.71,93.14z"/>
<path d="M266.58,58.31c0.3-0.51,0.9-1.04,0.86-1.53c-0.28-4.13,2.67-4.62,6.35-5.28c-0.62,2.52-1.17,4.74-1.72,6.96
	c0.1,0.08,0.2,0.16,0.3,0.24c0.54-0.86,0.91-1.96,1.67-2.5c0.74-0.52,1.89-0.64,2.85-0.62c0.75,0.02,1.48,0.54,2.59,0.99
	c1.99-2.23,4.52,0.37,7.11,0.57c0.06,0.27,0.13,0.53,0.19,0.8c-2.81,1.01-5.68,1.89-8.42,3.06c-2.49,1.06-5.7,0.93-7.13,3.98
	c-0.12,0.26-0.79,0.5-1.11,0.41c-5.23-1.46-9.14,2.38-13.75,3.37c-1.18,0.25-2.41,0.26-4.34,0.44c2.01-4.28,3.59-7.68,5.18-11.07
	c0.29,0.09,0.57,0.18,0.86,0.27v2.18c2.01,0.22,4.13,0.45,6.41,0.7c-0.13,0.66-0.23,1.23-0.3,1.57c1.15-0.56,2.4-1.16,3.52-1.71
	c-0.29-0.82-0.66-1.88-1.04-2.95l-0.09,0.1L266.58,58.31z"/>
<path d="M73.42,129.95c4.46,2.34,4.39,5.89,3.18,9.58c1.41,1.17,2.99,2.04,3.9,3.37c0.84,1.24,1.74,3.39,1.21,4.39
	c-0.85,1.59-2.2,3.35-4.89,2.99c-3.95-0.53-7.48-1.48-9.23-5.42c-0.51-1.14-0.41-2.58-0.5-3.88c-0.02-0.36,0.52-0.83,0.42-1.1
	C65.37,134.1,69.61,132.18,73.42,129.95L73.42,129.95z"/>
<path d="M117.13,279.24c0.61-0.24,1.43-0.51,2.2-0.88c3.84-1.84,10-0.29,12.12,3.07c2.15,3.42,0.51,6.7-3.57,7.15
	c-0.5,0.06-1,0.15-1.62,0.25c0.12,0.55,0.32,0.97,0.27,1.35c-0.2,1.46-0.04,3.72-0.85,4.16c-1.2,0.66-3.38,0.53-4.66-0.16
	c-1.86-1.01-3.4-2.72-4.85-4.33c-0.42-0.46-0.35-2.2,0-2.39c4.51-2.41,0.97-5.45,0.98-8.23L117.13,279.24z"/>
<path d="M67.22,333.79c0.54-0.35,1.57-1.55,2.7-1.65c6.92-0.59,12.24,6.42,13.62,11.99c0.07,0.3,0.13,0.63,0.12,0.94
	c-0.05,1.58,0.2,4.4-0.24,4.51c-1.8,0.46-4.11,0.7-5.68-0.08c-4.83-2.41-7.88-6.71-10.16-11.47c-0.52-1.08-0.24-2.54-0.35-4.24
	L67.22,333.79z"/>
<path d="M151.46,338.14c-1.02,0.22-2.1,0.55-3.2,0.67c-1.22,0.13-3.16,0.6-3.59,0.02c-3.11-4.13-9.44-5.38-10.42-11.2
	c-0.31-1.85,0.17-4.55,1.39-5.74c1.19-1.16,4.3-1.79,5.62-1.02c1.85,1.08,3.13,3.53,4.06,5.65c0.6,1.38,0.73,2.43,2.47,3.1
	C151.69,331.11,152.54,334.33,151.46,338.14L151.46,338.14z"/>
<path d="M7.54,284.96c1.36-2.01,2.59-3.83,3.9-5.76c-2.18-2.27-6.53-2.73-5.71-7.4c0.6-0.52,1.49-1.3,1.86-1.63h8.01
	c-0.61,1.28-1.11,2.35-2.07,4.38c4.32-2.85,8.02-3.82,11.32-1.58c-0.69,1.43-1.1,2.51-1.7,3.48c-1.99,3.2-4.01,6.37-6.14,9.48
	c-0.19,0.27-1.19,0.03-1.81-0.04c-2.4-0.27-4.8-0.57-7.66-0.92L7.54,284.96z"/>
<path d="M85.67,184.07c-0.89-1.16-1.52-1.97-2.15-2.79c0.28-0.18,0.57-0.36,0.85-0.54c0.94,1.5,1.88,3.01,3.17,5.06
	c0.33-1.51,0.55-2.54,0.83-3.81c1.61,0.31,3.23,0.62,5.34,1.02c-2.56,2.54-4.15,5.82-7.72,4.9c-0.09,0.99,0.14,2.16-0.33,2.87
	c-2.21,3.35-6.46,3.73-11.49,1.1c0.49-0.65,0.95-1.28,1.53-2.06c-1.23-0.64-2.34-1.21-3.62-1.87c0.53-0.71,0.96-1.3,1.78-2.4
	c-4.28,0.7-3.61-2.67-4.6-4.56c-0.17-0.33,0.72-1.72,1.24-1.79c1.02-0.14,2.89,0.03,3.06,0.54c1.36,3.88,4.11,4.63,7.74,4.13
	C82.55,183.7,83.86,183.97,85.67,184.07L85.67,184.07z"/>
<path d="M159.27,194.26c-1.08,0.47-2.56,1.47-4.12,1.62c-0.63,0.06-1.44-1.71-1.99-2.42c-0.81,0.48-1.82,1.07-3.52,2.07
	c0.49-2.17,0.75-3.33,1.01-4.5c-0.18-0.09-0.36-0.17-0.55-0.26c-0.6,0.99-1.21,1.98-1.8,2.96c-2.34-0.96-4.62-1.89-7.31-2.99
	c3.97-3.54,7.74-7.03,11.66-10.34c1.73-1.46,3.05-0.3,4.09,1.13c-1.86,2.16-3.66,4.26-5.46,6.36c0.23,0.23,0.46,0.46,0.69,0.69
	c2.08-1.94,4.16-3.87,6.17-5.74c0.71,0.24,1.57,0.53,3.07,1.05c-0.98,1.35-1.96,2.69-3.26,4.49
	C158.21,189.52,158.65,191.49,159.27,194.26L159.27,194.26z"/>
<path d="M136.22,116.61c-2.95,2.45-5.8,2.07-9.08,1.58c-1.95-0.29-3.07-1.45-4.66-1.93c-0.83-0.25-1.7-0.36-2.85-0.59
	c-1.04-3.46-1.11-7.18,2.47-9.49c1.31,0.41,2.42,0.78,3.53,1.11c6,1.77,9.87,2.06,10.57,9.32L136.22,116.61z"/>
<path d="M456.03,42.06c-2.51-0.76-5.02-1.51-8.19-2.46c1.18-0.4,1.91-0.74,2.68-0.88c3.57-0.66,7.13-1.46,10.73-1.83
	c2.01-0.21,4.15,0.65,6.15,0.4c2.47-0.32,5.26,0.83,7.41-1.61c0.88-0.99,5.98,1.37,6.29,2.72c-0.13,0.1-0.28,0.17-0.45,0.19
	c-1.48,0.7-3.29,1.08-4.37,2.18c-2.09,2.13-4.51,2.03-7.12,2.15c-3.6,0.16-7.19,0.72-10.78,1.11c-0.57,0.06-1.15,0.1-2.06-0.37
	c1.24-1.07,2.47-2.13,3.71-3.2c-0.12-0.19-0.23-0.38-0.35-0.56c-1.25,0.7-2.49,1.4-3.75,2.09l0.1,0.09V42.06z"/>
<path d="M28.86,120.3c0.32,4.26-4.6,7.4-9.57,5.05c-4.87-2.3-5.31-5.6-1.12-8.75c0.52-0.39,1.29-0.53,1.96-0.64
	c2.66-0.42,5.36-1.17,8-1.02c1.49,0.09,2.88,1.69,4.32,2.62C31.48,118.3,30.52,119.03,28.86,120.3L28.86,120.3z"/>
<path d="M170.6,108.68c1.26-1.32,2.53-2.63,3.93-4.09c-5.81-4.01-0.08-3.84,2.97-4.87c-1.68-0.81-2.46-1.19-3.24-1.56
	c1.81-2.71,7.38-4.23,9.78-2.43c0.6,0.45,0.44,1.95,0.58,2.98c0.14,1.01,0.21,2.03,0.31,3.04c0.36,0.21,0.73,0.41,1.09,0.62
	c-4.18,2.37-8.32,4.82-12.59,7.02c-0.67,0.35-1.95-0.48-2.94-0.77l0.11,0.07L170.6,108.68z"/>
<path d="M104.25,294.58c-4.1,0.29-7.75-2.48-7.79-5.92c-0.03-2.29,3.31-5.2,6.13-5.35c3.74-0.19,6.96,2.08,7.16,5.06
	C110,292.13,108.08,294.3,104.25,294.58L104.25,294.58z"/>
<path d="M40.32,249.42c-1.83-0.21-3.67-0.41-5.89-0.67c1.75-2.55,3.03-5.34,6.44-5.52c1.26-0.07,3.04,0.26,3.74,1.1
	c1.04,1.25,1.84,3.13-0.22,4.6c-0.47,0.34-0.75,0.99-1.04,1.54c-3.16,5.89-7.81,7.5-13.85,4.61c1.97-4.77,5.51-6.74,11.06-4.61
	l-0.24-1.04L40.32,249.42z"/>
<path d="M178.52,168.11c0.6-1.34,1.2-2.69,1.87-4.18c1.45,0.66,2.44,1.11,3.44,1.56c0.06-0.1,0.12-0.2,0.18-0.3
	c-0.75-0.6-1.5-1.21-2.37-1.9c2.07-1.82,3.7-4.33,6.73-1.62c1.72,1.53,3.63,2.86,1.85,4.98c1.01,1.48,2.15,2.75,2.71,4.23
	c0.15,0.42-1.3,1.88-2.24,2.17c-2.65,0.8-4.41-0.63-5.04-2.07c-2.02-0.43-3.32-0.71-4.61-0.98c-0.83-0.62-1.67-1.25-2.51-1.88
	L178.52,168.11z"/>
<path d="M170.49,108.61c1.79,1.27,0.72,1.92-0.5,2.72c-1.54,1.02-2.97,2.22-4.04,3.7c-1.29,0.22-2.72,0.19-3.83,0.77
	c-0.53,0.27-0.89,2.24-0.56,2.5c0.77,0.63,2,0.69,2.75,0.9c-4.86,2.34-8.54,1.85-10.09-1.5c1.18-1.04,2.36-2.08,3.89-3.44
	c-1.49-0.75-2.34-1.18-3.26-1.65c1.65-1.38,3.14-2.62,4.79-3.99v3.19c0.2,0.06,0.39,0.12,0.59,0.18c0.21-0.98,0.42-1.96,0.68-3.19
	h3.41v2.6c0.15,0.02,0.3,0.04,0.45,0.06c0.23-0.84,0.47-1.68,0.77-2.78c1.72,0,3.4,0,5.08,0l-0.11-0.07L170.49,108.61z"/>
<path d="M162.74,223.04c-2.52-3.51-3.05-7.2,0.91-9.61c2.03-1.24,5.91,0.41,6.58,2.67c1.38,4.64,0.61,6.35-3.85,8.66
	c-0.31,0.16-0.46,0.64-0.77,0.78c-1.06,0.47-2.16,0.85-3.24,1.27C162.47,225.77,162.58,224.72,162.74,223.04L162.74,223.04z"/>
<path d="M431.29,27.54c-0.24,0.38-0.45,1.07-0.74,1.1c-3.36,0.42-6.73,0.75-10.09,1.08c-7.23,0.71-14.45,1.43-21.68,2.11
	c-0.9,0.08-1.82-0.12-2.97-0.21c1.91-1.91,3.3-3.64,5.04-4.87c0.76-0.54,2.28-0.25,3.39-0.02c3.49,0.71,6.95,1.62,10.44,2.3
	c0.44,0.09,1.05-0.74,1.59-1.14l-0.1,0.11c0.31-0.04,0.71,0.03,0.91-0.14c2.77-2.26,5.43-3.36,8.89-0.88
	c1.29,0.92,3.57,0.46,5.39,0.62c-0.01-0.01-0.07-0.05-0.07-0.05L431.29,27.54z"/>
<path d="M165.53,136.5c-4.17,2.96-8.02,5.86-12.09,8.43c-0.73,0.46-2.33-0.45-3.53-0.74c-1.32-0.31-2.64-0.64-4.7-1.13
	c4.44-3,8.25-5.93,12.39-8.25C160.1,133.41,162.85,134.25,165.53,136.5L165.53,136.5z"/>
<path d="M129.82,144.82c4.01-2.89,7.91-5.74,11.87-8.49c0.48-0.33,1.36-0.34,1.98-0.18c1.99,0.53,3.94,1.2,6.11,1.89
	c-3.04,3.43-6.43,5.22-11.06,3.73c1.38,0.37,2.75,0.74,4.13,1.1C138.83,147.66,135.08,148.3,129.82,144.82z"/>
<path d="M142.65,298.77c2.97-1.36,4.87-1.22,6.1,2.09c0.67,1.81,2.36,2.67,4.89,2.22c1.43-0.26,3.66,1.28,4.76,2.63
	c1.06,1.31,0.13,2.87-1.81,3.06c-1.64,0.16-3.43,0.55-4.93,0.1c-2.18-0.65-4.73-1.48-6.1-3.1c-1.56-1.84-1.99-4.64-2.9-7H142.65z"/>
<path d="M128.25,153.78c-4.07,4.86-7.48,5.52-13.27,2.33c3.39-2.6,6.51-5.21,9.9-7.41c0.8-0.52,2.52,0.36,4,0.14l-2.16-1.18
	c0.08-0.31,0.15-0.62,0.23-0.92c2.58,0.67,5.17,1.34,7.8,2.02c-3.61,4.11-4.65,5.18-11.78,2.94c-0.06,0.27-0.13,0.54-0.19,0.81
	C124.52,152.92,126.26,153.32,128.25,153.78L128.25,153.78z"/>
<path d="M425.93,42.66c0.46-0.47,0.92-1.33,1.4-1.34c3.17-0.09,6.35,0.04,9.52,0c0.85-0.01,1.7-0.37,2.54-0.62
	c1.48-0.44,2.96-0.91,4.44-1.36c0.14,0.33,0.27,0.65,0.41,0.98c-0.57,0.62-1.13,1.24-1.7,1.86c2.93-2.54,5.59-1.67,8.61-0.04
	c1.25,0.68,3.24,0,4.89-0.06c0,0-0.1-0.09-0.09-0.08c-2.43,1.04-4.79,2.33-7.32,3.02c-2.51,0.68-5.19,0.75-7.92,1.11v-1.74
	c-2.05,0.14-4.06,0.28-6.07,0.42c-0.59-0.24-1.17-0.48-1.76-0.73c-2.32-0.53-4.65-1.05-6.97-1.58L425.93,42.66L425.93,42.66z"/>
<path d="M225.95,91.75c1.89,2.25,3.88,0.99,6.09-0.39c4.55-2.83,8.97-2.34,13.59,1.33c-1.06,0.55-1.98,1.43-2.55,1.24
	c-4.28-1.42-7.34,1.4-10.45,3.2c-3.04,1.76-5.32,0.75-7.73-0.48C225.25,95.01,225.59,93.4,225.95,91.75z"/>
<path d="M171.93,304.78c0.84-0.99,1.58-2.67,2.54-2.81c1.76-0.26,2.25,1.18,2.71,3c0.77,3.04,0.56,4.77-2.79,5.73
	c-1.01,0.29-1.46,2.21-2.43,3.11c-1.58,1.48-3.41,2.33-5.17,0.15c-1.46-1.81-1.17-5.62,0.73-6.85c1.45-0.94,3.19-1.44,4.81-2.13
	C172.19,304.91,172.06,304.85,171.93,304.78L171.93,304.78z"/>
<path d="M147.67,249.18c3.32,2.96,4.81,6.11,3.08,8.46c-1.34,1.82-3.84,3.29-6.05,3.72c-0.96,0.19-3.45-2.51-3.62-4.07
	C140.62,252.94,143.7,250.66,147.67,249.18L147.67,249.18z"/>
<path d="M165.78,329.96c3.46,0.16,6.26,1.94,6.96,5.2c0.27,1.26-0.59,3.58-1.63,4.15c-3.88,2.12-10.4-2.01-10.16-6.42
	C161.1,330.15,163.52,329.88,165.78,329.96z"/>
<path d="M87.55,179.23c2.64-2.36,4.4-4.2,6.45-5.64c1.03-0.72,2.58-0.7,3.9-1.01c1.69-0.41,3.37-0.85,5.06-1.21
	c1.19-0.26,2.4-0.42,4.21-0.72c-3.19,4.95-6.81,6.36-11.61,5.02c1.61,0.36,3.22,0.72,5.91,1.32c-2.84,1.78-4.84,3.79-7.15,4.25
	c-1.86,0.37-4.09-1.14-6.78-2.01L87.55,179.23z"/>
<path d="M88.76,313.74c3.89-3.43,9-3.04,11.81,1.16c0.72,1.07,1.3,3.57,0.96,3.77c-1.51,0.91-3.35,1.48-5.12,1.68
	c-1.31,0.14-2.8-0.27-4.04-0.83c-0.78-0.36-1.33-1.37-1.83-2.19C89.91,316.28,89.44,315.14,88.76,313.74z"/>
<path d="M131.75,153.55c2.7-2.71,4.81-5.25,8.62-4.36c-0.63-0.13-1.26-0.26-1.92-0.4c2.91-4.31,8.82-6.01,12.06-2.13
	c-4.27-0.5-4.3-0.48-5.34,3.72c-0.58,2.36-5.96,5.48-8.29,4.78C135.3,154.69,133.73,154.17,131.75,153.55L131.75,153.55z"/>
<path d="M449.22,16.07c-1.77,0.15-3.53,0.29-5.3,0.44c-0.02,0.14-0.04,0.28-0.06,0.43c1.17,0.27,2.34,0.54,3.51,0.81l0.09,0.73
	c-1.01,0.17-2.01,0.48-3.02,0.49c-3.98,0.01-8.12-0.79-11.88,0.09c-3.76,0.88-5.33-1.83-7.93-3.58c3.64-0.19,7.29-0.34,10.93-0.58
	c1.85-0.12,3.73-0.25,5.53-0.66c2.87-0.67,5.58-0.75,8.13,1.85L449.22,16.07z"/>
<path d="M57.64,255.38c-0.51-1.69-0.96-3.17-1.41-4.65c-0.18,0.04-0.35,0.07-0.53,0.11c0.33,1.6,0.65,3.2,1.03,5.03h-7.75
	c3.24-4.05,6.14-7.74,9.19-11.3c0.19-0.22,2.09,0.38,2.29,0.92c0.67,1.87,1.02,3.87,1.35,5.85c0.49,3.01-0.31,3.77-4.17,4.05V255.38
	z"/>
<path d="M243.54,85.03c-2.66,0.94-5.32,1.88-7.82,2.76c-0.28,0.33-0.55,0.88-0.99,1.13c-3.82,2.17-7.65,3.03-11.66-0.33
	c4.54-2.13,8.79-4.62,13.37-6.05c2.01-0.63,4.7,0.91,7.07,1.46L243.54,85.03L243.54,85.03z"/>
<path d="M131.34,233.83c-2.74-0.48-5.74-0.78-8.62-1.57c-2.37-0.65-2.54-4.15-0.23-5.62c2.61-1.66,5.56-2.53,8.62-1.24
	c1.62,0.69,2.38,2.14,1.88,3.93c-0.38,1.35-0.97,2.65-1.66,4.5L131.34,233.83z"/>
<path d="M202.79,118.9c0.43-0.44,0.86-0.88,1.29-1.32c0.7-0.12,1.43-0.4,2.1-0.31c0.75,0.1,2.11,0.63,2.09,0.82
	c-0.28,2.02-0.56,4.11-1.33,5.97c-0.27,0.65-1.9,0.73-2.91,1.08c-0.23-1.23-0.46-2.46-0.78-4.19c-0.42,2.37-0.77,4.41-1.15,6.57
	c-1.22,0.12-2.33,0.24-3.64,0.37v-4.29c-0.59,1.84-0.89,2.8-1.23,3.88c-1.38-0.12-2.7-0.24-4.01-0.35c-0.18-0.33-0.36-0.67-0.54-1
	c3.37-2.41,6.74-4.81,10.1-7.22L202.79,118.9z"/>
<path d="M304.97,71.52c-1.31,3.06-2.17,5.31-3.24,7.44c-0.28,0.56-1.25,1.15-1.85,1.1c-4.24-0.35-8.47-0.86-12.76-1.8
	C292.82,75.82,298.12,72.57,304.97,71.52L304.97,71.52z"/>
<path d="M227.29,99.59c-4.94,2.67-9.01,5.05-13.27,7.03c-0.94,0.44-2.53-0.52-3.81-0.86c-1.12-0.29-2.23-0.62-3.88-1.09
	c3.71-2.04,6.91-4.52,10.52-5.49c2.13-0.57,4.71-0.22,7.07-0.96C224.61,98.01,225.63,98.88,227.29,99.59z"/>
<path d="M170.72,125.86c2.67-1.82,7.6-2.2,9.45-0.16c0.66,0.72,0.54,2.15,0.78,3.25c-0.44,0.08-0.88,0.17-1.31,0.25
	c-0.26-1-0.51-1.99-0.96-3.71c-1.18,0.91-2.81,1.52-2.97,2.4c-0.81,4.37-5.08,4.65-7.72,6.79c-0.53,0.43-2.26-0.66-3.45-0.98
	c-1.22-0.33-2.45-0.59-4.28-1.02c2.09-1.42,3.79-2.79,5.69-3.75c0.77-0.39,2.1-0.15,2.97,0.25c1.25,0.57,2.48,2.41,3.53,0.27
	c0.34-0.69-1.03-2.2-1.74-3.59H170.72z"/>
<path d="M363.39,59.63c1.08-0.47,2.16-0.94,3.24-1.41c0.05-0.16,0.1-0.32,0.15-0.48c-1.23,0-2.56-0.3-3.66,0.07
	c-1.44,0.48-1.51-1.93-3.3-1.05c-1.11,0.55-2.95-0.39-4.47-1.43c5.89-1.47,11.78-2.94,18.3-4.56c-2.14,3.82-3.57,6.94-5.57,9.63
	c-0.76,1.02-2.85,1.04-4.59,1.6c0-1.06,0-1.77,0-2.48L363.39,59.63L363.39,59.63z"/>
<path d="M276.94,70.79c-4.43,1.68-8.78,3.71-13.34,4.89c-2.11,0.54-4.65-0.58-6.99-0.95c0.02-0.37,0.04-0.75,0.06-1.12
	c4.56-1.81,9.02-4,13.72-5.24c1.87-0.49,4.29,1.1,6.46,1.74c0.03,0.23,0.07,0.46,0.1,0.69L276.94,70.79z"/>
<path d="M27.73,344.02c-1.89,0-3.34,0.34-4.5-0.09c-1.22-0.46-2.16-1.67-3.22-2.55c0.8-0.6,1.6-1.2,2.58-1.93
	c-0.98-4.22,1.06-6.9,4.99-5.86c2.82,0.74,3.83,3.11,2.32,5.66c-0.48,0.81-1.42,1.37-1.8,2.2
	C27.74,342.24,27.82,343.24,27.73,344.02L27.73,344.02z"/>
<path d="M227.5,110.9c-0.13,2.25-0.24,4.19-0.35,6.13c0.2,0.02,0.41,0.04,0.61,0.06c0.2-2.02,0.39-4.05,0.61-6.28
	c1.29,0.1,2.41,0.18,3.49,0.27c0.8,5.18,0.76,5.11-3.72,7.4c-1.83,0.94-3.45,2.28-5.17,3.44c-0.36-0.13-0.73-0.27-1.09-0.4
	c0.42-3.73,0.85-7.46,1.3-11.45C225.1,110.44,226.2,110.65,227.5,110.9L227.5,110.9z"/>
<path d="M430.2,23.02c2.34-0.63,4.67-1.27,7.01-1.9c0.13,0.27,0.26,0.54,0.39,0.81l-2.07,2.88c4.37-3.45,7.86,0.03,11.6,1.35
	c-0.05,0.18-0.08,0.48-0.16,0.49c-2.71,0.48-5.66-0.43-8,2.28c-0.54,0.62-4.2-0.31-5.21-1.53c-1.4-1.7-1.71-0.59-2.49,0.12
	c0,0,0.06,0.05,0.07,0.06c-0.84-0.48-1.74-0.92-2.53-1.49c-0.29-0.21-0.35-0.75-0.52-1.14C428.92,24.31,429.55,23.66,430.2,23.02
	L430.2,23.02z"/>
<path d="M273.57,66.96c4.25-1.54,8.4-3.47,12.77-4.45c2.25-0.51,4.89,0.67,7.35,1.08c0.03,0.36,0.07,0.72,0.1,1.09
	c-4.73,1.55-9.39,3.39-14.22,4.52c-1.85,0.44-4.08-0.73-6.14-1.16C273.48,67.68,273.52,67.32,273.57,66.96z"/>
<path d="M526.87,43.15c6.16,0,11.47-0.27,16.73,0.13c2.11,0.16,4.1,1.83,6.48,2.97c-0.86,0.75-1.03,1.01-1.17,1
	c-3.63-0.19-7.26-0.42-10.9-0.57c-0.35-0.01-0.76,0.75-1.07,0.7c-2.01-0.31-4.61,1.6-5.88-1.83
	C530.71,44.61,528.85,44.23,526.87,43.15L526.87,43.15z"/>
<path d="M271.63,73.89c4.81-1.85,9-3.82,13.41-4.99c2.14-0.56,4.68,0.39,7.03,0.66c0.02,0.47,0.05,0.94,0.07,1.41
	c-4.55,1.76-9.01,3.9-13.71,5.1C276.66,76.52,274.33,74.82,271.63,73.89L271.63,73.89z"/>
<path d="M287.42,55.99c2.74-2.27,1.4-8.92,7.82-6.78c-0.38,0.99-0.76,2-1.15,3c1.38-1.42,2.39-3.91,4.82-2.58
	c1.6,0.88,4.86-1.22,4.83,2.88C298.31,53.35,293.35,56.73,287.42,55.99L287.42,55.99z"/>
<path d="M252.45,105.33c0.72-3.63,1.17-6.51,1.92-9.3c0.2-0.75,1.32-1.72,2.06-1.76c0.93-0.05,1.9,0.76,2.89,1.22
	c1.03-0.24,2.42-0.55,3.88-0.88c0.3,3.78-1.11,6.17-4.24,7.16c-0.1-0.92-0.2-1.81-0.29-2.7
	C259.21,103.07,256.05,103.62,252.45,105.33L252.45,105.33z"/>
<path d="M288.7,67.29c5.34-1.75,9.83-3.52,14.47-4.6c1.88-0.44,4.11,0.6,6.18,0.96c0,0.4,0,0.81,0,1.21
	c-4.61,1.66-9.13,3.66-13.86,4.8C293.8,70.07,291.61,68.38,288.7,67.29z"/>
<path d="M601.12,48.12c-1.66,0.23-3.39,0.87-4.98,0.62c-7.5-1.19-15.07-1.28-22.58-1.09c-3.59,0.09-6.09-1.26-8.77-2.95
	c0.03-0.29,0.07-0.59,0.1-0.88c6.14,0.88,12.28,1.85,18.44,2.6c5.94,0.72,11.92,1.22,17.88,1.81L601.12,48.12L601.12,48.12z"/>
<path d="M339.17,60.16c-1.64,2.92-2.7,4.83-3.8,6.72c-0.24,0.42-0.67,1.09-0.97,1.06c-4.15-0.38-8.28-0.85-12.43-1.96
	C327.35,63.41,332.64,61.19,339.17,60.16L339.17,60.16z"/>
<path d="M241,120.84c-3.92,3.41-7.75,6.74-11.98,10.43c-1.3-0.62-3.24-1.55-5.89-2.81c5.05-3,9.61-5.86,14.35-8.37
	C238.35,119.63,239.98,120.6,241,120.84L241,120.84z"/>
<path d="M549.53,35.36c9.84-1.47,30.28,0.14,34.87,2.7c-1.85-0.22-3.71-0.43-6.38-0.74c1.42,0.76,2.13,1.14,2.85,1.52
	c-0.1,0.33-0.2,0.66-0.3,0.99c-5.83-1.25-11.63-2.7-17.5-3.68c-3.22-0.54-6.56-0.29-9.85-0.43
	C551.99,35.66,550.76,35.48,549.53,35.36z"/>
<path d="M100.85,302.83c-2.99,1.27-4.89,5.89-8.68,2.47c-1.02-0.92-1.52-3.32-1.11-4.69c0.74-2.47,2.92-3.69,5.67-3.66
	C100.72,297,100,300.27,100.85,302.83z"/>
<path d="M124.68,167.38c-1.24-3.96,1.97-4.51,3.99-5.9c-0.11-0.32-0.21-0.65-0.32-0.97c-2.01,0.34-4.03,0.69-6.17,1.05
	c4.63-6.47,9.24-7.81,14.49-3.89c-4.02,3.26-7.94,6.43-11.98,9.7L124.68,167.38z"/>
<path d="M42.16,326.35c4.57-0.17,8.63,2.75,9.17,7.04c0.12,0.9-1.26,2.8-2.1,2.89C44.39,336.81,40.27,330.85,42.16,326.35
	L42.16,326.35z"/>
<path d="M305.72,61.18c-0.89,0.1-1.95-0.07-2.65,0.35c-3.71,2.24-8.67,2.12-12.35-0.68c4.96-1.62,9.65-3.52,14.52-4.56
	c1.76-0.38,3.95,1.27,6.2,2.09c-2.2,1.08-3.99,1.96-5.77,2.84l0.06-0.03L305.72,61.18z"/>
<path d="M14.17,195.11c4.33-3.92,7.94-3.82,11.42-0.41c-1.07,1.35-2.11,2.66-3.15,3.97c1.74,0.29,3.48,0.59,5.22,0.88
	c-2.18,2.74-5.12,0.47-7.66,0.82c-5.36,0.75-2.49-4.81-5.84-5.26L14.17,195.11z"/>
<path d="M162.27,156.19c-1.45,0.17-2.97,0.35-4.79,0.56v-3.9c-0.16-0.01-0.32-0.02-0.49-0.04c-0.17,1.16-0.35,2.33-0.59,3.95
	c-2.13-0.1-4.23-0.2-6.34-0.31c-0.07-0.25-0.15-0.51-0.22-0.76c3.67-2.74,7.29-5.55,11.04-8.17c1.35-0.95,2.09-0.26,1.94,1.4
	c-0.22,2.3-0.35,4.61-0.54,7.26L162.27,156.19z"/>
<path d="M149.82,80.29c-0.53-0.4-2.07-0.99-2.43-2c-0.44-1.25-0.28-3.05,0.36-4.21c0.4-0.74,2.11-0.86,3.27-1.08
	c1.07-0.21,2.24-0.01,3.28-0.31c2.01-0.58,4.28,0.46,4.57,2.44c0.11,0.73-0.13,2.05-0.57,2.23c-2.53,1.04-5.16,1.83-8.47,2.94
	L149.82,80.29z"/>
<path d="M408.09,59.05c-0.79-0.16-1.59-0.32-2.65-0.54c0.74,1.4,1.43,2.68,2.29,4.3c-1.14,0.35-1.89,0.58-2.65,0.8
	c-0.7,0.2-1.4,0.38-2.08,0.57c-1.08-1.41-2.08-2.72-3.07-4.02c1.44-0.85,2.93-1.74,4.43-2.62c-0.27-0.41-0.55-0.83-1.05-1.59
	c5.21-0.32,9.91-3.41,15.4-1.55c-1.78,1.12-3.19,2.02-4.6,2.91l0.05-0.1C412.14,57.82,410.12,58.44,408.09,59.05z"/>
<path d="M184.23,316.25c-0.6,2.62-2.43,4.83-4.31,4.82c-2.91-0.02-5.19-2.16-5.32-4.99c-0.15-3.18,1.68-4.72,6.46-4.24
	C182.25,311.96,183.18,314.71,184.23,316.25L184.23,316.25z"/>
<path d="M160.48,126.63c1.27,0.45,2.53,0.91,4.3,1.54c-4.13,2.81-7.9,5.37-11.39,7.74c-0.77-2.03-1.46-3.87-2.28-6.04
	c2.8-1.24,4.95-5.37,9.46-3.17L160.48,126.63L160.48,126.63z"/>
<path d="M193.14,118.23c-3.38,2.29-6.65,4.8-10.22,6.73c-0.97,0.52-2.88-0.7-4.54-1.17c2.86-3.79,5.37-7.61,10.61-8.68
	c0.13,2.71,1.53,3.94,4.25,3.23C193.24,118.34,193.14,118.23,193.14,118.23z"/>
<path d="M377.67,33.88c-0.3,0.49-0.52,1.35-0.9,1.42c-5.07,0.98-10.16,1.87-15.26,2.7c-0.73,0.12-1.54-0.22-2.61-0.4
	c1.6-1.99,2.76-3.77,4.28-5.16c0.69-0.63,2.13-0.78,3.15-0.62c3.81,0.58,7.58,1.37,11.38,2.1
	C377.73,33.93,377.67,33.88,377.67,33.88z"/>
<path d="M26.71,182.65c-0.89,0.99-1.35,1.33-1.58,1.79c-1.42,2.77-5.29,3.66-7.31,1.61c-0.34-0.35-0.86-0.92-0.77-1.22
	c0.62-2.06,0.87-4.61,2.26-5.92c1.08-1.02,4.05-1.18,5.41-0.39C26.01,179.26,26.31,181.73,26.71,182.65z"/>
<path d="M245.04,121.99c-1.5-0.96-3.18-2.04-5.24-3.37c3.04-1.76,5.88-3.4,8.96-5.18c-0.97-1.06-1.68-1.83-2.4-2.61
	c0.11-0.2,0.22-0.4,0.33-0.6c2.75,1.13,5.5,2.26,8.16,3.36c-3.31,2.84-6.43,5.51-9.81,8.41L245.04,121.99z"/>
<path d="M212.94,290.11c-0.07,4.85-1.98,5.94-6.46,3.72c-0.26-0.13-0.57-0.15-0.86-0.21c-1.04-0.25-2.09-0.49-3.13-0.73
	c0.59-1.18,0.91-2.65,1.82-3.47c1.29-1.16,2.93-2.05,4.56-2.68c2.76-1.06,4.11,0.16,4.06,3.38L212.94,290.11z"/>
<path d="M116.64,201.16c0.25,2.05-0.92,4.05-3.52,5.99c-2.39-4.34-3.49-8.85-2.93-14.38c2,0.71,3.52,1.26,5.04,1.8
	C115.7,196.77,116.17,198.96,116.64,201.16L116.64,201.16z"/>
<path d="M511.07,43.42c6.41,0.27,13.32-2.39,18.75,3.09c-0.01,0.36-0.03,0.73-0.04,1.09c-1.8,0-3.66,0.29-5.37-0.09
	c-1.53-0.34-2.89-0.31-4.29,0.18C515.73,49.24,513.85,45.41,511.07,43.42L511.07,43.42z"/>
<path d="M253.21,110.85c6.48-2.1,11.03-7.72,18.26-6.19c-2.54,1.73-5.08,3.47-7.63,5.2c-0.35,0.24-0.76,0.4-1.07,0.67
	C260.06,112.92,256.87,113.02,253.21,110.85L253.21,110.85z"/>
<path d="M323.16,55.58c7.44,0.01,13.49-5.96,20.72-1.53C337.31,55.39,331.21,60.88,323.16,55.58z"/>
<path d="M215.95,140.16c-1.51-0.9-3.37-2.02-5.72-3.43c3.63-2.33,6.85-4.69,10.36-6.48c1.14-0.58,3.05,0.36,4.6,0.6
	C221.95,134.11,219.06,137.02,215.95,140.16L215.95,140.16z"/>
<path d="M17.94,372.75c0.71-1.69,0.99-3.27,1.91-4.2c0.55-0.56,2.5-0.57,3.14-0.03c1.41,1.19,2.58,2.79,3.46,4.43
	c0.48,0.89,0.36,3.16,0.19,3.19c-2.12,0.42-4.41,1.01-6.42,0.56C19.23,376.47,18.71,374.17,17.94,372.75L17.94,372.75z"/>
<path d="M305.66,61.22c4.27-1.22,8.53-2.45,12.81-3.65c2.83-0.79,5.52-0.73,8.7,1.99c-4.21,0.95-7.68,1.74-11.17,2.52
	c-1.37,0.31-2.79,0.96-4.11,0.79c-2.09-0.27-4.11-1.1-6.17-1.68c-0.01,0-0.07,0.04-0.07,0.04L305.66,61.22z"/>
<path d="M361.32,50.05c-4.59,1.15-9.14,2.61-13.79,3.3c-1.89,0.28-4.04-1.12-5.97-2.31c4.42-1.11,8.81-2.48,13.29-3.21
	c2.07-0.34,4.35,0.58,6.54,0.93c-0.02,0.43-0.04,0.86-0.06,1.29H361.32z"/>
<path d="M346.51,48.85c-5.01,1.26-9.86,2.73-14.81,3.58c-1.74,0.3-3.74-0.9-5.85-2.24c0.28-0.09,0.55-0.2,0.83-0.28
	c2.97-0.79,6.03-1.34,8.9-2.4C339.42,46.08,342.92,46.31,346.51,48.85L346.51,48.85z"/>
<path d="M215.93,117.33c0.08-1.01,0.16-2.02,0.24-3.03c-0.12-0.02-0.24-0.05-0.36-0.07c-0.34,1.04-0.68,2.08-1.1,3.38
	c-1.95-0.25-3.87-0.5-5.8-0.75l-0.26-0.69c4.37-2.49,8.75-4.97,13.47-7.65C222.31,115.69,220.71,117.79,215.93,117.33z"/>
<path d="M53.23,144.06c1.6,0.73,3.34,1.26,4.77,2.25c1.62,1.11,1.95,2.71,0.38,4.29c-0.28,0.28-0.75,0.48-0.85,0.8
	c-0.28,0.87-0.42,1.78-0.61,2.68c-1.09-0.56-2.44-0.88-3.22-1.72c-1.26-1.38-2.36-3.01-3.13-4.71
	C49.56,145.42,50.51,144.34,53.23,144.06L53.23,144.06z"/>
<path d="M289.51,98.34c-1.2-0.65-2.94-1.59-4.73-2.57c7.24-4.83,15.2-7.31,17.76-5.8c-4.15,2.66-8.42,5.4-13.03,8.36V98.34z"/>
<path d="M359.52,46.66c6.57-0.2,12.84-5.22,19.7-0.93C372.69,46.59,366.42,51.48,359.52,46.66z"/>
<path d="M179.3,137.09c2.42,0.25,3.86,0.39,5.24,0.53c0.31,2.69,1.22,5.4,0.69,7.8c-0.36,1.62-2.74,2.8-4.22,4.17
	c-0.35-0.09-0.71-0.18-1.06-0.27C179.74,145.37,179.53,141.43,179.3,137.09L179.3,137.09z"/>
<path d="M479.49,47.58c-1.7-0.43-3.4-0.86-5.11-1.29c0.09-0.38,0.17-0.75,0.26-1.13c6.53,0.34,13.8-3.63,19.14,3.86
	c-2.71-0.17-5.62,2.43-8.07-0.81C483.86,45.81,481.59,47.47,479.49,47.58L479.49,47.58z"/>
<path d="M127.3,263.25c1.6,0.74,3.52,1.16,4.68,2.34c0.77,0.78,0.55,2.64,0.57,4.02c0.01,0.63-0.67,1.27-0.68,1.91
	c-0.03,1.99-1.3,2.42-2.39,1.32c-1.95-1.98-3.83-4.19-5.03-6.66C123.54,264.31,125.15,263.38,127.3,263.25L127.3,263.25z"/>
<path d="M118.12,127.89c5.89,2.38,4.16,6.69,4.1,10.78h-5.21c-0.39-2.58-1.07-5.16-1.04-7.73
	C115.98,129.85,117.46,128.77,118.12,127.89z"/>
<path d="M160.58,126.71c-0.12-0.82-0.25-1.63-0.42-2.8c3.15-1.99,6.61-4.18,10.3-6.51c0.08,1.42,0.14,2.54,0.21,3.73h-2.92
	c2.2,0.72,3.55,1.17,5.19,1.71c-3.23,2.48-6.18,4.53-10.27,3.16c-0.59-0.2-1.44,0.4-2.18,0.64L160.58,126.71L160.58,126.71z"/>
<path d="M387.64,40.55c-2.51-0.4-5.03-0.81-7.54-1.21c0-0.44,0-0.88,0-1.31c3.63-0.63,7.25-1.26,10.88-1.9
	c1.04-0.18,2.15-0.23,3.07-0.66c1.31-0.62,2.16-0.98,2.99,0.76c0.35,0.73,1.76,0.96,2.78,1.46c-0.24,0.31-0.52,0.69-0.81,1.06
	l0.14-0.11c-3.88,0.66-7.75,1.33-11.63,1.99C387.52,40.63,387.64,40.55,387.64,40.55z"/>
<path d="M169.87,107.39h-3.85c-0.14-0.93-0.26-1.77-0.51-3.52c-0.33,1.65-0.49,2.42-0.67,3.35c-1.46-0.1-2.75-0.19-4.05-0.29
	c-0.06-0.3-0.12-0.6-0.17-0.9c1.03-0.47,2.06-0.95,2.75-1.27c0.18-1.53-0.18-3.47,0.63-4.37c2.65-2.96,4.94,0.15,7.47,0.97
	c-0.51,1.91-1.02,3.84-1.59,6.02L169.87,107.39z"/>
<path d="M99.7,212.07c-0.23-0.87-0.58-1.98-0.79-3.11c-0.22-1.14-0.3-2.3-0.46-3.63c1.59-0.34,3.22-0.69,4.83-1.03
	c1.01,2.96,2.1,5.67,2.81,8.47c0.21,0.83-0.46,2.02-0.99,2.87c-0.66,1.05-1.59,1.93-2.58,3.09c-0.51-0.99-0.79-1.52-0.89-1.7
	c1.11-1.31,2.04-2.42,2.98-3.52C103.12,213.08,101.64,212.64,99.7,212.07L99.7,212.07z"/>
<path d="M36.73,348.49c-4.73-0.22-6.87-2.4-6.22-5.77c0.18-0.96,1.92-2.16,3.05-2.29c2.5-0.28,6.24,3.13,5.67,5.13
	C38.84,346.9,37.26,347.9,36.73,348.49L36.73,348.49z"/>
<path d="M343.71,45.25c3.36-0.45,6.72-0.91,10.08-1.35c0.72-0.09,1.51,0.04,2.17-0.2c3.66-1.31,3.65-1.34,7.95,0.96
	c-4.72,1.1-9.22,2.43-13.82,3.11c-2.05,0.3-4.29-0.73-6.45-1.15c0.02-0.45,0.04-0.91,0.06-1.36L343.71,45.25z"/>
<path d="M335.11,77.09c-4.04,2.39-7.88,5.1-12.11,6.92c-1.56,0.67-4.03-0.79-6.83-1.45C325.64,77.56,332.2,75.81,335.11,77.09
	L335.11,77.09z"/>
<path d="M361.54,41.52c4.82-0.96,9.22-2.15,13.7-2.61c2.21-0.22,4.56,0.91,6.84,1.43c-0.04,0.32-0.08,0.64-0.11,0.96
	c-1.64,0-3.29-0.08-4.92,0.03c-0.83,0.06-1.77,0.29-2.44,0.76c-3.37,2.34-9.12,2.27-13.06-0.57L361.54,41.52z"/>
<path d="M275.82,105.86c-1.82-1.2-3.38-2.23-5.42-3.57c4-1.93,7.56-3.86,11.31-5.31c1.08-0.42,2.71,0.55,4.9,1.09
	c-2.62,1.34-4.6,2.07-6.24,3.27C278.74,102.53,277.46,104.2,275.82,105.86L275.82,105.86z"/>
<path d="M566.45,47.55c-4.86,0-9.45,0.35-13.93-0.18c-1.7-0.2-3.16-2.41-4.7-3.67C553.67,42.29,562.95,44.06,566.45,47.55z"/>
<path d="M80.05,230.91c0.97,2.98,1.95,5.96,3.07,9.39c-0.91,1.11-2.16,2.64-3.75,4.59c-0.27-2.42-0.37-4.36-0.74-6.25
	c-0.18-0.89-0.68-2.1-1.38-2.43c-2.7-1.27-2.81-1.56-0.44-3.5c0.23-0.19,0.35-0.49,0.73-1.03c-1.1-0.35-2.04-0.66-2.99-0.96
	c0.07-0.33,0.14-0.66,0.21-0.99c1.79,0.42,3.59,0.83,5.38,1.25l-0.08-0.08L80.05,230.91z"/>
<path d="M145.31,217.13c-1.19-0.71-2.84-1.16-2.98-1.91c-0.18-0.91,0.9-2.08,1.45-3.12c0.31-0.58,0.59-1.19,1-1.7
	c0.71-0.89,1.65-2.49,2.24-2.39c1.37,0.24,3.12,1.05,3.71,2.16c0.44,0.83-0.37,2.75-1.18,3.72
	C148.51,215.15,146.91,215.96,145.31,217.13L145.31,217.13z"/>
<path d="M60.54,264.27c-0.44,0.42-0.81,1.05-1.33,1.21c-1.38,0.42-2.82,0.64-4.64,1.02c-0.86-2.52-1.92-5.65-3-8.82
	c3.56-0.74,6.43-0.85,7.1,3.41c0.06,0.38,0.71,0.66,1.09,0.99C60.02,262.81,60.29,263.54,60.54,264.27L60.54,264.27z"/>
<path d="M308.16,55.34c2.64-0.76,4.98-2.42,8.14-0.54c2.84,1.69,4.33,0.39,4.35-3.08c3.11-1.95,5.11,1,7.67,1.91
	c-4.47,1.33-8.88,2.99-13.43,3.85c-2.14,0.4-4.56-0.76-6.86-1.21c0.05-0.31,0.09-0.62,0.14-0.93H308.16z"/>
<path d="M68.05,248.89c0.41,1.18,0.72,2.41,1.26,3.53c1.8,3.77,1.76,4.03-2.44,6.88c0.32-0.84,0.63-1.68,0.96-2.51
	c0.85-2.14,0.04-4.55-1.74-4.74c-4.81-0.51-3.27-4.19-4.28-6.62c4.31-2.29,4.88,1.37,6.34,3.57L68.05,248.89L68.05,248.89z"/>
<path d="M245.25,102.09c-0.63,4.05,0.64,9.26-6.3,9.78c0.17-2.22,0.12-4.43,0.54-6.56C240.42,100.58,240.51,100.6,245.25,102.09
	L245.25,102.09z"/>
<path d="M306.79,90.99c-1.27-0.88-2.73-1.88-5-3.45c5.85-0.76,9.8-6.14,16-3.35C314,86.53,310.49,88.7,306.79,90.99z"/>
<path d="M192.29,81.83c-0.75,0.37-2.03,1.22-3.43,1.59c-0.54,0.14-1.44-0.74-2.04-1.3c-0.66-0.61-1.2-1.37-1.73-2.1
	c-0.51-0.72-1.39-1.56-1.3-2.22c0.11-0.73,1.08-1.81,1.78-1.9c2.02-0.26,4.09-0.09,5.76-0.09
	C191.69,78.11,191.93,79.59,192.29,81.83L192.29,81.83z"/>
<path d="M349.95,70.13c6.44-1.31,12.08-4.89,18.6-4.35c0.07,0.27,0.14,0.55,0.2,0.82c-3.21,1.29-6.41,2.58-9.62,3.85
	c-0.29,0.12-0.75-0.06-0.97,0.11c-2.43,1.87-5.17,1.74-8.21-0.41L349.95,70.13z"/>
<path d="M321.97,47.36c-3.68,1.07-7.33,2.27-11.07,3.09c-0.52,0.12-2.22-1.89-2.02-2.36c0.48-1.19-0.46-3.72,2.25-3.37
	c3.59,0.46,7.17,1.02,10.75,1.53C321.91,46.62,321.94,46.99,321.97,47.36z"/>
<path d="M378.61,33.09c0.21-0.03,0.5,0.01,0.6-0.11c4.79-5.53,10.09-2.33,15.4-0.38c-3.4,0.54-6.78,1.25-10.2,1.57
	c-2.21,0.21-4.47-0.16-6.73-0.29c-0.01-0.01,0.05,0.04,0.03,0.02c0.32-0.32,0.66-0.62,1-0.93l-0.1,0.1L378.61,33.09z"/>
<path d="M512.08,29.78c-3.49,2.23-12.08,1.46-15.6-1.22C498.84,26.03,507.96,26.65,512.08,29.78z"/>
<path d="M178.83,134.91c1.58-1.05,3.15-2.09,5-3.32c0.63,2.09,1.26,4.23,3.94,3.7c0.71-0.14,1.32-0.82,1.98-1.25
	c-1.09-1.36-2.18-2.72-3.38-4.2c1.41-0.8,3.29-1.86,5.83-3.29c-0.45,3.39-0.7,5.76-1.11,8.1c-0.09,0.5-0.74,1.27-1.14,1.28
	c-3.7,0.07-7.41,0-11.12-0.02C178.83,135.58,178.83,135.24,178.83,134.91L178.83,134.91z"/>
<path d="M34.31,258.21c2.25,0.96,2.22,1.13-1.73,5.79c-2.57-4.72-5.98,0.71-9.36-0.88c2.02-2.99,3.56-6.17,7.25-5.82
	c0.42,1.16,0.72,1.97,1.01,2.78c0.76-0.51,1.53-1.01,2.84-1.88L34.31,258.21z"/>
<path d="M429.3,54.08c2.8-0.68,5.58-1.54,8.42-1.99c2.63-0.41,3.55,0.56,4.05,3.61c-0.54,0.22-1.12,0.67-1.67,0.64
	c-2.44-0.16-4.66,0.87-6.96,1.1c-1.29,0.13-2.78-1.61-4.17-2.51C429.08,54.65,429.19,54.37,429.3,54.08L429.3,54.08z"/>
<path d="M480.65,38.58c0.17-0.03,0.32-0.09,0.45-0.19c1.1-0.6,2.21-1.2,3.33-1.81c1.41,3.79,5.13,1.81,8.08,3.47
	c-5.12,3.55-10.78,0.55-15.54,2.73c-0.16-0.3-0.31-0.59-0.47-0.89c1.38-1.1,2.76-2.2,4.15-3.3L480.65,38.58z"/>
<path d="M58.91,189.24c0.96,5.54,0.37,7.73-2.29,8.25c-2.26,0.44-3.58-0.87-4.16-2.89c-0.75-2.63,0.79-3.91,6.44-5.36H58.91z"/>
<path d="M235.01,42.53c1.32-2.56,1.59-4.56-1.39-5.62c-0.39-0.14-0.73-1.59-0.46-2.1c0.36-0.67,1.57-1.56,2.02-1.38
	c2.28,0.92,4.49,2.07,6.57,3.37c0.24,0.15-0.12,2.16-0.71,2.57C239.37,40.53,237.43,41.3,235.01,42.53L235.01,42.53z"/>
<path d="M402.56,57.79c-4.68,1.73-9.36,3.45-14.44,5.33c-0.95-0.54-2.39-1.35-4.61-2.61C390.45,59.59,396.19,56.3,402.56,57.79z"/>
<path d="M346.13,74.94c-2.22,1.09-4.43,2.17-6.89,3.38c-1.14-0.79-2.51-1.73-3.97-2.74c6.27-3.63,12.17-4.79,15.14-3.03
	c-1.48,0.84-2.93,1.67-4.38,2.49l0.09-0.09L346.13,74.94z"/>
<path d="M309.45,77.6c-0.87,3.12-3.66,3.56-6.51,4.63c-0.45-3.63,1.02-6.5,2.92-8.96c0.37-0.48,2.99,0.77,4.57,1.21
	c-0.33,1.04-0.66,2.08-0.98,3.11V77.6z"/>
<path d="M133.91,312.28c-0.07,2.34-2.09,4.72-4.04,4.49c-2.14-0.25-3.39-1.6-3.5-3.79c-0.09-1.83,2.25-4.22,4.15-3.98
	C132.28,309.22,134.02,309.92,133.91,312.28L133.91,312.28z"/>
<path d="M339.2,59.91c5.39-1.47,10.22-2.79,15.38-4.2C351.43,62.1,347.2,63.25,339.2,59.91z"/>
<path d="M238.44,125.39c1.61-1.04,3.69-3.26,4.71-2.85c1.77,0.71,2.89,3.05,4.28,4.71c-1.32,1.02-2.65,2.04-3.97,3.06
	c-1.67-1.64-3.35-3.29-5.02-4.93V125.39z"/>
<path d="M17.42,270.24c3.01-2.37,3.29-7.23,7.76-5.87c0.83,2.36,1.57,4.46,2.44,6.94c-3.12-0.33-6.22-0.65-10.2-1.06L17.42,270.24z"
	/>
<path d="M80.13,230.99c1.75-0.84,3.51-1.68,6.27-3c-1.57,3.5-0.99,5.27,2.32,5.72c-1.68,1.98-3.07,3.61-4.77,5.6
	c-1.42-3.06-2.65-5.72-3.89-8.39L80.13,230.99L80.13,230.99z"/>
<path d="M112.26,209.32c-1.78,0.62-4.5,2.23-5.11,1.64c-1.53-1.45-2.09-3.92-3.04-5.97C109.33,202.66,109.77,202.88,112.26,209.32z"
	/>
<path d="M68.14,248.99c-0.24-1.31-0.48-2.62-0.71-3.9c2.52-1.3,4.23-0.32,5.63,1.65c0.5,1.17,1,2.34,1.5,3.52
	c-0.89,1.46-1.79,2.93-2.9,4.74c-1.38-2.33-2.5-4.22-3.62-6.11L68.14,248.99L68.14,248.99z"/>
<path d="M60.54,264.27c-0.26-0.73-0.53-1.46-0.79-2.19c-0.57-1.57-1.13-3.15-1.69-4.7c3.37-2.44,5.12,0.73,7.3,1.97
	c0.53,0.3,0.91,1.86,0.6,2.43C64.84,263.85,62.89,264.61,60.54,264.27L60.54,264.27z"/>
<path d="M185.4,137.7c2.04-0.27,3.67-0.48,5.53-0.72c0,2.27,2.44,4.66-1.11,6.18c0.54,0.64,0.92,1.08,1.41,1.66h-5.29
	c-0.16-2.15-0.34-4.59-0.53-7.12H185.4z"/>
<path d="M291.26,82.22c-0.34,0.73-1,1.48-0.95,2.18c0.3,3.9-2.54,4.42-6.31,5.66c1.19-3.56,1.96-6.42,3.17-9.08
	c0.28-0.62,2.07-0.73,3.15-0.72c0.29,0,0.56,1.35,0.84,2.07l0.09-0.12L291.26,82.22z"/>
<path d="M206.46,96.93c3.72-1.94,7.1-3.7,9.91-5.17c0,1.7,0.15,3.35-0.07,4.95c-0.1,0.71-0.8,1.61-1.47,1.93
	C211.88,100.05,209.37,98.74,206.46,96.93z"/>
<path d="M323.39,73.31c-1.7,1.23-3.39,2.45-5.09,3.68c-0.26-0.23-0.52-0.46-0.78-0.69c0.05-3.11,0.99-5.97,3.52-8.04
	c1.51-1.24,3.02-0.98,3.74,1.14C324.32,70.7,323.85,72,323.39,73.31L323.39,73.31z"/>
<path d="M201.78,128.78c0.69,4.15-0.35,6.81-3.14,7.98c-1.76-7.24-1.87-7.33-6.3-4.45c0.4-1.52,0.69-2.63,1.02-3.9
	C196.32,128.6,199.01,129.91,201.78,128.78L201.78,128.78z"/>
<path d="M254.97,122.11c0.34,3.52-3.34,2.83-4.71,4.81c-1.27-1.35-2.4-2.56-3.72-3.97c1.75-1.5,2.11-4.81,5.64-3.78
	C253.11,120.15,254.04,121.13,254.97,122.11L254.97,122.11z"/>
<path d="M372.49,67.58c-1.08-0.8-2.25-1.68-4.16-3.1c5.76-0.57,10.3-4.29,16.23-2.12C380.34,64.18,376.57,65.81,372.49,67.58
	L372.49,67.58z"/>
<path d="M254.97,122.11c-0.93-0.98-1.86-1.96-2.79-2.94c-0.02-0.67-0.31-1.76-0.01-1.96c3.87-2.64,4.45-3.92,8.92,1.32
	c-1.54,0.87-2.98,1.68-4.66,2.62c0.05,0.32,0.16,0.98,0.34,2.05c-0.82-0.5-1.3-0.8-1.79-1.09L254.97,122.11z"/>
<path d="M354.53,32.12c2.41-0.99,4.82-1.99,7.68-3.17c-1.02,6.03-4.59,8.76-8.3,7.09c-0.34-0.15-0.4-0.96-0.59-1.46
	c0.41-0.82,0.81-1.64,1.22-2.46L354.53,32.12z"/>
<path d="M460.02,3.89c3.22,0.45,6.64,0.93,10.69,1.5c-4.52,4.32-7.72,4.67-11.55,2.15c0.27-1.14,0.5-2.12,0.87-3.65L460.02,3.89z"/>
<path d="M173.04,163.23c3.9-1.51,5.76-7.19,11.26-3.65c-2.88,2.11-5.76,4-7.51,7.78C175.43,165.87,174.38,164.71,173.04,163.23
	L173.04,163.23z"/>
<path d="M343.54,64.26c-1.17,3.52-3.38,5.65-7.31,5.5c0.26-6.09,3.12-8.72,7.83-7.17c-0.21,0.59-0.42,1.18-0.63,1.78L343.54,64.26
	L343.54,64.26z"/>
<path d="M373.96,50.91c5.61-1.18,10.48-2.21,15.78-3.32C385.92,53.35,382.64,54.06,373.96,50.91z"/>
<path d="M410.26,18.4c2.85-0.57,5.72-1.07,8.55-1.74c0.67-0.16,1.16-1.01,1.84-1.24c0.59-0.21,1.57-0.27,1.96,0.08
	c1.08,0.96,1.95,2.16,2.8,3.14c-4.71,2.77-9.91,0.85-15.06,0.62c-0.02-0.29-0.05-0.57-0.07-0.86H410.26z"/>
<path d="M346.18,76.3c-0.01-0.45-0.03-0.91-0.05-1.36c0,0-0.09,0.09-0.1,0.09c1.09-0.27,2.22-0.45,3.28-0.82
	c3.51-1.22,5.25-0.3,6.52,3.85c-2.47-0.08-4.37,3.19-7.15,0.72l-2.51-2.48L346.18,76.3z"/>
<path d="M98.93,119.9c-3.17,0.12-6.53-2.46-6.27-4.38c0.09-0.63,1.28-1.48,2.04-1.57c2.76-0.32,6.91,1.99,6.5,3.6
	C100.92,118.64,99.44,119.41,98.93,119.9z"/>
<path d="M334.08,30.55c-3.24,0.69-5.88,1.32-8.55,1.8c-2.42,0.43-4.87,2.23-7.5-0.25c-0.96,3.26-2.75,2.16-5.11,0.88
	c3.65-1.08,6.85-2.02,10.26-3.03c0.34,0.52,0.76,1.17,1.13,1.73C327.5,30.97,330.07,27.39,334.08,30.55L334.08,30.55z"/>
<path d="M112.75,135.67c0.35-1.79,0.65-3.35,0.95-4.9c0.46,0.03,0.92,0.06,1.38,0.09c0.35,2.53,0.71,5.05,1.05,7.54
	c-2.13,0.39-3.95,0.73-6.17,1.14c0.3-2.23-2.78-4.43,0.77-6.27C111.48,134.16,112.09,134.89,112.75,135.67L112.75,135.67z"/>
<path d="M116.64,201.16c-0.47-2.2-0.94-4.39-1.4-6.59c1.3-0.64,2.6-1.27,3.9-1.91l0,0c0.62,1.27,1.23,2.54,1.85,3.81
	c0.04,0.51,0.09,1.02,0.13,1.53c-0.84,1.61-1.67,3.23-2.7,5.21c-0.93-1.07-1.34-1.56-1.76-2.04L116.64,201.16z"/>
<path d="M139.83,117.89c-0.35,3.13-0.68,6.12-1.04,9.41c-1.56-0.18-2.78-0.31-3.93-0.44c-0.89-5.77,0.09-7.61,4.97-8.96
	L139.83,117.89z"/>
<path d="M425.93,42.66l-0.02-0.17c-0.72,0.4-1.59,0.65-2.13,1.22c-4.31,4.51-8.8,1.38-13.29,0.07c4.07-0.61,8.14-1.3,12.23-1.79
	C423.75,41.87,424.86,42.41,425.93,42.66L425.93,42.66z"/>
<path d="M135.85,258.18c-3.5-0.29-6.2-2.57-5.66-4.45c0.26-0.91,1.66-2.07,2.59-2.11c2.23-0.12,5.2,2.82,4.78,4.56
	C137.33,257.1,136.21,257.8,135.85,258.18L135.85,258.18z"/>
<path d="M215.18,119.14c1.7-0.32,3.39-0.63,5.04-0.94c1.32,5.05,0.78,5.81-5.41,7.78c0.13-2.4,0.26-4.66,0.39-6.91L215.18,119.14
	L215.18,119.14z"/>
<path d="M128.42,214.18c0.1-0.99-0.14-2.26,0.39-2.9c0.53-0.65,2.05-1.19,2.72-0.88c1.78,0.82,3.38,2.06,4.9,3.32
	c0.13,0.11-0.78,2.22-1.38,2.31c-1.52,0.23-3.17,0-4.7-0.35c-0.77-0.18-1.37-1.05-2.04-1.6L128.42,214.18z"/>
<path d="M30.68,152.28c1.64,1.74,3.27,2.7,3.62,4.01c0.63,2.35-1.8,3.25-3.28,3.11c-1.49-0.14-2.84-1.74-4.25-2.7
	C27.87,155.46,28.98,154.21,30.68,152.28L30.68,152.28z"/>
<path d="M357.09,62.69c-1.79,1.01-3.59,2.02-5.38,3.03c-0.36-0.33-0.72-0.66-1.09-1c1.43-2.3,2.64-4.78,4.36-6.84
	c1.31-1.57,3.35-0.55,3.73,1.65C358.17,60.58,357.63,61.64,357.09,62.69z"/>
<path d="M376.94,57.35c-2.07,0.99-4.15,1.99-6.67,3.19c0.9-5.76,4.03-9.23,7.23-7.6c0.38,0.19,0.46,0.96,0.68,1.46
	c-0.42,0.98-0.83,1.96-1.25,2.95H376.94z"/>
<path d="M105.15,271.43c1.43,1.87,3.25,3.29,3.02,4.19c-0.3,1.21-2.1,2.63-3.43,2.84c-1.74,0.27-4.32-0.3-3.83-2.85
	c0.26-1.34,2.28-2.34,4.23-4.19L105.15,271.43z"/>
<path d="M63.56,137.7c-0.53,0.28-1.4,1.12-2.28,1.14c-2.67,0.06-5.51-2.15-5.1-4.02c0.21-0.97,1.51-2.28,2.44-2.39
	C60.77,132.17,63.66,135.09,63.56,137.7z"/>
<path d="M513.98,16.26c3.52-2.62,8.23-2.2,10.77,0.97C522.14,19.83,516.31,19.31,513.98,16.26z"/>
<path d="M380.12,66.19c0.86-2.69,3.52-2.43,5.29-2.41c1.43,0.02,2.83,1.87,4.51,3.11c-5.36,2.9-6.08,2.83-9.62-0.55L380.12,66.19
	L380.12,66.19z"/>
<path d="M40.9,240.98c2.05-3.11,4.15-7.53,9.82-4.26c-0.9,1.44-1.89,3.05-2.64,4.26H40.9z"/>
<path d="M333.36,39.29c0.35-4.26,2.49-4.94,5.46-5.25c2.27-0.24,4.43-1.5,6.84-2.37v3.48c-3.27-0.21-6.19-0.58-8.11,2.78
	C337.04,38.82,334.97,38.82,333.36,39.29L333.36,39.29z"/>
<path d="M318.11,69.34c-0.4,3.04-2.14,3.88-4.69,3.15c-0.5-0.14-0.76-1.11-1.06-1.58c-1.06,1.17-3.59,1.32-7.58,0.43
	C309.53,69.42,313.36,67.34,318.11,69.34z"/>
<path d="M458.87,50.24c-1.35-0.77-2.7-1.54-4.05-2.31c6.2-0.81,12.18-2.94,18.32-1.34c-1.23,0.45-2.46,0.9-3.69,1.35l0.04-0.05
	c-1.09,0.08-2.19,0.16-3.28,0.24l0.1-0.09c-2.51,0.76-5.03,1.52-7.54,2.28l0.09-0.09L458.87,50.24z"/>
<path d="M332.1,80.74c1.99-2.44,5.01-3.21,6.49-1.39c0.88,1.08,1.09,2.7,1.6,4.08c-1.63,0.16-3.25,0.32-4.88,0.48
	C334.24,82.85,333.17,81.8,332.1,80.74z"/>
<path d="M222.41,62.03c-1.67-1.99-2.7-3.22-3.73-4.44c1.29-0.81,2.61-2.3,3.87-2.24c1.28,0.05,2.5,1.62,3.74,2.52
	c-1.07,1.15-2.14,2.29-3.88,4.17V62.03z"/>
<path d="M346.18,76.3c0.84,0.83,1.67,1.65,2.51,2.48c-0.69,0.83-1.24,1.89-2.11,2.43c-1.03,0.65-2.34,0.86-3.61,1.29
	c-0.83-1.08-1.64-2.13-2.82-3.65C342.29,77.95,344.23,77.12,346.18,76.3L346.18,76.3z"/>
<path d="M281.94,102.49c3.19-3.99,5.5-4.14,9.07-0.59c-1.51,3.16-3.64,3.37-8.75,0.85C282.16,102.65,282.05,102.57,281.94,102.49
	L281.94,102.49z"/>
<path d="M215.2,119.06c-0.48,1.96-0.95,3.93-1.5,6.19c-1.47-0.39-3.21-0.85-4.9-1.3c0.34-5.97,1.46-6.77,6.38-4.8
	C215.18,119.13,215.2,119.06,215.2,119.06L215.2,119.06z"/>
<path d="M414.15,57.21l-0.05,0.1c5.73-2.66,7.5-2.24,9.81,2.66c-1.25,0-2.36-0.13-3.43,0.03c-1.13,0.17-2.21,0.61-3.35,0.95
	c-0.76-0.88-1.48-1.71-2.19-2.53C414.67,58.02,414.41,57.61,414.15,57.21L414.15,57.21z"/>
<path d="M316.79,43.2c1.18-0.12,2.38-0.18,3.54-0.39c0.74-0.13,1.44-0.49,2.16-0.75c-0.54-0.49-1.02-1.08-1.63-1.45
	c-0.65-0.4-1.41-0.61-2.13-0.9c-0.02-0.35-0.05-0.69-0.07-1.04c2.17-0.61,4.33-1.22,6.5-1.83c0.26,0.21,0.51,0.42,0.77,0.62
	c-1.3,2.27-2.43,4.68-3.96,6.78c-1.15,1.58-4.1,0.79-5.1-1.14l-0.09,0.1L316.79,43.2z"/>
<path d="M404.91,51.93c2.26-5.7,5.06-7.32,8.58-5.17C412.22,50.85,408.96,51.76,404.91,51.93z"/>
<path d="M392.09,53.27c-1.92,1.15-3.83,2.29-6.31,3.77c0.73-5.79,4.23-8.57,8.06-7.12c-0.34,0.63-0.67,1.25-1,1.86
	C392.59,52.28,392.34,52.77,392.09,53.27z"/>
<path d="M199.9,56.85c2.92-1.28,5.48-0.43,7.69,1.07c1.38,0.94,1.06,2.44-0.55,3.29c-2.1,1.11-4.78,0.02-5.62-2.16
	C201.17,58.39,200.6,57.84,199.9,56.85z"/>
<path d="M153.05,279.58c1.62,2.3,2.92,3.61,3.43,5.17c0.16,0.5-1.71,2.34-2.75,2.42c-2.27,0.18-3.43-1.63-3.28-3.71
	C150.53,282.44,151.71,281.5,153.05,279.58L153.05,279.58z"/>
<path d="M232.77,177.66c0.76-2,1.28-3.91,2.21-5.59c0.52-0.95,1.72-1.53,2.83-2.47c1.78,2.58,2.04,5.36,0.51,6.97
	C237.19,177.77,234.4,177.4,232.77,177.66z"/>
<path d="M366.04,69.97c0.04-0.46,0.01-1.29,0.11-1.31c1.74-0.26,3.62-0.87,5.2-0.43c1.05,0.29,1.68,2.1,3.07,4.02
	c-2.53,0.38-4.24,0.63-5.94,0.88c-0.82-1.05-1.63-2.11-2.45-3.16L366.04,69.97z"/>
<path d="M314.37,89.22c-0.05-0.63-0.4-1.56-0.11-1.85c2.71-2.74,6.03-2.35,8.79,1.5c-2.71,0.48-5.12,0.92-7.54,1.35
	c-0.38-0.33-0.76-0.66-1.14-0.99V89.22z"/>
<path d="M78.91,168.6c-0.86-1.45-2.04-2.82-2.41-4.38c-0.14-0.58,2.21-2.45,2.39-2.31c1.4,1.02,2.81,2.25,3.6,3.74
	c0.25,0.46-1.38,1.93-2.15,2.93C79.86,168.58,79.39,168.59,78.91,168.6z"/>
<path d="M118.98,145.92c-3.38-1.16-2.55-3.46-2.16-6c2.37,0.23,4.73,0.46,7.09,0.68c0.17,0.35,0.33,0.7,0.5,1.05
	C122.61,143.06,120.82,144.47,118.98,145.92z"/>
<path d="M167.05,168.56c2.32,0.43,4.68,0.72,6.93,1.38c0.54,0.16,1.03,1.59,0.95,2.38c-0.05,0.55-1.06,1.36-1.71,1.44
	c-2.16,0.27-4.54,0.7-5.03-2.57c-0.08-0.53-0.92-0.94-1.41-1.41C166.87,169.37,166.97,168.97,167.05,168.56L167.05,168.56z"/>
<path d="M113.03,314.47c-2.62-0.57-4.51-1.07-3.87-3.45c0.29-1.09,2.21-2.66,3.06-2.47c1.31,0.28,2.66,1.72,3.31,3.01
	c0.22,0.44-1.6,1.92-2.49,2.92L113.03,314.47z"/>
<path d="M281.94,102.49c0.12,0.08,0.23,0.16,0.33,0.26c0.7,1.82,1.4,3.63,2.49,6.47c-3.13-0.7-5.56-1.25-8-1.79
	c-0.04-0.44-0.08-0.87-0.12-1.31c1.77-1.21,3.53-2.42,5.3-3.62L281.94,102.49z"/>
<path d="M39.51,194.9c-2.71-0.27-4.92-0.32-4.31-2.91c0.26-1.12,2.14-2.83,2.89-2.65c1.32,0.32,2.64,1.73,3.3,3.02
	C41.63,192.83,40,194.26,39.51,194.9z"/>
<path d="M165.85,197.94c-1.44-1.82-2.36-2.97-3.27-4.12c1.09-0.82,2.09-2.11,3.31-2.35c1.78-0.36,3.59,0.74,3.4,2.66
	c-0.11,1.12-1.79,2.08-3.44,3.82L165.85,197.94z"/>
<path d="M461.34,21.39c4.3-4.72,7.77,1.26,12.01-0.09C471.38,24.14,464.68,23.98,461.34,21.39z"/>
<path d="M505,41.1h-11.67c2.11-2.64,6.5-3.99,9.45-2.71C503.51,38.71,503.93,39.75,505,41.1z"/>
<path d="M380.12,66.19l0.19,0.15c0.54,0.98,1.09,1.95,1.63,2.93c-5.17,2.83-5.57,2.79-8.55-1.31
	C375.81,67.32,377.97,66.76,380.12,66.19L380.12,66.19z"/>
<path d="M115.34,216.42c0.8,2.06,1.31,3.39,2.01,5.19c-4.46-2.37-4.55,1.94-6.19,4.22c-0.85-1.23-1.44-2.09-2.19-3.18
	c2.16-2.11,4.34-4.24,6.38-6.22L115.34,216.42z"/>
<path d="M378.71,32.98c-1.41-0.22-2.82-0.43-4.22-0.65c-0.11-0.31-0.21-0.62-0.32-0.92c1.49-0.97,2.99-1.94,4.87-3.17
	c0.01,0.09-0.08-0.53-0.21-1.4c1.47-0.08,2.78-0.16,4.08-0.23c0.15,0.24,0.31,0.48,0.46,0.72c-1.59,1.92-3.17,3.84-4.76,5.76
	L378.71,32.98L378.71,32.98z"/>
<path d="M309.45,77.6c0.33-1.04,0.66-2.08,0.98-3.11c1.78-0.34,3.56-0.68,5.36-1.03c0.56,4.22,0.27,4.47-6.34,5.91V77.6z"/>
<path d="M414.15,57.21c0.27,0.4,0.53,0.81,0.8,1.21c0.27,0.77,0.53,1.54,0.8,2.29c-5.13,2.57-6.64,2.23-7.66-1.66
	C410.11,58.44,412.13,57.82,414.15,57.21L414.15,57.21z"/>
<path d="M496.44,46.05c-1.9-0.31-3.81-0.62-5.71-0.94c0.05-0.46,0.1-0.91,0.15-1.37h18.07c0,0.1,0,0.2,0,0.3
	c-4.19,0.68-8.39,1.36-12.59,2.05c-0.01,0,0.09-0.05,0.09-0.05L496.44,46.05z"/>
<path d="M502.55,21.18c-4.38,1.17-8.29,2.33-12.26-0.15C493.24,18.95,499.87,18.88,502.55,21.18z"/>
<path d="M366.04,69.97c0.82,1.05,1.63,2.11,2.45,3.16c-2.91,2.46-4.1,2.44-6.56-0.11c-0.37-0.4-0.74-0.8-1.11-1.2
	C361.84,69.18,363.83,69.26,366.04,69.97L366.04,69.97z"/>
<path d="M416.27,27.89c-1.5-0.41-2.99-0.82-4.49-1.23c0.7-0.79,1.41-1.58,2.11-2.37c2.15-0.69,4.3-1.39,6.45-2.08
	c0.11,0.31,0.22,0.61,0.34,0.92c-1.5,1.62-3.01,3.24-4.51,4.87l0.1-0.1V27.89z"/>
<path d="M341.91,27.45c0.13-0.65,0.09-1.76,0.41-1.87c1.48-0.52,3.14-1.21,4.58-0.96c1.25,0.21,2.3,1.6,3.38,2.82
	c-2.86-0.49-5.59,2.96-8.43-0.05L341.91,27.45z"/>
<path d="M19.67,264.68c-1.77,3.14-2.87,5.6-6.06,4.68c-0.94-0.27-1.58-1.55-2.36-2.36c0.74-0.48,1.42-1.19,2.23-1.38
	c1.78-0.42,3.61-0.57,6.2-0.93L19.67,264.68z"/>
<path d="M159.07,84.59c2.15,1.46,4.13,2.63,5.85,4.11c0.43,0.37,0.01,1.72-0.02,2.62c-0.96-0.05-2.09,0.19-2.83-0.23
	c-1.29-0.73-2.35-1.88-3.78-3.09c0.16-0.71,0.4-1.76,0.78-3.4V84.59z"/>
<path d="M177.57,67.5c-1.47-1.8-2.86-2.88-3.22-4.22c-0.19-0.71,1.45-1.9,2.26-2.87c1.17,1.17,2.57,2.21,3.37,3.59
	C180.22,64.42,178.79,65.8,177.57,67.5L177.57,67.5z"/>
<path d="M38.92,199.72c1.2,0.57,2.45,1.08,3.55,1.79c0.17,0.11-0.19,1.7-0.46,1.75c-1.47,0.26-2.99,0.27-4.5,0.31
	c-0.28,0-0.6-0.2-0.83-0.4c-0.68-0.58-1.32-1.2-1.98-1.81c0.89-0.4,1.76-0.85,2.68-1.17c0.36-0.12,0.83,0.06,1.25,0.1
	c0.09-0.19,0.19-0.38,0.28-0.57H38.92z"/>
<path d="M354.53,32.12c-0.41,0.82-0.81,1.64-1.22,2.46c-2.04,0.4-4.09,0.8-6.13,1.2c-0.24-0.4-0.47-0.81-0.71-1.21
	c0.86-0.91,1.75-2.61,2.58-2.58C350.87,32.05,352.83,29.65,354.53,32.12z"/>
<path d="M435.56,30.55c2.05,0.25,4.11,0.71,6.15,0.69c1.43-0.02,2.84-0.81,4.29-1.01c0.43-0.06,1.34,0.69,1.36,1.1
	c0.02,0.5-0.64,1.46-1.05,1.48c-3.7,0.19-7.55,1.19-10.76-2.27L435.56,30.55z"/>
<path d="M446.1,22.42c2.15-0.52,4.3-1.03,6.42-1.54c-0.73-2.39-0.01-2.65,5.73-0.68c-3.87,1.29-7.73,2.61-11.63,3.82
	c-0.33,0.1-0.87-0.5-1.32-0.78C445.57,22.97,445.83,22.69,446.1,22.42z"/>
<path d="M376.94,57.35c0.42-0.98,0.83-1.96,1.25-2.95c2.01-0.36,4.02-0.72,6.37-1.14C383.74,56.95,379.55,58.75,376.94,57.35z"/>
<path d="M343.43,64.37c1.61-2.62,3.95-1.95,6.26-1.41c-0.07,2.09-2.31,3.73-6.72,4.92c0.2-1.28,0.39-2.45,0.57-3.62L343.43,64.37
	L343.43,64.37z"/>
<path d="M25.97,255.2c-0.8,1.81-1.59,3.61-2.83,6.43c-2.08-2.16-3.47-3.61-5.39-5.6c3.55-0.31,5.93-0.51,8.31-0.72
	C26.06,255.31,25.97,255.2,25.97,255.2z"/>
<path d="M74.56,250.25c-0.5-1.17-1-2.34-1.5-3.52c-0.21-0.79-0.42-1.59-0.62-2.35c3.94-1.72,4.25-1.62,6.2,2.48
	C77.42,247.87,75.99,249.06,74.56,250.25L74.56,250.25z"/>
<path d="M431.98,61.15c3.62-0.81,7.23-1.62,10.85-2.43v3.21c-3.4,0.21-7.03,0.42-10.66,0.64l-0.18-1.42H431.98z"/>
<path d="M323.41,45.87c-0.01-0.15-0.31-0.99-0.06-1.2c2.38-2.06,2.64-7.43,8.66-4.61c-1.39,1.18-2.51,2.31-3.8,3.18
	C326.79,44.19,325.21,44.9,323.41,45.87L323.41,45.87z"/>
<path d="M314.37,89.22c0.38,0.33,0.76,0.66,1.14,0.99c-1.58,1.48-3.16,2.97-4.86,4.57c-1.05-1.12-1.81-1.93-2.74-2.93
	C310.2,90.84,311.14,87.39,314.37,89.22L314.37,89.22z"/>
<path d="M332.1,80.74c1.07,1.06,2.14,2.11,3.21,3.17c-1.29,0.52-2.57,1.05-4.13,1.68c-0.72-0.35-1.74-0.86-2.76-1.36
	c-0.25-0.31-0.5-0.61-0.75-0.92c0.61-2.34,2.38-2.68,4.42-2.57H332.1z"/>
<path d="M196.3,220.57c-1.63,2.17-2.44,3.55-3.56,4.59c-0.53,0.49-1.78,0.58-2.51,0.32c-0.49-0.18-0.92-1.35-0.82-2
	c0.08-0.49,1.06-0.81,1.57-1.29c0.52-0.49,0.85-1.39,1.42-1.55c0.92-0.26,1.97-0.07,3.91-0.07H196.3z"/>
<path d="M95.49,160.47c-2.85-2.24-0.41-4,0.47-5.68c0.16-0.31,2.42-0.04,3.23,0.59c1.25,0.98,1.75,2.36-0.5,3.18
	c-1.09,0.4-2.03,1.2-3.19,1.92L95.49,160.47z"/>
<path d="M65.64,297.3c-1.29,0.92-2.5,2.01-3.92,2.62c-0.36,0.15-2.1-1.65-1.98-1.87c0.74-1.33,1.69-2.69,2.91-3.53
	c0.42-0.29,1.84,0.89,2.81,1.4c0.06,0.46,0.13,0.92,0.19,1.38H65.64z"/>
<path d="M323.39,73.31c0.46-1.3,0.93-2.6,1.39-3.91c1.64-1.76,3.2-1.1,4.73,0.18c-0.12,0.37-0.24,0.75-0.35,1.12
	c-0.59,2.39-2.61,2.97-4.59,3.49C324.27,74.27,323.79,73.62,323.39,73.31L323.39,73.31z"/>
<path d="M360.82,71.82c0.37,0.4,0.74,0.8,1.11,1.2c0.27,0.77,0.54,1.53,0.9,2.56c-1.53,0.54-2.99,1.05-4.6,1.62
	c-0.82-1.1-1.6-2.15-2.83-3.79C357.42,72.82,359.13,72.32,360.82,71.82L360.82,71.82z"/>
<path d="M175.36,275.96c-2.31,1.39-3.69,2.44-5.24,3c-0.41,0.15-2.06-1.6-1.95-1.8c0.76-1.33,1.64-2.95,2.9-3.5
	C171.8,273.34,173.33,274.81,175.36,275.96L175.36,275.96z"/>
<path d="M299.43,93.36c4.91-3.29,6.51-3.04,8.43,1.19c-3.17,1.91-5.93,0.82-8.52-1.28L299.43,93.36L299.43,93.36z"/>
<path d="M121.11,197.99c-0.04-0.51-0.09-1.02-0.13-1.53c-0.28-1-0.55-2-0.83-2.98c2.76-1.13,4.78-0.22,6.07,2.75
	c-1.21,0.67-2.34,1.38-3.55,1.91c-0.42,0.18-1.04-0.09-1.57-0.15L121.11,197.99z"/>
<path d="M295.67,84.14c-1.43,1.13-2.87,2.26-4.3,3.4l-0.65-0.55c0.19-1.6,0.37-3.19,0.55-4.78c0,0-0.09,0.12-0.1,0.12
	c1.31-0.7,2.63-1.4,4.76-2.54c-0.16,2.22-0.24,3.33-0.32,4.44l0.06-0.08V84.14z"/>
<path d="M269.31,108.92c0-0.53-0.14-1.48,0.02-1.53c1.6-0.52,3.27-1.26,4.88-1.18c1.03,0.05,2,1.36,3.56,2.53
	c-3.57,1.35-5.96,2.29-8.37,0.21L269.31,108.92z"/>
<path d="M452.53,33.29c3.26-0.44,6.29-0.84,9.31-1.25c0.2,0.17,0.39,0.34,0.59,0.51c-1.27,0.97-2.46,2.59-3.83,2.77
	C456.57,35.58,453.71,36.63,452.53,33.29z"/>
<path d="M549.09,41.01h-19.08c0-0.24,0-0.48-0.01-0.72h19.06C549.07,40.53,549.08,40.77,549.09,41.01z"/>
<path d="M217.44,187.59c-1.35-1.92-2.47-3.02-2.9-4.36c-0.18-0.56,1.03-2.18,1.77-2.29c2.09-0.32,3.15,1.21,3.1,3.1
	C219.39,184.96,218.45,185.85,217.44,187.59L217.44,187.59z"/>
<path d="M302.65,45.27c-1.26,2.37-3.08,3.25-5.46,2.62c0.63-2.73,2.5-4.48,5.63-5.24c-0.09,0.97-0.17,1.84-0.24,2.7L302.65,45.27
	L302.65,45.27z"/>
<path d="M117.45,107.73c-1.12-1.45-2.22-2.23-2.17-2.93c0.18-2.4,2.32-3.04,4.19-3.65c0.44-0.14,1.2,0.69,1.82,1.08
	C120.15,103.87,119,105.5,117.45,107.73z"/>
<path d="M238.22,68.09c-1.95,6.56-2.19,6.77-6.07,5.64C231.5,69.27,235.35,69.74,238.22,68.09z"/>
<path d="M143.83,78.83c-2.37,0.52-3.55,0.99-4.72,0.97c-0.81-0.02-2-0.54-2.31-1.18c-0.4-0.82-0.33-2.09,0.03-2.96
	c0.14-0.33,1.81-0.41,2.49-0.06c1.4,0.72,2.6,1.82,4.52,3.23L143.83,78.83z"/>
<path d="M178.52,168.11c0.84,0.63,1.69,1.26,2.51,1.88c-0.14,0.81,0.01,1.86-0.45,2.38c-0.69,0.79-1.8,1.21-2.81,1.84
	C175.5,172.35,175.71,169.85,178.52,168.11L178.52,168.11z"/>
<path d="M396.67,64.98c-0.6-1.07-1.21-2.14-1.82-3.22c3.77-2.33,5.38-1.75,6.9,3.13h-5.16L396.67,64.98L396.67,64.98z"/>
<path d="M430.2,23.02c-0.63,0.65-1.26,1.29-1.9,1.93c-2.23,0-4.46,0-6.99,0C423.16,21.89,427.29,21.22,430.2,23.02L430.2,23.02z"/>
<path d="M316.88,43.1c-2.04,0.34-4.08,0.69-6.18,1.04c-0.71-4.28,2.13-4.19,4.46-4.79c0.55,1.29,1.09,2.57,1.64,3.85l0.09-0.1
	H316.88z"/>
<path d="M85.27,227.43c-1.77,0.39-3.27,0.71-4.74,1.03c-1.78-4.17-1-5.09,3.91-4.63C84.68,224.86,84.93,225.95,85.27,227.43z"/>
<path d="M450.18,52.86c0.05,0.09,0.15,0.19,0.14,0.27c-0.12,1.32-3.61,2.91-5.56,2.12c-0.73-0.29-0.92-1.97-1.35-3.01l-0.08,0.06
	c2.27,0.37,4.8-2.39,6.85,0.57l0,0L450.18,52.86z"/>
<path d="M155.5,88.78c1.7,1.15,3.4,2.3,5.1,3.45c-0.76,0.7-1.46,1.89-2.3,2C154.52,94.73,155.64,91.48,155.5,88.78z"/>
<path d="M347.86,41.19c3.21-3.46,6.85-4.29,10.92-2.5C354.8,39.6,351.48,40.36,347.86,41.19z"/>
<path d="M238.44,125.39c1.67,1.64,3.35,3.29,5.02,4.93c-1.31,1.87-1.78,0.06-2.5-0.58c-1.07-0.93-2.12-1.88-3.17-2.82
	c-0.25,0.2-0.5,0.39-0.75,0.59c0.16,0.85,0.31,1.7,0.52,2.83c-1.15-0.75-2.13-1.4-3.84-2.52c1.96-1.01,3.35-1.72,4.73-2.44
	L238.44,125.39z"/>
<path d="M147.5,176.12c-0.19-0.92-0.39-1.84-0.56-2.76s-0.32-1.85-0.54-3.18c1.41-0.34,2.77-0.66,4-0.95
	c1.64,1.95,1.42,3.32-0.49,4.58c-0.91,0.6-1.6,1.52-2.39,2.3v0.01L147.5,176.12z"/>
<path d="M357.09,62.69c0.54-1.05,1.08-2.11,1.62-3.16c1.61-2.19,3.16-1.73,4.68,0.1c0,0,0.09-0.11,0.09-0.12
	C361.64,62.95,359.6,63.97,357.09,62.69L357.09,62.69z"/>
<path d="M396.59,64.89c-1.67,0.85-3.34,1.69-5.05,2.56c-0.83-1.38-1.4-2.34-1.98-3.29c2.53-1.69,4.89-1.42,7.1,0.82
	C399.97,68.34,396.58,64.89,396.59,64.89L396.59,64.89z"/>
<path d="M443.41,52.24c-1.58-0.58-3.16-1.15-4.73-1.73c0.05-0.31,0.1-0.62,0.16-0.93c2.98-0.44,5.96-0.88,8.94-1.32
	c0.14,0.33,0.28,0.66,0.42,0.99c-1.62,1.01-3.23,2.02-4.85,3.04l0.07-0.05L443.41,52.24z"/>
<path d="M75.22,224.6c1.33,0.44,2.42,0.79,3.68,1.2c0.06,0.81,0.12,1.72,0.19,2.75h-7.43c1.42-1.58,2.43-2.7,3.56-3.96V224.6z"/>
<path d="M479.49,47.58c2.11-0.11,4.37-1.77,6.22,0.63c-0.36,0.65-0.6,1.69-1.11,1.86c-1.27,0.41-2.67,0.57-4.01,0.51
	c-0.64-0.03-1.48-0.66-1.8-1.25C478.6,48.98,479.23,48.18,479.49,47.58L479.49,47.58z"/>
<path d="M469.45,47.95c1.45-0.16,2.95-0.62,4.33-0.39c1.14,0.2,2.15,1.2,3.14,1.94c0.05,0.04-0.61,1.5-0.93,1.49
	c-1.41-0.03-2.93-0.1-4.19-0.66c-0.94-0.42-1.54-1.61-2.3-2.45C469.49,47.88,469.44,47.94,469.45,47.95L469.45,47.95z"/>
<path d="M222.5,136.89c-0.95-3.44,2.24-3.61,3.95-4.32c1.55-0.65,3.11,0.53,3.11,2.86c-2.47,0.46-4.82,0.91-7.18,1.35L222.5,136.89z
	"/>
<path d="M164.72,262.46c1.9-1.36,3.68-2.54,5.35-0.53c0.48,0.58,0.07,2.92-0.56,3.24C167.16,266.38,165.89,264.65,164.72,262.46
	L164.72,262.46z"/>
<path d="M174.19,206.96c-1.37,0.63-2.69,1.51-4.13,1.78c-0.7,0.13-1.62-0.86-2.43-1.35c1.09-0.93,2.05-2.2,3.3-2.67
	c0.83-0.31,2.08,0.53,3.15,0.85L174.19,206.96L174.19,206.96z"/>
<path d="M238.65,68.41c-1.47-1.81-2.39-2.94-3.32-4.08c0.83-0.65,2.15-2.02,2.42-1.84c1.08,0.74,2.02,1.86,2.61,3.04
	c0.2,0.4-0.79,1.39-1.72,2.88L238.65,68.41z"/>
<path d="M430.29,57.77c-2.89,1.15-4.95,0.72-6.18-1.3C427.01,53.49,429.04,53.92,430.29,57.77z"/>
<path d="M196.39,193.28c-1.58,0.95-2.71,2-3.09,1.78c-1.23-0.72-2.19-1.91-3.25-2.92c0.76-0.66,1.81-2.03,2.24-1.86
	C193.57,190.79,194.61,191.9,196.39,193.28L196.39,193.28z"/>
<path d="M342.27,42.15c-3.38,0.82-6.18,1.5-9.82,2.38c0.87-1.39,1.21-2.6,1.98-3.02C336.86,40.2,339.37,40.15,342.27,42.15z"/>
<path d="M212.36,145.83c-0.89-0.83-1.78-1.66-3.07-2.85c1.55-0.99,3.08-1.96,4.72-3.01c0.53,1.8,0.94,3.16,1.49,5.03
	c-0.81,0.18-2.03,0.46-3.26,0.74l0.11,0.1L212.36,145.83z"/>
<path d="M94.27,140.82c0.98,1.43,2.12,2.37,2.01,3.14c-0.12,0.89-1.67,2.44-2.01,2.3c-1.23-0.52-2.2-1.63-3.28-2.51
	c0.89-0.79,1.77-1.58,3.27-2.93L94.27,140.82z"/>
<path d="M392.09,53.27c0.25-0.5,0.5-0.99,0.75-1.49c1.48-0.52,2.94-1.1,4.45-1.5c0.16-0.04,0.6,1,0.91,1.53l0.08-0.1
	c-1.71,0.96-3.4,1.94-5.15,2.81C393.02,54.58,392.45,53.7,392.09,53.27L392.09,53.27z"/>
<path d="M279.94,54.51h-4.96c-0.96-3.12,0.52-4.31,3.04-4.54C278.64,51.45,279.24,52.87,279.94,54.51L279.94,54.51z"/>
<path d="M432.87,44.06c0.59,0.24,1.17,0.48,1.76,0.73c-1.5,2.15-3.69,3.04-6.19,3.16c-0.37,0.02-0.79-0.84-1.19-1.29l-0.03,0.08
	C429.15,45.94,429.87,42.61,432.87,44.06z"/>
<path d="M269.31,108.92l0.09,0.03c-0.18,1.05-0.36,2.1-0.6,3.48c0.15,0.06,0.73,0.28,1.3,0.51c-0.1,0.28-0.19,0.55-0.29,0.83
	c-1.82-0.64-3.65-1.28-5.47-1.92c-0.02-0.52-0.03-1.03-0.05-1.55L269.31,108.92L269.31,108.92z"/>
<path d="M130.02,208.64c2.43-1.73,3.49-5.17,6.97-1.9c-0.86,0.56-1.64,0.91-2.21,1.48c-0.49,0.49-0.73,1.21-1.31,2.22
	C132.69,210.03,131.58,209.45,130.02,208.64L130.02,208.64z"/>
<path d="M243.17,265.85c-1.65,1.51-2.69,2.55-3.88,3.4c-0.12,0.09-1.69-1.42-1.6-1.56c0.76-1.19,1.66-2.34,2.73-3.25
	c0.22-0.19,1.32,0.65,2.76,1.4L243.17,265.85z"/>
<path d="M205.47,180.77c-1.46-1.76-2.38-2.87-3.3-3.98c0.73-0.6,1.8-1.86,2.13-1.69c1.13,0.6,2.18,1.57,2.87,2.65
	c0.22,0.34-0.79,1.46-1.7,3.01V180.77z"/>
<path d="M466.21,48.14c2.3-0.02,4.4,0.26,4.99,3.21c-2.83,1.25-5.15,1.27-6.35-2.15c0.48-0.38,0.97-0.76,1.46-1.14L466.21,48.14
	L466.21,48.14z"/>
<path d="M302.58,45.36c1.94-1.59,3.88-3.19,6.29-5.16c0.57,3.45,0.34,5.23-2.85,4.9c-1.1-0.11-2.23,0.09-3.36,0.16L302.58,45.36
	L302.58,45.36z"/>
<path d="M169.51,197.11c1.33,1.4,2.36,2.29,3.06,3.39c0.14,0.23-0.99,1.26-1.54,1.92c-1.12-0.94-2.28-1.83-3.28-2.88
	C167.65,199.44,168.61,198.34,169.51,197.11z"/>
<path d="M507.83,47.99c-0.52-0.87-1.05-1.75-1.72-2.87c2.75-0.06,5.55-1.22,7.41,2.82h-5.75l0.05,0.05H507.83z"/>
<path d="M264.09,99.24c0.03-2.98,1.5-4.42,4.42-4.33C269.11,97.52,268.94,97.69,264.09,99.24z"/>
<path d="M413.89,24.29c-0.7,0.79-1.41,1.58-2.11,2.37c-1.36,0-2.72,0-4.27,0c0.33-1.08,0.53-1.75,0.74-2.41l-0.06,0.1
	c1.89-0.98,3.78-1.99,5.7-0.05L413.89,24.29z"/>
<path d="M473.53,27.05c-3.11,1.64-5.54,1.32-7.87-1.91c3.16,0.26,5.57,0.47,7.97,0.67c-0.03,0.42-0.06,0.83-0.1,1.25V27.05z"/>
<path d="M304.63,37.26c2.73-3.66,6.18-4.4,8.78-2.13C310.56,35.82,307.91,36.46,304.63,37.26z"/>
<path d="M295.61,84.23c0.44-1,0.88-2.01,1.42-3.25h3.77c0.32,2.59-2.13,4.13-5.12,3.15l-0.07,0.09V84.23z"/>
<path d="M347.02,22.96c1.22-1.01,2.16-1.79,2.82-2.33c1.57,1.02,3,1.96,4.91,3.21C351.93,23.63,349.48,26.03,347.02,22.96z"/>
<path d="M359.43,23.6c-1.02,3.34-4.81,4.18-8.85,1.84C353.67,24.8,356.44,24.22,359.43,23.6z"/>
<path d="M188.93,69.52c-1.16,1.28-2.32,2.57-4.19,4.63c-0.4-2.25-1.17-4.17-0.72-4.52c1.08-0.84,2.73-0.94,4.15-1.34
	c0.25,0.41,0.5,0.82,0.75,1.22L188.93,69.52z"/>
<path d="M456.45,50.78c-2.63,1.09-5.17,1.09-7.86-0.32c2.61-2.3,5.83-2.04,7.79,0.38L456.45,50.78L456.45,50.78z"/>
<path d="M458.77,50.33c1.33-0.3,2.71-0.96,3.99-0.8c1.05,0.12,1.99,1.2,2.99,1.86c-0.11,0.32-0.23,0.65-0.34,0.97
	c-1.6,0.21-3.2,0.43-4.89,0.65c-0.57-0.97-1.11-1.87-1.64-2.76l-0.1,0.09L458.77,50.33z"/>
<path d="M193.13,141.14c-0.32-2.09-0.56-3.6-0.76-4.91h5.17C197.98,139.27,194.75,139.09,193.13,141.14z"/>
<path d="M115.79,139.92c-0.18,1.69-0.29,2.71-0.47,4.36c-1.45-2.03-5.12,1.02-5.01-3.48C112.03,140.52,113.72,140.25,115.79,139.92z
	"/>
<path d="M66.97,165.36c0.14,1.65,0.22,2.56,0.36,4.26c-1.58-0.48-2.9-0.69-3.97-1.32c-0.43-0.25-0.5-2.08-0.4-2.11
	C64.19,165.81,65.49,165.63,66.97,165.36L66.97,165.36z"/>
<path d="M266.67,58.22c-1.25,2.35-3.06,2.28-5.78,0.82c2.16-1.5,4.05-2.81,6.15-4.28c-0.18,1.37-0.33,2.47-0.47,3.56
	C266.57,58.32,266.67,58.22,266.67,58.22z"/>
<path d="M507.78,47.94c-2.36,0.3-4.95,2.1-6.8-1.02c-0.17-0.17-0.33-0.33-0.5-0.5c3.04-2.34,5.26-0.75,7.34,1.55
	c0.01,0.01-0.03-0.03-0.03-0.03H507.78z"/>
<path d="M483.45,34.37c-3.31,0-6.62,0.03-9.93-0.05c-0.34,0-0.97-0.73-0.91-0.99c0.11-0.48,0.63-1.22,0.98-1.22
	c1.12,0,2.26,0.23,3.38,0.46c2.08,0.42,4.15,0.89,6.22,1.34C483.28,34.06,483.36,34.22,483.45,34.37L483.45,34.37z"/>
<path d="M135.8,286.4c1.23-1.01,2.13-1.96,2.29-1.85c1.18,0.82,2.21,1.86,3.28,2.83c-0.5,0.41-1.15,1.26-1.47,1.14
	C138.68,288.09,137.57,287.35,135.8,286.4L135.8,286.4z"/>
<path d="M329.16,70.7c0.12-0.37,0.24-0.75,0.35-1.12c1.55-0.41,3.09-0.82,4.78-1.27c-0.24,2.94-0.56,3.16-5.13,3.96V70.7z"/>
<path d="M327.68,83.31c0.25,0.31,0.5,0.61,0.75,0.92c-1.93,4.13-2.87,4.43-5.71,1.05C324.51,84.57,326.1,83.94,327.68,83.31z"/>
<path d="M483.8,11.79c0.53,0.5,1.07,0.99,1.62,1.51c-3.07,0.92-3.09,0.92-8.43-3c2.3,0.52,4.6,1.05,6.91,1.57L483.8,11.79z"/>
<path d="M299.33,93.28c1.04,0.85,2.08,1.69,3.13,2.54c-0.14,0.3-0.28,0.6-0.43,0.9h-6.46c-0.09-0.36-0.17-0.73-0.26-1.09
	c1.38-0.75,2.75-1.5,4.12-2.26C299.43,93.37,299.33,93.28,299.33,93.28z"/>
<path d="M481.9,17.91c-2.39,0.11-4.67,0.22-6.95,0.32C479.1,16.06,481.41,15.96,481.9,17.91z"/>
<path d="M260.22,115.01c1.18-1.38,2.11-2.48,3.15-3.7c1.07,0.92,1.75,1.5,2.65,2.27c-1.28,1.09-2.43,2.07-3.7,3.15
	C261.65,116.18,261.03,115.67,260.22,115.01L260.22,115.01z"/>
<path d="M326.87,36.63c2.1-0.5,4.19-1,6.49-1.55c-0.78,4.08-0.95,4.14-6.13,2.72C327.11,37.41,326.99,37.02,326.87,36.63z"/>
<path d="M341.85,27.39c-0.78,0.6-1.5,1.61-2.34,1.73c-1.84,0.27-3.74,0.08-5.61,0.08l-0.04-1.66c2.68-0.03,5.36-0.07,8.04-0.09
	L341.85,27.39L341.85,27.39z"/>
<path d="M75.72,175.91c1.19-0.49,2.35-1.23,3.58-1.39c0.72-0.09,1.55,0.77,2.33,1.2c-0.7,0.61-1.35,1.63-2.12,1.74
	c-1.16,0.17-2.42-0.3-3.63-0.5C75.83,176.61,75.77,176.26,75.72,175.91z"/>
<path d="M55.41,103.47c-1.68-1.9-3.04-3.21-4.06-4.75c-0.33-0.49,0.26-1.59,0.43-2.41c0.85,0.63,2.08,1.08,2.47,1.92
	c0.62,1.33,0.69,2.92,1.16,5.23V103.47z"/>
<path d="M290.77,47c0.93-1.69,2.34-2.34,4.22-1.37c0.61,0.32,0.98,1.12,1.45,1.7c-1.79,0.28-3.57,0.55-5.36,0.83
	c-0.1-0.38-0.21-0.77-0.31-1.15L290.77,47z"/>
<path d="M18.73,81.69c-2.2,0.82-4.15,1.55-6.69,2.5C15.21,79.02,15.56,78.89,18.73,81.69z"/>
<path d="M100.77,250.88c1.01,0.92,1.69,1.54,2.38,2.16c-0.82,0.68-1.6,1.78-2.49,1.89c-0.65,0.08-1.45-1.17-2.18-1.83
	c0.66-0.64,1.32-1.27,2.3-2.21L100.77,250.88z"/>
<path d="M500.48,46.43c0.17,0.17,0.33,0.33,0.5,0.5c-0.36,0.65-0.7,1.84-1.08,1.85c-1.46,0.03-2.93-0.31-4.4-0.51
	c0.3-0.73,0.61-1.47,0.92-2.21c0.01,0-0.09,0.05-0.08,0.04C497.72,46.2,499.09,46.31,500.48,46.43L500.48,46.43z"/>
<path d="M26.8,136.53c-0.98-1.1-1.69-1.89-2.4-2.68c0.7-0.5,1.45-1.47,2.09-1.4c0.91,0.1,1.73,0.96,2.59,1.49
	c-0.64,0.73-1.29,1.47-2.27,2.59L26.8,136.53z"/>
<path d="M25.84,229.88c-0.75,1.39-1.5,2.79-2.25,4.18c-0.62-0.48-1.23-0.95-1.85-1.43c0.95-1.19,1.91-2.38,2.86-3.56
	C25.01,229.34,25.43,229.61,25.84,229.88z"/>
<path d="M502.3,17.43c-2.1-0.23-4.2-0.46-6.29-0.7c0.05-0.55,0.1-1.11,0.16-1.66c2.09,0.13,4.19,0.26,6.28,0.39
	C502.4,16.12,502.35,16.78,502.3,17.43z"/>
<path d="M427.26,46.66c-1.99,0.98-3.98,1.95-5.98,2.93c-0.15-0.36-0.3-0.72-0.46-1.08c1.24-3.42,3.98-2.06,6.4-1.76l0.03-0.09
	H427.26z"/>
<path d="M446.1,22.42c-0.27,0.27-0.53,0.55-0.8,0.82c-1.98-0.14-3.96-0.27-5.95-0.41c0.02-0.41,0.05-0.82,0.07-1.23
	c2.2,1.11,4.55-2.71,6.67,0.81L446.1,22.42z"/>
<path d="M78.72,129.44c-1.08-1.5-1.82-2.38-2.32-3.37c-0.08-0.16,1.15-1.31,1.3-1.22c0.95,0.59,1.86,1.31,2.55,2.18
	C80.39,127.21,79.54,128.17,78.72,129.44z"/>
<path d="M490.56,28.36c-1.66,3.09-2.99,3.3-6.03,0.84C486.34,28.95,488.15,28.7,490.56,28.36z"/>
<path d="M188.68,92.41c-1.51,0.21-3.02,0.47-4.54,0.53c-0.12,0-0.29-1.44-0.44-2.21c1.64,0.07,3.29,0.13,4.93,0.2
	C188.65,91.42,188.66,91.92,188.68,92.41z"/>
<path d="M151.99,243.19c1.02,1.25,1.85,1.97,2.23,2.88c0.13,0.31-0.84,1.09-1.31,1.65c-0.85-0.76-1.78-1.46-2.47-2.34
	C150.32,245.23,151.2,244.29,151.99,243.19z"/>
<path d="M230.62,132.24c0.98-1.19,1.95-2.37,3.15-3.82c0.6,1.33,1.05,2.34,1.52,3.39c-1.5,0.48-2.85,0.91-4.19,1.35
	C230.94,132.86,230.78,132.55,230.62,132.24L230.62,132.24z"/>
<path d="M463.81,0c1.99,0.4,3.97,0.79,6.2,1.24C467.87,3.74,466.19,3.46,463.81,0z"/>
<path d="M408.25,24.25c-1.8,2.79-4.22,1.77-6.62,0.87c2.04-1.21,4.16-1.93,6.56-0.76c0-0.01,0.07-0.11,0.07-0.11H408.25z"/>
<path d="M61.46,190.55h5.37c1.07,3.69-3.37,1.08-3.98,2.67C62.37,192.29,61.87,191.32,61.46,190.55z"/>
<path d="M131.08,126.79c0.15-2.01-1.11-4.49,2.51-4.45v4.23c-0.75,0.07-1.61,0.14-2.51,0.23V126.79z"/>
<path d="M155.12,204.65c-1.19,0.83-2.07,1.75-2.37,1.59c-0.92-0.5-1.61-1.4-2.39-2.15c0.53-0.52,1.23-1.57,1.56-1.46
	C152.88,202.93,153.7,203.7,155.12,204.65z"/>
<path d="M77.98,98.45c0.54-3.46,2.18-2.55,3.51-1.73c0.56,0.35,0.74,1.33,1.09,2.02C81.06,98.65,79.54,98.55,77.98,98.45z"/>
<path d="M483.9,11.87c-0.25-0.44-0.49-0.87-1.23-2.18c2.8,0.62,4.83,1.06,6.86,1.51c-0.07,0.45-0.14,0.89-0.21,1.34
	c-1.84-0.25-3.67-0.5-5.51-0.74l0.1,0.08L483.9,11.87z"/>
<path d="M450.18,52.87c1.46-0.05,2.96,0.11,4.35-0.22c0.75-0.18,1.29-1.22,1.93-1.87l-0.07,0.06c0.72,0.59,1.43,1.17,2.66,2.17
	C455.54,53.69,452.83,55.31,450.18,52.87L450.18,52.87L450.18,52.87z"/>
<path d="M383.59,28.82c0.78-1.08,1.29-1.79,1.58-2.19c1.77,0.61,3.25,1.12,4.74,1.63c0.02,0.19,0.04,0.37,0.07,0.56L383.59,28.82
	L383.59,28.82z"/>
<path d="M287.91,52.11c-0.69,1.14-1.38,2.28-2.17,3.59c-1.56-0.28-3.06-0.55-5.09-0.92c2.76-1.01,4.88-1.79,7.27-2.66L287.91,52.11z
	"/>
<path d="M74.09,265.01c0.71-1.01,1.42-2.02,2.29-3.25c0.81,0.66,1.55,1.27,2.84,2.33c-1.9,0.71-3.31,1.23-4.73,1.76
	C74.49,265.85,74.09,265.01,74.09,265.01z"/>
<path d="M181.58,63.62c1.33-0.38,2.66-0.75,4-1.13c0.11,0.56,0.43,1.55,0.31,1.6c-1.22,0.55-2.5,0.95-3.76,1.39
	C181.95,64.86,181.77,64.24,181.58,63.62z"/>
<path d="M426.11,51.64c1.54-0.29,3.08-0.58,5.66-1.06c-0.83,1.29-1.21,2.43-1.66,2.46c-1.37,0.08-2.76-0.27-4.15-0.45
	C426.01,52.27,426.06,51.96,426.11,51.64L426.11,51.64z"/>
<path d="M83.03,67.49c1.53,0.61,3.05,1.22,4.58,1.82c-2.56,2.22-3.98,1.3-5.11-0.47C82.68,68.39,82.86,67.94,83.03,67.49z"/>
<path d="M398.2,51.82c1.67-0.48,3.34-0.97,5.01-1.45c0.14,0.5,0.29,0.99,0.43,1.49c-1.81,0.6-3.62,1.2-5.83,1.93
	c0.26-1.11,0.37-1.6,0.48-2.07L398.2,51.82L398.2,51.82z"/>
<path d="M222.38,136.78c0.63,0.77,1.26,1.54,1.89,2.3c-0.08,0.26-0.16,0.52-0.24,0.77c-1.53-0.22-3.06-0.43-4.59-0.65
	c-0.1-0.35-0.21-0.71-0.31-1.06c1.12-0.42,2.24-0.83,3.36-1.25L222.38,136.78L222.38,136.78z"/>
<path d="M211.25,82.55c-1.76-0.21-3.14-0.38-4.53-0.55c0.03-0.35,0.06-0.69,0.1-1.04c1.25,0.1,2.51,0.2,3.49,0.27
	c0.23-0.83,0.47-1.7,0.71-2.58c0.33,0.09,0.65,0.17,0.98,0.26c-0.22,1.08-0.44,2.17-0.74,3.64L211.25,82.55z"/>
<path d="M369.24,29.72l-4.85,1.52l-0.52-1.68c1.66-0.41,3.31-0.81,4.97-1.22C368.97,28.8,369.11,29.26,369.24,29.72z"/>
<path d="M48.16,120.22c1.13,0.54,2.26,1.07,3.34,1.69c0.05,0.03-0.57,1.4-0.63,1.38c-1.18-0.38-2.31-0.87-3.46-1.34
	c0.25-0.57,0.5-1.15,0.75-1.72V120.22z"/>
<path d="M99.07,108.5c1.38,0.55,2.77,1.1,4.89,1.94c-3.2,1.78-4.43,0.85-5.29-0.95c0.13-0.33,0.27-0.66,0.4-0.98V108.5z"/>
<path d="M58.43,308.93c-1.11,0.94-1.72,1.85-2.24,1.8c-0.75-0.07-1.43-0.84-2.14-1.31c0.48-0.57,0.92-1.55,1.45-1.6
	c0.73-0.08,1.54,0.54,2.92,1.12L58.43,308.93z"/>
<path d="M89.65,104.34c0.86,1.01,1.39,1.63,1.92,2.25c-0.73,0.46-1.43,1.17-2.21,1.27c-0.4,0.05-1.32-0.96-1.33-1.5
	c0-0.54,0.83-1.09,1.61-2.02H89.65z"/>
<path d="M148.41,176.11c1.32-0.37,2.64-0.75,3.98-1.04c0.05-0.01,0.47,1.21,0.42,1.24c-1.23,0.6-2.5,1.12-3.77,1.66
	c-0.21-0.62-0.42-1.23-0.63-1.85L148.41,176.11z"/>
</svg>
