<?xml version="1.0" encoding="UTF-8"?><svg id="Calque_1" xmlns="http://www.w3.org/2000/svg" viewBox="0 0 612 376.87"><defs><style>.cls-1{fill:#fff;}</style></defs><path d="m0,345.96c.61-.12,1.29-.11,1.83-.38,3.76-1.9,7.07-.73,8.03,3.29.49,2.04,1.61,2.26,3.22,3.02,2.21,1.05,4.27,3,5.63,5.07,1.23,1.88.66,3.79-2.04,4.91-3.04,1.26-5.66.74-8.38-.49-.91-.41-1.82-.85-3.06-1.43-.04-3.63-.89-7.29-5.23-8.9,0-1.7,0-3.4,0-5.1Z"/><path d="m612,47.61c-2.31-.18-4.61-.35-6.92-.53-.03-.18-.07-.37-.1-.55.39-.16.78-.31,1.17-.47,0,.15-.02.31-.02.46-12.83-1.27-25.66-2.55-38.83-3.86.46-.53.77-.89.68-.79h-17.32l-.16-.78c1.07-.25,2.14-.73,3.21-.73,6.44.03,12.91-.12,19.33.34,6.8.49,13.56,1.59,20.33,2.45,4.71.59,9.42,1.15,14.11,1.86,1.54.23,3.01.86,4.52,1.31v1.28Z"/><path d="m0,300.06h4.19c-1.17-1.36-2-2.31-3.35-3.88,1.76.83,2.87,1.36,3.98,1.88.2-.15.4-.3.6-.46-.72-1.05-1.43-2.1-2.19-3.21h5.02c.01-.21.02-.42.03-.63-1.88-.17-3.77-.33-5.83-.51,1.26-3.7,3.57-6.2,6.97-6.96,1.47-.32,3.44.96,4.94,1.91.31.19-.27,2.26-.83,3.25-1.36,2.39-3.17,4.53-4.37,6.98-1.36,2.76-3.16,3.6-6.03,2.62-.97-.33-2.09-.26-3.14-.37,0-.21,0-.42,0-.64Z"/><path d="m0,272.65c2.85,1.27,2.86,1.28,2.68,5,2.2.33,4.43.67,6.66,1.01C7.52,284.47,5.54,285.63,0,284.12v-11.48Z"/><path d="m0,250.97c1.98-.45,4.8,1.58,4.54,3.65-.42,3.32-.79,6.84-4.54,8.46v-12.11Z"/><path d="m0,301.97c.1,0,.21.01.31.02,5.51.55,5.83,1.17,2.93,5.88-1.03,1.68-2.16,3.29-3.24,4.93,0-3.61,0-7.23,0-10.84Z"/><path d="m0,285.4h4.67l.7.75c-1.79,1.66-3.58,3.32-5.37,4.98,0-1.91,0-3.83,0-5.74Z"/><path d="m601.21,48.22c2.24.09,4.48.14,6.71.27,1.36.08,2.72.26,4.08.39v1.28c-3.63-.68-7.25-1.36-10.88-2.04l.09.11Z"/><path d="m0,215.27c1.3.24,2.6.47,4.56.83C2.73,217.56,1.36,218.64,0,219.73c0-1.49,0-2.97,0-4.46Z"/><path d="m57.93,221.73c1.74-3.71,4.48-6.06,8.8-6.86-3.36-.77-6.72-1.55-10.08-2.32-.06.27-.11.53-.17.8,1.68.3,3.35.61,5,.91-2.23,5.43-6.56,6.75-13.1,3.67.85-.97,1.64-1.89,2.43-2.8.8,1.02,1.48,1.88,2.16,2.74q-.68-4.26,2.45-7.56c1.55-1.63,3.14-3.21,4.47-4.56-1.18-1.11-2.35-1.92-3.02-3.03-.16-.26,1.27-2.09,2.09-2.2,1.29-.16,2.68.53,4.87,1.07,1.5-1.46,3.82-3.57,5.96-5.84,1.4-1.49,2.62-2.51,4.86-1.51,1.6.71,3.45.85,5.84,1.4-2.57,2.31-3.82,5.5-7.8,5.28.49.2.98.41,1.65.69-.88,1.04-1.73,2.04-2.58,3.04.12.19.25.37.37.56.99-.56,1.98-1.12,2.39-1.35,2.99.64,5.48,1.17,8.3,1.78-1.93,2.05-3.97,4.23-5.53,5.89.2,2.79.36,5.03.58,8.09-2.98-.26-5.62-.68-8.26-.65-1.47.01-3.03.6-4.33,1.32-.3.16.3,1.94.57,3.44-.43.49-1.25,1.44-2.25,2.6,3.26,1.4,6.31,2.72,9.07,3.91.41,1.47.8,2.83,1.16,4.21.11.41.33,1.03.15,1.23-1.74,1.9-2.77,3.82-.74,6.17.05.06-.41.57-.63.86-.41-.34-1.06-.6-1.2-1.02-.73-2.19-1.32-4.42-2.55-6.49.63,2.54,1.25,5.08,1.97,8-1.41.08-2.7.15-4.09.22-.43-1.45-.81-2.74-1.18-4.02l-.49.09c.2,1.21.41,2.43.66,3.92-2.14-.17-4.05-.32-6.32-.5.79-1.12,1.63-2.31,2.59-3.67-2.62-.87-5.15-.9-7.26-3.21-1.27-1.39-4.79-.72-7.3-.97-.4-.04-.8-.08-1.72-.92,2.1-1.53,4.09-3.24,6.34-4.5,1.12-.63,2.72-.36,4.09-.61.29-.05.48-.6.99-1.27-4.59-.55-8.84-1.07-13.1-1.51-.14-.01-.37.83-.69,1.59,2.15-.11,3.96-.2,6.32-.32-2.08,3.62-4.24,6.09-9.18,6,1.6,1.08,2.23,1.5,2.96,1.99-1.55,1.73-2.71,3.97-4.52,4.77-1.83.8-4.28.18-6.54.41l5.28.97c.16.25.32.51.48.76-3.31,2.56-6.62,5.12-9.92,7.67,1.66,2.53,1.1,3.74-2.24,5.12l.09.1c.14-.82.29-1.64.5-2.84-1.65-.82-3.4-1.68-5.07-2.51,0-.96.07-1.89-.01-2.8-.26-3.13,2.38-7.6,5.42-7.67,3.19-.07,4.09-2.25,5.85-3.99-7.3-6.27-9.47-14-6.91-23.22.37.63.79,1.34,1.49,2.53,1.38-2.03,2.33-3.43,3.4-5.01,1.83,2.47,3.63,1.83,5.34-.4.1,3.97,7.5,3.64,5.05,9.11.55-.45,1.1-.89,1.89-1.53.18.59.35.94.38,1.3.35,4.35,1.01,4.44,4.71,2.74,1.79-.82,4.36.05,7.08.18-1.05,1.79-1.78,3.03-2.51,4.26.16.11.31.22.47.33,1.62-1.37,3.24-2.74,4.86-4.12.99.31,1.98.62,2.66.83-1.09.72-2.27,1.5-3.46,2.28.16.43.32.87.48,1.3,1.74-.29,3.52-.44,5.19-.96.42-.13.7-1.46.61-2.17-.06-.47-.89-1.12-1.44-1.18-1.34-.17-2.72-.04-4.08-.03Z"/><path d="m8.16,314.99c.96.27,2.05.56,3.2.88-.93-4.73-.6-5.35,2.05-5.16.25-1.43.52-2.76.69-4.1.08-.63.16-1.37-.08-1.91-1.17-2.64-.36-4.22,2.29-4.8.96-.21,2.1-.86,2.62-1.66,2.2-3.36,4.29-6.8,6.21-10.33.64-1.17.6-2.71.87-4.08.71.55,1.42,1.09,2.14,1.64-.89-.36-1.77-.71-1.87-.75-.51-1.88-.89-3.27-1.29-4.73.49-.91,1.2-2.22,1.91-3.54-.3-.26-.61-.52-.91-.77,2.55-.6,5.09-1.22,7.64-1.78.61-.13,1.52.16,1.84-.18,2.43-2.55,3.49-1.12,4.08,1.23,1.26-.86,2.43-1.66,4.17-2.85-1.99-.28-3.7-.53-6.42-.91,3.74-5.11,7.09-9.7,11.03-15.07,1.01,1.38,2.11,2.41,2.63,3.68,1.27,3.11,2.26,6.32,3.67,10.38-1.8-.44-3.11-.76-4.43-1.08-.37.85-.84,1.95-1.59,3.68,2.38-.83,4.33-1.5,6.41-2.22.68.96,1.28,1.81,1.89,2.65,1.09,1.51,1.64,2.73-.85,3.55-.64.21-1.27,1.75-1.2,2.61.53,5.96-3.04,9.28-8.9,8.29-1.35-.23-2.81.16-5.24.34,1.92,1.47,3.19,2.43,5.04,3.84-2.92-.68-5.13-1.19-7.33-1.7.22.41.47,1.11.91,1.64,2.2,2.68-1.3,4.38-1.11,6.7-.81-.38-2-.53-2.37-1.16-1.71-2.99-3.2-6.12-4.76-9.2-.27.1-.54.21-.81.31,1.41,3.33,2.82,6.65,4.35,10.26-1.17.47-2.47.98-4.09,1.63-1.4-3.11-2.7-6.02-4-8.92-.18.07-.36.14-.54.22,1.14,2.86,2.29,5.72,3.54,8.85-1.58.18-2.81.32-4.18.48-.68-1.51-1.32-2.93-1.96-4.34-.17.05-.34.1-.52.15.44,1.37.87,2.74,1.37,4.31-1.47.19-2.77.35-4.08.52-.02.25-.03.5-.05.75,1.62.15,3.25.29,4.79.43.1.92.21,1.86.31,2.8.68-.08,1.78.05,1.97-.3.45-.85.48-1.92.66-2.8,2.3-.79,4.91-1.69,7.4-2.55.23.88.58,1.86.73,2.86.13.86.03,1.76.03,2.64l-1.26.55c2.03,1.31,4.02,2.67,6.08,3.91,2.89,1.73,3.11,4.54,3.21,7.43-4.55,1.65-5.59,1.31-8.59-2.43-.42-.52-1.44-.74-2.2-.79-4.81-.35-6.21-1.52-7.55-5.9-.3-.99-1.46-1.78-2.36-2.49-.18-.14-.96.49-1.56.81-.27-.69-.69-1.73-1.38-3.48-.94,4.11,1.85,6.56,2.43,9.95-3.28.85-6.59,1.72-9.9,2.58-.02.18-.04.36-.06.54,1.5.1,3.01.2,5.24.34.84,3.12,1.81,6.72,2.87,10.69-5.02,1.76-7.01-4.06-11.37-4.21.67,1.36,1.34,2.71,2.01,4.07-.25.13-.51.26-.76.39-.99-1.74-1.98-3.48-2.96-5.22-.1.03-.2.07-.3.1.35,1.03.7,2.07,1.17,3.48-1.49-.33-2.77-.62-4.31-.97v6.83c-3.44-.69-4.03-2.17-2.33-5.06,2.19-3.71,4.01-7.65,6.02-11.54Z"/><path d="m35.89,171.05c2.52-1,5.05-.99,7.25-3.31,2.96-3.11-.68-5.14.15-7.71.56-.26,1.41-.69,2.29-1.07,3.76-1.64,9.99.18,11.95,3.47,1.98,3.33.33,6.52-3.61,6.95-.51.06-1.01.17-1.67.28.21.85.43,1.55.54,2.26.11.73.12,1.47.17,2.22.75-.11,1.44-.22,2.45-.38-.09,2.39,2.98,4.39.56,6.76-1.29,1.26-3.09,2.01-4.71,2.9-1.77.97-3.6,1.84-5.07,2.59.06,1.34.57,3.23.07,3.55-1.22.77-2.9.81-4.79,1.23.16-1.9.25-2.98.4-4.8-1.01.94-1.52,1.42-2.05,1.91q-6.82-4.35-1.76-9.76c-1.19-1.42-2.37-2.83-3.57-4.26-3.12,2.2-6.73,2.42-9.29.25-1.8-1.53-3.31-3.41-2.29-5.92,1.55-3.8,3.41-4.61,8.8-3.57,3.24.63,4.21,3.27,4.18,6.4Z"/><path d="m119.13,192.66c-3.81-.34-7.63-.69-10.55-.95.37,3.33.74,6.64,1.18,10.55-4.56.33-8.73.63-12.63.92,1.42-3.19,2.39-6.08,3.98-8.58.73-1.15,2.67-1.53,3.95-2.2-.49-.42-1.34-1.16-2.78-2.4-.95,1.12-1.78,2.39-2.89,3.35-1.22,1.06-2.91,2.81-4,2.55-2.79-.65-3.7,1.2-5.37,2.7.9.58,1.64,1.06,2.69,1.74-5.12,4.69-10.29.23-15.57,1.1,2.84-4.5,6.08-6.75,11.11-5.22-1.56-.35-3.11-.7-4.93-1.1,2.38-2.99,4.85-5.37,8.94-5.53-.71-.24-1.41-.49-2.13-.74.12-1.73,5.07-4.9,8.27-4.91-.98-.45-1.48-.68-1.99-.91,4.29-5.39,8.3-6.24,12.75-2.38-2.27,1.99-4.49,3.94-6.85,6,2.15.83,4.5,1.73,7.18,2.76,3.33-3.11,6.91-6.45,10.5-9.79.2.14.4.27.6.41-.29.79-.59,1.57-.68,1.81,2.08,2.23,3.96,4.38,6.01,6.36.53.51,1.59.57,2.42.67.95.11,1.92.03,3.27.73-1.5,1.34-3,2.68-4.71,4.21-.59-1.29-1.11-2.4-1.61-3.49-2.07.78-4.12,1.56-6.18,2.34,0,0,0,0,0,0Z"/><path d="m254.72,93.16c.39-.64.63-1.57,1.2-1.88,2.67-1.44,5.44-2.71,8.39-4.14-2.41-3.56-5.4-1.83-7.98-1.35-1.82.34-3.65,1.26-5.21,2.31-3.99,2.71-7.91,2.65-12.46-.12,6.44-1.91,11.39-6.95,19.16-5.84-1.1-.69-1.58-.98-2.79-1.73,3.03-.91,5.49-1.52,7.85-2.41,1.73-.65,3.26-1.82,4.98-2.5,2.74-1.09,5.3-.57,8.12,1.63-2.17,1.01-3.92,1.82-5.68,2.63,2.11,3.59,4.73,3.64,8.11,1.75,2.48-1.39,5.33-2.13,8.7-3.43-1.43,3.03-1.93,5.71-3.55,7.02-1.34,1.09-3.99.56-6.1,1.22h5.39c1.68,3.59-.6,5.08-2.79,6.13-2.97,1.42-6.18,2.35-9.56,3.6-.08-1.39-.16-2.76-.26-4.55-2.72,4.89-6.61,1.4-10.15,2.59.29-1.26.45-1.91.6-2.56-1.1,4-4.15.65-5.99,1.62,0,0,0,.01,0,.01Z"/><path d="m92.07,244.32c-.39,1.01-.77,1.98-1.15,2.97-2.21-3.6-2.08-9.17.89-10.95,2.02-1.21,4.87-1.04,7.35-1.5,1.03-.19,2.06-.42,3.09-.63-.08-.29-.16-.58-.24-.87-.78.3-1.55.6-2.33.9-.09-.23-.28-.49-.22-.58,3.95-5.76,4.64-6.15,9.09-4.57-1.85,1.47-3.42,2.72-5.03,3.99,1.39,4.2,5.84,4.94,9.31,6.5,6.26,2.8,8.62,5.89,8.02,12.41-1.83.38-3.78.43-5.37,1.2-2.53,1.23-4.7.65-6.98-.43-.95-.45-1.95-.78-2.95-1.13-1.5-.54-2.62-.77-3.33-2.94-.61-1.84-2.85-4.56-6.32-3.6-1.04.29-2.36-.44-3.83-.76Z"/><path d="m99.48,331.62c2.53,2.05,3.15,1.69,5.14-2.73,1.86,2.28,3.69,2.05,4.83.51,1.83,1.25,3.56,2.43,5.28,3.61.4,1.03-.55,2.55,2.18,3.84,1.36.64,1.47,4.48,1.65,6.91.13,1.83-.07,3.98-.94,5.51-1.11,1.96-2.78,3.95-4.71,5.01-2.64,1.44-5.95,1.05-7.9-1.25-3.76-4.43-7.46-9.1-5.89-15.69.4-1.69.24-3.5.36-5.71Z"/><path d="m399.01,38.76c2.37-.22,4.74-.44,7.64-.71-3.2-.79-5.79-1.43-8.38-2.07l.19-.96c6.82-.45,13.58-3.32,20.47-.18-1.58.44-3.15,1.01-4.76,1.27-1.78.29-3.6.3-5.41.43.04.41.09.82.13,1.23,3.78-.54,7.56-1.16,11.36-1.58,3.77-.42,7.55-.64,11.33-.95-.05-.11-.11-.23-.16-.34h-12.57c-.72-.56-1.43-1.11-2.85-2.21,1.39.15,2.16.1,2.82.34.74.28,1.34,1.01,2.09,1.2.87.22,1.84.05,2.74.05.17-.96.3-1.73.43-2.5.61.45,1.17,1.06,1.85,1.31.58.22,1.68.32,1.93,0,2.82-3.71,5.58-.73,8.37-.05,1.64.4,3.38,1.09,4.96.87,3.53-.5,6.89-.9,10.19,2.02-1.91.13-3.69.74-5.06.23-2.55-.94-4.51.11-6.84.62-4.8,1.06-9.78,1.3-14.68,1.89-3.33.4-6.66.86-9.99,1.19-.55.06-1.14-.41-1.73-.59-.49-.15-1.38-.45-1.44-.33-1.77,3.18-5.63.87-8.17,3.48,1.85.17,3.34.31,4.86.45.62,3.77-4.06,8.14-7.75,7.13-1.45-.4-2.97-.55-5.27-.97,1.8-1.48,3.16-2.6,4.51-3.71-1.77-2.61-4.28-2.56-7.12-1.76-1.93.54-4.03.49-5.92,1.12-3.48,1.15-6.53.5-9.56-1.61,3.55-.86,7-1.69,10.46-2.53l-.12.08c3.42.22,6.85.43,10.42.65-.8-.51-1.57-1.01-2.43-1.56,1.36-.41,2.5-.75,3.64-1.09l-.14.11Z"/><path d="m218.39,83.63c.64-1.76,1.02-2.8,1.4-3.84-.26-.15-.52-.29-.79-.44-.64,1.07-1.28,2.14-2.08,3.48-1.3-.1-2.84-.22-4.35-.33-.29-4.35-.07-4.59,6.48-7.15-.07,1.06-.14,1.99-.21,2.93l1.18,1.05c.18-.68.54-1.37.49-2.03-.21-2.89,1.6-2.9,3.68-2.88.83,0,2.29-.42,2.4-.9.63-2.68,2.56-2.36,4.47-2.29,1.21,3.06-1.48,2.28-3.34,2.84,1.12.63,1.79,1,2.56,1.43-.25.62-.5,1.26-.75,1.9,1.24-3.86,4.17-1.8,6.74-1.8,1.04-2.21,2.11-4.47,3.25-6.88h8.83c.02-.15.05-.3.07-.45-.73-.28-1.46-.56-3.13-1.21,2.86-2.29,5.28-4.22,7.7-6.15.25.17.5.34.76.52-.81,2.2-1.61,4.41-2.54,6.95.25.39.97,1.03,1.07,1.76.15,1.06.15,2.36-.35,3.21-.24.4-1.82-.07-2.78-.01-1.36.08-2.77.11-4.06.49-1.51.44-2.92,1.22-4.4,1.86.33,1.28.63,2.45,1.08,4.2,2.26-.97,4.56-1.67,6.56-2.88,3.97-2.4,7.74-1.99,11.81.48-4.57,1.95-8.9,4.64-13.56,5.47-2.84.51-6.22-1.78-9.3-2.97-1-.38-1.99-1.96-2.67-1.78-1.99.53-4.29,1.24-5.59,2.67-1.26,1.39-2.23,1.88-3.98,1.73-.86-.08-1.77.66-2.68.8-1.17.19-2.38.15-3.96.22Z"/><path d="m147.51,176.11c-1.25,1.67-2.33,3.66-3.69,3.93-1.69,1.1-3.38,2.19-5.51,3.57.17-3.2.3-5.74.46-8.84-2.69,1.46-4.74,2.22-6.43-.16-.09-.13-.39-.1-.59-.15-1.11-.32-2.22-.64-3.33-.95.83-1.31,1.38-2.96,2.53-3.87,5.11-4.1,10.35-8.04,15.65-11.89.85-.62,2.26-.46,3.48-.68v6.28c.27.03.53.05.8.08.12-1.72.24-3.44.4-5.67,1.95.25,3.69.48,5.42.7-.08.14-.16.28-.24.42,1.83-.51,3.66-1.02,5.43-1.52,1.72,2.87,1.71,2.81-1.26,3.39-.53.1-.84,1.1-1.4,1.4-.55.3-1.3.25-2.29.41-.82,2.22-1.93,5.26-3.05,8.3-.34-.09-.69-.18-1.03-.27-.48-1.36-.95-2.72-1.28-3.66-1.65.74-3.32,1.49-5.59,2.51v-7.73c-.19,0-.38,0-.57,0v6.93h-3.98c-.12-1.02-.26-2.12-.46-3.74-.64,1.94-1.13,3.4-1.66,5,1.92.09,3.99.18,5.91.27.81,2.11,1.55,4.03,2.28,5.95h0Z"/><path d="m155.22,120.88c-5.26,2.97-8.81,6.76-14,8.01-.7.17-1.08,1.38-1.78,1.87-3.89,2.76-7.76,5.55-11.79,8.09-.95.6-2.5.24-3.88.33,0-3.12-.06-6.06.06-8.99.02-.53.7-1.3,1.23-1.47.53-.17,1.64.09,1.84.49.84,1.65,1.42,3.43,2.12,5.21.11-1.05.1-2.42.44-3.7.22-.83.85-2.01,1.5-2.16.81-.19,1.83.52,2.22.66,2.16-.41,4.03-.76,6.38-1.2.44-2.42.95-5.28,1.47-8.14,1.58-.3,3.09-.58,4.97-.94-2.16-.79-3.91-1.43-5.79-2.11,2.1-2.1,3.93-3.93,5.9-5.91.3.61.54,1.1.47.95,1.1-1.57,2.39-3.41,3.67-5.24.16,3.38,1.46,4.43,4.1,3.49-.76,2.99-1.54,6.07-2.33,9.23.6.29,1.4.67,3.22,1.54Z"/><path d="m185.97,98.54c2.97,1.27,5.03.87,5.82-2.45.16-.66,1.52-1.02,1.69-1.69.26-.98.18-2.97-.15-3.06-4.07-1.09-2.72-4.05-2.58-6.78,1.71-.29,3.36-.57,5.01-.85-.21-.17-.43-.35-.64-.52.96-1.43,1.64-3.49,2.96-4.07.99-.44,3.24.67,4.17,1.74,1.1,1.26,1.38,3.22,2.04,4.93,4.57-3.69,14.62-2.79,16.48,1.96-.99-.51-1.99-1.02-3.19-1.63-2.14,1.05-4.72,1.94-6.83,3.47-1.62,1.18-2.92,3.02-3.91,4.82-1.48,2.68-3.45,1.9-5.59,1.4-1.06-.25-2.38-.51-3.28-.11-2.94,1.33-5.69,3.08-8.64,4.4-.94.42-2.26-.02-3.41-.06.01-.5.02-1,.04-1.51Z"/><path d="m193.23,118.34c-.04-.82.24-2.09-.17-2.37-2.15-1.49-4.48-2.73-7.08-3.5.64.39,1.28.78,1.96,1.19-7.85,5.36-8.36,5.4-13.25.67,3.73-1.67,7.75-2.66,10.66-5,3.35-2.69,6.16-2.19,9.49-.26.07-.31.15-.62.22-.93-1.3-.81-2.61-1.63-3.86-2.41,1.58-1.48,2.87-3.14,4.56-4.11,1.21-.69,3.4-1.15,4.37-.52,3.76,2.46,5.18,2.13,6.19-2.32,1.56.46,3.12.92,5.57,1.65-3.02,1.49-5.38,2.66-8.13,4.03,1.3,2.94,5.71.56,7.23,3.8-1.35.83-2.74,1.68-4.15,2.54-2-4.14-3.13-4.34-6.32-1.46-.47.43-1.37.35-1.92.73-1.02.71-1.93,1.58-2.88,2.38.94.99,1.74,2.6,2.84,2.83,1.57.33,3.35-.34,5.53-.65v2.94c-.43.44-.86.88-1.29,1.32-3.22-.22-6.43-.44-9.65-.67l.1.11Z"/><path d="m128.31,214.08c.2,2.65.41,5.3.61,7.95-1.99-5.79-8.15-4.63-12.8-7.36,2.86-2.44,5.5-4.7,8.15-6.95-.32-.15-.65-.31-.97-.46-.48-1.61-.96-3.22-1.67-5.59,2.64.65,4.22,1.05,5.8,1.44.13-.1.27-.21.4-.31-.87-.73-1.74-1.45-2.74-2.28.19-.82.42-1.83.75-3.3.79.34,1.74.43,2.08.93,1.65,2.46,3.23,2.08,5.01.2,1.09-1.15,2.52-2.04,3.44-3.3,2.16-2.98,4.6-2.67,7.46-.96-1.17,1.38-2.33,2.76-4.03,4.77,3.19-1.2,4.29-5.12,7.71-3.28.68.37,1.14,1.16,1.69,1.75-.19.21-.37.43-.56.64-.79-.33-1.58-.65-2.78-1.15.28,2.03.5,3.67.73,5.3-.17-.27-.33-.54-.5-.81-2.22.96-4.43,1.91-6.83,2.94.05-.86.11-1.83.16-2.81-.22-.07-.43-.14-.65-.21-.53,1.18-1.06,2.36-1.69,3.75-1.49-.67-2.99-1.35-3.92-1.77-1.72,1.93-3.23,3.64-4.75,5.35-.07-.15-.15-.3-.22-.45-.54,1.48-1.08,2.96-1.66,4.53-1.15-.27-2.02-.47-2.8-.65.74.95,1.46,1.87,2.37,3.04.36-.13,1.34-.49,2.31-.85,0,0-.11-.1-.11-.1Z"/><path d="m85.38,218.97c2.09-.63,3.89-1.18,6.38-1.94-2.27-1.73-3.53-3.85-5.6-.79-.4.59-1.97.38-3.4.6,1.44-2.28,2.54-4.03,4.05-6.41,2.69.33,3.62-3.42,6.05-5.16.99-.71,2.3-1.19,3.49-1.27.32-.02,1,1.79,1.11,2.81.28,2.74.24,5.52.55,8.25.07.61,1.17,1.05,1.61,1.7.65.94,1.13,2,1.71,3.07-1.16,1.29-2.21,2.46-3.43,3.81-.51-.63-.93-1.14-1.11-1.36-1.45,2.45-2.82,5.11-4.53,7.55-1.67,2.38-2.37,1.62-4.08-.68-2.52-3.39-2.56-6.84-2.8-10.18Z"/><path d="m122.44,168.16c-.72,4.01-2.13,7.08-6.72,7.03-3.37,4.96-7.83,1.91-12.81,1.55,2.41-1.88,4.34-3.35,6.21-4.88.45-.37.71-.97,1.05-1.47-.53-.35-1.02-.81-1.6-1.01-.47-.16-1.05,0-1.58,0-2.25.02-4.36-.33-4.91-2.97-.53-2.54-.1-4.79,2.45-6.22.9-.51,1.62-1.34,2.53-2.12,1.09.5,2.25,1.04,3.1,1.43,1.63-.74,3.07-1.4,4.52-2.05-1.67,3.67,1.93,7.49,7.76,10.72Z"/><path d="m212.25,145.73c-.69.35-1.38.7-2.52,1.28,0,2.4-.26,5.1-4.49,5.72-1.58.23-2.75,2.24-5.22,1.7-1.14-.25-2.97,1.73-4.2,2.98-1.59,1.61-2.89,3.51-4.59,5.62-1.55-3.43-1.35-3.75,6.02-11.48h-3.2c-1.73,2.79-3.53,5.71-5.45,8.81-2.13-1.2-4.12-2.32-6.56-3.7,3.46-2.55,6.66-5.06,10.04-7.3.63-.42,1.95.26,2.96.32,1.25.07,2.5.02,3.75.02.01-.33.03-.66.04-1-1.36-.26-2.73-.52-4.81-.92,4.82-3.3,8.9-6.3,13.22-8.89,1.14-.68,3.04-.1,5.29-.1-3.16,2.77-5.63,4.95-8.11,7.12.15.45.31.89.46,1.34,2.29-3.3,4.78-3.74,7.46-1.42l-.11-.1Z"/><path d="m183.47,287.9c-2.7.5-5.72,1.6-7.07-1.62-1.95-4.65,1.61-6.83,4.9-9.11,3.28,3.34,7.23,3.64,11.24,2.18,3.52,3.49,5.05,7.49,2.76,12.1-.54,1.09-1.9,1.98-3.09,2.51-3.11,1.4-6.65-1.05-8.74-6.06Z"/><path d="m173.18,147.41h-4.09v-3.19c-.17-.01-.34-.02-.52-.03-.2,1.64-.39,3.27-.6,4.99,1.9-.23,3.45-.42,5.33-.64v6.06c-.39-.06-1.25-.19-1.32-.2-1.05,1.29-1.8,2.04-2.33,2.92-.32.54-.16,1.36-.47,1.91-.33.58-1.03,1.43-1.45,1.37-.94-.14-1.8-.77-3.53-1.6-.26-3.83-.57-8.4-.89-13.07,3.17-2.77,6.59-5.97,10.27-8.83.99-.77,2.81-.76,4.17-.58.35.05.58,2.12.61,3.26.08,3.57.03,7.14.03,11.36-.64.45-2.01,1.42-3.15,2.22-.36-1.48-.74-3.01-1.16-4.76,1.3-.12,2.56-.23,3.82-.35-.01-.28-.02-.55-.03-.83h-3.78v-6.8c-.19,0-.38,0-.57-.01-.12,2.25-.23,4.5-.35,6.78Z"/><path d="m254.71,93.14c-2.16,3.18-3.39,6.59-3.17,10.54.05.95-.76,2.22-1.55,2.86-1.2.96-2.73,1.49-4.44,2.36.01-3.18-.89-6.22,3.22-7.98-2.83-.34-5.18-.79-7.52-.78-.7,0-1.83,1.24-2,2.06-.66,3.17-.7,6.49-1.6,9.57-.47,1.6-2.26,2.82-3.56,4.33-2.61-2.86,1.25-5.56-.61-7.41-1.4.61-2.69,1.18-4.44,1.95v-4.83c-.53,1.64-.82,2.5-1.23,3.76-1.63-.24-3.35-.49-5.07-.75-.07-.22-.14-.44-.21-.66,3.28-1.81,6.6-3.56,9.83-5.46,2.8-1.64,5.39-3.65,8.27-5.12,1.92-.98,4.43-.9,6.2-2.02,2.49-1.58,4.99-2.5,7.89-2.42,0,0,0-.01,0-.01Z"/><path d="m266.58,58.31c.3-.51.9-1.04.86-1.53-.28-4.13,2.67-4.62,6.35-5.28-.62,2.52-1.17,4.74-1.72,6.96.1.08.2.16.3.24.54-.86.91-1.96,1.67-2.5.74-.52,1.89-.64,2.85-.62.75.02,1.48.54,2.59.99,1.99-2.23,4.52.37,7.11.57.06.27.13.53.19.8-2.81,1.01-5.68,1.89-8.42,3.06-2.49,1.06-5.7.93-7.13,3.98-.12.26-.79.5-1.11.41-5.23-1.46-9.14,2.38-13.75,3.37-1.18.25-2.41.26-4.34.44,2.01-4.28,3.59-7.68,5.18-11.07.29.09.57.18.86.27v2.18c2.01.22,4.13.45,6.41.7-.13.66-.23,1.23-.3,1.57,1.15-.56,2.4-1.16,3.52-1.71-.29-.82-.66-1.88-1.04-2.95,0,0-.09.1-.09.1Z"/><path d="m73.42,129.95c4.46,2.34,4.39,5.89,3.18,9.58,1.41,1.17,2.99,2.04,3.9,3.37.84,1.24,1.74,3.39,1.21,4.39-.85,1.59-2.2,3.35-4.89,2.99-3.95-.53-7.48-1.48-9.23-5.42-.51-1.14-.41-2.58-.5-3.88-.02-.36.52-.83.42-1.1-2.14-5.78,2.1-7.7,5.92-9.92Z"/><path d="m117.13,279.24c.61-.24,1.43-.51,2.2-.88,3.84-1.84,10-.29,12.12,3.07,2.15,3.42.51,6.7-3.57,7.15-.5.06-1,.15-1.62.25.12.55.32.97.27,1.35-.2,1.46-.04,3.72-.85,4.16-1.2.66-3.38.53-4.66-.16-1.86-1.01-3.4-2.72-4.85-4.33-.42-.46-.35-2.2,0-2.39,4.51-2.41.97-5.45.98-8.23Z"/><path d="m67.22,333.79c.54-.35,1.57-1.55,2.7-1.65,6.92-.59,12.24,6.42,13.62,11.99.07.3.13.63.12.94-.05,1.58.2,4.4-.24,4.51-1.8.46-4.11.7-5.68-.08-4.83-2.41-7.88-6.71-10.16-11.47-.52-1.08-.24-2.54-.35-4.24Z"/><path d="m151.46,338.14c-1.02.22-2.1.55-3.2.67-1.22.13-3.16.6-3.59.02-3.11-4.13-9.44-5.38-10.42-11.2-.31-1.85.17-4.55,1.39-5.74,1.19-1.16,4.3-1.79,5.62-1.02,1.85,1.08,3.13,3.53,4.06,5.65.6,1.38.73,2.43,2.47,3.1,3.9,1.49,4.75,4.71,3.68,8.52Z"/><path d="m7.54,284.96c1.36-2.01,2.59-3.83,3.9-5.76-2.18-2.27-6.53-2.73-5.71-7.4.6-.52,1.49-1.3,1.86-1.63h8.01c-.61,1.28-1.11,2.35-2.07,4.38,4.32-2.85,8.02-3.82,11.32-1.58-.69,1.43-1.1,2.51-1.7,3.48-1.99,3.2-4.01,6.37-6.14,9.48-.19.27-1.19.03-1.81-.04-2.4-.27-4.8-.57-7.66-.92Z"/><path d="m85.67,184.07c-.89-1.16-1.52-1.97-2.15-2.79.28-.18.57-.36.85-.54.94,1.5,1.88,3.01,3.17,5.06.33-1.51.55-2.54.83-3.81,1.61.31,3.23.62,5.34,1.02-2.56,2.54-4.15,5.82-7.72,4.9-.09.99.14,2.16-.33,2.87-2.21,3.35-6.46,3.73-11.49,1.1.49-.65.95-1.28,1.53-2.06-1.23-.64-2.34-1.21-3.62-1.87.53-.71.96-1.3,1.78-2.4-4.28.7-3.61-2.67-4.6-4.56-.17-.33.72-1.72,1.24-1.79,1.02-.14,2.89.03,3.06.54,1.36,3.88,4.11,4.63,7.74,4.13,1.25-.17,2.56.1,4.37.19Z"/><path d="m159.27,194.26c-1.08.47-2.56,1.47-4.12,1.62-.63.06-1.44-1.71-1.99-2.42-.81.48-1.82,1.07-3.52,2.07.49-2.17.75-3.33,1.01-4.5-.18-.09-.36-.17-.55-.26-.6.99-1.21,1.98-1.8,2.96-2.34-.96-4.62-1.89-7.31-2.99,3.97-3.54,7.74-7.03,11.66-10.34,1.73-1.46,3.05-.3,4.09,1.13-1.86,2.16-3.66,4.26-5.46,6.36.23.23.46.46.69.69,2.08-1.94,4.16-3.87,6.17-5.74.71.24,1.57.53,3.07,1.05-.98,1.35-1.96,2.69-3.26,4.49.26,1.14.7,3.11,1.32,5.87Z"/><path d="m136.22,116.61c-2.95,2.45-5.8,2.07-9.08,1.58-1.95-.29-3.07-1.45-4.66-1.93-.83-.25-1.7-.36-2.85-.59-1.04-3.46-1.11-7.18,2.47-9.49,1.31.41,2.42.78,3.53,1.11,6,1.77,9.87,2.06,10.57,9.32Z"/><path d="m456.03,42.06c-2.51-.76-5.02-1.51-8.19-2.46,1.18-.4,1.91-.74,2.68-.88,3.57-.66,7.13-1.46,10.73-1.83,2.01-.21,4.15.65,6.15.4,2.47-.32,5.26.83,7.41-1.61.88-.99,5.98,1.37,6.29,2.72-.13.1-.28.17-.45.19-1.48.7-3.29,1.08-4.37,2.18-2.09,2.13-4.51,2.03-7.12,2.15-3.6.16-7.19.72-10.78,1.11-.57.06-1.15.1-2.06-.37,1.24-1.07,2.47-2.13,3.71-3.2-.12-.19-.23-.38-.35-.56-1.25.7-2.49,1.4-3.75,2.09,0,0,.1.09.1.09Z"/><path d="m28.86,120.3c.32,4.26-4.6,7.4-9.57,5.05-4.87-2.3-5.31-5.6-1.12-8.75.52-.39,1.29-.53,1.96-.64,2.66-.42,5.36-1.17,8-1.02,1.49.09,2.88,1.69,4.32,2.62-.97.74-1.93,1.47-3.59,2.73Z"/><path d="m170.6,108.68c1.26-1.32,2.53-2.63,3.93-4.09-5.81-4.01-.08-3.84,2.97-4.87-1.68-.81-2.46-1.19-3.24-1.56,1.81-2.71,7.38-4.23,9.78-2.43.6.45.44,1.95.58,2.98.14,1.01.21,2.03.31,3.04.36.21.73.41,1.09.62-4.18,2.37-8.32,4.82-12.59,7.02-.67.35-1.95-.48-2.94-.77l.11.07Z"/><path d="m104.25,294.58c-4.1.29-7.75-2.48-7.79-5.92-.03-2.29,3.31-5.2,6.13-5.35,3.74-.19,6.96,2.08,7.16,5.06.25,3.76-1.67,5.93-5.5,6.21Z"/><path d="m40.32,249.42c-1.83-.21-3.67-.41-5.89-.67,1.75-2.55,3.03-5.34,6.44-5.52,1.26-.07,3.04.26,3.74,1.1,1.04,1.25,1.84,3.13-.22,4.6-.47.34-.75.99-1.04,1.54-3.16,5.89-7.81,7.5-13.85,4.61,1.97-4.77,5.51-6.74,11.06-4.61l-.24-1.04Z"/><path d="m178.52,168.11c.6-1.34,1.2-2.69,1.87-4.18,1.45.66,2.44,1.11,3.44,1.56.06-.1.12-.2.18-.3-.75-.6-1.5-1.21-2.37-1.9,2.07-1.82,3.7-4.33,6.73-1.62,1.72,1.53,3.63,2.86,1.85,4.98,1.01,1.48,2.15,2.75,2.71,4.23.15.42-1.3,1.88-2.24,2.17-2.65.8-4.41-.63-5.04-2.07-2.02-.43-3.32-.71-4.61-.98-.83-.62-1.67-1.25-2.51-1.88Z"/><path d="m170.49,108.61c1.79,1.27.72,1.92-.5,2.72-1.54,1.02-2.97,2.22-4.04,3.7-1.29.22-2.72.19-3.83.77-.53.27-.89,2.24-.56,2.5.77.63,2,.69,2.75.9-4.86,2.34-8.54,1.85-10.09-1.5,1.18-1.04,2.36-2.08,3.89-3.44-1.49-.75-2.34-1.18-3.26-1.65,1.65-1.38,3.14-2.62,4.79-3.99v3.19c.2.06.39.12.59.18.21-.98.42-1.96.68-3.19h3.41v2.6c.15.02.3.04.45.06.23-.84.47-1.68.77-2.78,1.72,0,3.4,0,5.08,0,0,0-.11-.07-.11-.07Z"/><path d="m162.74,223.04c-2.52-3.51-3.05-7.2.91-9.61,2.03-1.24,5.91.41,6.58,2.67,1.38,4.64.61,6.35-3.85,8.66-.31.16-.46.64-.77.78-1.06.47-2.16.85-3.24,1.27.1-1.04.21-2.09.37-3.78Z"/><path d="m431.29,27.54c-.24.38-.45,1.07-.74,1.1-3.36.42-6.73.75-10.09,1.08-7.23.71-14.45,1.43-21.68,2.11-.9.08-1.82-.12-2.97-.21,1.91-1.91,3.3-3.64,5.04-4.87.76-.54,2.28-.25,3.39-.02,3.49.71,6.95,1.62,10.44,2.3.44.09,1.05-.74,1.59-1.14l-.1.11c.31-.04.71.03.91-.14,2.77-2.26,5.43-3.36,8.89-.88,1.29.92,3.57.46,5.39.62-.01-.01-.07-.05-.07-.05Z"/><path d="m165.53,136.5c-4.17,2.96-8.02,5.86-12.09,8.43-.73.46-2.33-.45-3.53-.74-1.32-.31-2.64-.64-4.7-1.13,4.44-3,8.25-5.93,12.39-8.25,2.5-1.4,5.25-.56,7.92,1.69Z"/><path d="m129.82,144.82c4.01-2.89,7.91-5.74,11.87-8.49.48-.33,1.36-.34,1.98-.18,1.99.53,3.94,1.2,6.11,1.89-3.04,3.43-6.43,5.22-11.06,3.73,1.38.37,2.75.74,4.13,1.1-4.02,4.79-7.77,5.43-13.03,1.95Z"/><path d="m142.65,298.77c2.97-1.36,4.87-1.22,6.1,2.09.67,1.81,2.36,2.67,4.89,2.22,1.43-.26,3.66,1.28,4.76,2.63,1.06,1.31.13,2.87-1.81,3.06-1.64.16-3.43.55-4.93.1-2.18-.65-4.73-1.48-6.1-3.1-1.56-1.84-1.99-4.64-2.9-7Z"/><path d="m128.25,153.78c-4.07,4.86-7.48,5.52-13.27,2.33,3.39-2.6,6.51-5.21,9.9-7.41.8-.52,2.52.36,4,.14l-2.16-1.18c.08-.31.15-.62.23-.92,2.58.67,5.17,1.34,7.8,2.02-3.61,4.11-4.65,5.18-11.78,2.94-.06.27-.13.54-.19.81,1.74.41,3.48.81,5.46,1.27Z"/><path d="m425.93,42.66c.46-.47.92-1.33,1.4-1.34,3.17-.09,6.35.04,9.52,0,.85-.01,1.7-.37,2.54-.62,1.48-.44,2.96-.91,4.44-1.36.14.33.27.65.41.98-.57.62-1.13,1.24-1.7,1.86,2.93-2.54,5.59-1.67,8.61-.04,1.25.68,3.24,0,4.89-.06,0,0-.1-.09-.09-.08-2.43,1.04-4.79,2.33-7.32,3.02-2.51.68-5.19.75-7.92,1.11v-1.74c-2.05.14-4.06.28-6.07.42-.59-.24-1.17-.48-1.76-.73-2.32-.53-4.65-1.05-6.97-1.58,0,0,.02.17.02.17Z"/><path d="m225.95,91.75c1.89,2.25,3.88.99,6.09-.39,4.55-2.83,8.97-2.34,13.59,1.33-1.06.55-1.98,1.43-2.55,1.24-4.28-1.42-7.34,1.4-10.45,3.2-3.04,1.76-5.32.75-7.73-.48.35-1.64.69-3.25,1.05-4.9Z"/><path d="m171.93,304.78c.84-.99,1.58-2.67,2.54-2.81,1.76-.26,2.25,1.18,2.71,3,.77,3.04.56,4.77-2.79,5.73-1.01.29-1.46,2.21-2.43,3.11-1.58,1.48-3.41,2.33-5.17.15-1.46-1.81-1.17-5.62.73-6.85,1.45-.94,3.19-1.44,4.81-2.13-.14-.07-.27-.13-.41-.2Z"/><path d="m147.67,249.18c3.32,2.96,4.81,6.11,3.08,8.46-1.34,1.82-3.84,3.29-6.05,3.72-.96.19-3.45-2.51-3.62-4.07-.46-4.35,2.62-6.63,6.59-8.11Z"/><path d="m165.78,329.96c3.46.16,6.26,1.94,6.96,5.2.27,1.26-.59,3.58-1.63,4.15-3.88,2.12-10.4-2.01-10.16-6.42.15-2.74,2.57-3.01,4.83-2.93Z"/><path d="m87.55,179.23c2.64-2.36,4.4-4.2,6.45-5.64,1.03-.72,2.58-.7,3.9-1.01,1.69-.41,3.37-.85,5.06-1.21,1.19-.26,2.4-.42,4.21-.72-3.19,4.95-6.81,6.36-11.61,5.02,1.61.36,3.22.72,5.91,1.32-2.84,1.78-4.84,3.79-7.15,4.25-1.86.37-4.09-1.14-6.78-2.01Z"/><path d="m88.76,313.74c3.89-3.43,9-3.04,11.81,1.16.72,1.07,1.3,3.57.96,3.77-1.51.91-3.35,1.48-5.12,1.68-1.31.14-2.8-.27-4.04-.83-.78-.36-1.33-1.37-1.83-2.19-.63-1.05-1.1-2.19-1.78-3.59Z"/><path d="m131.75,153.55c2.7-2.71,4.81-5.25,8.62-4.36-.63-.13-1.26-.26-1.92-.4,2.91-4.31,8.82-6.01,12.06-2.13-4.27-.5-4.3-.48-5.34,3.72-.58,2.36-5.96,5.48-8.29,4.78-1.58-.47-3.15-.99-5.14-1.62Z"/><path d="m449.22,16.07c-1.77.15-3.53.29-5.3.44-.02.14-.04.28-.06.43,1.17.27,2.34.54,3.51.81l.09.73c-1.01.17-2.01.48-3.02.49-3.98.01-8.12-.79-11.88.09-3.76.88-5.33-1.83-7.93-3.58,3.64-.19,7.29-.34,10.93-.58,1.85-.12,3.73-.25,5.53-.66,2.87-.67,5.58-.75,8.13,1.85Z"/><path d="m57.64,255.38c-.51-1.69-.96-3.17-1.41-4.65-.18.04-.35.07-.53.11.33,1.6.65,3.2,1.03,5.03h-7.75c3.24-4.05,6.14-7.74,9.19-11.3.19-.22,2.09.38,2.29.92.67,1.87,1.02,3.87,1.35,5.85.49,3.01-.31,3.77-4.17,4.05Z"/><path d="m243.54,85.03c-2.66.94-5.32,1.88-7.82,2.76-.28.33-.55.88-.99,1.13-3.82,2.17-7.65,3.03-11.66-.33,4.54-2.13,8.79-4.62,13.37-6.05,2.01-.63,4.7.91,7.07,1.46l.03,1.03Z"/><path d="m131.34,233.83c-2.74-.48-5.74-.78-8.62-1.57-2.37-.65-2.54-4.15-.23-5.62,2.61-1.66,5.56-2.53,8.62-1.24,1.62.69,2.38,2.14,1.88,3.93-.38,1.35-.97,2.65-1.66,4.5Z"/><path d="m202.79,118.9c.43-.44.86-.88,1.29-1.32.7-.12,1.43-.4,2.1-.31.75.1,2.11.63,2.09.82-.28,2.02-.56,4.11-1.33,5.97-.27.65-1.9.73-2.91,1.08-.23-1.23-.46-2.46-.78-4.19-.42,2.37-.77,4.41-1.15,6.57-1.22.12-2.33.24-3.64.37v-4.29c-.59,1.84-.89,2.8-1.23,3.88-1.38-.12-2.7-.24-4.01-.35-.18-.33-.36-.67-.54-1,3.37-2.41,6.74-4.81,10.1-7.22Z"/><path d="m304.97,71.52c-1.31,3.06-2.17,5.31-3.24,7.44-.28.56-1.25,1.15-1.85,1.1-4.24-.35-8.47-.86-12.76-1.8,5.7-2.44,11-5.69,17.86-6.74Z"/><path d="m227.29,99.59c-4.94,2.67-9.01,5.05-13.27,7.03-.94.44-2.53-.52-3.81-.86-1.12-.29-2.23-.62-3.88-1.09,3.71-2.04,6.91-4.52,10.52-5.49,2.13-.57,4.71-.22,7.07-.96.69-.21,1.71.66,3.37,1.37Z"/><path d="m170.72,125.86c2.67-1.82,7.6-2.2,9.45-.16.66.72.54,2.15.78,3.25-.44.08-.88.17-1.31.25-.26-1-.51-1.99-.96-3.71-1.18.91-2.81,1.52-2.97,2.4-.81,4.37-5.08,4.65-7.72,6.79-.53.43-2.26-.66-3.45-.98-1.22-.33-2.45-.59-4.28-1.02,2.09-1.42,3.79-2.79,5.69-3.75.77-.39,2.1-.15,2.97.25,1.25.57,2.48,2.41,3.53.27.34-.69-1.03-2.2-1.74-3.59Z"/><path d="m363.39,59.63c1.08-.47,2.16-.94,3.24-1.41.05-.16.1-.32.15-.48-1.23,0-2.56-.3-3.66.07-1.44.48-1.51-1.93-3.3-1.05-1.11.55-2.95-.39-4.47-1.43,5.89-1.47,11.78-2.94,18.3-4.56-2.14,3.82-3.57,6.94-5.57,9.63-.76,1.02-2.85,1.04-4.59,1.6,0-1.06,0-1.77,0-2.48,0,0-.09.11-.09.11Z"/><path d="m276.94,70.79c-4.43,1.68-8.78,3.71-13.34,4.89-2.11.54-4.65-.58-6.99-.95.02-.37.04-.75.06-1.12,4.56-1.81,9.02-4,13.72-5.24,1.87-.49,4.29,1.1,6.46,1.74.03.23.07.46.1.69Z"/><path d="m27.73,344.02c-1.89,0-3.34.34-4.5-.09-1.22-.46-2.16-1.67-3.22-2.55.8-.6,1.6-1.2,2.58-1.93-.98-4.22,1.06-6.9,4.99-5.86,2.82.74,3.83,3.11,2.32,5.66-.48.81-1.42,1.37-1.8,2.2-.36.79-.28,1.79-.38,2.57Z"/><path d="m227.5,110.9c-.13,2.25-.24,4.19-.35,6.13.2.02.41.04.61.06.2-2.02.39-4.05.61-6.28,1.29.1,2.41.18,3.49.27.8,5.18.76,5.11-3.72,7.4-1.83.94-3.45,2.28-5.17,3.44-.36-.13-.73-.27-1.09-.4.42-3.73.85-7.46,1.3-11.45,1.92.37,3.02.58,4.32.83Z"/><path d="m430.2,23.02c2.34-.63,4.67-1.27,7.01-1.9.13.27.26.54.39.81l-2.07,2.88c4.37-3.45,7.86.03,11.6,1.35-.05.18-.08.48-.16.49-2.71.48-5.66-.43-8,2.28-.54.62-4.2-.31-5.21-1.53-1.4-1.7-1.71-.59-2.49.12,0,0,.06.05.07.06-.84-.48-1.74-.92-2.53-1.49-.29-.21-.35-.75-.52-1.14.63-.64,1.26-1.29,1.9-1.93Z"/><path d="m273.57,66.96c4.25-1.54,8.4-3.47,12.77-4.45,2.25-.51,4.89.67,7.35,1.08.03.36.07.72.1,1.09-4.73,1.55-9.39,3.39-14.22,4.52-1.85.44-4.08-.73-6.14-1.16.05-.36.09-.72.14-1.08Z"/><path d="m526.87,43.15c6.16,0,11.47-.27,16.73.13,2.11.16,4.1,1.83,6.48,2.97-.86.75-1.03,1.01-1.17,1-3.63-.19-7.26-.42-10.9-.57-.35-.01-.76.75-1.07.7-2.01-.31-4.61,1.6-5.88-1.83-.35-.94-2.21-1.32-4.19-2.41Z"/><path d="m271.63,73.89c4.81-1.85,9-3.82,13.41-4.99,2.14-.56,4.68.39,7.03.66.02.47.05.94.07,1.41-4.55,1.76-9.01,3.9-13.71,5.1-1.77.45-4.1-1.25-6.8-2.18Z"/><path d="m287.42,55.99c2.74-2.27,1.4-8.92,7.82-6.78-.38.99-.76,2-1.15,3,1.38-1.42,2.39-3.91,4.82-2.58,1.6.88,4.86-1.22,4.83,2.88-5.43.84-10.39,4.22-16.32,3.47Z"/><path d="m252.45,105.33c.72-3.63,1.17-6.51,1.92-9.3.2-.75,1.32-1.72,2.06-1.76.93-.05,1.9.76,2.89,1.22,1.03-.24,2.42-.55,3.88-.88q.45,5.67-4.24,7.16c-.1-.92-.2-1.81-.29-2.7.54,4-2.62,4.55-6.22,6.25Z"/><path d="m288.7,67.29c5.34-1.75,9.83-3.52,14.47-4.6,1.88-.44,4.11.6,6.18.96,0,.4,0,.81,0,1.21-4.61,1.66-9.13,3.66-13.86,4.8-1.69.41-3.88-1.28-6.79-2.37Z"/><path d="m601.12,48.12c-1.66.23-3.39.87-4.98.62-7.5-1.19-15.07-1.28-22.58-1.09-3.59.09-6.09-1.26-8.77-2.95.03-.29.07-.59.1-.88,6.14.88,12.28,1.85,18.44,2.6,5.94.72,11.92,1.22,17.88,1.81,0,0-.09-.11-.09-.11Z"/><path d="m339.17,60.16c-1.64,2.92-2.7,4.83-3.8,6.72-.24.42-.67,1.09-.97,1.06-4.15-.38-8.28-.85-12.43-1.96,5.38-2.57,10.67-4.79,17.19-5.82Z"/><path d="m241,120.84c-3.92,3.41-7.75,6.74-11.98,10.43-1.3-.62-3.24-1.55-5.89-2.81,5.05-3,9.61-5.86,14.35-8.37.87-.46,2.5.51,3.51.76Z"/><path d="m549.53,35.36c9.84-1.47,30.28.14,34.87,2.7-1.85-.22-3.71-.43-6.38-.74,1.42.76,2.13,1.14,2.85,1.52-.1.33-.2.66-.3.99-5.83-1.25-11.63-2.7-17.5-3.68-3.22-.54-6.56-.29-9.85-.43-1.23-.06-2.46-.24-3.69-.36Z"/><path d="m100.85,302.83c-2.99,1.27-4.89,5.89-8.68,2.47-1.02-.92-1.52-3.32-1.11-4.69.74-2.47,2.92-3.69,5.67-3.66,3.99.05,3.27,3.32,4.12,5.88Z"/><path d="m124.68,167.38c-1.24-3.96,1.97-4.51,3.99-5.9-.11-.32-.21-.65-.32-.97-2.01.34-4.03.69-6.17,1.05,4.63-6.47,9.24-7.81,14.49-3.89-4.02,3.26-7.94,6.43-11.98,9.7Z"/><path d="m42.16,326.35c4.57-.17,8.63,2.75,9.17,7.04.12.9-1.26,2.8-2.1,2.89-4.84.53-8.96-5.43-7.07-9.93Z"/><path d="m305.72,61.18c-.89.1-1.95-.07-2.65.35-3.71,2.24-8.67,2.12-12.35-.68,4.96-1.62,9.65-3.52,14.52-4.56,1.76-.38,3.95,1.27,6.2,2.09-2.2,1.08-3.99,1.96-5.77,2.84,0,0,.06-.03.06-.03Z"/><path d="m14.17,195.11c4.33-3.92,7.94-3.82,11.42-.41-1.07,1.35-2.11,2.66-3.15,3.97,1.74.29,3.48.59,5.22.88-2.18,2.74-5.12.47-7.66.82-5.36.75-2.49-4.81-5.84-5.26Z"/><path d="m162.27,156.19c-1.45.17-2.97.35-4.79.56v-3.9c-.16-.01-.32-.02-.49-.04-.17,1.16-.35,2.33-.59,3.95-2.13-.1-4.23-.2-6.34-.31-.07-.25-.15-.51-.22-.76,3.67-2.74,7.29-5.55,11.04-8.17,1.35-.95,2.09-.26,1.94,1.4-.22,2.3-.35,4.61-.54,7.26Z"/><path d="m149.82,80.29c-.53-.4-2.07-.99-2.43-2-.44-1.25-.28-3.05.36-4.21.4-.74,2.11-.86,3.27-1.08,1.07-.21,2.24-.01,3.28-.31,2.01-.58,4.28.46,4.57,2.44.11.73-.13,2.05-.57,2.23-2.53,1.04-5.16,1.83-8.47,2.94Z"/><path d="m408.09,59.05c-.79-.16-1.59-.32-2.65-.54.74,1.4,1.43,2.68,2.29,4.3-1.14.35-1.89.58-2.65.8-.7.2-1.4.38-2.08.57-1.08-1.41-2.08-2.72-3.07-4.02,1.44-.85,2.93-1.74,4.43-2.62-.27-.41-.55-.83-1.05-1.59,5.21-.32,9.91-3.41,15.4-1.55-1.78,1.12-3.19,2.02-4.6,2.91,0,0,.05-.1.05-.1-2.02.61-4.04,1.23-6.07,1.84Z"/><path d="m184.23,316.25c-.6,2.62-2.43,4.83-4.31,4.82-2.91-.02-5.19-2.16-5.32-4.99-.15-3.18,1.68-4.72,6.46-4.24,1.19.12,2.12,2.87,3.16,4.41Z"/><path d="m160.48,126.63c1.27.45,2.53.91,4.3,1.54-4.13,2.81-7.9,5.37-11.39,7.74-.77-2.03-1.46-3.87-2.28-6.04,2.8-1.24,4.95-5.37,9.46-3.17l-.09-.07Z"/><path d="m193.14,118.23c-3.38,2.29-6.65,4.8-10.22,6.73-.97.52-2.88-.7-4.54-1.17,2.86-3.79,5.37-7.61,10.61-8.68.13,2.71,1.53,3.94,4.25,3.23,0,0-.1-.11-.1-.11Z"/><path d="m377.67,33.88c-.3.49-.52,1.35-.9,1.42-5.07.98-10.16,1.87-15.26,2.7-.73.12-1.54-.22-2.61-.4,1.6-1.99,2.76-3.77,4.28-5.16.69-.63,2.13-.78,3.15-.62,3.81.58,7.58,1.37,11.38,2.1.02.01-.04-.04-.04-.04Z"/><path d="m26.71,182.65c-.89.99-1.35,1.33-1.58,1.79-1.42,2.77-5.29,3.66-7.31,1.61-.34-.35-.86-.92-.77-1.22.62-2.06.87-4.61,2.26-5.92,1.08-1.02,4.05-1.18,5.41-.39,1.29.74,1.59,3.21,1.99,4.13Z"/><path d="m245.04,121.99c-1.5-.96-3.18-2.04-5.24-3.37,3.04-1.76,5.88-3.4,8.96-5.18-.97-1.06-1.68-1.83-2.4-2.61.11-.2.22-.4.33-.6,2.75,1.13,5.5,2.26,8.16,3.36-3.31,2.84-6.43,5.51-9.81,8.41Z"/><path d="m212.94,290.11c-.07,4.85-1.98,5.94-6.46,3.72-.26-.13-.57-.15-.86-.21-1.04-.25-2.09-.49-3.13-.73.59-1.18.91-2.65,1.82-3.47,1.29-1.16,2.93-2.05,4.56-2.68,2.76-1.06,4.11.16,4.06,3.38Z"/><path d="m116.64,201.16q.38,3.08-3.52,5.99c-2.39-4.34-3.49-8.85-2.93-14.38,2,.71,3.52,1.26,5.04,1.8.47,2.2.94,4.39,1.4,6.59Z"/><path d="m511.07,43.42c6.41.27,13.32-2.39,18.75,3.09-.01.36-.03.73-.04,1.09-1.8,0-3.66.29-5.37-.09-1.53-.34-2.89-.31-4.29.18-4.39,1.55-6.27-2.28-9.05-4.28Z"/><path d="m253.21,110.85c6.48-2.1,11.03-7.72,18.26-6.19-2.54,1.73-5.08,3.47-7.63,5.2-.35.24-.76.4-1.07.67q-4.07,3.58-9.56.32Z"/><path d="m323.16,55.58c7.44.01,13.49-5.96,20.72-1.53-6.57,1.34-12.67,6.83-20.72,1.53Z"/><path d="m215.95,140.16c-1.51-.9-3.37-2.02-5.72-3.43,3.63-2.33,6.85-4.69,10.36-6.48,1.14-.58,3.05.36,4.6.6-3.24,3.26-6.13,6.17-9.24,9.31Z"/><path d="m17.94,372.75c.71-1.69.99-3.27,1.91-4.2.55-.56,2.5-.57,3.14-.03,1.41,1.19,2.58,2.79,3.46,4.43.48.89.36,3.16.19,3.19-2.12.42-4.41,1.01-6.42.56-.99-.23-1.51-2.53-2.28-3.95Z"/><path d="m305.66,61.22c4.27-1.22,8.53-2.45,12.81-3.65,2.83-.79,5.52-.73,8.7,1.99-4.21.95-7.68,1.74-11.17,2.52-1.37.31-2.79.96-4.11.79-2.09-.27-4.11-1.1-6.17-1.68-.01,0-.07.04-.07.04Z"/><path d="m361.32,50.05c-4.59,1.15-9.14,2.61-13.79,3.3-1.89.28-4.04-1.12-5.97-2.31,4.42-1.11,8.81-2.48,13.29-3.21,2.07-.34,4.35.58,6.54.93-.02.43-.04.86-.06,1.29Z"/><path d="m346.51,48.85c-5.01,1.26-9.86,2.73-14.81,3.58-1.74.3-3.74-.9-5.85-2.24.28-.09.55-.2.83-.28,2.97-.79,6.03-1.34,8.9-2.4,3.84-1.43,7.34-1.2,10.93,1.34Z"/><path d="m215.93,117.33c.08-1.01.16-2.02.24-3.03-.12-.02-.24-.05-.36-.07-.34,1.04-.68,2.08-1.1,3.38-1.95-.25-3.87-.5-5.8-.75l-.26-.69c4.37-2.49,8.75-4.97,13.47-7.65.19,7.17-1.41,9.27-6.19,8.81Z"/><path d="m53.23,144.06c1.6.73,3.34,1.26,4.77,2.25,1.62,1.11,1.95,2.71.38,4.29-.28.28-.75.48-.85.8-.28.87-.42,1.78-.61,2.68-1.09-.56-2.44-.88-3.22-1.72-1.26-1.38-2.36-3.01-3.13-4.71-1.01-2.23-.06-3.31,2.66-3.58Z"/><path d="m289.51,98.34c-1.2-.65-2.94-1.59-4.73-2.57,7.24-4.83,15.2-7.31,17.76-5.8-4.15,2.66-8.42,5.4-13.03,8.36Z"/><path d="m359.52,46.66c6.57-.2,12.84-5.22,19.7-.93-6.53.86-12.8,5.75-19.7.93Z"/><path d="m179.3,137.09c2.42.25,3.86.39,5.24.53.31,2.69,1.22,5.4.69,7.8-.36,1.62-2.74,2.8-4.22,4.17-.35-.09-.71-.18-1.06-.27-.21-3.95-.42-7.89-.65-12.23Z"/><path d="m479.49,47.58c-1.7-.43-3.4-.86-5.11-1.29.09-.38.17-.75.26-1.13,6.53.34,13.8-3.63,19.14,3.86-2.71-.17-5.62,2.43-8.07-.81-1.85-2.4-4.12-.74-6.22-.63Z"/><path d="m127.3,263.25c1.6.74,3.52,1.16,4.68,2.34.77.78.55,2.64.57,4.02.01.63-.67,1.27-.68,1.91-.03,1.99-1.3,2.42-2.39,1.32-1.95-1.98-3.83-4.19-5.03-6.66-.91-1.87.7-2.8,2.84-2.93Z"/><path d="m118.12,127.89c5.89,2.38,4.16,6.69,4.1,10.78h-5.21c-.39-2.58-1.07-5.16-1.04-7.73.01-1.09,1.49-2.17,2.15-3.05Z"/><path d="m160.58,126.71c-.12-.82-.25-1.63-.42-2.8,3.15-1.99,6.61-4.18,10.3-6.51.08,1.42.14,2.54.21,3.73h-2.92c2.2.72,3.55,1.17,5.19,1.71-3.23,2.48-6.18,4.53-10.27,3.16-.59-.2-1.44.4-2.18.64,0,0,.09.07.09.07Z"/><path d="m387.64,40.55c-2.51-.4-5.03-.81-7.54-1.21,0-.44,0-.88,0-1.31,3.63-.63,7.25-1.26,10.88-1.9,1.04-.18,2.15-.23,3.07-.66,1.31-.62,2.16-.98,2.99.76.35.73,1.76.96,2.78,1.46-.24.31-.52.69-.81,1.06,0,0,.14-.11.14-.11-3.88.66-7.75,1.33-11.63,1.99,0,0,.12-.08.12-.08Z"/><path d="m169.87,107.39h-3.85c-.14-.93-.26-1.77-.51-3.52-.33,1.65-.49,2.42-.67,3.35-1.46-.1-2.75-.19-4.05-.29-.06-.3-.12-.6-.17-.9,1.03-.47,2.06-.95,2.75-1.27.18-1.53-.18-3.47.63-4.37,2.65-2.96,4.94.15,7.47.97-.51,1.91-1.02,3.84-1.59,6.02Z"/><path d="m99.7,212.07c-.23-.87-.58-1.98-.79-3.11-.22-1.14-.3-2.3-.46-3.63,1.59-.34,3.22-.69,4.83-1.03,1.01,2.96,2.1,5.67,2.81,8.47.21.83-.46,2.02-.99,2.87-.66,1.05-1.59,1.93-2.58,3.09-.51-.99-.79-1.52-.89-1.7,1.11-1.31,2.04-2.42,2.98-3.52-1.49-.43-2.97-.87-4.91-1.44Z"/><path d="m36.73,348.49c-4.73-.22-6.87-2.4-6.22-5.77.18-.96,1.92-2.16,3.05-2.29,2.5-.28,6.24,3.13,5.67,5.13-.39,1.34-1.97,2.34-2.5,2.92Z"/><path d="m343.71,45.25c3.36-.45,6.72-.91,10.08-1.35.72-.09,1.51.04,2.17-.2,3.66-1.31,3.65-1.34,7.95.96-4.72,1.1-9.22,2.43-13.82,3.11-2.05.3-4.29-.73-6.45-1.15.02-.45.04-.91.06-1.36Z"/><path d="m335.11,77.09c-4.04,2.39-7.88,5.1-12.11,6.92-1.56.67-4.03-.79-6.83-1.45,9.47-5,16.03-6.75,18.94-5.47Z"/><path d="m361.54,41.52c4.82-.96,9.22-2.15,13.7-2.61,2.21-.22,4.56.91,6.84,1.43-.04.32-.08.64-.11.96-1.64,0-3.29-.08-4.92.03-.83.06-1.77.29-2.44.76-3.37,2.34-9.12,2.27-13.06-.57Z"/><path d="m275.82,105.86c-1.82-1.2-3.38-2.23-5.42-3.57,4-1.93,7.56-3.86,11.31-5.31,1.08-.42,2.71.55,4.9,1.09-2.62,1.34-4.6,2.07-6.24,3.27-1.63,1.19-2.91,2.86-4.55,4.53Z"/><path d="m566.45,47.55c-4.86,0-9.45.35-13.93-.18-1.7-.2-3.16-2.41-4.7-3.67,5.85-1.41,15.13.36,18.63,3.85Z"/><path d="m80.05,230.91c.97,2.98,1.95,5.96,3.07,9.39-.91,1.11-2.16,2.64-3.75,4.59-.27-2.42-.37-4.36-.74-6.25-.18-.89-.68-2.1-1.38-2.43-2.7-1.27-2.81-1.56-.44-3.5.23-.19.35-.49.73-1.03-1.1-.35-2.04-.66-2.99-.96.07-.33.14-.66.21-.99,1.79.42,3.59.83,5.38,1.25l-.08-.08Z"/><path d="m145.31,217.13c-1.19-.71-2.84-1.16-2.98-1.91-.18-.91.9-2.08,1.45-3.12.31-.58.59-1.19,1-1.7.71-.89,1.65-2.49,2.24-2.39,1.37.24,3.12,1.05,3.71,2.16.44.83-.37,2.75-1.18,3.72-1.04,1.26-2.64,2.07-4.24,3.24Z"/><path d="m60.54,264.27c-.44.42-.81,1.05-1.33,1.21-1.38.42-2.82.64-4.64,1.02-.86-2.52-1.92-5.65-3-8.82,3.56-.74,6.43-.85,7.1,3.41.06.38.71.66,1.09.99.26.73.53,1.46.79,2.19Z"/><path d="m308.16,55.34c2.64-.76,4.98-2.42,8.14-.54,2.84,1.69,4.33.39,4.35-3.08,3.11-1.95,5.11,1,7.67,1.91-4.47,1.33-8.88,2.99-13.43,3.85-2.14.4-4.56-.76-6.86-1.21.05-.31.09-.62.14-.93Z"/><path d="m68.05,248.89c.41,1.18.72,2.41,1.26,3.53,1.8,3.77,1.76,4.03-2.44,6.88.32-.84.63-1.68.96-2.51.85-2.14.04-4.55-1.74-4.74-4.81-.51-3.27-4.19-4.28-6.62,4.31-2.29,4.88,1.37,6.34,3.57,0,0-.1-.1-.1-.1Z"/><path d="m245.25,102.09c-.63,4.05.64,9.26-6.3,9.78.17-2.22.12-4.43.54-6.56.93-4.73,1.02-4.71,5.76-3.22Z"/><path d="m306.79,90.99c-1.27-.88-2.73-1.88-5-3.45,5.85-.76,9.8-6.14,16-3.35-3.79,2.34-7.3,4.51-11,6.8Z"/><path d="m192.29,81.83c-.75.37-2.03,1.22-3.43,1.59-.54.14-1.44-.74-2.04-1.3-.66-.61-1.2-1.37-1.73-2.1-.51-.72-1.39-1.56-1.3-2.22.11-.73,1.08-1.81,1.78-1.9,2.02-.26,4.09-.09,5.76-.09.36,2.3.6,3.78.95,6.03Z"/><path d="m349.95,70.13c6.44-1.31,12.08-4.89,18.6-4.35.07.27.14.55.2.82-3.21,1.29-6.41,2.58-9.62,3.85-.29.12-.75-.06-.97.11q-3.65,2.81-8.21-.41Z"/><path d="m321.97,47.36c-3.68,1.07-7.33,2.27-11.07,3.09-.52.12-2.22-1.89-2.02-2.36.48-1.19-.46-3.72,2.25-3.37,3.59.46,7.17,1.02,10.75,1.53.03.37.06.74.09,1.11Z"/><path d="m378.61,33.09c.21-.03.5.01.6-.11,4.79-5.53,10.09-2.33,15.4-.38-3.4.54-6.78,1.25-10.2,1.57-2.21.21-4.47-.16-6.73-.29-.01-.01.05.04.03.02.32-.32.66-.62,1-.93,0,0-.1.1-.1.1Z"/><path d="m512.08,29.78c-3.49,2.23-12.08,1.46-15.6-1.22,2.36-2.53,11.48-1.91,15.6,1.22Z"/><path d="m178.83,134.91c1.58-1.05,3.15-2.09,5-3.32.63,2.09,1.26,4.23,3.94,3.7.71-.14,1.32-.82,1.98-1.25-1.09-1.36-2.18-2.72-3.38-4.2,1.41-.8,3.29-1.86,5.83-3.29-.45,3.39-.7,5.76-1.11,8.1-.09.5-.74,1.27-1.14,1.28-3.7.07-7.41,0-11.12-.02,0-.33,0-.67,0-1Z"/><path d="m34.31,258.21c2.25.96,2.22,1.13-1.73,5.79-2.57-4.72-5.98.71-9.36-.88,2.02-2.99,3.56-6.17,7.25-5.82.42,1.16.72,1.97,1.01,2.78.76-.51,1.53-1.01,2.84-1.88Z"/><path d="m429.3,54.08c2.8-.68,5.58-1.54,8.42-1.99,2.63-.41,3.55.56,4.05,3.61-.54.22-1.12.67-1.67.64-2.44-.16-4.66.87-6.96,1.1-1.29.13-2.78-1.61-4.17-2.51.11-.28.22-.56.33-.84Z"/><path d="m480.65,38.58c.17-.03.32-.09.45-.19,1.1-.6,2.21-1.2,3.33-1.81,1.41,3.79,5.13,1.81,8.08,3.47-5.12,3.55-10.78.55-15.54,2.73-.16-.3-.31-.59-.47-.89,1.38-1.1,2.76-2.2,4.15-3.3Z"/><path d="m58.91,189.24c.96,5.54.37,7.73-2.29,8.25-2.26.44-3.58-.87-4.16-2.89-.75-2.63.79-3.91,6.44-5.36Z"/><path d="m235.01,42.53c1.32-2.56,1.59-4.56-1.39-5.62-.39-.14-.73-1.59-.46-2.1.36-.67,1.57-1.56,2.02-1.38,2.28.92,4.49,2.07,6.57,3.37.24.15-.12,2.16-.71,2.57-1.67,1.16-3.61,1.93-6.03,3.15Z"/><path d="m402.56,57.79c-4.68,1.73-9.36,3.45-14.44,5.33-.95-.54-2.39-1.35-4.61-2.61,6.94-.92,12.68-4.21,19.05-2.72Z"/><path d="m346.13,74.94c-2.22,1.09-4.43,2.17-6.89,3.38-1.14-.79-2.51-1.73-3.97-2.74,6.27-3.63,12.17-4.79,15.14-3.03-1.48.84-2.93,1.67-4.38,2.49,0,0,.09-.09.09-.09Z"/><path d="m309.45,77.6c-.87,3.12-3.66,3.56-6.51,4.63-.45-3.63,1.02-6.5,2.92-8.96.37-.48,2.99.77,4.57,1.21-.33,1.04-.66,2.08-.98,3.11Z"/><path d="m133.91,312.28c-.07,2.34-2.09,4.72-4.04,4.49-2.14-.25-3.39-1.6-3.5-3.79-.09-1.83,2.25-4.22,4.15-3.98,1.76.22,3.5.92,3.39,3.28Z"/><path d="m339.2,59.91c5.39-1.47,10.22-2.79,15.38-4.2-3.15,6.39-7.38,7.54-15.38,4.2Z"/><path d="m238.44,125.39c1.61-1.04,3.69-3.26,4.71-2.85,1.77.71,2.89,3.05,4.28,4.71-1.32,1.02-2.65,2.04-3.97,3.06-1.67-1.64-3.35-3.29-5.02-4.93Z"/><path d="m17.42,270.24c3.01-2.37,3.29-7.23,7.76-5.87.83,2.36,1.57,4.46,2.44,6.94-3.12-.33-6.22-.65-10.2-1.06Z"/><path d="m80.13,230.99c1.75-.84,3.51-1.68,6.27-3-1.57,3.5-.99,5.27,2.32,5.72-1.68,1.98-3.07,3.61-4.77,5.6-1.42-3.06-2.65-5.72-3.89-8.39,0,0,.07.07.07.07Z"/><path d="m112.26,209.32c-1.78.62-4.5,2.23-5.11,1.64-1.53-1.45-2.09-3.92-3.04-5.97,5.22-2.33,5.66-2.11,8.15,4.33Z"/><path d="m68.14,248.99c-.24-1.31-.48-2.62-.71-3.9,2.52-1.3,4.23-.32,5.63,1.65.5,1.17,1,2.34,1.5,3.52-.89,1.46-1.79,2.93-2.9,4.74-1.38-2.33-2.5-4.22-3.62-6.11,0,0,.1.1.1.1Z"/><path d="m60.54,264.27c-.26-.73-.53-1.46-.79-2.19-.57-1.57-1.13-3.15-1.69-4.7,3.37-2.44,5.12.73,7.3,1.97.53.3.91,1.86.6,2.43-1.12,2.07-3.07,2.83-5.41,2.5Z"/><path d="m185.4,137.7c2.04-.27,3.67-.48,5.53-.72,0,2.27,2.44,4.66-1.11,6.18.54.64.92,1.08,1.41,1.66h-5.29c-.16-2.15-.34-4.59-.53-7.12Z"/><path d="m291.26,82.22c-.34.73-1,1.48-.95,2.18.3,3.9-2.54,4.42-6.31,5.66,1.19-3.56,1.96-6.42,3.17-9.08.28-.62,2.07-.73,3.15-.72.29,0,.56,1.35.84,2.07,0,0,.09-.12.09-.12Z"/><path d="m206.46,96.93c3.72-1.94,7.1-3.7,9.91-5.17,0,1.7.15,3.35-.07,4.95-.1.71-.8,1.61-1.47,1.93-2.95,1.41-5.46.1-8.37-1.71Z"/><path d="m323.39,73.31c-1.7,1.23-3.39,2.45-5.09,3.68-.26-.23-.52-.46-.78-.69.05-3.11.99-5.97,3.52-8.04,1.51-1.24,3.02-.98,3.74,1.14-.46,1.3-.93,2.6-1.39,3.91Z"/><path d="m201.78,128.78q1.04,6.22-3.14,7.98c-1.76-7.24-1.87-7.33-6.3-4.45.4-1.52.69-2.63,1.02-3.9,2.96.19,5.65,1.5,8.41.37Z"/><path d="m254.97,122.11c.34,3.52-3.34,2.83-4.71,4.81-1.27-1.35-2.4-2.56-3.72-3.97,1.75-1.5,2.11-4.81,5.64-3.78.93.98,1.86,1.96,2.79,2.94Z"/><path d="m372.49,67.58c-1.08-.8-2.25-1.68-4.16-3.1,5.76-.57,10.3-4.29,16.23-2.12-4.22,1.82-7.99,3.45-12.07,5.21Z"/><path d="m254.97,122.11c-.93-.98-1.86-1.96-2.79-2.94-.02-.67-.31-1.76-.01-1.96,3.87-2.64,4.45-3.92,8.92,1.32-1.54.87-2.98,1.68-4.66,2.62.05.32.16.98.34,2.05-.82-.5-1.3-.8-1.79-1.09Z"/><path d="m354.53,32.12c2.41-.99,4.82-1.99,7.68-3.17-1.02,6.03-4.59,8.76-8.3,7.09-.34-.15-.4-.96-.59-1.46.41-.82.81-1.64,1.22-2.46Z"/><path d="m460.02,3.89c3.22.45,6.64.93,10.69,1.5-4.52,4.32-7.72,4.67-11.55,2.15.27-1.14.5-2.12.87-3.65Z"/><path d="m173.04,163.23c3.9-1.51,5.76-7.19,11.26-3.65-2.88,2.11-5.76,4-7.51,7.78-1.36-1.49-2.41-2.65-3.76-4.13Z"/><path d="m343.54,64.26c-1.17,3.52-3.38,5.65-7.31,5.5.26-6.09,3.12-8.72,7.83-7.17-.21.59-.42,1.18-.63,1.78l.11-.11Z"/><path d="m373.96,50.91c5.61-1.18,10.48-2.21,15.78-3.32-3.82,5.76-7.1,6.47-15.78,3.32Z"/><path d="m410.26,18.4c2.85-.57,5.72-1.07,8.55-1.74.67-.16,1.16-1.01,1.84-1.24.59-.21,1.57-.27,1.96.08,1.08.96,1.95,2.16,2.8,3.14-4.71,2.77-9.91.85-15.06.62-.02-.29-.05-.57-.07-.86Z"/><path d="m346.18,76.3c-.01-.45-.03-.91-.05-1.36,0,0-.09.09-.1.09,1.09-.27,2.22-.45,3.28-.82,3.51-1.22,5.25-.3,6.52,3.85-2.47-.08-4.37,3.19-7.15.72l-2.51-2.48Z"/><path d="m98.93,119.9c-3.17.12-6.53-2.46-6.27-4.38.09-.63,1.28-1.48,2.04-1.57,2.76-.32,6.91,1.99,6.5,3.6-.28,1.09-1.76,1.86-2.27,2.35Z"/><path d="m334.08,30.55c-3.24.69-5.88,1.32-8.55,1.8-2.42.43-4.87,2.23-7.5-.25-.96,3.26-2.75,2.16-5.11.88,3.65-1.08,6.85-2.02,10.26-3.03.34.52.76,1.17,1.13,1.73,3.19-.71,5.76-4.29,9.77-1.12Z"/><path d="m112.75,135.67c.35-1.79.65-3.35.95-4.9.46.03.92.06,1.38.09.35,2.53.71,5.05,1.05,7.54-2.13.39-3.95.73-6.17,1.14.3-2.23-2.78-4.43.77-6.27.75.89,1.36,1.62,2.02,2.4Z"/><path d="m116.64,201.16c-.47-2.2-.94-4.39-1.4-6.59,1.3-.64,2.6-1.27,3.9-1.91,0,0,0,0,0,0,.62,1.27,1.23,2.54,1.85,3.81.04.51.09,1.02.13,1.53-.84,1.61-1.67,3.23-2.7,5.21-.93-1.07-1.34-1.56-1.76-2.04Z"/><path d="m139.83,117.89c-.35,3.13-.68,6.12-1.04,9.41-1.56-.18-2.78-.31-3.93-.44-.89-5.77.09-7.61,4.97-8.96Z"/><path d="m425.93,42.66s-.02-.17-.02-.17c-.72.4-1.59.65-2.13,1.22-4.31,4.51-8.8,1.38-13.29.07,4.07-.61,8.14-1.3,12.23-1.79,1.03-.12,2.14.42,3.21.66Z"/><path d="m135.85,258.18c-3.5-.29-6.2-2.57-5.66-4.45.26-.91,1.66-2.07,2.59-2.11,2.23-.12,5.2,2.82,4.78,4.56-.23.92-1.35,1.62-1.7,2Z"/><path d="m215.18,119.14c1.7-.32,3.39-.63,5.04-.94,1.32,5.05.78,5.81-5.41,7.78.13-2.4.26-4.66.39-6.91,0,0-.01.07-.01.07Z"/><path d="m128.42,214.18c.1-.99-.14-2.26.39-2.9.53-.65,2.05-1.19,2.72-.88,1.78.82,3.38,2.06,4.9,3.32.13.11-.78,2.22-1.38,2.31-1.52.23-3.17,0-4.7-.35-.77-.18-1.37-1.05-2.04-1.6,0,0,.11.1.11.1Z"/><path d="m30.68,152.28c1.64,1.74,3.27,2.7,3.62,4.01.63,2.35-1.8,3.25-3.28,3.11-1.49-.14-2.84-1.74-4.25-2.7,1.1-1.24,2.21-2.49,3.92-4.41Z"/><path d="m357.09,62.69c-1.79,1.01-3.59,2.02-5.38,3.03-.36-.33-.72-.66-1.09-1,1.43-2.3,2.64-4.78,4.36-6.84,1.31-1.57,3.35-.55,3.73,1.65-.54,1.05-1.08,2.11-1.62,3.16Z"/><path d="m376.94,57.35c-2.07.99-4.15,1.99-6.67,3.19.9-5.76,4.03-9.23,7.23-7.6.38.19.46.96.68,1.46-.42.98-.83,1.96-1.25,2.95Z"/><path d="m105.15,271.43c1.43,1.87,3.25,3.29,3.02,4.19-.3,1.21-2.1,2.63-3.43,2.84-1.74.27-4.32-.3-3.83-2.85.26-1.34,2.28-2.34,4.23-4.19Z"/><path d="m63.56,137.7c-.53.28-1.4,1.12-2.28,1.14-2.67.06-5.51-2.15-5.1-4.02.21-.97,1.51-2.28,2.44-2.39,2.15-.26,5.04,2.66,4.94,5.27Z"/><path d="m513.98,16.26c3.52-2.62,8.23-2.2,10.77.97-2.61,2.6-8.44,2.08-10.77-.97Z"/><path d="m380.12,66.19c.86-2.69,3.52-2.43,5.29-2.41,1.43.02,2.83,1.87,4.51,3.11-5.36,2.9-6.08,2.83-9.62-.55,0,0-.19-.15-.19-.15Z"/><path d="m40.9,240.98c2.05-3.11,4.15-7.53,9.82-4.26-.9,1.44-1.89,3.05-2.64,4.26h-7.18Z"/><path d="m333.36,39.29c.35-4.26,2.49-4.94,5.46-5.25,2.27-.24,4.43-1.5,6.84-2.37v3.48c-3.27-.21-6.19-.58-8.11,2.78-.51.89-2.58.89-4.19,1.37Z"/><path d="m318.11,69.34c-.4,3.04-2.14,3.88-4.69,3.15-.5-.14-.76-1.11-1.06-1.58q-1.59,1.76-7.58.43c4.75-1.92,8.58-4,13.33-2Z"/><path d="m458.87,50.24c-1.35-.77-2.7-1.54-4.05-2.31,6.2-.81,12.18-2.94,18.32-1.34-1.23.45-2.46.9-3.69,1.35l.04-.05c-1.09.08-2.19.16-3.28.24,0,0,.1-.09.1-.09-2.51.76-5.03,1.52-7.54,2.28,0,0,.09-.09.09-.09Z"/><path d="m332.1,80.74c1.99-2.44,5.01-3.21,6.49-1.39.88,1.08,1.09,2.7,1.6,4.08-1.63.16-3.25.32-4.88.48-1.07-1.06-2.14-2.11-3.21-3.17Z"/><path d="m222.41,62.03c-1.67-1.99-2.7-3.22-3.73-4.44,1.29-.81,2.61-2.3,3.87-2.24,1.28.05,2.5,1.62,3.74,2.52-1.07,1.15-2.14,2.29-3.88,4.17Z"/><path d="m346.18,76.3c.84.83,1.67,1.65,2.51,2.48-.69.83-1.24,1.89-2.11,2.43-1.03.65-2.34.86-3.61,1.29-.83-1.08-1.64-2.13-2.82-3.65,2.14-.9,4.08-1.73,6.03-2.55Z"/><path d="m281.94,102.49c3.19-3.99,5.5-4.14,9.07-.59-1.51,3.16-3.64,3.37-8.75.85-.1-.1-.21-.18-.33-.26Z"/><path d="m215.2,119.06c-.48,1.96-.95,3.93-1.5,6.19-1.47-.39-3.21-.85-4.9-1.3.34-5.97,1.46-6.77,6.38-4.8,0-.02.02-.09.02-.09Z"/><path d="m414.15,57.21s-.05.1-.05.1c5.73-2.66,7.5-2.24,9.81,2.66-1.25,0-2.36-.13-3.43.03-1.13.17-2.21.61-3.35.95-.76-.88-1.48-1.71-2.19-2.53-.27-.4-.53-.81-.8-1.21Z"/><path d="m316.79,43.2c1.18-.12,2.38-.18,3.54-.39.74-.13,1.44-.49,2.16-.75-.54-.49-1.02-1.08-1.63-1.45-.65-.4-1.41-.61-2.13-.9-.02-.35-.05-.69-.07-1.04,2.17-.61,4.33-1.22,6.5-1.83.26.21.51.42.77.62-1.3,2.27-2.43,4.68-3.96,6.78-1.15,1.58-4.1.79-5.1-1.14,0,0-.09.1-.09.1Z"/><path d="m404.91,51.93c2.26-5.7,5.06-7.32,8.58-5.17-1.27,4.09-4.53,5-8.58,5.17Z"/><path d="m392.09,53.27c-1.92,1.15-3.83,2.29-6.31,3.77.73-5.79,4.23-8.57,8.06-7.12-.34.63-.67,1.25-1,1.86-.25.5-.5.99-.75,1.49Z"/><path d="m199.9,56.85c2.92-1.28,5.48-.43,7.69,1.07,1.38.94,1.06,2.44-.55,3.29-2.1,1.11-4.78.02-5.62-2.16-.25-.66-.82-1.21-1.52-2.2Z"/><path d="m153.05,279.58c1.62,2.3,2.92,3.61,3.43,5.17.16.5-1.71,2.34-2.75,2.42-2.27.18-3.43-1.63-3.28-3.71.08-1.02,1.26-1.96,2.6-3.88Z"/><path d="m232.77,177.66c.76-2,1.28-3.91,2.21-5.59.52-.95,1.72-1.53,2.83-2.47,1.78,2.58,2.04,5.36.51,6.97-1.13,1.2-3.92.83-5.55,1.09Z"/><path d="m366.04,69.97c.04-.46.01-1.29.11-1.31,1.74-.26,3.62-.87,5.2-.43,1.05.29,1.68,2.1,3.07,4.02-2.53.38-4.24.63-5.94.88-.82-1.05-1.63-2.11-2.45-3.16Z"/><path d="m314.37,89.22c-.05-.63-.4-1.56-.11-1.85,2.71-2.74,6.03-2.35,8.79,1.5-2.71.48-5.12.92-7.54,1.35-.38-.33-.76-.66-1.14-.99Z"/><path d="m78.91,168.6c-.86-1.45-2.04-2.82-2.41-4.38-.14-.58,2.21-2.45,2.39-2.31,1.4,1.02,2.81,2.25,3.6,3.74.25.46-1.38,1.93-2.15,2.93-.48,0-.95.01-1.43.02Z"/><path d="m118.98,145.92c-3.38-1.16-2.55-3.46-2.16-6,2.37.23,4.73.46,7.09.68.17.35.33.7.5,1.05-1.8,1.41-3.59,2.82-5.43,4.27Z"/><path d="m167.05,168.56c2.32.43,4.68.72,6.93,1.38.54.16,1.03,1.59.95,2.38-.05.55-1.06,1.36-1.71,1.44-2.16.27-4.54.7-5.03-2.57-.08-.53-.92-.94-1.41-1.41.09-.41.19-.81.28-1.22Z"/><path d="m113.03,314.47c-2.62-.57-4.51-1.07-3.87-3.45.29-1.09,2.21-2.66,3.06-2.47,1.31.28,2.66,1.72,3.31,3.01.22.44-1.6,1.92-2.49,2.92Z"/><path d="m281.94,102.49c.12.08.23.16.33.26.7,1.82,1.4,3.63,2.49,6.47-3.13-.7-5.56-1.25-8-1.79-.04-.44-.08-.87-.12-1.31,1.77-1.21,3.53-2.42,5.3-3.62Z"/><path d="m39.51,194.9c-2.71-.27-4.92-.32-4.31-2.91.26-1.12,2.14-2.83,2.89-2.65,1.32.32,2.64,1.73,3.3,3.02.24.47-1.39,1.9-1.88,2.54Z"/><path d="m165.85,197.94c-1.44-1.82-2.36-2.97-3.27-4.12,1.09-.82,2.09-2.11,3.31-2.35,1.78-.36,3.59.74,3.4,2.66-.11,1.12-1.79,2.08-3.44,3.82Z"/><path d="m461.34,21.39c4.3-4.72,7.77,1.26,12.01-.09-1.97,2.84-8.67,2.68-12.01.09Z"/><path d="m505,41.1h-11.67c2.11-2.64,6.5-3.99,9.45-2.71.73.32,1.15,1.36,2.22,2.71Z"/><path d="m380.12,66.19s.19.15.19.15c.54.98,1.09,1.95,1.63,2.93-5.17,2.83-5.57,2.79-8.55-1.31,2.42-.64,4.58-1.2,6.73-1.77Z"/><path d="m115.34,216.42c.8,2.06,1.31,3.39,2.01,5.19-4.46-2.37-4.55,1.94-6.19,4.22-.85-1.23-1.44-2.09-2.19-3.18,2.16-2.11,4.34-4.24,6.38-6.22Z"/><path d="m378.71,32.98c-1.41-.22-2.82-.43-4.22-.65-.11-.31-.21-.62-.32-.92,1.49-.97,2.99-1.94,4.87-3.17.01.09-.08-.53-.21-1.4,1.47-.08,2.78-.16,4.08-.23.15.24.31.48.46.72-1.59,1.92-3.17,3.84-4.76,5.76,0,0,.1-.1.1-.1Z"/><path d="m309.45,77.6c.33-1.04.66-2.08.98-3.11,1.78-.34,3.56-.68,5.36-1.03.56,4.22.27,4.47-6.34,5.91v-1.77Z"/><path d="m414.15,57.21c.27.4.53.81.8,1.21.27.77.53,1.54.8,2.29-5.13,2.57-6.64,2.23-7.66-1.66,2.02-.61,4.04-1.23,6.07-1.84Z"/><path d="m496.44,46.05c-1.9-.31-3.81-.62-5.71-.94.05-.46.1-.91.15-1.37h18.07c0,.1,0,.2,0,.3-4.19.68-8.39,1.36-12.59,2.05-.01,0,.09-.05.09-.05Z"/><path d="m502.55,21.18c-4.38,1.17-8.29,2.33-12.26-.15,2.95-2.08,9.58-2.15,12.26.15Z"/><path d="m366.04,69.97c.82,1.05,1.63,2.11,2.45,3.16-2.91,2.46-4.1,2.44-6.56-.11-.37-.4-.74-.8-1.11-1.2,1.02-2.64,3.01-2.56,5.22-1.85Z"/><path d="m416.27,27.89c-1.5-.41-2.99-.82-4.49-1.23.7-.79,1.41-1.58,2.11-2.37,2.15-.69,4.3-1.39,6.45-2.08.11.31.22.61.34.92-1.5,1.62-3.01,3.24-4.51,4.87,0,0,.1-.1.1-.1Z"/><path d="m341.91,27.45c.13-.65.09-1.76.41-1.87,1.48-.52,3.14-1.21,4.58-.96,1.25.21,2.3,1.6,3.38,2.82-2.86-.49-5.59,2.96-8.43-.05,0,0,.06.06.06.06Z"/><path d="m19.67,264.68c-1.77,3.14-2.87,5.6-6.06,4.68-.94-.27-1.58-1.55-2.36-2.36.74-.48,1.42-1.19,2.23-1.38,1.78-.42,3.61-.57,6.2-.93Z"/><path d="m159.07,84.59c2.15,1.46,4.13,2.63,5.85,4.11.43.37.01,1.72-.02,2.62-.96-.05-2.09.19-2.83-.23-1.29-.73-2.35-1.88-3.78-3.09.16-.71.4-1.76.78-3.4Z"/><path d="m177.57,67.5c-1.47-1.8-2.86-2.88-3.22-4.22-.19-.71,1.45-1.9,2.26-2.87,1.17,1.17,2.57,2.21,3.37,3.59.24.42-1.19,1.8-2.41,3.5Z"/><path d="m38.92,199.72c1.2.57,2.45,1.08,3.55,1.79.17.11-.19,1.7-.46,1.75-1.47.26-2.99.27-4.5.31-.28,0-.6-.2-.83-.4-.68-.58-1.32-1.2-1.98-1.81.89-.4,1.76-.85,2.68-1.17.36-.12.83.06,1.25.1.09-.19.19-.38.28-.57Z"/><path d="m354.53,32.12c-.41.82-.81,1.64-1.22,2.46-2.04.4-4.09.8-6.13,1.2-.24-.4-.47-.81-.71-1.21.86-.91,1.75-2.61,2.58-2.58,1.82.06,3.78-2.34,5.48.13Z"/><path d="m435.56,30.55c2.05.25,4.11.71,6.15.69,1.43-.02,2.84-.81,4.29-1.01.43-.06,1.34.69,1.36,1.1.02.5-.64,1.46-1.05,1.48-3.7.19-7.55,1.19-10.76-2.27Z"/><path d="m446.1,22.42c2.15-.52,4.3-1.03,6.42-1.54-.73-2.39-.01-2.65,5.73-.68-3.87,1.29-7.73,2.61-11.63,3.82-.33.1-.87-.5-1.32-.78.27-.27.53-.55.8-.82Z"/><path d="m376.94,57.35c.42-.98.83-1.96,1.25-2.95,2.01-.36,4.02-.72,6.37-1.14-.82,3.69-5.01,5.49-7.62,4.09Z"/><path d="m343.43,64.37c1.61-2.62,3.95-1.95,6.26-1.41q-.1,3.13-6.72,4.92c.2-1.28.39-2.45.57-3.62,0,0-.11.11-.11.11Z"/><path d="m25.97,255.2c-.8,1.81-1.59,3.61-2.83,6.43-2.08-2.16-3.47-3.61-5.39-5.6,3.55-.31,5.93-.51,8.31-.72,0,0-.09-.11-.09-.11Z"/><path d="m74.56,250.25c-.5-1.17-1-2.34-1.5-3.52-.21-.79-.42-1.59-.62-2.35,3.94-1.72,4.25-1.62,6.2,2.48-1.22,1.01-2.65,2.2-4.08,3.39Z"/><path d="m431.98,61.15c3.62-.81,7.23-1.62,10.85-2.43v3.21c-3.4.21-7.03.42-10.66.64l-.18-1.42Z"/><path d="m323.41,45.87c-.01-.15-.31-.99-.06-1.2,2.38-2.06,2.64-7.43,8.66-4.61-1.39,1.18-2.51,2.31-3.8,3.18-1.42.95-3,1.66-4.8,2.63Z"/><path d="m314.37,89.22c.38.33.76.66,1.14.99-1.58,1.48-3.16,2.97-4.86,4.57-1.05-1.12-1.81-1.93-2.74-2.93,2.29-1.01,3.23-4.46,6.46-2.63Z"/><path d="m332.1,80.74c1.07,1.06,2.14,2.11,3.21,3.17-1.29.52-2.57,1.05-4.13,1.68-.72-.35-1.74-.86-2.76-1.36-.25-.31-.5-.61-.75-.92.61-2.34,2.38-2.68,4.42-2.57Z"/><path d="m196.3,220.57c-1.63,2.17-2.44,3.55-3.56,4.59-.53.49-1.78.58-2.51.32-.49-.18-.92-1.35-.82-2,.08-.49,1.06-.81,1.57-1.29.52-.49.85-1.39,1.42-1.55.92-.26,1.97-.07,3.91-.07Z"/><path d="m95.49,160.47c-2.85-2.24-.41-4,.47-5.68.16-.31,2.42-.04,3.23.59,1.25.98,1.75,2.36-.5,3.18-1.09.4-2.03,1.2-3.19,1.92Z"/><path d="m65.64,297.3c-1.29.92-2.5,2.01-3.92,2.62-.36.15-2.1-1.65-1.98-1.87.74-1.33,1.69-2.69,2.91-3.53.42-.29,1.84.89,2.81,1.4.06.46.13.92.19,1.38Z"/><path d="m323.39,73.31c.46-1.3.93-2.6,1.39-3.91,1.64-1.76,3.2-1.1,4.73.18-.12.37-.24.75-.35,1.12-.59,2.39-2.61,2.97-4.59,3.49-.3.08-.78-.57-1.18-.88Z"/><path d="m360.82,71.82c.37.4.74.8,1.11,1.2.27.77.54,1.53.9,2.56-1.53.54-2.99,1.05-4.6,1.62-.82-1.1-1.6-2.15-2.83-3.79,2.02-.59,3.73-1.09,5.43-1.59Z"/><path d="m175.36,275.96c-2.31,1.39-3.69,2.44-5.24,3-.41.15-2.06-1.6-1.95-1.8.76-1.33,1.64-2.95,2.9-3.5.73-.32,2.26,1.15,4.29,2.3Z"/><path d="m299.43,93.36c4.91-3.29,6.51-3.04,8.43,1.19-3.17,1.91-5.93.82-8.52-1.28l.09.08Z"/><path d="m121.11,197.99c-.04-.51-.09-1.02-.13-1.53-.28-1-.55-2-.83-2.98q4.14-1.7,6.07,2.75c-1.21.67-2.34,1.38-3.55,1.91-.42.18-1.04-.09-1.57-.15Z"/><path d="m295.67,84.14c-1.43,1.13-2.87,2.26-4.3,3.4l-.65-.55c.19-1.6.37-3.19.55-4.78,0,0-.09.12-.1.12,1.31-.7,2.63-1.4,4.76-2.54-.16,2.22-.24,3.33-.32,4.44l.06-.08Z"/><path d="m269.31,108.92c0-.53-.14-1.48.02-1.53,1.6-.52,3.27-1.26,4.88-1.18,1.03.05,2,1.36,3.56,2.53-3.57,1.35-5.96,2.29-8.37.21,0,0-.09-.03-.09-.03Z"/><path d="m452.53,33.29c3.26-.44,6.29-.84,9.31-1.25.2.17.39.34.59.51-1.27.97-2.46,2.59-3.83,2.77-2.03.26-4.89,1.31-6.07-2.03Z"/><path d="m549.09,41.01h-19.08c0-.24,0-.48-.01-.72h19.06c.01.24.02.48.03.72Z"/><path d="m217.44,187.59c-1.35-1.92-2.47-3.02-2.9-4.36-.18-.56,1.03-2.18,1.77-2.29,2.09-.32,3.15,1.21,3.1,3.1-.02.92-.96,1.81-1.97,3.54Z"/><path d="m302.65,45.27q-1.89,3.56-5.46,2.62.94-4.1,5.63-5.24c-.09.97-.17,1.84-.24,2.7l.07-.09Z"/><path d="m117.45,107.73c-1.12-1.45-2.22-2.23-2.17-2.93.18-2.4,2.32-3.04,4.19-3.65.44-.14,1.2.69,1.82,1.08-1.14,1.64-2.29,3.27-3.84,5.5Z"/><path d="m238.22,68.09c-1.95,6.56-2.19,6.77-6.07,5.64-.65-4.46,3.2-3.99,6.07-5.64Z"/><path d="m143.83,78.83c-2.37.52-3.55.99-4.72.97-.81-.02-2-.54-2.31-1.18-.4-.82-.33-2.09.03-2.96.14-.33,1.81-.41,2.49-.06,1.4.72,2.6,1.82,4.52,3.23Z"/><path d="m178.52,168.11c.84.63,1.69,1.26,2.51,1.88-.14.81.01,1.86-.45,2.38-.69.79-1.8,1.21-2.81,1.84-2.27-1.86-2.06-4.36.74-6.1Z"/><path d="m396.67,64.98c-.6-1.07-1.21-2.14-1.82-3.22,3.77-2.33,5.38-1.75,6.9,3.13h-5.16s.08.09.08.09Z"/><path d="m430.2,23.02c-.63.65-1.26,1.29-1.9,1.93-2.23,0-4.46,0-6.99,0,1.85-3.06,5.98-3.73,8.89-1.93Z"/><path d="m316.88,43.1c-2.04.34-4.08.69-6.18,1.04-.71-4.28,2.13-4.19,4.46-4.79.55,1.29,1.09,2.57,1.64,3.85,0,0,.09-.1.09-.1Z"/><path d="m85.27,227.43c-1.77.39-3.27.71-4.74,1.03-1.78-4.17-1-5.09,3.91-4.63.24,1.03.49,2.12.83,3.6Z"/><path d="m450.18,52.86c.05.09.15.19.14.27-.12,1.32-3.61,2.91-5.56,2.12-.73-.29-.92-1.97-1.35-3.01l-.08.06c2.27.37,4.8-2.39,6.85.57,0,0,0,0,0,0Z"/><path d="m155.5,88.78c1.7,1.15,3.4,2.3,5.1,3.45-.76.7-1.46,1.89-2.3,2-3.78.5-2.66-2.75-2.8-5.45Z"/><path d="m347.86,41.19q4.82-5.19,10.92-2.5c-3.98.91-7.3,1.67-10.92,2.5Z"/><path d="m238.44,125.39c1.67,1.64,3.35,3.29,5.02,4.93-1.31,1.87-1.78.06-2.5-.58-1.07-.93-2.12-1.88-3.17-2.82-.25.2-.5.39-.75.59.16.85.31,1.7.52,2.83-1.15-.75-2.13-1.4-3.84-2.52,1.96-1.01,3.35-1.72,4.73-2.44Z"/><path d="m147.5,176.12c-.19-.92-.39-1.84-.56-2.76-.17-.92-.32-1.85-.54-3.18,1.41-.34,2.77-.66,4-.95,1.64,1.95,1.42,3.32-.49,4.58-.91.6-1.6,1.52-2.39,2.3,0,0,0,.01,0,.01Z"/><path d="m357.09,62.69c.54-1.05,1.08-2.11,1.62-3.16,1.61-2.19,3.16-1.73,4.68.1,0,0,.09-.11.09-.12-1.84,3.44-3.88,4.46-6.39,3.18Z"/><path d="m396.59,64.89c-1.67.85-3.34,1.69-5.05,2.56-.83-1.38-1.4-2.34-1.98-3.29q3.79-2.54,7.1.82s-.08-.09-.08-.09Z"/><path d="m443.41,52.24c-1.58-.58-3.16-1.15-4.73-1.73.05-.31.1-.62.16-.93,2.98-.44,5.96-.88,8.94-1.32.14.33.28.66.42.99-1.62,1.01-3.23,2.02-4.85,3.04,0,0,.07-.05.07-.05Z"/><path d="m75.22,224.6c1.33.44,2.42.79,3.68,1.2.06.81.12,1.72.19,2.75h-7.43c1.42-1.58,2.43-2.7,3.56-3.96Z"/><path d="m479.49,47.58c2.11-.11,4.37-1.77,6.22.63-.36.65-.6,1.69-1.11,1.86-1.27.41-2.67.57-4.01.51-.64-.03-1.48-.66-1.8-1.25-.19-.35.44-1.15.7-1.75Z"/><path d="m469.45,47.95c1.45-.16,2.95-.62,4.33-.39,1.14.2,2.15,1.2,3.14,1.94.05.04-.61,1.5-.93,1.49-1.41-.03-2.93-.1-4.19-.66-.94-.42-1.54-1.61-2.3-2.45-.01,0-.06.06-.06.06Z"/><path d="m222.5,136.89c-.95-3.44,2.24-3.61,3.95-4.32,1.55-.65,3.11.53,3.11,2.86-2.47.46-4.82.91-7.18,1.35l.12.11Z"/><path d="m164.72,262.46c1.9-1.36,3.68-2.54,5.35-.53.48.58.07,2.92-.56,3.24-2.35,1.21-3.62-.52-4.79-2.71Z"/><path d="m174.19,206.96c-1.37.63-2.69,1.51-4.13,1.78-.7.13-1.62-.86-2.43-1.35,1.09-.93,2.05-2.2,3.3-2.67.83-.31,2.08.53,3.15.85l.12,1.38Z"/><path d="m238.65,68.41c-1.47-1.81-2.39-2.94-3.32-4.08.83-.65,2.15-2.02,2.42-1.84,1.08.74,2.02,1.86,2.61,3.04.2.4-.79,1.39-1.72,2.88Z"/><path d="m430.29,57.77q-4.33,1.73-6.18-1.3c2.9-2.98,4.93-2.55,6.18,1.3Z"/><path d="m196.39,193.28c-1.58.95-2.71,2-3.09,1.78-1.23-.72-2.19-1.91-3.25-2.92.76-.66,1.81-2.03,2.24-1.86,1.28.51,2.32,1.62,4.1,3Z"/><path d="m342.27,42.15c-3.38.82-6.18,1.5-9.82,2.38.87-1.39,1.21-2.6,1.98-3.02,2.43-1.31,4.94-1.36,7.84.64Z"/><path d="m212.36,145.83c-.89-.83-1.78-1.66-3.07-2.85,1.55-.99,3.08-1.96,4.72-3.01.53,1.8.94,3.16,1.49,5.03-.81.18-2.03.46-3.26.74,0,0,.11.1.11.1Z"/><path d="m94.27,140.82c.98,1.43,2.12,2.37,2.01,3.14-.12.89-1.67,2.44-2.01,2.3-1.23-.52-2.2-1.63-3.28-2.51.89-.79,1.77-1.58,3.27-2.93Z"/><path d="m392.09,53.27c.25-.5.5-.99.75-1.49,1.48-.52,2.94-1.1,4.45-1.5.16-.04.6,1,.91,1.53,0,0,.08-.1.08-.1-1.71.96-3.4,1.94-5.15,2.81-.11.06-.68-.82-1.04-1.26Z"/><path d="m279.94,54.51h-4.96c-.96-3.12.52-4.31,3.04-4.54.62,1.48,1.22,2.9,1.91,4.54Z"/><path d="m432.87,44.06c.59.24,1.17.48,1.76.73-1.5,2.15-3.69,3.04-6.19,3.16-.37.02-.79-.84-1.19-1.29l-.03.08c1.93-.8,2.65-4.13,5.65-2.68Z"/><path d="m269.31,108.92s.09.03.09.03c-.18,1.05-.36,2.1-.6,3.48.15.06.73.28,1.3.51-.1.28-.19.55-.29.83-1.82-.64-3.65-1.28-5.47-1.92-.02-.52-.03-1.03-.05-1.55l5.02-1.38Z"/><path d="m130.02,208.64c2.43-1.73,3.49-5.17,6.97-1.9-.86.56-1.64.91-2.21,1.48-.49.49-.73,1.21-1.31,2.22-.78-.41-1.89-.99-3.45-1.81Z"/><path d="m243.17,265.85c-1.65,1.51-2.69,2.55-3.88,3.4-.12.09-1.69-1.42-1.6-1.56.76-1.19,1.66-2.34,2.73-3.25.22-.19,1.32.65,2.76,1.4Z"/><path d="m205.47,180.77c-1.46-1.76-2.38-2.87-3.3-3.98.73-.6,1.8-1.86,2.13-1.69,1.13.6,2.18,1.57,2.87,2.65.22.34-.79,1.46-1.7,3.01Z"/><path d="m466.21,48.14c2.3-.02,4.4.26,4.99,3.21-2.83,1.25-5.15,1.27-6.35-2.15.48-.38.97-.76,1.46-1.14,0,0-.1.08-.1.08Z"/><path d="m302.58,45.36c1.94-1.59,3.88-3.19,6.29-5.16.57,3.45.34,5.23-2.85,4.9-1.1-.11-2.23.09-3.36.16,0,0-.08.1-.08.1Z"/><path d="m169.51,197.11c1.33,1.4,2.36,2.29,3.06,3.39.14.23-.99,1.26-1.54,1.92-1.12-.94-2.28-1.83-3.28-2.88-.1-.1.86-1.2,1.76-2.43Z"/><path d="m507.83,47.99c-.52-.87-1.05-1.75-1.72-2.87,2.75-.06,5.55-1.22,7.41,2.82h-5.75s.05.05.05.05Z"/><path d="m264.09,99.24q.04-4.47,4.42-4.33c.6,2.61.43,2.78-4.42,4.33Z"/><path d="m413.89,24.29c-.7.79-1.41,1.58-2.11,2.37-1.36,0-2.72,0-4.27,0,.33-1.08.53-1.75.74-2.41,0,0-.06.1-.06.1,1.89-.98,3.78-1.99,5.7-.05Z"/><path d="m473.53,27.05c-3.11,1.64-5.54,1.32-7.87-1.91,3.16.26,5.57.47,7.97.67-.03.42-.06.83-.1,1.25Z"/><path d="m304.63,37.26c2.73-3.66,6.18-4.4,8.78-2.13-2.85.69-5.5,1.33-8.78,2.13Z"/><path d="m295.61,84.23c.44-1,.88-2.01,1.42-3.25h3.77c.32,2.59-2.13,4.13-5.12,3.15,0,0-.07.09-.07.09Z"/><path d="m347.02,22.96c1.22-1.01,2.16-1.79,2.82-2.33,1.57,1.02,3,1.96,4.91,3.21-2.82-.21-5.27,2.19-7.73-.88Z"/><path d="m359.43,23.6c-1.02,3.34-4.81,4.18-8.85,1.84,3.09-.64,5.86-1.22,8.85-1.84Z"/><path d="m188.93,69.52c-1.16,1.28-2.32,2.57-4.19,4.63-.4-2.25-1.17-4.17-.72-4.52,1.08-.84,2.73-.94,4.15-1.34.25.41.5.82.75,1.22Z"/><path d="m456.45,50.78c-2.63,1.09-5.17,1.09-7.86-.32,2.61-2.3,5.83-2.04,7.79.38,0,0,.07-.06.07-.06Z"/><path d="m458.77,50.33c1.33-.3,2.71-.96,3.99-.8,1.05.12,1.99,1.2,2.99,1.86-.11.32-.23.65-.34.97-1.6.21-3.2.43-4.89.65-.57-.97-1.11-1.87-1.64-2.76,0,0-.1.09-.1.09Z"/><path d="m193.13,141.14c-.32-2.09-.56-3.6-.76-4.91h5.17c.44,3.04-2.79,2.86-4.41,4.91Z"/><path d="m115.79,139.92c-.18,1.69-.29,2.71-.47,4.36-1.45-2.03-5.12,1.02-5.01-3.48,1.72-.28,3.41-.55,5.48-.88Z"/><path d="m66.97,165.36c.14,1.65.22,2.56.36,4.26-1.58-.48-2.9-.69-3.97-1.32-.43-.25-.5-2.08-.4-2.11,1.23-.38,2.53-.56,4.02-.83Z"/><path d="m266.67,58.22c-1.25,2.35-3.06,2.28-5.78.82,2.16-1.5,4.05-2.81,6.15-4.28-.18,1.37-.33,2.47-.47,3.56,0,0,.1-.1.1-.1Z"/><path d="m507.78,47.94c-2.36.3-4.95,2.1-6.8-1.02-.17-.17-.33-.33-.5-.5,3.04-2.34,5.26-.75,7.34,1.55.01.01-.03-.03-.03-.03Z"/><path d="m483.45,34.37c-3.31,0-6.62.03-9.93-.05-.34,0-.97-.73-.91-.99.11-.48.63-1.22.98-1.22,1.12,0,2.26.23,3.38.46,2.08.42,4.15.89,6.22,1.34.09.15.17.31.26.46Z"/><path d="m135.8,286.4c1.23-1.01,2.13-1.96,2.29-1.85,1.18.82,2.21,1.86,3.28,2.83-.5.41-1.15,1.26-1.47,1.14-1.22-.43-2.33-1.17-4.1-2.12Z"/><path d="m329.16,70.7c.12-.37.24-.75.35-1.12,1.55-.41,3.09-.82,4.78-1.27-.24,2.94-.56,3.16-5.13,3.96v-1.57Z"/><path d="m327.68,83.31c.25.31.5.61.75.92-1.93,4.13-2.87,4.43-5.71,1.05,1.79-.71,3.38-1.34,4.96-1.97Z"/><path d="m483.8,11.79c.53.5,1.07.99,1.62,1.51-3.07.92-3.09.92-8.43-3,2.3.52,4.6,1.05,6.91,1.57,0,0-.1-.08-.1-.08Z"/><path d="m299.33,93.28c1.04.85,2.08,1.69,3.13,2.54-.14.3-.28.6-.43.9h-6.46c-.09-.36-.17-.73-.26-1.09,1.38-.75,2.75-1.5,4.12-2.26,0,0-.1-.09-.1-.09Z"/><path d="m481.9,17.91c-2.39.11-4.67.22-6.95.32q6.22-3.25,6.95-.32Z"/><path d="m260.22,115.01c1.18-1.38,2.11-2.48,3.15-3.7,1.07.92,1.75,1.5,2.65,2.27-1.28,1.09-2.43,2.07-3.7,3.15-.67-.55-1.29-1.06-2.09-1.72Z"/><path d="m326.87,36.63c2.1-.5,4.19-1,6.49-1.55-.78,4.08-.95,4.14-6.13,2.72-.12-.39-.24-.78-.36-1.17Z"/><path d="m341.85,27.39c-.78.6-1.5,1.61-2.34,1.73-1.84.27-3.74.08-5.61.08l-.04-1.66c2.68-.03,5.36-.07,8.04-.09,0,0-.05-.06-.05-.06Z"/><path d="m75.72,175.91c1.19-.49,2.35-1.23,3.58-1.39.72-.09,1.55.77,2.33,1.2-.7.61-1.35,1.63-2.12,1.74-1.16.17-2.42-.3-3.63-.5-.05-.35-.11-.7-.16-1.05Z"/><path d="m55.41,103.47c-1.68-1.9-3.04-3.21-4.06-4.75-.33-.49.26-1.59.43-2.41.85.63,2.08,1.08,2.47,1.92.62,1.33.69,2.92,1.16,5.23Z"/><path d="m290.77,47c.93-1.69,2.34-2.34,4.22-1.37.61.32.98,1.12,1.45,1.7-1.79.28-3.57.55-5.36.83-.1-.38-.21-.77-.31-1.15Z"/><path d="m18.73,81.69c-2.2.82-4.15,1.55-6.69,2.5,3.17-5.17,3.52-5.3,6.69-2.5Z"/><path d="m100.77,250.88c1.01.92,1.69,1.54,2.38,2.16-.82.68-1.6,1.78-2.49,1.89-.65.08-1.45-1.17-2.18-1.83.66-.64,1.32-1.27,2.3-2.21Z"/><path d="m500.48,46.43c.17.17.33.33.5.5-.36.65-.7,1.84-1.08,1.85-1.46.03-2.93-.31-4.4-.51.3-.73.61-1.47.92-2.21.01,0-.09.05-.08.04,1.38.1,2.75.21,4.13.32Z"/><path d="m26.8,136.53c-.98-1.1-1.69-1.89-2.4-2.68.7-.5,1.45-1.47,2.09-1.4.91.1,1.73.96,2.59,1.49-.64.73-1.29,1.47-2.27,2.59Z"/><path d="m25.84,229.88c-.75,1.39-1.5,2.79-2.25,4.18-.62-.48-1.23-.95-1.85-1.43.95-1.19,1.91-2.38,2.86-3.56.41.27.83.54,1.24.81Z"/><path d="m502.3,17.43c-2.1-.23-4.2-.46-6.29-.7.05-.55.1-1.11.16-1.66,2.09.13,4.19.26,6.28.39-.05.66-.1,1.32-.15,1.97Z"/><path d="m427.26,46.66c-1.99.98-3.98,1.95-5.98,2.93-.15-.36-.3-.72-.46-1.08,1.24-3.42,3.98-2.06,6.4-1.76,0,0,.03-.09.03-.09Z"/><path d="m446.1,22.42c-.27.27-.53.55-.8.82-1.98-.14-3.96-.27-5.95-.41.02-.41.05-.82.07-1.23,2.2,1.11,4.55-2.71,6.67.81Z"/><path d="m78.72,129.44c-1.08-1.5-1.82-2.38-2.32-3.37-.08-.16,1.15-1.31,1.3-1.22.95.59,1.86,1.31,2.55,2.18.14.18-.71,1.14-1.53,2.41Z"/><path d="m490.56,28.36c-1.66,3.09-2.99,3.3-6.03.84,1.81-.25,3.62-.5,6.03-.84Z"/><path d="m188.68,92.41c-1.51.21-3.02.47-4.54.53-.12,0-.29-1.44-.44-2.21,1.64.07,3.29.13,4.93.2.02.49.03.99.05,1.48Z"/><path d="m151.99,243.19c1.02,1.25,1.85,1.97,2.23,2.88.13.31-.84,1.09-1.31,1.65-.85-.76-1.78-1.46-2.47-2.34-.12-.15.76-1.09,1.55-2.19Z"/><path d="m230.62,132.24c.98-1.19,1.95-2.37,3.15-3.82.6,1.33,1.05,2.34,1.52,3.39-1.5.48-2.85.91-4.19,1.35-.16-.3-.32-.61-.48-.91Z"/><path d="m463.81,0c1.99.4,3.97.79,6.2,1.24-2.14,2.5-3.82,2.22-6.2-1.24Z"/><path d="m408.25,24.25c-1.8,2.79-4.22,1.77-6.62.87,2.04-1.21,4.16-1.93,6.56-.76,0-.01.07-.11.07-.11Z"/><path d="m61.46,190.55h5.37c1.07,3.69-3.37,1.08-3.98,2.67-.48-.93-.98-1.9-1.39-2.67Z"/><path d="m131.08,126.79c.15-2.01-1.11-4.49,2.51-4.45v4.23c-.75.07-1.61.14-2.51.23Z"/><path d="m155.12,204.65c-1.19.83-2.07,1.75-2.37,1.59-.92-.5-1.61-1.4-2.39-2.15.53-.52,1.23-1.57,1.56-1.46.96.3,1.78,1.07,3.2,2.02Z"/><path d="m77.98,98.45c.54-3.46,2.18-2.55,3.51-1.73.56.35.74,1.33,1.09,2.02-1.52-.09-3.04-.19-4.6-.29Z"/><path d="m483.9,11.87c-.25-.44-.49-.87-1.23-2.18,2.8.62,4.83,1.06,6.86,1.51-.07.45-.14.89-.21,1.34-1.84-.25-3.67-.5-5.51-.74,0,0,.1.08.1.08Z"/><path d="m450.18,52.87c1.46-.05,2.96.11,4.35-.22.75-.18,1.29-1.22,1.93-1.87,0,0-.07.06-.07.06.72.59,1.43,1.17,2.66,2.17-3.51.68-6.22,2.3-8.87-.15,0,0,0,0,0,0Z"/><path d="m383.59,28.82c.78-1.08,1.29-1.79,1.58-2.19,1.77.61,3.25,1.12,4.74,1.63.02.19.04.37.07.56h-6.38Z"/><path d="m287.91,52.11c-.69,1.14-1.38,2.28-2.17,3.59-1.56-.28-3.06-.55-5.09-.92,2.76-1.01,4.88-1.79,7.27-2.66Z"/><path d="m74.09,265.01c.71-1.01,1.42-2.02,2.29-3.25.81.66,1.55,1.27,2.84,2.33-1.9.71-3.31,1.23-4.73,1.76l-.4-.84Z"/><path d="m181.58,63.62c1.33-.38,2.66-.75,4-1.13.11.56.43,1.55.31,1.6-1.22.55-2.5.95-3.76,1.39-.18-.62-.36-1.24-.55-1.86Z"/><path d="m426.11,51.64c1.54-.29,3.08-.58,5.66-1.06-.83,1.29-1.21,2.43-1.66,2.46-1.37.08-2.76-.27-4.15-.45.05-.32.1-.63.14-.95Z"/><path d="m83.03,67.49c1.53.61,3.05,1.22,4.58,1.82-2.56,2.22-3.98,1.3-5.11-.47.18-.45.36-.9.53-1.35Z"/><path d="m398.2,51.82c1.67-.48,3.34-.97,5.01-1.45.14.5.29.99.43,1.49-1.81.6-3.62,1.2-5.83,1.93.26-1.11.37-1.6.48-2.07,0,0-.09.1-.09.1Z"/><path d="m222.38,136.78c.63.77,1.26,1.54,1.89,2.3-.08.26-.16.52-.24.77-1.53-.22-3.06-.43-4.59-.65-.1-.35-.21-.71-.31-1.06,1.12-.42,2.24-.83,3.36-1.25,0,0-.12-.12-.12-.12Z"/><path d="m211.25,82.55c-1.76-.21-3.14-.38-4.53-.55.03-.35.06-.69.1-1.04,1.25.1,2.51.2,3.49.27.23-.83.47-1.7.71-2.58.33.09.65.17.98.26-.22,1.08-.44,2.17-.74,3.64Z"/><path d="m369.24,29.72l-4.85,1.52-.52-1.68c1.66-.41,3.31-.81,4.97-1.22.13.46.27.92.4,1.38Z"/><path d="m48.16,120.22c1.13.54,2.26,1.07,3.34,1.69.05.03-.57,1.4-.63,1.38-1.18-.38-2.31-.87-3.46-1.34.25-.57.5-1.15.75-1.72Z"/><path d="m99.07,108.5c1.38.55,2.77,1.1,4.89,1.94-3.2,1.78-4.43.85-5.29-.95.13-.33.27-.66.4-.98Z"/><path d="m58.43,308.93c-1.11.94-1.72,1.85-2.24,1.8-.75-.07-1.43-.84-2.14-1.31.48-.57.92-1.55,1.45-1.6.73-.08,1.54.54,2.92,1.12Z"/><path d="m89.65,104.34c.86,1.01,1.39,1.63,1.92,2.25-.73.46-1.43,1.17-2.21,1.27-.4.05-1.32-.96-1.33-1.5,0-.54.83-1.09,1.61-2.02Z"/><path d="m148.41,176.11c1.32-.37,2.64-.75,3.98-1.04.05-.01.47,1.21.42,1.24-1.23.6-2.5,1.12-3.77,1.66-.21-.62-.42-1.23-.63-1.85Z"/><path class="cls-1" d="m57.93,221.73c1.36,0,2.74-.13,4.08.03.55.07,1.38.71,1.44,1.18.1.72-.19,2.04-.61,2.17-1.67.52-3.45.67-5.19.96-.16-.43-.32-.87-.48-1.3,1.19-.78,2.38-1.57,3.46-2.28-.69-.21-1.68-.52-2.66-.83,0,0-.05.06-.05.06Z"/><path class="cls-1" d="m418.84,34.89h12.57c.05.11.11.23.16.34-3.78.31-7.57.53-11.33.95-3.8.42-7.57,1.05-11.36,1.58-.04-.41-.09-.82-.13-1.23,1.81-.13,3.63-.14,5.41-.43,1.61-.26,3.17-.84,4.76-1.27,0,0-.08.06-.08.06Z"/><path class="cls-1" d="m387.52,40.64c3.88-.66,7.75-1.33,11.63-1.99-1.14.34-2.28.68-3.64,1.09.86.55,1.64,1.05,2.43,1.56-3.57-.22-7-.44-10.42-.65Z"/></svg>