<?xml version="1.0" encoding="utf-8"?>
<!-- Generator: Adobe Illustrator 27.5.0, SVG Export Plug-In . SVG Version: 6.00 Build 0)  -->
<svg version="1.1" id="Calque_1" xmlns="http://www.w3.org/2000/svg" xmlns:xlink="http://www.w3.org/1999/xlink" x="0px" y="0px"
	 viewBox="0 0 509.99 26.74" style="enable-background:new 0 0 509.99 26.74;" xml:space="preserve">
<style type="text/css">
	.st0{fill:#FFFFFF;}
</style>
<g id="AjtofY_00000054959175323484412820000007778611366313810320_">
	<g>
		<path class="st0" d="M407.85,13.88c1.05,0.01,1.53,2.07,2.93,0.83c-0.55-1.41-1.59-1.69-2.89-0.78c-0.95,0.08-1.35,0.7-1,1.48
			c0.19,0.42,0.92,0.59,1.4,0.87c0.09-0.12,0.18-0.25,0.27-0.37C408.32,15.23,408.09,14.56,407.85,13.88z M370.05,7.55
			c0.14-0.35,0.33-0.7,0.39-1.07c0.07-0.37,0.15-0.95-0.03-1.09c-0.27-0.2-0.77-0.09-1.4-0.12c0.45,0.95,0.76,1.6,1.07,2.25
			c0.39,0.72,0.71,2.13,1.73,1.07c0.86-0.89,1.74-0.88,2.7-1.09c0.49-0.11,0.97-0.24,1.55-0.39c-0.41-0.81-0.72-1.44-1.15-2.29
			C373.9,7.13,371.81,7.03,370.05,7.55z M122.3,6.95c0.07-0.32,0.25-0.89,0.2-0.92c-0.42-0.18-0.88-0.25-1.16-0.32
			c-0.07-0.42-0.13-0.78-0.2-1.14c-0.54,0.26-1.15,0.44-1.59,0.81c-0.44,0.36-0.72,0.92-1.19,1.56c0.88,0.15,1.72,0.29,2.55,0.44
			c-0.46,0.06-0.93,0.07-1.37,0.21c-0.6,0.19-1.21,0.42-1.72,0.78c-0.09,0.06,0.19,0.98,0.51,1.21c0.33,0.23,0.91,0.09,1.42,0.12
			c0.15-0.31,0.32-0.68,0.45-0.95c0.77,0.44,1.45,0.83,2.43,1.39c-1.05,0.4-1.89,0.72-2.73,1.04c1.21,0.41,2.33,2.07,3.62,0.24
			c1.26,0.4,1.23-0.58,1.03-1.19C124.12,8.95,123.75,7.56,122.3,6.95z M196.77,15.02c-0.26,1.92,1.2,2.95,1.9,4.38
			c0.16-0.08,0.31-0.17,0.47-0.25C198.36,17.77,197.57,16.39,196.77,15.02c-1.24-0.53-2.44-1.34-3.72-1.54
			c-1.64-0.25-2.42,1.05-1.75,2.58c0.35,0.81,0.8,1.58,1.04,2.04c1.08,0.24,1.88,0.41,2.97,0.65c-0.84,0.65-1.39,1.07-1.94,1.49
			c0.03,0.12,0.06,0.25,0.09,0.37c1.46-0.29,2.92-0.58,4.39-0.86c0-0.16,0.01-0.32,0.01-0.48c-0.5-0.15-1-0.31-1.59-0.49
			c0.25-0.48,0.47-0.91,0.69-1.34c-0.13-0.09-0.26-0.18-0.39-0.27c-0.07,0.36-0.15,0.72-0.22,1.08c-0.17-0.14-0.34-0.28-0.51-0.42
			C195.65,16.74,195.47,15.67,196.77,15.02z M348.84,4.33c0.35,1.02,0.69,2.04,1.08,3.17c0.49,0.19,1.15,0.45,1.81,0.7
			c-2.08,0.1-2.08,0.1-2.91,1.2c1.01,1.66,2.4,2.75,4.42,2.79c1.63,0.03,2.39-1.03,1.77-2.51c-0.51-1.21-1.16-2.36-1.72-3.48
			c-1.07,0.19-1.85,1.42-3.12,0.21c0.67-0.38,1.21-0.69,1.83-1.04c-0.27-0.89-0.55-1.82-0.92-3.04c-0.82,0.76-1.51,1.39-2.19,2.04
			c-0.57,0.64-1.13,1.27-1.74,1.96c0.24,0.47,0.49,0.97,0.74,1.46c0.1-0.02,0.2-0.04,0.31-0.06C348.41,6.6,348.62,5.47,348.84,4.33z
			 M269.49,1.36c-1.34,0.51-2.85,1.02-4.28,1.69c-0.35,0.17-0.74,1.02-0.61,1.32c0.91,2.02,1.85,4.04,3.01,5.92
			c0.85,1.37,2.33,1.98,3.98,1.9c1.46-0.07,2.19-1.14,1.63-2.44C272.05,7,270.79,4.28,269.49,1.36z M284.36,1.37
			c-1.3,0.5-2.84,1.01-4.3,1.7c-0.34,0.16-0.71,1.04-0.57,1.36c0.92,2.01,1.87,4.04,3.04,5.91c0.86,1.36,2.35,1.96,4,1.85
			c1.4-0.09,2.14-1.12,1.61-2.35C286.96,7.04,285.67,4.29,284.36,1.37z M254.61,1.38c-1.32,0.5-2.86,1.01-4.33,1.69
			c-0.34,0.16-0.69,1.04-0.55,1.36c0.92,2.01,1.87,4.03,3.05,5.9c0.89,1.42,2.44,2,4.14,1.84c1.32-0.13,1.96-1.13,1.45-2.33
			C257.19,7.04,255.91,4.28,254.61,1.38z M254.49,24.25c1.35-0.51,2.85-1.01,4.27-1.68c0.35-0.17,0.74-1.05,0.59-1.35
			c-1.05-2.16-2.01-4.42-3.47-6.29c-0.7-0.9-2.38-1.29-3.67-1.43c-1.32-0.15-2,1.1-1.47,2.35
			C251.93,18.59,253.17,21.31,254.49,24.25z M247.17,1.36c-1.31,0.5-2.81,1.01-4.24,1.68c-0.36,0.17-0.79,1.02-0.66,1.31
			c0.98,2.09,1.98,4.19,3.21,6.15c0.8,1.28,2.26,1.75,3.77,1.7c1.54-0.05,2.22-1.14,1.6-2.54C249.68,6.94,248.46,4.26,247.17,1.36z
			 M276.93,1.36c-1.26,0.48-2.68,1.07-4.13,1.57c-0.85,0.29-1.13,0.8-0.76,1.57c0.9,1.87,1.75,3.76,2.8,5.54
			c0.82,1.39,2.22,2.1,3.86,2.15c1.79,0.05,2.55-1.04,1.83-2.69C279.41,6.85,278.2,4.21,276.93,1.36z M262.06,1.37
			c-1.31,0.5-2.85,1.02-4.32,1.69c-0.34,0.15-0.74,0.95-0.61,1.21c1.04,2.17,1.98,4.45,3.42,6.34c0.7,0.92,2.36,1.35,3.65,1.51
			c1.42,0.18,2.12-1.05,1.54-2.4C264.58,6.97,263.34,4.25,262.06,1.37z M229.89,18.78c0.67,0.1,1.16,0.18,1.26,0.19
			c-0.13,0.77-0.36,1.34-0.3,1.87c0.09,0.77,0.45,1.51,0.59,2.27c0.16,0.84,0.61,1.09,1.36,0.82c1.25-0.44,2.53-0.85,3.72-1.42
			c0.32-0.15,0.65-0.97,0.51-1.26c-1.01-2.12-2.03-4.25-3.28-6.23c-0.81-1.27-2.29-1.69-3.79-1.59c-1.42,0.09-2.08,1.18-1.51,2.49
			C228.89,16.92,229.43,17.87,229.89,18.78z M202.52,1.37c-1.27,0.49-2.76,1.01-4.2,1.63c-0.33,0.14-0.54,0.58-0.8,0.88
			c0.4,0.19,0.78,0.43,1.2,0.55c0.22,0.06,0.5-0.11,0.75-0.17c0.02,0.1,0.04,0.21,0.07,0.31c-0.56,0.12-1.12,0.24-1.83,0.38
			c0.63,1.31,1.18,2.52,1.8,3.7c0.32,0.61,0.74,1.18,1.16,1.71c1.02,1.29,2.39,1.92,4.02,1.82c1.4-0.08,2.12-1.12,1.59-2.36
			C205.09,7.03,203.82,4.27,202.52,1.37z M246.81,23.48c0.29-0.07,0.79-0.26,1.3-0.31c0.59-0.06,1.2,0.09,1.77,0
			c1.76-0.29,2.49-0.97,2.03-2.03c-0.82-1.9-1.64-3.85-2.82-5.53c-0.67-0.96-1.97-1.65-3.13-2.03c-0.72-0.23-1.92,0.13-2.49,0.67
			c-0.36,0.34-0.15,1.57,0.14,2.26C244.56,18.78,245.66,20.99,246.81,23.48z M191.64,6.44c0.21,0.91,0.23,1.76,0.59,2.44
			c1.01,1.93,2.49,3.35,4.86,3.3c1.63-0.03,2.31-1.12,1.65-2.6c-0.56-1.26-1.21-2.48-1.85-3.71c-0.24-0.46-0.53-0.89-0.9-1.52
			c-0.1-0.71-0.25-1.87-0.43-3.17c-1.53,0.58-2.79,1.02-4.01,1.53c-0.66,0.28-1.82,0.3-1.41,1.45
			C190.47,5.12,190.23,6.74,191.64,6.44z M224.89,1.35c-1.4,0.55-2.96,1.13-4.49,1.8c-0.26,0.11-0.57,0.65-0.5,0.87
			c0.95,2.85,1.94,5.69,4.3,7.47c0.79-0.39,1.39-0.69,1.91-0.95c0.12,0.69,0.2,1.13,0.28,1.57c0.6-0.12,1.33-0.08,1.76-0.41
			c0.36-0.28,0.49-1,0.51-1.54c0.01-0.38-0.34-0.76-0.5-1.15C227.09,6.5,226.02,3.99,224.89,1.35z M288.76,3.5
			c-0.68-0.14-1.14-0.23-1.6-0.32c-0.05,0.53-0.3,1.15-0.11,1.57c0.84,1.84,1.71,3.67,2.76,5.39c0.85,1.39,2.27,2.04,3.91,2.05
			c1.63,0.02,2.44-1.08,1.74-2.52c-0.68-1.4-0.83-3.46-3.62-3c0.75-0.55,1.12-0.84,1.48-1.1c-0.41-1.47-0.8-2.85-1.23-4.37
			C290.79,2.03,288.97,1.62,288.76,3.5z M211.59,22.78c0.78,1.45,1.82-0.01,2.74-0.35c0.25-0.09,0.35-1.31,0.14-1.86
			c-0.62-1.55-1.35-3.08-2.19-4.52c-0.96-1.63-2.41-2.61-4.38-2.6c-1.62,0-2.32,1.07-1.75,2.56c0.66,1.73,1.84,2.95,3.81,3.71
			c-0.67,0.25-1.12,0.42-1.55,0.59c0.23,0.85,0.48,1.6,0.64,2.37c0.14,0.67,0.26,1.38,1.15,1.13
			C210.65,23.66,211.02,23.2,211.59,22.78z M282.79,13.08c-2.12,0.24-2.94,1.45-2.13,3.19c0.81,1.74,1.71,3.44,2.46,5.21
			c0.53,1.24,1.54,1.8,2.84,1.39c0.42-0.13,0.91-0.06,1.35-0.13c0.55-0.09,1.19-0.09,1.61-0.4c0.26-0.19,0.35-0.95,0.19-1.3
			c-0.93-1.95-1.78-3.98-3.03-5.71C285.34,14.33,283.91,13.82,282.79,13.08z M239.73,1.37c-1.14,0.43-2.44,0.93-4.19,1.6
			c1.07,0.33,1.69,0.53,2.32,0.72c0.02,0.11,0.05,0.21,0.07,0.32c-0.97,0.22-1.93,0.44-3.31,0.76c1.24,2.06,2.22,4.19,3.68,5.92
			c0.74,0.87,2.29,1.3,3.53,1.45c1.5,0.18,2.2-1.08,1.59-2.49C242.24,6.95,241.03,4.28,239.73,1.37z M299.24,1.38
			c-1.34,0.51-2.91,1.06-4.43,1.74c-0.29,0.13-0.61,0.9-0.48,1.16c1.53,3.1,1.79,7.34,6.57,7.61c0.61,0.03,1.42,0.04,1.8-0.31
			c0.35-0.32,0.51-1.24,0.31-1.72C301.85,7.05,300.56,4.31,299.24,1.38z M275.09,13.41c-1.83-0.06-2.66,1.11-1.9,2.76
			c0.45,0.99,1.22,1.87,1.47,2.9c0.68,2.85,2.27,4.17,5.23,3.67c0.19-0.03,0.39,0.08,0.58,0.05c1.05-0.16,1.72-0.67,1.19-1.8
			c-0.85-1.83-1.71-3.66-2.73-5.39C278.1,14.21,276.72,13.53,275.09,13.41z M182.94,5.19c0.56,1.18,1.02,2.11,1.45,3.05
			c0.52,1.15,1.17,2.03,2.65,1.93c0.35-0.02,0.74,0.4,1.11,0.62c-0.05,0.11-0.1,0.22-0.15,0.34c-0.58-0.16-1.15-0.32-1.73-0.49
			c-0.05,0.18-0.09,0.36-0.14,0.55c1.23,0.34,2.45,0.89,3.7,0.97c1.38,0.09,2.12-1.09,1.6-2.32c-1.2-2.79-2.48-5.55-3.79-8.46
			c-1.25,0.52-2.7,1.12-4.15,1.72c0.47,0.39,1.01,0.4,1.5,0.55c0.35,0.11,0.64,0.42,0.92,0.61C184.84,4.58,183.99,4.85,182.94,5.19z
			 M296.6,22.28c0.02-0.27,0.15-0.62,0.04-0.83c-1.18-2.25-2.29-4.55-3.66-6.68c-0.43-0.67-1.56-1.09-2.43-1.21
			c-0.78-0.11-1.88,0.11-2.37,0.63c-0.38,0.4-0.24,1.57,0.04,2.24c0.82,1.94,1.82,3.8,2.78,5.76c0.35-0.1,0.81-0.23,1.25-0.36
			c0.25,0.44,0.47,0.84,0.47,0.85C294.24,22.52,295.39,22.4,296.6,22.28z M324.36,12.06c1.61-1.17,1.48-2.18-0.51-4.89
			c-0.8,0.54-1.6,1.08-2.51,1.7c0.23-1.07,0.42-1.99,0.62-2.93c0.42,0.15,0.75,0.27,1.37,0.5c-0.54-1.85-1.01-3.43-1.53-5.22
			c-1.7,0.86-3.35,1.69-5.14,2.6c0,3.8,4.14,8.82,7.02,8.13c-0.07-0.41-0.15-0.82-0.22-1.23c0.05-0.01,0.1-0.03,0.14-0.04
			C323.83,11.11,324.06,11.53,324.36,12.06z M215.15,13.53c-1.69,0.12-2.21,0.89-1.38,2.81c0.85,1.95,1.74,3.87,2.6,5.81
			c0.45,1.01,1.13,1.66,2.29,1.36c1.1-0.29,2.19-0.67,3.25-1.09c0.19-0.08,0.38-0.61,0.31-0.85c-0.76-2.58-1.75-5.07-3.77-6.96
			c-0.36-0.34-0.92-0.45-1.74-0.84c0.51,1.17,0.82,1.88,1.21,2.76c-0.88,0.07-1.68,0.12-2.49,0.18c-0.05-0.12-0.1-0.24-0.15-0.36
			c0.27-0.18,0.51-0.43,0.8-0.53c0.35-0.12,0.74-0.1,1.08-0.14C216.47,14.94,215.92,14.36,215.15,13.53z M314.96,2.53
			c-1.41,0.63-1.56,0.56-1.95-0.75c-0.74,0.29-1.48,0.56-2.2,0.88c-0.48,0.21-0.94,0.48-1.42,0.72c-0.18,0.09-0.18,0.09,0.54,1.54
			c0.04,0.09,0.09,0.19,0.08,0.28c-0.29,2.2,1.14,3.7,2.34,5.15c0.8,0.97,2.18,1.47,3.29,2.18c0.02-0.18,0.03-0.36,0.05-0.55
			c0.36-0.48,0.72-0.96,1.02-1.36c-0.31-0.78-0.6-1.52-0.9-2.26c0.15-0.07,0.29-0.13,0.44-0.2c0.53,1.05,1.05,2.1,1.77,3.51
			C317.98,8.06,315.04,5.86,314.96,2.53z M274.21,22.21c0.18-2.45-2.65-7.5-4.74-8.33c-0.8-0.32-1.75-0.48-2.59-0.38
			c-1.02,0.13-1.83,0.9-1.37,2c0.98,2.34,2.14,4.6,3.14,6.7C270.57,22.21,272.34,22.21,274.21,22.21z M199.57,15.47
			c-1.21,1.32,0.04,2.04,0.63,3.19c0.24-0.61,0.38-0.98,0.53-1.37c1.02,0.79,1.94,1.51,2.86,2.22c-0.04,0.06-0.09,0.13-0.13,0.19
			c-0.95-0.24-1.9-0.47-3.14-0.78c0.29,0.72,0.46,1.11,0.6,1.51c0.17,0.46,0.33,0.93,0.47,1.4c0.41,1.48,1.3,2.04,2.79,1.68
			c0.62-0.15,1.19-0.48,1.81-0.64c1.42-0.37,1.68-1.19,1.05-2.42c-0.17-0.34-0.35-0.67-0.5-0.95c-0.66,0.07-1.21,0.14-1.77,0.2
			c-0.02-0.11-0.05-0.22-0.07-0.33c0.52-0.15,1.03-0.3,1.62-0.47c-1.08-2.35-2.06-4.72-4.91-5.37c-1.15-0.27-2.25-0.2-2.92,1.06
			C198.9,14.91,199.23,15.19,199.57,15.47z M210.18,1.43c-1.49,0.52-2.97,1.07-4.47,1.55c-0.85,0.27-0.94,0.85-0.63,1.5
			c0.92,1.91,1.8,3.84,2.88,5.66c0.84,1.41,2.29,2,3.92,2.05c1.25,0.04,2.28-0.87,1.92-1.86c-0.73-2.01-1.33-4.18-3.53-5.22
			c-1.3,1.14-1.44,1.05-2.19-1.33C209.68,3.5,210.64,2.4,210.18,1.43z M308.37,12.55c0.82-0.48,1.68-0.71,1.96-1.23
			c0.24-0.44-0.2-1.24-0.33-1.88c-0.05-0.23,0.01-0.5-0.1-0.69c-0.57-0.94-1.01-2.4-1.8-2.64c-1.22-0.37-1.56-0.94-1.71-1.99
			c-0.16-1.07-0.73-1.96-1.87-1.89c-0.79,0.04-1.61,0.49-2.32,0.93c-0.29,0.18-0.55,0.91-0.41,1.19c1.03,2.12,1.99,4.31,3.34,6.22
			C305.78,11.49,307.21,11.87,308.37,12.55z M264.79,16.77c-1.04-1.94-2.46-3.28-4.74-3.35c-1.57-0.04-2.45,1.03-1.88,2.34
			c1.05,2.43,2.22,4.81,3.36,7.28c1.74-0.38,3.54-0.76,5.55-1.2c-0.49-1.24-0.95-2.41-1.39-3.52c-0.76,0.15-1.32,0.26-1.93,0.38
			c-0.36-0.54-0.69-1.04-1.16-1.75C263.47,16.89,264.07,16.83,264.79,16.77z M328.89,6.79c-0.72-0.76-1.27-1.27-1.72-1.85
			c-0.22-0.28-0.26-0.7-0.39-1.05c0.38,0.04,0.79-0.01,1.13,0.12c0.73,0.28,1.42,0.64,2.13,0.97c0.07-0.14,0.14-0.28,0.21-0.41
			c-0.29-1.08-0.58-2.16-0.79-2.91c-1.19,0.28-2.2,0.51-3.21,0.76c-0.29,0.07-0.56,0.2-0.84,0.31c-1.72,0.67-1.88,1.64-0.48,2.96
			c0.1,0.1,0.24,0.23,0.25,0.35c0.11,2.65,1.64,4.42,3.75,5.68c1.11,0.66,2.52,0.97,3.59-0.15c1.04-1.09,0.1-2.12-0.4-3.1
			c-0.99-1.95-1.61-2.1-3.27-0.72C328.87,7.25,328.89,6.83,328.89,6.79z M298.5,22.34c0.56,0,1.25,0.03,1.93-0.01
			c1-0.05,2.87-2.16,2.78-3.1c-0.21-2.13-3.12-5.46-5.22-5.71c-0.78-0.09-1.88,0.14-2.37,0.67c-0.37,0.39-0.21,1.57,0.07,2.24
			C296.5,18.38,297.49,20.25,298.5,22.34z M228.11,19.74c0.91-0.82-0.01-3.17-2.05-4.78c-0.63,0.48-1.26,0.96-1.89,1.43
			c-0.08-0.1-0.16-0.19-0.24-0.29c0.36-0.69,0.72-1.38,1.13-2.16c-0.67-0.21-1.11-0.49-1.51-0.45c-0.79,0.09-1.72,0.15-2.29,0.6
			c-0.74,0.58-0.47,1.49-0.06,2.34c1.14,2.37,2.2,4.77,3.17,6.91c0.53,0,1.08-0.01,1.64,0.01c0.13,0,0.29,0.2,0.39,0.16
			c1.09-0.43,2.16-0.88,3.24-1.33C229.16,21.41,228.68,20.64,228.11,19.74z M237.04,18.21c1.78-1.71,4.34-2.07,4.93-0.7
			c-0.2,0.03-0.38,0.07-0.55,0.07c-0.54-0.01-1.08-0.04-1.62-0.06c0.23,0.6,0.36,1.28,0.73,1.78c0.32,0.45,0.9,0.73,1.37,1.07
			c0.37,0.26,0.75,0.48,1.18,0.75c-2.24,1.61-3.31-0.93-5.08-1.32c0.36,1.35,0.56,2.47,0.98,3.5c0.14,0.35,0.92,0.73,1.29,0.63
			c1.19-0.3,2.31-0.86,3.48-1.25c0.89-0.29,1.05-0.89,0.72-1.61c-0.77-1.7-1.48-3.46-2.47-5.04c-0.99-1.57-2.41-2.74-4.47-2.62
			c-1.54,0.1-2.21,1.14-1.62,2.53C236.23,16.72,236.65,17.44,237.04,18.21z M177.3,2.94c-0.72,0.37-1.26,0.65-1.91,0.98
			c0.45,0.48,0.77,0.83,0.9,0.97c0,0.84-0.2,1.53,0.04,2.01c0.63,1.27,1.37,2.52,2.22,3.65c0.92,1.22,2.29,1.72,3.8,1.63
			c1.03-0.06,2.04-0.61,1.72-1.74c-0.39-1.41-0.61-3.04-2.44-3.69c-0.67-0.24-1.1-1.15-1.74-1.87c0.52-0.21,0.93-0.38,1.33-0.55
			c-0.11-0.15-0.21-0.3-0.32-0.46c-0.56-0.28-1.13-0.56-1.77-0.88c0.29,1.73-0.08,2.37-1.34,2.64C177.63,4.8,177.48,3.94,177.3,2.94
			z M346.6,7.29c-0.63,0.29-0.9,0.34-1.06,0.5c-0.82,0.82-1.52,0.82-2.31-0.11c-0.81-0.96-1.75-1.82-2.66-2.75
			c2.16-0.32,3.25,1.36,4.74,2.41c0.01-1.08,0.15-2.3-0.4-2.84c-1.3-1.3-3.11-1.69-4.94-1.53c-0.83,0.07-1.39,0.58-0.96,1.53
			c0.69,1.53,1.34,3.08,2.13,4.55c0.41,0.76,0.97,1.63,1.69,2.01c1.1,0.57,2.39,0.82,3.63,1.04c0.31,0.06,1.08-0.58,1.05-0.81
			C347.33,10.01,346.96,8.76,346.6,7.29z M152.88,4.4c0.48,0.83,0.76,1.3,1.03,1.77c0.93,1.62,1.65,3.43,2.86,4.8
			c0.7,0.78,2.19,1.08,3.35,1.16c1.37,0.09,2.04-1.08,1.48-2.34c-0.67-1.52-1.5-2.97-2.3-4.52c-0.26,0.55-0.47,0.98-0.75,1.55
			c-0.35-0.37-0.9-0.87-0.86-0.92c0.4-0.53,0.89-0.98,1.24-1.34c-0.58-0.4-1.18-0.8-2.18-1.49c0.11,1.01,0.18,1.69,0.28,2.58
			C155.82,5.29,154.54,4.9,152.88,4.4z M213.27,6.75c0.93,1.42,1.57,2.9,2.65,3.88c0.91,0.82,2.3,1.3,3.55,1.49
			c1.38,0.21,2.26-0.98,1.73-2.18c-1.03-2.36-2.23-4.65-3.55-7.38c-0.59,1.24-1.07,2.26-1.56,3.29c-0.47-0.27-0.83-0.48-1.2-0.69
			c0.15,0.18,0.29,0.36,0.44,0.54C214.71,6.02,214.09,6.34,213.27,6.75z M188.52,19.09c0.14,0.43,0.29,0.74,0.35,1.07
			c0.18,1.07,0.88,1.29,1.83,1.26c0.53-0.01,1.06,0.14,1.75,0.25c0.49-1.36-1.77-1.3-1.6-2.55c0.16-0.39,0.35-0.89,0.19-1.18
			c-0.58-1.03-1.09-2.22-1.98-2.92c-0.98-0.78-2.3-1.36-3.54-1.52c-1.56-0.21-2.33,1.09-1.67,2.55c0.65,1.43,1.43,2.81,2.19,4.27
			C186.87,19.89,187.65,19.51,188.52,19.09z M180.6,13.84c-1.1-0.16-1.98-0.46-2.81-0.35c-0.57,0.08-1.17,0.64-1.55,1.15
			c-0.14,0.19,0.48,0.82,0.51,1.26c0.08,1.27,0.25,2.37,1.83,2.63c0.32,0.05,0.55,0.6,0.88,0.98c-0.52,0.18-0.79,0.27-1.08,0.37
			c0.34,0.91,0.62,1.67,0.9,2.43c0.12-0.01,0.24-0.01,0.36-0.02c0.03-0.51,0.05-1.02,0.1-1.53c0.05-0.52,0.02-1.1,0.25-1.55
			c0.13-0.25,0.69-0.37,1.06-0.38c0.19-0.01,0.4,0.34,0.66,0.59c-0.45,0.17-0.79,0.29-1.45,0.53c0.87,0.94,1.59,1.7,2.52,2.71
			c0.61-1.47,1-2.42,1.41-3.4c-0.42-0.15-0.72-0.25-1.03-0.36c1.15-1.81-0.94-2.41-1.32-3.62c-0.11-0.36-1.28-0.39-2-0.58
			C179.89,14.63,180.12,14.38,180.6,13.84z M332.84,7.36c1,2.58,2.26,3.97,4.33,4.65c1.04,0.34,2.24,0.47,2.82-0.53
			c0.34-0.6,0.19-1.74-0.16-2.42c-0.86-1.7-1.93-3.3-2.96-4.9c-0.43-0.67-1-1.25-1.51-1.87c-0.14,0.09-0.28,0.18-0.42,0.26
			c0.15,1,0.01,2.19,0.52,2.95c0.54,0.81,1.69,1.21,2.71,1.88c-0.45,0.33-0.74,0.53-0.9,0.65c-0.91-0.88-1.71-1.66-2.36-2.29
			C334.08,6.38,333.53,6.81,332.84,7.36z M229.37,8.76c1.14,2.08,2.57,3.41,4.85,3.43c1.62,0.02,2.36-1.06,1.73-2.54
			c-0.44-1.04-1.21-1.98-1.49-3.05c-0.55-2.17-2.31-2.61-4.23-3.43c0.05,0.98-0.05,1.78,0.17,2.49
			C230.79,6.95,230.96,8.07,229.37,8.76z M382.05,3.88c-0.4,0.24-0.72,0.55-1.09,0.62c-0.81,0.15-1.64,0.17-2.47,0.24
			c-0.81,0.06-1.38,0.25-0.96,1.27c0.14,0.35,0.1,0.78,0.15,1.17c0.26,2.27,2.24,4.58,4.48,4.9c0.81,0.11,2-0.14,2.47-0.69
			c0.42-0.48,0.09-1.62,0.09-2.46c-0.15,0.07-0.3,0.14-0.45,0.21c-0.73-0.21-1.45-0.42-2.18-0.62c0-0.14,0.01-0.28,0.01-0.42
			c0.48-0.23,0.97-0.46,1.46-0.69C383.04,6.16,382.54,5,382.05,3.88z M135.91,9.31c-0.21-0.02-0.42-0.04-0.63-0.07
			c1.03-1.54,0.38-2.41-1.11-2.94c0.11-0.14,0.22-0.29,0.33-0.43c0.52,0.21,1.04,0.43,1.64,0.67c0.49-0.55,0.65-1.02-0.35-1.27
			c-1.01-0.25-2.02-0.53-3.17-0.83c-0.36,0.29-0.9,0.75-1.57,1.3c0.66,1.23,1.29,2.52,2.02,3.74c0.84,1.42,2.05,2.42,3.74,2.68
			c1.08,0.16,2.09,0.04,2.68-1.19c-0.65-1.65-1.31-3.35-2.1-5.37C136.77,7.12,136.34,8.22,135.91,9.31z M150.37,9.84
			c0.14-0.63,0.33-1.06,0.3-1.47c-0.06-1.15,1.2-2.94-1.33-3.02c-0.06,0-0.1-0.25-0.19-0.28c-0.41-0.17-1.03-0.56-1.22-0.41
			c-0.62,0.49-1.66,1.42-1.52,1.75c0.71,1.69,1.73,3.24,2.7,4.93c0.64-0.47,0.96-0.7,1.39-1.01c0,0.61,0,1.04,0,1.62
			c0.76,0.09,1.49,0.29,2.2,0.24c1.24-0.09,2.01-1.09,1.57-2.15c-0.65-1.56-1.5-3.03-2.27-4.54c-0.14,0.03-0.28,0.06-0.42,0.09
			c-0.09,1.29-0.18,2.58-0.28,4C151.27,9.57,150.94,9.67,150.37,9.84z M356.95,10.36c0.97,1.18,2.23,1.85,3.73,1.76
			c0.63-0.04,1.52-0.47,1.77-0.98c0.22-0.45-0.29-1.25-0.51-1.89c-0.06-0.16-0.34-0.25-0.4-0.41c-0.74-2.1-1.3-2.48-3.28-2.17
			c-1.63,0.25-2.5-0.88-1.9-2.5c0.16-0.44,0.45-0.82,0.67-1.2c-1.67-0.99-2.34,0.37-3.32,1.22c0.64,1.44,1.26,2.81,1.77,3.94
			c1.07,0.09,1.86,0.16,2.88,0.25C357.82,9.13,357.41,9.71,356.95,10.36z M318.4,19.34c-1.13-1.72-1.89-3.35-3.09-4.55
			c-0.78-0.78-2.15-1.19-3.31-1.31c-1.58-0.17-2.3,1.1-1.64,2.54c0.31,0.67,0.7,1.31,0.98,1.99c0.39,0.94,1.05,1.35,2.06,1.34
			C314.92,19.32,316.43,19.34,318.4,19.34z M126.07,10.05c0.9,1.22,2.04,2.01,3.36,2.11c0.31,0.02,0.73-0.06,0.92-0.26
			c0.13-0.13-0.06-0.57-0.13-0.87c-0.08-0.35-0.17-0.69-0.26-1.04c0.14-0.06,0.29-0.12,0.43-0.18c0.39,0.57,0.78,1.14,1.35,1.96
			c0.13-0.64,0.39-1.11,0.26-1.42c-0.61-1.41-1.15-2.91-2.04-4.14c-1.26-1.74-1.43-1.66-2.94-0.54c-0.47-0.36-0.87-0.66-1.39-1.06
			c-0.14,0.74-0.22,1.14-0.33,1.66c-0.5-0.14-0.88-0.25-1.5-0.42c0.8,1.06,1.3,2.17,2.95,0.57C126.47,7.88,126.3,8.79,126.07,10.05z
			 M139.68,7.96c0.03,0.11,0.03,0.23,0.09,0.29c1.03,1.09,1.03,3.5,3.52,2.75c0.15-0.05,0.54,0.18,0.58,0.34
			c0.54,2.05,1.67,0.07,2.46,0.38c0.13-0.66,0.54-1.41,0.34-1.95c-0.5-1.36-1.26-2.62-2.05-4.17c-0.49,0.72-0.84,1.22-1.08,1.58
			c-0.46,0-0.91,0-1.36,0c-2.05,0.32-1.48-1.25-1.56-2.55c-0.79,0.18-1.49,0.35-2.62,0.61c0.94,0.89,1.63,1.55,2.37,2.26
			C140.12,7.65,139.9,7.8,139.68,7.96z M330.67,14.69c-1.19-0.42-2.37-1.07-3.62-1.22c-1.74-0.21-2.53,1.09-1.77,2.69
			c0.65,1.38,1.4,2.71,2.1,4.06c0.07-0.14,0.14-0.27,0.21-0.41c0.52,0.2,1.11,0.3,1.56,0.61c0.86,0.61,1.74,0.3,2.01-0.73
			c0.19-0.71,0.52-1.38,0.79-2.07c0.12,0.03,0.25,0.05,0.37,0.08c-0.29-0.51-0.58-1.02-0.84-1.48c-0.52,0.05-0.95,0.08-1.39,0.12
			C330.23,15.91,330.38,15.49,330.67,14.69z M368.79,19.03c0.24-0.63,0.65-1.14,0.57-1.56c-0.38-2.01-3.13-4.11-5.17-4.05
			c-1.3,0.03-2.15,0.8-2.04,1.84c0.16,1.52,1.42,2.92,2.49,2.77c1.12-0.16,1.49,0.13,1.44,1.1c-0.58-0.15-1.16-0.31-1.74-0.46
			c-0.09,0.11-0.18,0.22-0.27,0.33c0.24,0.42,0.64,1.21,0.69,1.19c0.92-0.39,1.79-0.88,2.67-1.35c-0.05-0.12-0.11-0.24-0.16-0.36
			C367.71,18.63,368.16,18.8,368.79,19.03z M310.79,19.69c-0.21-1.83-2.45-5.14-4.25-5.88c-1.41-0.59-2.29-0.53-3.22,0.25
			c0.46,0.21,0.89,0.4,1.29,0.58c-0.07,0.43-0.11,0.76-0.18,1.09c-0.06,0.31-0.16,0.61-0.24,0.92c-0.24-0.28-0.54-0.53-0.71-0.84
			c-0.21-0.39-0.32-0.83-0.47-1.25c-0.13,0.05-0.26,0.1-0.39,0.15c0.03,1.71,1.21,2.99,1.94,4.42c0.18,0.36,0.98,0.41,1.61,0.64
			c0.17-0.68,0.31-1.22,0.41-1.63c0.6,0.32,1.14,0.7,1.74,0.9C309.16,19.34,310.05,19.51,310.79,19.69z M325.63,19.32
			c-1.15-2.56-2.21-4.96-5.03-5.66c-0.77-0.19-1.73-0.01-2.49,0.29c-0.34,0.14-0.67,1.11-0.52,1.5c0.56,1.44,1.34,2.79,2.07,4.24
			c0.31-0.24,0.55-0.43,0.83-0.66c-0.76-0.72-1.68-1.3-0.74-2.52c0.33,0.66,0.61,1.22,0.84,1.67c1.02-0.17,1.9-0.31,2.77-0.46
			c0.03,0.1,0.07,0.21,0.1,0.31c-0.32,0.35-0.63,0.69-0.96,1.05C323.41,20.8,324.46,19.58,325.63,19.32z M163.06,10.38
			c0.7-0.48,1.05-0.72,1.52-1.04c0.71,0.93,1.37,1.78,1.91,2.49c0.85-0.11,1.68-0.22,2.8-0.37c-0.61-0.43-0.88-0.62-0.91-0.64
			c0.2-0.59,0.61-1.15,0.47-1.47c-0.7-1.59-1.55-3.12-2.35-4.67c-0.15,0.04-0.3,0.08-0.45,0.12c0.12,0.76,0.25,1.51,0.36,2.16
			c-0.46-0.15-1.2-0.62-1.45-0.43c-1.41,1.06-2.26,0.62-2.92-1.34c-0.24,0.96-0.36,1.44-0.48,1.92c0.44,0.08,0.75,0.15,1.07,0.21
			c-0.14,0.08-0.27,0.15-0.41,0.23C162.47,8.4,162.72,9.25,163.06,10.38z M174.77,11.3c1.55-0.3,1.98-1.18,1.35-2.39
			c-0.23-0.44-0.5-0.85-0.67-1.31c-0.43-1.16-1.24-1.24-2.26-0.91c-0.62,0.2-1.25,0.35-1.81,0.5c-0.4,0.67-0.81,1.36-1.26,2.1
			c1.22,1.87,2.79,3.15,5.23,2.83c0.16-0.02,0.29-0.18,0.48-0.3C175.46,11.65,175.19,11.51,174.77,11.3z M89.63,11.39
			c0.63-1.26,1.14-1.36,1.75-0.51c0.28,0.39,0.61,0.86,1.02,1.03c0.43,0.18,1.07,0.2,1.47,0c0.41-0.21,0.97-0.87,0.89-1.17
			c-0.25-0.88-0.61-1.91-1.27-2.45c-0.84-0.68-2-0.6-3.23,0.51c0.24-0.87,0.44-1.35,0.5-1.86c0.04-0.33-0.14-0.68-0.22-1.02
			c-0.37,0.11-0.8,0.13-1.1,0.34c-0.66,0.48-1.26,1.05-2.06,1.73c0.51,0.44,1.11,0.96,1.52,1.32C89.13,9.99,89.32,10.52,89.63,11.39
			z M106.84,7.15c0.53-0.29,0.79-0.43,1.06-0.58c-0.01-0.13-0.02-0.25-0.03-0.38c-1.09-0.15-2.18-0.3-3.64-0.49
			c0.39,0.83,0.66,1.4,1.01,2.15c-0.81,0.24-1.65,0.5-2.51,0.76c0.82,1.23,1.67,2.81,3.55,3.33c0.19-0.7,0.34-1.27,0.5-1.84
			c1.05,0.39,1.9,0.71,3.03,1.13C109.49,9.15,108.93,7.74,106.84,7.15z M173.8,15.95c-0.62-0.73-1.16-1.42-1.77-2.04
			c-0.85-0.86-1.86-0.65-2.68-0.04c-0.33,0.24-0.45,0.98-0.4,1.46c0.07,0.65,0.37,1.29,0.64,1.91c0.15,0.34,0.39,0.83,0.67,0.9
			c1.28,0.31,2.62,1.07,3.79-0.26c0.38,0.41,0.69,0.74,1.01,1.07c0.15-0.07,0.3-0.14,0.45-0.21c-0.22-0.52-0.3-1.27-0.69-1.51
			c-0.53-0.33-1.31-0.28-2.13-0.42C173.01,16.55,173.39,16.26,173.8,15.95z M385.14,7.58c-0.05,0.11-0.09,0.23-0.14,0.34
			c0.89,0.16,1.79,0.33,2.68,0.49c-0.03,0.16-0.05,0.33-0.08,0.49c-0.63-0.05-1.25-0.1-1.95-0.16c0.95,2.19,2.66,3.16,4.81,3.49
			c0.84-1.5,1.37-2.86-0.44-3.18c-0.27-1.02-0.24-2.01-0.66-2.26c-0.58-0.35-1.52-0.28-2.26-0.14
			C386.42,6.79,385.79,7.26,385.14,7.58z M365.92,8.9c0.07,0.13,0.14,0.27,0.21,0.4c-0.6-0.36-1.19-0.76-1.82-1.06
			c-0.21-0.1-0.63-0.05-0.78,0.1c-0.13,0.14-0.12,0.59,0.01,0.77c1.14,1.63,2.42,3.17,4.64,3.05c0.63-0.03,1.76-0.64,1.75-0.97
			c-0.02-1.01-0.36-2.07-0.81-3c-0.15-0.3-1.05-0.46-1.51-0.33C367,8.02,366.48,8.53,365.92,8.9z M101.7,9.07
			c-0.08-0.2-0.15-0.39-0.23-0.59c-0.58,0.28-1.16,0.55-1.74,0.83c-0.46-0.83-0.98-1.77-1.51-2.74c-0.45,0.52-0.76,0.89-1.07,1.25
			c-0.06-0.15-0.13-0.3-0.19-0.45c-0.54,0.07-1.07,0.14-1.61,0.21c0.25,0.4,0.5,0.81,0.75,1.21c0.22,0.35,0.43,0.71,0.68,1.04
			c0.4,0.56,0.82,1.1,1.35,1.79c0.39-0.6,0.61-0.92,0.82-1.24c0.11,0.07,0.23,0.14,0.34,0.21c-0.09,0.46-0.19,0.92-0.35,1.71
			c0.99-0.18,1.94-0.17,2.71-0.55c0.37-0.19,0.39-1.09,0.57-1.67c-0.39-0.08-0.78-0.16-1.17-0.25c-0.06-0.02-0.1-0.12-0.19-0.22
			C101.15,9.41,101.42,9.24,101.7,9.07z M333.8,16.88c-0.1,0.08-0.2,0.17-0.3,0.25c0.27,0.6,0.53,1.2,0.8,1.79
			c0.68-0.4,1.36-0.8,2.23-1.31c-0.23,0.58-0.39,0.97-0.54,1.36c0.6-0.82,2.36,0.03,2.39-1.78c-0.47,0.27-0.77,0.44-1.06,0.61
			c-0.12-0.06-0.24-0.12-0.36-0.19c0.28-0.73,0.56-1.47,0.89-2.32c-1.03-1.58-3.24-2.43-4.61-1.57c-0.96,0.61-1.13,1.42-0.71,2.05
			c0.86-0.07,1.87-0.36,2.02-0.12c0.35,0.56,0.28,1.38,0.42,2.35C334.37,17.42,334.09,17.15,333.8,16.88z M443.05,7.89
			c-1.73,0.27-3.07,0.47-4.56,0.7c-0.22-0.29-0.63-0.81-1.04-1.33c-0.11,0.09-0.23,0.19-0.34,0.28c0.65,2.01,2.08,3.37,3.87,4.37
			c1.37,0.76,2.53,0.15,3.35-0.93c0.27-0.36-0.04-1.17-0.11-2.03c-0.92,0.64-1.48,1.03-2.04,1.42c-0.06-0.09-0.12-0.18-0.19-0.27
			C442.28,9.52,442.56,8.93,443.05,7.89z M158.3,15.04c-1.51-1.64-2.84-2.2-3.81-1.21c-1.59,1.62,0.25,2.8,0.68,4.22
			c0.64-0.3,1.19-0.56,1.69-0.79c0.05,0.66,0.09,1.23,0.15,2.15c0.67-0.96,1.07-1.52,1.29-1.83C158.3,16.74,158.3,16.11,158.3,15.04
			z M368.08,6.14c-1.17-3.13-3.7-3.89-5.58-1.62c0.36,0.44,0.72,0.89,1.03,1.29c-0.24,0.48-0.43,0.89-0.78,1.61
			c1.14-0.37,1.93-0.63,2.65-0.87c0.31,0.64,0.54,1.11,0.82,1.67C366.92,7.43,367.46,6.83,368.08,6.14z M142.15,15.09
			c-2.14,0.47-2.49,2.46-1.05,4.28c0.27-0.51,0.54-1.05,0.87-1.68c0.52,0.35,0.86,0.58,1.37,0.93c0.05-1.5,2.68-2.26,0.73-4.04
			c-1.4-1.27-3.21-1.51-4.42-0.6C140.42,14.33,141.2,14.67,142.15,15.09z M152.82,18.39c-0.1-0.55-0.24-0.92-0.21-1.28
			c0.11-1.28-0.74-2.9-2.05-3.1c-1.09-0.16-2.63-0.9-3.24,0.98c-0.14,0.42-0.41,0.8-0.62,1.19c0.57,0.3,1.2,0.94,1.7,0.85
			C150.11,16.74,151.46,17.36,152.82,18.39z M378.91,19.09c2.27-0.34,2.61-2.53,3.87-3.79c-1.83-2.13-4.22-2.52-5.32-1.01
			c0.81,0.67,1.63,1.33,2.36,1.93c-0.29,0.68-0.54,1.29-0.8,1.9c-0.27-0.43-0.5-0.8-0.73-1.16c-0.14,0.08-0.27,0.16-0.41,0.24
			C378.23,17.82,378.57,18.45,378.91,19.09z M166.66,14.7c-0.62,0.39-1.04,0.65-1.81,1.13c0.45-0.8,0.68-1.22,0.91-1.63
			c-1.88-1.03-3.48-1.05-4.21-0.02c-0.82,1.15,0.11,2.04,0.56,2.97c0.06,0.12,0.51,0.05,1.06,0.08c-0.65-0.7-1.02-1.1-1.46-1.57
			c2.73-0.44,4.45,1.75,6.68,2.34c0.08-0.14,0.16-0.28,0.24-0.43C168,16.65,167.37,15.73,166.66,14.7z M113.21,11.44
			c0.25,0.1,0.56,0.14,0.78,0.31c0.87,0.66,1.94,0.74,2.52-0.04c0.5-0.66,0.8-1.71,0.16-2.68c-0.51-0.78-0.83-1.67-1.34-2.45
			c-0.19-0.28-0.67-0.37-1.02-0.55c-0.07,0.14-0.14,0.28-0.21,0.42c0.32,0.18,0.64,0.35,0.98,0.54
			C113.99,8.05,113.99,8.05,113.21,11.44z M355.15,17.36c1.27-1.17,2.09-1.31,3.11-0.53c0.44,0.34,1.34,0.07,2.03,0.08
			c-0.15-0.5-0.3-1-0.44-1.49c-0.03-0.09-0.08-0.18-0.09-0.28c-0.2-1.55-1.55-1.54-2.57-1.65c-0.71-0.07-1.89,0.28-2.13,0.79
			C354.73,14.99,355.07,16.02,355.15,17.36z M108.08,18.15c0.87-0.97,0.3-2.34-1.3-3.66c-1.83-1.5-3.8-1.42-5.03,0.25
			c0.52,0.43,1.04,0.87,1.8,1.49c-0.69-1.61-0.69-1.61,0.44-2.22c0.47,1.46,0.53,3.15,2.44,3.79
			C106.95,17.57,107.67,16.62,108.08,18.15z M375.7,9.49c0.11,0.49,0.2,0.89,0.3,1.28c-1.61-2.14-3.08-2.45-4.38-0.81
			c1,1.48,3.2,2.54,4.57,2.18c1.06-0.28,1.62-0.95,1.36-2.07C377.27,8.9,376.46,9.23,375.7,9.49z M390.05,15.65
			c0.1-0.26,0.2-0.52,0.3-0.78c-1.18-0.48-2.33-1.17-3.55-1.36c-0.67-0.1-1.94,0.51-2.09,1.05c-0.21,0.73,0.25,1.77,0.69,2.52
			c0.16,0.28,1.06,0.17,1.63,0.15c0.15,0,0.42-0.45,0.4-0.47c-0.3-0.33-0.64-0.63-0.99-0.91c-0.1-0.09-0.26-0.11-0.44-0.19
			c0.24-0.33,0.45-0.64,0.79-1.11c0.61,0.51,1.19,1,1.9,1.59c0-0.48,0-0.82,0-1.03C389.15,15.29,389.6,15.47,390.05,15.65z
			 M354.25,16.99c-1.09-1.9-2.45-3.66-5.02-3.52c-0.72,0.04-1.4,0.8-2.1,1.24c0.09,0.16,0.18,0.32,0.27,0.48
			c0.44-0.13,0.89-0.22,1.31-0.4c0.18-0.08,0.29-0.32,0.43-0.49c0.16,0.27,0.44,0.53,0.45,0.8c0.01,0.44-0.16,0.88-0.22,1.2
			C351.04,16.54,352.65,16.77,354.25,16.99z M453.93,8.11c-0.39,0.34-0.77,0.67-1.54,1.35c1.14,0.57,2.57,0.87,2.67,1.42
			c0.3,1.62,1.38,0.96,1.89,1.2c0.28-0.82,0.5-1.47,0.77-2.27c-1.05-1.95-1.05-1.95-2.06-0.49C455.11,8.94,454.56,8.55,453.93,8.11z
			 M76.24,10.35c-0.15-0.6-0.24-1.26-0.49-1.85c-0.15-0.34-0.55-0.58-0.84-0.86c-0.27,0.89-0.82,1.71-0.61,2.19
			c1.31,3.03,3.29,1.99,5.46,0.78c-0.52-0.4-0.86-0.66-0.95-0.72c0.22-0.51,0.38-0.88,0.55-1.26c-0.1-0.02-0.2-0.05-0.3-0.07
			C78.23,9.08,77.41,9.6,76.24,10.35z M451.04,12.17c0.1-0.17,0.21-0.34,0.31-0.52c-0.67-0.93-1.3-1.88-2.02-2.77
			c-0.88-1.08-1.63-0.23-2.17,0.37c-0.5,0.57-0.97,1.43,0.03,2.01c0.79,0.46,1.66,1.44,2.47,0.28
			C450.12,11.76,450.58,11.97,451.04,12.17z M112.79,13.71c-1.11,0.24-2.63-1.02-3.42,0.71c-0.64,1.42,0.52,2.38,1.13,3.55
			c0.81-0.89,1.48-1.62,2.28-2.5C112.79,15.17,112.79,14.48,112.79,13.71z M426.47,14.53c-0.78-0.29-1.16-0.32-1.35-0.53
			c-0.96-1.03-1.99-0.72-2.87-0.05c-0.35,0.26-0.61,1.27-0.41,1.5c0.75,0.84,1.71,1.5,2.82,2.43c-0.29-0.87-0.48-1.45-0.62-1.86
			C424.83,15.54,425.51,15.12,426.47,14.53z M128.67,14.07c-0.79-0.24-1.59-0.49-2.48-0.76c0.06,0.45,0.09,0.68,0.14,1.08
			c-0.31-0.27-0.48-0.54-0.67-0.56c-0.37-0.03-0.76,0.08-1.14,0.13c0.06,0.39,0.12,1.11,0.18,1.11c0.96,0.01,0.67,0.75,0.83,1.25
			c0.12,0.37,0.41,0.68,0.81,1.33c0.36-0.89,0.58-1.42,0.75-1.82c0.44,0.07,0.87,0.14,1.22,0.2
			C128.45,15.3,128.55,14.75,128.67,14.07z M463.17,11.28c0.01,0.16,0.02,0.33,0.04,0.49c1.03,0.58,2.15,0.74,3.11-0.06
			c1.65-1.37-0.52-2.33-0.36-4.02c-0.87,0.87-1.45,1.46-2.04,2.04c0.64,0.38,1.27,0.77,2.14,1.28
			C464.99,11.12,464.08,11.2,463.17,11.28z M176.39,20.84c-0.35,0.62-0.62,1.11-0.89,1.6c0.07,0.09,0.14,0.19,0.21,0.28
			c0.64-0.4,1.28-0.81,1.96-1.24c-0.3-0.75-0.55-1.38-0.76-1.92c-2.41-0.67-3.08,0.92-3.67,2.61c0.48,0.11,0.96,0.21,1.56,0.34
			c0-0.64,0-1.29,0-2.09C175.39,20.58,175.84,20.7,176.39,20.84z M311.13,21.57c-0.03-0.19-0.06-0.39-0.1-0.58
			c-1.47,0-2.95-0.04-4.42,0.04c-0.26,0.01-0.57,0.47-0.71,0.79c-0.06,0.13,0.29,0.64,0.44,0.63c1.49-0.09,2.98-0.24,4.46-0.41
			C310.93,22.02,311.02,21.73,311.13,21.57z M161.92,20.55c-0.9-1.31-1.59-2.31-2.42-3.51c-0.69,1.03-1.23,1.82-1.91,2.85
			C159.37,19.69,160.58,21.13,161.92,20.55z M392.89,13.42c-0.04,0.16-0.08,0.31-0.11,0.47c0.41,0.34,0.82,0.67,1.51,1.23
			c-0.69,0.51-1.27,0.94-1.84,1.37c0.09,0.11,0.18,0.22,0.27,0.32c1.54-0.4,2.84-1.14,3.59-3.02
			C395.17,13.67,394.03,13.55,392.89,13.42z M401.79,13.51c-1.05,1.01-0.51,1.64,0.54,2.22c0.26-0.28,0.49-0.53,0.96-1.04
			c-0.12,0.75-0.18,1.16-0.25,1.58c0.6,0.27,1.19,0.53,2.17,0.96C404.18,15.53,404.29,13.47,401.79,13.51z M340.24,22.02
			c-0.23-1.86-1.31-1.46-2.39-1.09c0.13-0.5,0.24-0.88,0.4-1.5c-0.77,0.06-1.33,0.11-1.9,0.16c0.86,0.72-0.69,2.28,0.95,2.42
			C338.22,22.08,339.14,22.02,340.24,22.02z M369.67,14.49c0.8,0.28,1.43,0.45,2.01,0.72c0.53,0.24,0.98,0.65,1.51,0.89
			c0.48,0.22,1.02,0.31,1.54,0.46c0.04-0.16,0.07-0.31,0.11-0.47c-0.66-0.24-1.33-0.47-1.64-0.58c-0.27-0.86-0.3-1.76-0.66-1.91
			C371.58,13.18,370.53,13.31,369.67,14.49z M461.47,10.23c0.41,0.43,0.8,0.84,1.19,1.24c0.28-1.13,0.34-1.96,0.26-2.77
			c-0.04-0.4-0.36-0.77-0.55-1.15c-0.27,0.33-0.6,0.63-0.79,1.01c-0.13,0.25-0.06,0.6-0.09,1c-0.52-0.46-0.93-0.82-1.34-1.18
			C460.44,9.21,460.46,10.31,461.47,10.23z M88.52,13.25c-0.61,0.37-1.01,0.62-1.52,0.93c1.74,1.66,3.75,1.36,5.9,1.57
			c-1-1.34-1.01-1.21-2.42-1.31C89.82,14.38,88.62,14.86,88.52,13.25z M468.66,9.29c1.61,0.63,2.99,1.17,4.37,1.71
			c0.11-0.1,0.21-0.19,0.32-0.29c-0.54-0.22-1.08-0.43-1.63-0.65c0.11-0.15,0.23-0.29,0.34-0.44c0.53-0.23,1.06-0.47,1.67-0.74
			c-0.25-0.41-0.46-0.76-0.48-0.79C471.73,8.49,470.43,8.83,468.66,9.29z M370.81,3.28c0.21,0.84,0.47,1.86,0.77,3.02
			c0.52-1.17,0.93-2.11,1.35-3.06c-0.72-0.27-1.34-0.72-1.91-0.67c-0.63,0.06-1.22,0.58-1.83,0.9c0.16,0.23,0.31,0.47,0.47,0.7
			C370.01,3.9,370.35,3.64,370.81,3.28z M312.43,20c0.23,0.77,0.28,1.52,0.66,2.02c0.27,0.36,0.98,0.52,1.5,0.52
			c0.35,0,1.01-0.54,0.97-0.67c-0.14-0.47-0.43-1.04-0.83-1.24C314.08,20.3,313.29,20.22,312.43,20z M411,9.83
			c0.69,0.85,0.22,2.72,2.19,2.27c0.26-0.06,0.6-0.92,0.49-1.3C413.33,9.48,412.5,9.21,411,9.83z M85.48,9.44
			c-0.4-0.99-0.71-1.55-1.77-1.18c-0.98,0.34-2.03,0.47-3.1,0.71c0.3,0.42,0.54,0.97,0.96,1.26c0.25,0.18,1.1,0.05,1.14-0.1
			C83.18,8.53,84.25,9.14,85.48,9.44z M110.2,7.99c1.32,1.24,2.13,0.38,2.64-0.48c0.28-0.46-0.05-1.28-0.1-1.94
			c-0.19-0.03-0.39-0.06-0.58-0.08C111.52,6.3,110.88,7.12,110.2,7.99z M53.86,10.93c1.26-0.31,2.39-0.59,3.87-0.96
			c-0.65-0.79-1.01-1.24-1.69-2.07C56.18,9.99,53.34,8.43,53.86,10.93z M430.52,13.89c-0.04-0.17-0.08-0.34-0.12-0.51
			c-0.26,0.43-0.52,0.86-0.88,1.47c1.39,0.1,2.5,0.14,3.59,0.27c0.27,0.03,0.48,0.39,0.74,0.57c0.29,0.2,0.6,0.38,0.91,0.56
			c-0.01-0.41,0.13-1.03-0.08-1.19c-0.42-0.32-1.02-0.42-1.56-0.56C432.26,14.27,431.38,14.09,430.52,13.89z M228.72,7.74
			c1.07-0.28,1.65-1.05,0.88-1.57c-0.96-0.65-1.24-1.3-1.21-2.33c0.01-0.24-0.36-0.5-0.56-0.75c-0.16,0.05-0.32,0.11-0.48,0.16
			C227.11,4.88,228.2,6.19,228.72,7.74z M409.63,6.46c-0.17,0.02-0.34,0.05-0.51,0.07c0.72,1.52-0.09,1.98-1.31,2.17
			c0.45,0.63,0.79,1.11,1.15,1.57c0.11,0.14,0.29,0.22,0.66,0.48c0.12-0.71,0.2-1.25,0.3-1.78c0.06-0.3,0.11-0.62,0.22-0.9
			c0.13-0.32,0.53-0.74,0.44-0.91C410.4,6.84,409.96,6.68,409.63,6.46z M359.29,17.48c0.6,0.97,0.86,1.63,1.33,2.07
			c0.36,0.33,0.99,0.36,1.5,0.53c0.04-0.54,0.29-1.45,0.1-1.55C361.39,18.07,360.44,17.86,359.29,17.48z M397.78,10.93
			c0.15-0.01,0.29-0.01,0.44-0.02c0.02-0.3,0.07-0.59,0.06-0.89c-0.01-0.34-0.08-0.68-0.12-1.02c0.14-0.05,0.28-0.1,0.42-0.15
			c0.37,0.63,0.75,1.26,1.12,1.88c0.14-0.08,0.27-0.17,0.41-0.25c-0.53-0.87-0.99-1.79-1.64-2.55c-0.16-0.18-0.97,0.2-1.58,0.35
			C397.24,9.31,397.51,10.12,397.78,10.93z M405.57,10.86c-0.82-1.01-0.89-1.01-1.73-0.02c0.8,1.12,1.39,1.38,2.56,0.85
			c0.46-0.21,0.74-0.79,1.1-1.2c-0.11-0.1-0.22-0.2-0.34-0.3C406.63,10.41,406.09,10.63,405.57,10.86z M481.28,10.21
			c0.14-0.04,0.28-0.08,0.41-0.11c-0.36-0.65-0.6-1.73-1.09-1.86c-0.8-0.22-1.97-1.33-2.65,0.1C479.1,8.98,480.19,9.59,481.28,10.21
			z M416.45,7.13c-0.75,1.11-1.49,2.08-0.32,2.8c0.81-0.46,1.53-0.87,2.41-1.37C417.56,7.89,417.04,7.54,416.45,7.13z M393.31,8.91
			c1.09,2.29,1.8,2.59,3.33,1.6c-0.65-1.51-1.03-1.63-2.33-0.77C394.04,9.51,393.76,9.28,393.31,8.91z M486.17,9.44
			c-0.67,0.61-1.21,1.11-1.74,1.6c0.47,0.31,1.05,0.96,1.37,0.85c0.79-0.26,1.46-0.88,2.18-1.36c-0.12-0.17-0.24-0.34-0.36-0.51
			c-0.43,0.29-0.87,0.58-1.35,0.9C486.24,10.48,486.21,10.09,486.17,9.44z M120.23,13.88c-2.06-0.7-2.98-0.38-3.59,1.14
			c0.57-0.18,1.01-0.32,1.52-0.48c-0.93,1.38,0.47,1.42,1.05,2.02C118.36,15.37,118.32,14.44,120.23,13.88z M333.99,5.27
			c-0.56-0.68-0.99-1.19-1.42-1.7c-0.3,0.37-0.93,0.84-0.85,1.08c0.23,0.68,0.75,1.26,1.16,1.87
			C333.19,6.17,333.49,5.83,333.99,5.27z M356.78,19.56c0.29,0.66,0.52,1.18,0.78,1.78c0.75-0.14,1.43-0.27,2.15-0.41
			C359.06,19.42,359.06,19.42,356.78,19.56z M500,8.77c1.35,0.48,2.38,0.85,3.65,1.3c-0.29-0.94-0.53-1.73-0.74-2.42
			C501.85,8.05,501.01,8.38,500,8.77z M369.93,22.08c0.15-0.61,0.38-1.37,0.51-2.14c0.02-0.15-0.42-0.55-0.51-0.51
			c-0.55,0.24-1.08,0.54-1.57,0.89c-0.08,0.06,0.05,0.56,0.21,0.73C368.9,21.39,369.33,21.64,369.93,22.08z M376.02,3.56
			c0.16,0.58,0.31,1.15,0.46,1.69c0.91-0.53,1.69-0.98,2.47-1.44C378.49,3.02,378.49,3.02,376.02,3.56z M199.54,20.44
			c-0.82,0.17-1.54,0.33-2.33,0.49c0.05,1.22,0.7,1.81,2.03,1.71C199.36,21.77,199.46,21.02,199.54,20.44z M82.75,10.99
			c-0.01,0.19-0.03,0.38-0.04,0.57c0.92,0.21,1.84,0.48,2.77,0.6c0.3,0.04,0.65-0.28,0.97-0.44c-0.25-0.24-0.48-0.68-0.75-0.7
			C84.72,10.94,83.74,10.99,82.75,10.99z M360.03,5.3c0.23-2.42-1.41-1.04-2.24-1.22c-0.17-0.04-0.65,0.44-0.61,0.54
			C357.77,6.16,358.95,5.4,360.03,5.3z M383.62,3.1c0.06,0.74,0.1,1.19,0.13,1.45c0.58,0.23,1.02,0.4,1.75,0.69
			c-0.06-0.85-0.12-1.58-0.17-2.31C384.79,2.99,384.24,3.04,383.62,3.1z M113.86,14.11c-0.13,0.06-0.26,0.13-0.38,0.19
			c0.05,0.31,0,0.82,0.16,0.89c1.79,0.84,0.42,1.07-0.39,1.5c1.14,1.17,1.7,0.11,2.53-0.48C115.08,15.45,114.47,14.78,113.86,14.11z
			 M477.17,11.74c1.32,0.2,2.35,0.36,3.38,0.51c0.03-0.16,0.05-0.32,0.08-0.48c-0.7-0.11-1.4-0.23-2.1-0.34
			c0.01-0.09,0.01-0.18,0.02-0.27c0.37-0.12,0.73-0.24,1.35-0.44c-0.63-0.38-1.04-0.62-1.52-0.91
			C478.01,10.4,477.7,10.89,477.17,11.74z M135.41,14c-1.57-0.86-2.33-0.83-3.51,0.14C132.61,14.97,133.75,14.93,135.41,14z
			 M326.74,21.72c-1.49-0.12-2.68-0.22-3.84-0.32C323.78,23.19,324.87,23.41,326.74,21.72z M416,13.34
			c0.28,1.42,0.49,2.54,0.78,4.01c0.34-1.38,0.61-2.45,0.91-3.67C417.38,13.62,416.75,13.49,416,13.34z M171.84,6.29
			c0.88-0.16,1.68-0.31,2.62-0.49c-0.23-0.59-0.42-1.07-0.72-1.86c-0.6,0.75-1.04,1.31-1.49,1.88c-0.46-0.43-0.77-0.71-1.07-1
			c-0.07,0.07-0.15,0.15-0.22,0.22C171.25,5.47,171.55,5.88,171.84,6.29z M436.32,11.62c0.08-1.16,0.15-2.16,0.23-3.17
			c-0.12-0.01-0.25-0.02-0.37-0.02c-0.5,0.63-1,1.25-1.56,1.95C435.02,10.67,435.58,11.08,436.32,11.62z M50,14
			c-0.04,0.08-0.08,0.16-0.12,0.24c0.77,0.82,1.54,1.65,2.41,2.58c0.13-0.57,0.5-1.49,0.34-1.6C51.83,14.7,50.89,14.39,50,14z
			 M318.94,22.02c0.4-1.51-1-1.09-1.63-1.63c-0.34,0.59-0.61,1.07-0.94,1.63C317.39,22.02,318.15,22.02,318.94,22.02z M110.74,8.73
			c-0.1,0.21-0.2,0.42-0.3,0.63c0.57,0.43,1.13,0.86,1.7,1.29c0.17-0.37,0.35-0.74,0.52-1.11C112.02,9.27,111.38,9,110.74,8.73z
			 M0,8.78c-0.5,1.65-0.09,2.23,1.62,2.43C0.99,10.26,0.49,9.52,0,8.78z M434.75,5.7c-0.39,0.71-0.79,1.11-0.71,1.37
			c0.13,0.43,0.57,0.77,0.88,1.14c0.22-0.27,0.64-0.57,0.61-0.81C435.47,6.94,435.15,6.51,434.75,5.7z M506.89,8.67
			c-0.04-0.19-0.09-0.38-0.13-0.56c-0.61,0.04-1.21,0.07-1.82,0.11c0.06,0.53,0.12,1.06,0.22,1.94
			C505.98,9.46,506.43,9.07,506.89,8.67z M60.86,13.92c-0.12-0.14-0.23-0.28-0.35-0.42c-0.38,0.29-1.13,0.69-1.08,0.84
			c0.17,0.55,0.59,1.02,0.97,1.48c0.03,0.04,0.43-0.22,0.65-0.35c-0.23-0.2-0.46-0.4-0.72-0.63C60.48,14.57,60.67,14.24,60.86,13.92
			z M307.38,4.23c0.11-0.07,0.22-0.13,0.33-0.2c-0.13-0.66-0.21-1.34-0.43-1.97c-0.09-0.26-0.5-0.41-0.76-0.62
			c-0.13,0.31-0.46,0.73-0.36,0.93C306.49,3.03,306.96,3.62,307.38,4.23z M101.3,5.53c0.42,0.93,0.65,1.47,0.92,2.06
			c0.63-0.5,1.11-0.88,1.75-1.4C103.12,5.98,102.45,5.82,101.3,5.53z M343.09,21.35c0.07,0.24,0.14,0.49,0.22,0.73
			c0.68-0.17,1.36-0.34,2.04-0.52c-0.11-0.3-0.21-0.6-0.32-0.9C344.38,20.89,343.73,21.12,343.09,21.35z M483.52,10.61
			c0.25-0.77,0.42-1.31,0.66-2.03c-0.69-0.21-1.34-0.41-2.39-0.73C482.47,8.95,482.93,9.67,483.52,10.61z M36.18,13.9
			c0.83,0.43,1.66,0.86,2.49,1.29c0.07-0.13,0.13-0.27,0.2-0.4C38.24,13.93,37.59,13.11,36.18,13.9z M412.72,5.75
			c-0.58-0.61-0.9-0.95-1.15-1.2c-0.79,0.34-1.45,0.62-2.12,0.9c0.01,0.1,0.02,0.2,0.03,0.3C410.42,5.75,411.36,5.75,412.72,5.75z
			 M190.82,22.98c0.05-0.12,0.1-0.24,0.16-0.36c-0.77-0.41-1.55-0.81-2.63-1.38C188.73,23.24,189.9,22.86,190.82,22.98z M5.48,10.86
			c0.07-0.2,0.13-0.41,0.2-0.61c-0.38-0.2-0.8-0.61-1.12-0.54c-0.4,0.09-0.7,0.58-1.04,0.9C4.17,10.69,4.83,10.77,5.48,10.86z
			 M489.42,6.74c-0.2,0.13-0.4,0.26-0.59,0.39c0.55,0.9,1.11,1.8,1.66,2.7c0.2-0.13,0.4-0.25,0.6-0.38
			C490.53,8.55,489.97,7.64,489.42,6.74z M79.61,15.77c0.83,1.04,1.1,0.89,2.14-1.53C81.07,14.73,80.38,15.22,79.61,15.77z
			 M370.05,15.89c0.77,2.62,1.07,2.91,2.15,2.32C371.57,17.53,370.96,16.87,370.05,15.89z M133.77,15.59c0,0.2,0,0.4,0.01,0.6
			c0.71,0,1.42,0,2.36,0C135.29,14.48,134.52,15.17,133.77,15.59z M32.17,10.56c1.34,1.38,2.07,1.36,2.78,0.16
			C33.98,10.67,33.07,10.62,32.17,10.56z M10.08,8.49C9.89,8.61,9.7,8.73,9.51,8.85c0.22,0.55,0.43,1.11,0.65,1.66
			c0.33-0.24,0.65-0.48,0.98-0.71C10.79,9.36,10.43,8.93,10.08,8.49z M439.65,6.13c0.12-0.17,0.24-0.33,0.36-0.5
			c-0.37-0.28-0.71-0.74-1.1-0.79c-0.39-0.05-0.84,0.31-1.26,0.49c0.05,0.14,0.11,0.29,0.16,0.43
			C438.43,5.89,439.04,6.01,439.65,6.13z M415.47,5.46c0.11,0.7,0.11,0.72,1.09,0.58c0.68-0.1,1.58-0.01,1.44-1.22
			C417.06,5.05,416.28,5.25,415.47,5.46z M504.78,13.92c-0.14,0.03-0.29,0.06-0.43,0.08c-0.11,0.62-0.22,1.23-0.33,1.85
			c0.12,0.08,0.24,0.16,0.37,0.24c0.36-0.3,0.95-0.57,1.01-0.92C505.45,14.8,505.01,14.34,504.78,13.92z M348.69,2.28
			c-0.71,0.5-1.43,1-2.18,1.53C347.7,4.38,347.7,4.38,348.69,2.28z M138.64,18.46c0.08-0.17,0.15-0.34,0.23-0.51
			c-0.3-0.54-0.61-1.09-0.99-1.76c-0.31,0.52-0.54,0.88-0.88,1.44C137.59,17.92,138.11,18.19,138.64,18.46z M166.31,19.77
			c-0.15-1.81-0.74-2.17-2.26-1.42C164.84,18.85,165.41,19.2,166.31,19.77z M49.18,8.17c-1.06-1.6-1.59-1.64-2.56-0.3
			C47.42,7.96,48.26,8.06,49.18,8.17z M96.33,17.15c0.21,0.12,0.43,0.25,0.64,0.37c0.36-0.5,0.71-1.01,1.07-1.51
			c-0.3-0.09-0.78-0.33-0.87-0.24C96.82,16.17,96.6,16.68,96.33,17.15z M214.07,3.34c-0.22-0.18-0.44-0.37-0.66-0.55
			c-0.33,0.4-0.71,0.77-0.94,1.22c-0.07,0.13,0.31,0.48,0.49,0.73C213.33,4.28,213.7,3.81,214.07,3.34z M51.27,8.87
			c0.8,2.09,0.9,2.15,2.04,1.32C52.59,9.71,51.93,9.29,51.27,8.87z"/>
		<path d="M269.49,1.36c1.3,2.92,2.56,5.63,3.74,8.39c0.56,1.31-0.17,2.37-1.63,2.44c-1.65,0.08-3.13-0.54-3.98-1.9
			c-1.16-1.88-2.1-3.9-3.01-5.92c-0.14-0.3,0.25-1.16,0.61-1.32C266.64,2.38,268.15,1.88,269.49,1.36z"/>
		<path d="M284.36,1.37c1.31,2.91,2.6,5.67,3.79,8.47c0.52,1.23-0.21,2.26-1.61,2.35c-1.65,0.1-3.14-0.49-4-1.85
			c-1.18-1.87-2.12-3.89-3.04-5.91c-0.15-0.32,0.22-1.19,0.57-1.36C281.52,2.38,283.06,1.87,284.36,1.37z"/>
		<path d="M254.61,1.38c1.3,2.9,2.57,5.66,3.76,8.46c0.51,1.2-0.14,2.2-1.45,2.33c-1.7,0.17-3.24-0.42-4.14-1.84
			c-1.18-1.87-2.12-3.89-3.05-5.9c-0.15-0.32,0.21-1.2,0.55-1.36C251.75,2.39,253.3,1.87,254.61,1.38z"/>
		<path d="M254.49,24.25c-1.31-2.94-2.56-5.66-3.74-8.4c-0.53-1.24,0.15-2.5,1.47-2.35c1.29,0.14,2.96,0.53,3.67,1.43
			c1.45,1.87,2.42,4.13,3.47,6.29c0.15,0.3-0.24,1.19-0.59,1.35C257.34,23.24,255.84,23.73,254.49,24.25z"/>
		<path d="M247.17,1.36c1.3,2.9,2.51,5.58,3.69,8.28c0.61,1.41-0.07,2.49-1.6,2.54c-1.51,0.05-2.97-0.42-3.77-1.7
			c-1.22-1.95-2.23-4.05-3.21-6.15c-0.13-0.29,0.29-1.14,0.66-1.31C244.36,2.37,245.86,1.86,247.17,1.36z"/>
		<path d="M276.93,1.36c1.27,2.85,2.47,5.49,3.62,8.15c0.71,1.65-0.04,2.74-1.83,2.69c-1.64-0.05-3.04-0.76-3.86-2.15
			c-1.05-1.78-1.91-3.68-2.8-5.54c-0.37-0.77-0.1-1.28,0.76-1.57C274.26,2.43,275.67,1.84,276.93,1.36z"/>
		<path d="M262.06,1.37c1.27,2.88,2.51,5.6,3.68,8.35c0.57,1.35-0.12,2.58-1.54,2.4c-1.29-0.16-2.95-0.59-3.65-1.51
			c-1.44-1.89-2.38-4.17-3.42-6.34c-0.13-0.26,0.28-1.06,0.61-1.21C259.22,2.39,260.75,1.87,262.06,1.37z"/>
		<path d="M229.89,18.78c-0.46-0.92-1-1.86-1.43-2.85c-0.57-1.31,0.09-2.4,1.51-2.49c1.51-0.1,2.99,0.32,3.79,1.59
			c1.25,1.98,2.27,4.11,3.28,6.23c0.14,0.29-0.19,1.11-0.51,1.26c-1.2,0.57-2.47,0.98-3.72,1.42c-0.75,0.26-1.2,0.02-1.36-0.82
			c-0.15-0.77-0.5-1.5-0.59-2.27c-0.06-0.53,0.16-1.1,0.3-1.87C231.05,18.96,230.56,18.89,229.89,18.78z"/>
		<path d="M202.52,1.37c1.3,2.9,2.57,5.66,3.77,8.45c0.53,1.23-0.19,2.27-1.59,2.36c-1.63,0.1-3-0.54-4.02-1.82
			c-0.43-0.54-0.84-1.11-1.16-1.71c-0.62-1.17-1.17-2.38-1.8-3.7c0.7-0.15,1.27-0.27,1.83-0.38c-0.02-0.1-0.04-0.21-0.07-0.31
			c-0.25,0.06-0.53,0.23-0.75,0.17c-0.42-0.11-0.8-0.36-1.2-0.55c0.26-0.3,0.47-0.74,0.8-0.88C199.76,2.38,201.25,1.86,202.52,1.37z
			"/>
		<path d="M246.81,23.48c-1.15-2.49-2.25-4.7-3.19-6.97c-0.29-0.69-0.5-1.92-0.14-2.26c0.57-0.54,1.77-0.9,2.49-0.67
			c1.16,0.37,2.46,1.07,3.13,2.03c1.18,1.68,1.99,3.63,2.82,5.53c0.46,1.06-0.27,1.74-2.03,2.03c-0.58,0.09-1.19-0.06-1.77,0
			C247.6,23.21,247.1,23.4,246.81,23.48z"/>
		<path d="M191.64,6.44c-1.41,0.3-1.17-1.33-1.51-2.27c-0.41-1.15,0.75-1.18,1.41-1.45c1.23-0.51,2.48-0.95,4.01-1.53
			c0.18,1.29,0.33,2.46,0.43,3.17c0.37,0.62,0.67,1.06,0.9,1.52c0.63,1.23,1.29,2.45,1.85,3.71c0.66,1.49-0.02,2.57-1.65,2.6
			c-2.37,0.05-3.84-1.37-4.86-3.3C191.87,8.2,191.85,7.35,191.64,6.44z"/>
		<path d="M224.89,1.35c1.12,2.63,2.2,5.15,3.27,7.66c0.17,0.39,0.52,0.77,0.5,1.15c-0.02,0.53-0.15,1.26-0.51,1.54
			c-0.43,0.34-1.16,0.29-1.76,0.41c-0.08-0.44-0.16-0.88-0.28-1.57c-0.52,0.26-1.12,0.55-1.91,0.95c-2.36-1.77-3.36-4.61-4.3-7.47
			c-0.07-0.22,0.24-0.76,0.5-0.87C221.93,2.48,223.5,1.9,224.89,1.35z"/>
		<path d="M288.76,3.5c0.2-1.88,2.02-1.46,3.34-2.3c0.43,1.53,0.82,2.91,1.23,4.37c-0.35,0.26-0.73,0.54-1.48,1.1
			c2.79-0.46,2.94,1.6,3.62,3c0.7,1.44-0.11,2.54-1.74,2.52c-1.64-0.02-3.07-0.67-3.91-2.05c-1.05-1.72-1.92-3.56-2.76-5.39
			c-0.19-0.42,0.06-1.04,0.11-1.57C287.63,3.27,288.08,3.36,288.76,3.5z"/>
		<path d="M211.59,22.78c-0.57,0.43-0.94,0.88-1.39,1.01c-0.89,0.25-1.01-0.46-1.15-1.13c-0.16-0.77-0.41-1.52-0.64-2.37
			c0.43-0.16,0.88-0.33,1.55-0.59c-1.97-0.76-3.15-1.97-3.81-3.71c-0.57-1.49,0.13-2.55,1.75-2.56c1.97-0.01,3.43,0.98,4.38,2.6
			c0.85,1.44,1.58,2.96,2.19,4.52c0.22,0.55,0.12,1.77-0.14,1.86C213.4,22.76,212.37,24.23,211.59,22.78z"/>
		<path d="M282.79,13.08c1.12,0.74,2.54,1.24,3.28,2.26c1.25,1.73,2.1,3.77,3.03,5.71c0.17,0.35,0.07,1.11-0.19,1.3
			c-0.41,0.3-1.06,0.31-1.61,0.4c-0.45,0.07-0.93,0-1.35,0.13c-1.3,0.4-2.31-0.15-2.84-1.39c-0.75-1.77-1.65-3.47-2.46-5.21
			C279.85,14.53,280.67,13.33,282.79,13.08z"/>
		<path d="M239.73,1.37c1.3,2.91,2.52,5.58,3.69,8.27c0.61,1.41-0.09,2.66-1.59,2.49c-1.24-0.15-2.8-0.57-3.53-1.45
			c-1.45-1.73-2.44-3.86-3.68-5.92c1.38-0.32,2.34-0.54,3.31-0.76c-0.02-0.11-0.05-0.21-0.07-0.32c-0.63-0.2-1.25-0.39-2.32-0.72
			C237.29,2.3,238.59,1.81,239.73,1.37z"/>
		<path d="M299.24,1.38c1.32,2.92,2.61,5.67,3.78,8.47c0.2,0.47,0.04,1.39-0.31,1.72c-0.38,0.35-1.19,0.35-1.8,0.31
			c-4.78-0.27-5.04-4.51-6.57-7.61c-0.13-0.26,0.19-1.03,0.48-1.16C296.33,2.44,297.9,1.89,299.24,1.38z M297.15,5.58
			c0.1,0.21,0.2,0.43,0.3,0.64c0.72-0.29,1.43-0.59,2.15-0.88c-0.14-0.34-0.29-0.68-0.43-1.01C298.5,4.74,297.82,5.16,297.15,5.58z"
			/>
		<path d="M275.09,13.41c1.63,0.12,3.01,0.8,3.83,2.2c1.02,1.73,1.88,3.56,2.73,5.39c0.53,1.13-0.14,1.64-1.19,1.8
			c-0.19,0.03-0.4-0.08-0.58-0.05c-2.96,0.49-4.55-0.82-5.23-3.67c-0.24-1.02-1.01-1.91-1.47-2.9
			C272.43,14.52,273.26,13.35,275.09,13.41z"/>
		<path d="M182.94,5.19c1.05-0.33,1.9-0.6,2.97-0.94c-0.28-0.2-0.57-0.5-0.92-0.61c-0.49-0.15-1.03-0.16-1.5-0.55
			c1.45-0.6,2.9-1.2,4.15-1.72c1.31,2.91,2.6,5.67,3.79,8.46c0.53,1.23-0.22,2.4-1.6,2.32c-1.25-0.08-2.47-0.63-3.7-0.97
			c0.05-0.18,0.09-0.36,0.14-0.55c0.58,0.16,1.15,0.32,1.73,0.49c0.05-0.11,0.1-0.22,0.15-0.34c-0.37-0.22-0.75-0.64-1.11-0.62
			c-1.47,0.1-2.13-0.78-2.65-1.93C183.96,7.29,183.5,6.37,182.94,5.19z"/>
		<path d="M296.6,22.28c-1.21,0.13-2.37,0.25-3.86,0.4c0-0.01-0.23-0.4-0.47-0.85c-0.44,0.13-0.91,0.26-1.25,0.36
			c-0.96-1.96-1.97-3.82-2.78-5.76c-0.28-0.67-0.42-1.85-0.04-2.24c0.49-0.52,1.59-0.74,2.37-0.63c0.87,0.12,2,0.54,2.43,1.21
			c1.37,2.13,2.48,4.43,3.66,6.68C296.75,21.66,296.62,22,296.6,22.28z"/>
		<path d="M324.36,12.06c-0.3-0.53-0.53-0.95-0.76-1.37c-0.05,0.01-0.1,0.03-0.14,0.04c0.07,0.41,0.15,0.82,0.22,1.23
			c-2.88,0.69-7.02-4.33-7.02-8.13c1.79-0.91,3.44-1.74,5.14-2.6c0.53,1.79,0.99,3.37,1.53,5.22c-0.62-0.23-0.95-0.35-1.37-0.5
			c-0.2,0.94-0.39,1.86-0.62,2.93c0.91-0.62,1.71-1.16,2.51-1.7C325.84,9.88,325.97,10.89,324.36,12.06z"/>
		<path d="M215.15,13.53c0.77,0.83,1.32,1.41,2,2.15c-0.34,0.04-0.73,0.02-1.08,0.14c-0.29,0.1-0.54,0.35-0.8,0.53
			c0.05,0.12,0.1,0.24,0.15,0.36c0.8-0.06,1.6-0.12,2.49-0.18c-0.39-0.88-0.7-1.59-1.21-2.76c0.82,0.38,1.38,0.5,1.74,0.84
			c2.02,1.89,3.01,4.37,3.77,6.96c0.07,0.25-0.11,0.78-0.31,0.85c-1.06,0.43-2.14,0.81-3.25,1.09c-1.16,0.3-1.85-0.35-2.29-1.36
			c-0.86-1.94-1.75-3.87-2.6-5.81C212.94,14.41,213.47,13.64,215.15,13.53z"/>
		<path d="M314.96,2.53c0.09,3.33,3.02,5.52,3.07,9.13c-0.71-1.42-1.24-2.47-1.77-3.51c-0.15,0.07-0.29,0.13-0.44,0.2
			c0.29,0.74,0.59,1.48,0.9,2.26c-0.3,0.4-0.66,0.88-1.02,1.36c-0.02,0.18-0.03,0.36-0.05,0.55c-1.12-0.71-2.49-1.21-3.29-2.18
			c-1.2-1.45-2.63-2.95-2.34-5.15c0.01-0.09-0.04-0.19-0.08-0.28c-0.71-1.45-0.71-1.45-0.54-1.54c0.47-0.24,0.93-0.51,1.42-0.72
			c0.72-0.31,1.46-0.58,2.2-0.88C313.4,3.09,313.55,3.16,314.96,2.53z"/>
		<path d="M274.21,22.21c-1.87,0-3.65,0-5.56,0c-1-2.1-2.16-4.36-3.14-6.7c-0.46-1.1,0.35-1.88,1.37-2c0.84-0.1,1.79,0.06,2.59,0.38
			C271.56,14.71,274.39,19.76,274.21,22.21z"/>
		<path d="M199.57,15.47c-0.34-0.29-0.67-0.56-1.06-0.89c0.67-1.27,1.76-1.33,2.92-1.06c2.84,0.66,3.82,3.02,4.91,5.37
			c-0.59,0.17-1.11,0.32-1.62,0.47c0.02,0.11,0.05,0.22,0.07,0.33c0.55-0.06,1.11-0.12,1.77-0.2c0.15,0.28,0.32,0.62,0.5,0.95
			c0.63,1.23,0.37,2.05-1.05,2.42c-0.62,0.16-1.19,0.49-1.81,0.64c-1.49,0.37-2.38-0.2-2.79-1.68c-0.13-0.47-0.3-0.94-0.47-1.4
			c-0.15-0.4-0.32-0.79-0.6-1.51c1.23,0.31,2.18,0.54,3.14,0.78c0.04-0.06,0.09-0.13,0.13-0.19c-0.92-0.72-1.84-1.43-2.86-2.22
			c-0.15,0.39-0.29,0.75-0.53,1.37C199.6,17.51,198.36,16.8,199.57,15.47z"/>
		<path d="M210.18,1.43c0.47,0.97-0.5,2.08-2.1,2.34c0.75,2.39,0.89,2.47,2.19,1.33c2.2,1.04,2.8,3.21,3.53,5.22
			c0.36,0.99-0.68,1.89-1.92,1.86c-1.63-0.05-3.08-0.64-3.92-2.05c-1.08-1.82-1.96-3.75-2.88-5.66c-0.31-0.65-0.23-1.23,0.63-1.5
			C207.21,2.49,208.68,1.95,210.18,1.43z"/>
		<path d="M308.37,12.55c-1.16-0.68-2.59-1.06-3.24-1.99c-1.35-1.91-2.31-4.1-3.34-6.22c-0.14-0.28,0.12-1.01,0.41-1.19
			c0.7-0.43,1.52-0.88,2.32-0.93c1.14-0.06,1.71,0.83,1.87,1.89c0.16,1.05,0.49,1.62,1.71,1.99c0.8,0.24,1.24,1.71,1.8,2.64
			c0.11,0.18,0.05,0.46,0.1,0.69c0.13,0.64,0.57,1.44,0.33,1.88C310.05,11.85,309.19,12.07,308.37,12.55z"/>
		<path d="M264.79,16.77c-0.72,0.06-1.33,0.12-2.19,0.2c0.47,0.7,0.8,1.21,1.16,1.75c0.61-0.12,1.17-0.23,1.93-0.38
			c0.44,1.11,0.9,2.27,1.39,3.52c-2.01,0.43-3.81,0.82-5.55,1.2c-1.15-2.47-2.31-4.85-3.36-7.28c-0.57-1.31,0.32-2.39,1.88-2.34
			C262.33,13.49,263.76,14.83,264.79,16.77z"/>
		<path d="M328.89,6.79c0,0.05-0.02,0.46-0.04,0.96c1.65-1.38,2.27-1.23,3.27,0.72c0.5,0.98,1.45,2.01,0.4,3.1
			c-1.07,1.11-2.48,0.81-3.59,0.15c-2.11-1.26-3.64-3.03-3.75-5.68c-0.01-0.12-0.14-0.25-0.25-0.35c-1.4-1.31-1.25-2.29,0.48-2.96
			c0.28-0.11,0.55-0.23,0.84-0.31c1.01-0.25,2.02-0.48,3.21-0.76c0.2,0.75,0.49,1.83,0.79,2.91c-0.07,0.14-0.14,0.28-0.21,0.41
			c-0.71-0.33-1.4-0.7-2.13-0.97c-0.34-0.13-0.75-0.09-1.13-0.12c0.12,0.35,0.17,0.77,0.39,1.05
			C327.63,5.52,328.17,6.03,328.89,6.79z"/>
		<path d="M298.5,22.34c-1.01-2.09-2-3.96-2.81-5.91c-0.28-0.68-0.44-1.85-0.07-2.24c0.49-0.52,1.59-0.76,2.37-0.67
			c2.09,0.25,5.01,3.58,5.22,5.71c0.09,0.94-1.78,3.05-2.78,3.1C299.75,22.36,299.06,22.34,298.5,22.34z"/>
		<path d="M228.11,19.74c0.57,0.9,1.05,1.68,1.53,2.45c-1.08,0.45-2.16,0.9-3.24,1.33c-0.09,0.04-0.25-0.16-0.39-0.16
			c-0.56-0.02-1.11-0.01-1.64-0.01c-0.97-2.13-2.03-4.54-3.17-6.91c-0.41-0.85-0.68-1.76,0.06-2.34c0.57-0.45,1.5-0.51,2.29-0.6
			c0.4-0.04,0.84,0.23,1.51,0.45c-0.41,0.78-0.77,1.47-1.13,2.16c0.08,0.1,0.16,0.19,0.24,0.29c0.63-0.48,1.26-0.96,1.89-1.43
			C228.11,16.56,229.03,18.91,228.11,19.74z M225.59,21.62c0.36,0.4,0.61,0.68,0.87,0.96c0.29-0.34,0.78-0.67,0.81-1.03
			c0.03-0.36-0.35-1-0.67-1.08c-0.77-0.2-1.61-0.16-2.41-0.21c0.22,0.69,0.39,1.23,0.58,1.84
			C225.02,21.94,225.35,21.76,225.59,21.62z"/>
		<path d="M237.04,18.21c-0.39-0.77-0.8-1.49-1.12-2.25c-0.59-1.4,0.08-2.44,1.62-2.53c2.06-0.13,3.49,1.04,4.47,2.62
			c0.99,1.58,1.7,3.33,2.47,5.04c0.33,0.72,0.17,1.32-0.72,1.61c-1.17,0.38-2.29,0.94-3.48,1.25c-0.37,0.09-1.15-0.29-1.29-0.63
			c-0.42-1.03-0.62-2.15-0.98-3.5c1.77,0.39,2.84,2.94,5.08,1.32c-0.43-0.27-0.82-0.5-1.18-0.75c-0.48-0.33-1.05-0.61-1.37-1.07
			c-0.36-0.51-0.5-1.18-0.73-1.78c0.54,0.02,1.08,0.05,1.62,0.06c0.17,0,0.35-0.04,0.55-0.07C241.37,16.14,238.82,16.5,237.04,18.21
			z"/>
		<path d="M177.3,2.94c0.18,1,0.34,1.85,0.49,2.71c1.25-0.27,1.63-0.92,1.34-2.64c0.65,0.32,1.21,0.6,1.77,0.88
			c0.11,0.15,0.21,0.3,0.32,0.46c-0.4,0.17-0.81,0.33-1.33,0.55c0.64,0.72,1.07,1.63,1.74,1.87c1.82,0.65,2.04,2.28,2.44,3.69
			c0.31,1.12-0.69,1.68-1.72,1.74c-1.51,0.09-2.88-0.41-3.8-1.63c-0.85-1.13-1.59-2.38-2.22-3.65c-0.24-0.48-0.04-1.17-0.04-2.01
			c-0.13-0.14-0.45-0.49-0.9-0.97C176.04,3.59,176.58,3.31,177.3,2.94z"/>
		<path d="M346.6,7.29c0.36,1.47,0.73,2.72,0.91,4c0.03,0.23-0.74,0.86-1.05,0.81c-1.24-0.22-2.53-0.47-3.63-1.04
			c-0.72-0.37-1.28-1.24-1.69-2.01c-0.79-1.47-1.45-3.02-2.13-4.55c-0.43-0.96,0.13-1.46,0.96-1.53c1.83-0.16,3.65,0.23,4.94,1.53
			c0.54,0.54,0.41,1.76,0.4,2.84c-1.48-1.05-2.57-2.73-4.74-2.41c0.91,0.93,1.84,1.79,2.66,2.75c0.78,0.93,1.49,0.93,2.31,0.11
			C345.7,7.63,345.97,7.58,346.6,7.29z"/>
		<path d="M152.88,4.4c1.66,0.5,2.94,0.88,4.15,1.25c-0.1-0.89-0.17-1.57-0.28-2.58c1,0.68,1.59,1.09,2.18,1.49
			c-0.35,0.35-0.84,0.81-1.24,1.34c-0.04,0.05,0.51,0.55,0.86,0.92c0.27-0.57,0.48-1,0.75-1.55c0.8,1.55,1.63,3,2.3,4.52
			c0.56,1.26-0.11,2.43-1.48,2.34c-1.16-0.07-2.65-0.38-3.35-1.16c-1.22-1.37-1.93-3.17-2.86-4.8C153.64,5.7,153.36,5.23,152.88,4.4
			z"/>
		<path d="M213.27,6.75c0.83-0.42,1.45-0.73,2.07-1.04c-0.15-0.18-0.29-0.36-0.44-0.54c0.36,0.21,0.73,0.42,1.2,0.69
			c0.49-1.03,0.97-2.06,1.56-3.29c1.32,2.73,2.52,5.02,3.55,7.38c0.52,1.2-0.35,2.38-1.73,2.18c-1.25-0.19-2.64-0.67-3.55-1.49
			C214.84,9.65,214.2,8.18,213.27,6.75z"/>
		<path d="M188.52,19.09c-0.87,0.43-1.65,0.81-2.48,1.22c-0.76-1.46-1.53-2.84-2.19-4.27c-0.66-1.45,0.1-2.76,1.67-2.55
			c1.24,0.17,2.56,0.75,3.54,1.52c0.88,0.7,1.4,1.89,1.98,2.92c0.16,0.3-0.03,0.79-0.19,1.18c-0.16,1.24,2.1,1.19,1.6,2.55
			c-0.69-0.1-1.22-0.26-1.75-0.25c-0.95,0.02-1.65-0.19-1.83-1.26C188.81,19.82,188.66,19.51,188.52,19.09z"/>
		<path d="M180.6,13.84c-0.48,0.54-0.71,0.79-0.77,0.85c0.72,0.19,1.89,0.22,2,0.58c0.39,1.22,2.47,1.81,1.32,3.62
			c0.32,0.11,0.62,0.22,1.03,0.36c-0.41,0.98-0.8,1.93-1.41,3.4c-0.93-1-1.65-1.77-2.52-2.71c0.66-0.24,0.99-0.36,1.45-0.53
			c-0.26-0.25-0.47-0.59-0.66-0.59c-0.37,0.01-0.93,0.13-1.06,0.38c-0.22,0.44-0.2,1.02-0.25,1.55c-0.05,0.51-0.07,1.02-0.1,1.53
			c-0.12,0.01-0.24,0.01-0.36,0.02c-0.28-0.76-0.57-1.53-0.9-2.43c0.29-0.1,0.57-0.19,1.08-0.37c-0.32-0.38-0.56-0.93-0.88-0.98
			c-1.58-0.26-1.75-1.36-1.83-2.63c-0.03-0.44-0.64-1.07-0.51-1.26c0.37-0.51,0.97-1.07,1.55-1.15
			C178.62,13.38,179.5,13.68,180.6,13.84z"/>
		<path d="M332.84,7.36c0.69-0.55,1.24-0.98,2.06-1.64c0.65,0.63,1.45,1.41,2.36,2.29c0.16-0.12,0.45-0.32,0.9-0.65
			c-1.02-0.67-2.17-1.07-2.71-1.88c-0.51-0.76-0.37-1.95-0.52-2.95c0.14-0.09,0.28-0.18,0.42-0.26c0.51,0.62,1.08,1.2,1.51,1.87
			c1.04,1.6,2.11,3.2,2.96,4.9c0.35,0.69,0.5,1.83,0.16,2.42c-0.58,1-1.77,0.87-2.82,0.53C335.1,11.33,333.84,9.93,332.84,7.36z"/>
		<path d="M229.37,8.76c1.58-0.69,1.41-1.81,1.03-3.09c-0.21-0.71-0.11-1.52-0.17-2.49c1.92,0.81,3.68,1.26,4.23,3.43
			c0.27,1.07,1.04,2.01,1.49,3.05c0.63,1.48-0.1,2.56-1.73,2.54C231.94,12.17,230.51,10.84,229.37,8.76z"/>
		<path d="M382.05,3.88c0.49,1.12,0.99,2.28,1.53,3.51c-0.49,0.23-0.98,0.46-1.46,0.69c0,0.14-0.01,0.28-0.01,0.42
			c0.73,0.21,1.45,0.42,2.18,0.62c0.15-0.07,0.3-0.14,0.45-0.21c0,0.85,0.33,1.98-0.09,2.46c-0.48,0.55-1.66,0.8-2.47,0.69
			c-2.23-0.31-4.22-2.63-4.48-4.9c-0.04-0.39,0-0.82-0.15-1.17c-0.41-1.02,0.16-1.21,0.96-1.27c0.82-0.06,1.66-0.09,2.47-0.24
			C381.33,4.43,381.65,4.12,382.05,3.88z M382.37,6.8c-0.08-0.11-0.22-0.39-0.31-0.37c-1.19,0.21-2.39,0.45-3.56,0.73
			c-0.12,0.03-0.16,0.4-0.24,0.61c0.24,0.07,0.52,0.24,0.73,0.18C380.08,7.62,381.15,7.22,382.37,6.8z"/>
		<path d="M135.91,9.31c0.43-1.09,0.86-2.19,1.46-3.72c0.79,2.02,1.45,3.72,2.1,5.37c-0.59,1.23-1.6,1.35-2.68,1.19
			c-1.69-0.26-2.89-1.26-3.74-2.68c-0.73-1.23-1.36-2.51-2.02-3.74c0.67-0.55,1.22-1,1.57-1.3c1.15,0.3,2.16,0.58,3.17,0.83
			c1.01,0.25,0.85,0.72,0.35,1.27c-0.59-0.24-1.11-0.45-1.64-0.67c-0.11,0.14-0.22,0.29-0.33,0.43c1.49,0.54,2.15,1.4,1.11,2.94
			C135.49,9.26,135.7,9.29,135.91,9.31z"/>
		<path d="M150.37,9.84c0.57-0.17,0.9-0.26,0.94-0.27c0.1-1.42,0.19-2.71,0.28-4c0.14-0.03,0.28-0.06,0.42-0.09
			c0.77,1.51,1.62,2.99,2.27,4.54c0.44,1.06-0.33,2.06-1.57,2.15c-0.71,0.05-1.44-0.15-2.2-0.24c0-0.57,0-1,0-1.62
			c-0.43,0.32-0.75,0.54-1.39,1.01c-0.97-1.69-1.99-3.24-2.7-4.93c-0.14-0.33,0.9-1.26,1.52-1.75c0.19-0.15,0.81,0.24,1.22,0.41
			c0.09,0.04,0.12,0.28,0.19,0.28c2.53,0.08,1.27,1.86,1.33,3.02C150.69,8.78,150.5,9.21,150.37,9.84z"/>
		<path d="M356.95,10.36c0.46-0.65,0.87-1.23,1.41-1.99c-1.02-0.09-1.8-0.15-2.88-0.25c-0.51-1.12-1.12-2.5-1.77-3.94
			c0.97-0.85,1.65-2.21,3.32-1.22c-0.22,0.38-0.51,0.77-0.67,1.2c-0.6,1.62,0.27,2.75,1.9,2.5c1.98-0.3,2.54,0.08,3.28,2.17
			c0.06,0.16,0.34,0.25,0.4,0.41c0.23,0.63,0.73,1.44,0.51,1.89c-0.24,0.51-1.13,0.94-1.77,0.98
			C359.18,12.21,357.92,11.54,356.95,10.36z"/>
		<path d="M318.4,19.34c-1.97,0-3.48-0.02-5,0.01c-1.01,0.02-1.67-0.39-2.06-1.34c-0.28-0.68-0.67-1.32-0.98-1.99
			c-0.66-1.44,0.06-2.71,1.64-2.54c1.16,0.12,2.53,0.53,3.31,1.31C316.51,15.99,317.28,17.62,318.4,19.34z"/>
		<path d="M348.87,4.36c0.69-0.63,1.38-1.27,2.2-2.02c0.37,1.21,0.65,2.15,0.92,3.04c-0.62,0.35-1.16,0.66-1.83,1.04
			c1.27,1.21,2.05-0.02,3.12-0.21c0.56,1.13,1.21,2.28,1.72,3.48c0.62,1.48-0.15,2.53-1.77,2.51c-2.02-0.04-3.41-1.13-4.42-2.79
			c0.83-1.11,0.83-1.11,2.91-1.2c-0.66-0.25-1.31-0.51-1.81-0.7c-0.38-1.13-0.73-2.15-1.08-3.17
			C348.84,4.33,348.87,4.36,348.87,4.36z"/>
		<path d="M126.07,10.05c0.24-1.27,0.41-2.17,0.68-3.62c-1.65,1.6-2.15,0.49-2.95-0.57c0.62,0.17,1.01,0.28,1.5,0.42
			c0.1-0.52,0.18-0.92,0.33-1.66c0.52,0.4,0.92,0.7,1.39,1.06c1.51-1.12,1.68-1.2,2.94,0.54c0.89,1.23,1.43,2.72,2.04,4.14
			c0.13,0.31-0.13,0.78-0.26,1.42c-0.56-0.82-0.95-1.39-1.35-1.96c-0.14,0.06-0.29,0.12-0.43,0.18c0.09,0.35,0.18,0.69,0.26,1.04
			c0.07,0.3,0.25,0.73,0.13,0.87c-0.19,0.2-0.61,0.28-0.92,0.26C128.1,12.06,126.96,11.27,126.07,10.05z"/>
		<path d="M139.68,7.96c0.22-0.15,0.44-0.31,0.68-0.48c-0.74-0.71-1.43-1.37-2.37-2.26c1.12-0.26,1.82-0.42,2.62-0.61
			c0.08,1.3-0.49,2.87,1.56,2.55c0.45,0,0.9,0,1.36,0c0.25-0.36,0.59-0.86,1.08-1.58c0.79,1.56,1.56,2.82,2.05,4.17
			c0.2,0.54-0.21,1.29-0.34,1.95c-0.78-0.3-1.92,1.68-2.46-0.38c-0.04-0.16-0.43-0.39-0.58-0.34c-2.49,0.75-2.49-1.65-3.52-2.75
			C139.71,8.18,139.71,8.06,139.68,7.96z"/>
		<path d="M330.67,14.69c-0.29,0.81-0.43,1.22-0.58,1.64c0.43-0.04,0.87-0.08,1.39-0.12c0.26,0.46,0.55,0.97,0.84,1.48
			c-0.12-0.03-0.24-0.05-0.37-0.08c-0.27,0.69-0.6,1.36-0.79,2.07c-0.28,1.03-1.15,1.33-2.01,0.73c-0.44-0.31-1.03-0.41-1.56-0.61
			c-0.07,0.14-0.14,0.27-0.21,0.41c-0.71-1.35-1.45-2.68-2.1-4.06c-0.76-1.6,0.03-2.89,1.77-2.69
			C328.29,13.62,329.48,14.27,330.67,14.69z M327.9,18.54c0.06,0.11,0.13,0.22,0.19,0.34c0.39-0.13,0.78-0.25,1.2-0.39
			c0.05,0.25,0.05,0.4,0.11,0.52c0.16,0.33,0.34,0.64,0.51,0.96c0.11-0.32,0.34-0.66,0.31-0.97c-0.05-0.57-0.25-1.12-0.45-1.94
			C329.05,17.63,328.48,18.08,327.9,18.54z"/>
		<path d="M368.79,19.03c-0.63-0.23-1.08-0.39-1.52-0.56c0.05,0.12,0.11,0.24,0.16,0.36c-0.88,0.47-1.75,0.96-2.67,1.35
			c-0.05,0.02-0.45-0.78-0.69-1.19c0.09-0.11,0.18-0.22,0.27-0.33c0.58,0.15,1.16,0.31,1.74,0.46c0.06-0.97-0.31-1.25-1.44-1.1
			c-1.07,0.15-2.32-1.25-2.49-2.77c-0.11-1.04,0.74-1.8,2.04-1.84c2.04-0.05,4.8,2.04,5.17,4.05
			C369.44,17.89,369.03,18.4,368.79,19.03z"/>
		<path d="M310.79,19.69c-0.74-0.19-1.63-0.35-2.47-0.65c-0.6-0.21-1.14-0.58-1.74-0.9c-0.1,0.41-0.24,0.94-0.41,1.63
			c-0.63-0.23-1.42-0.28-1.61-0.64c-0.73-1.43-1.91-2.71-1.94-4.42c0.13-0.05,0.26-0.1,0.39-0.15c0.15,0.42,0.26,0.86,0.47,1.25
			c0.17,0.32,0.47,0.56,0.71,0.84c0.08-0.31,0.17-0.61,0.24-0.92c0.07-0.33,0.11-0.66,0.18-1.09c-0.4-0.18-0.83-0.38-1.29-0.58
			c0.93-0.77,1.8-0.83,3.22-0.25C308.34,14.56,310.58,17.86,310.79,19.69z"/>
		<path d="M325.63,19.32c-1.18,0.26-2.23,1.48-3.11-0.22c0.32-0.36,0.64-0.7,0.96-1.05c-0.03-0.1-0.07-0.21-0.1-0.31
			c-0.88,0.14-1.75,0.29-2.77,0.46c-0.23-0.46-0.51-1.01-0.84-1.67c-0.95,1.21-0.02,1.8,0.74,2.52c-0.28,0.22-0.53,0.41-0.83,0.66
			c-0.73-1.45-1.5-2.81-2.07-4.24c-0.16-0.4,0.18-1.37,0.52-1.5c0.76-0.3,1.71-0.48,2.49-0.29
			C323.43,14.36,324.49,16.75,325.63,19.32z"/>
		<path d="M196.77,15.02c-1.3,0.65-1.13,1.72-0.94,2.8c0.17,0.14,0.34,0.28,0.51,0.42c0.07-0.36,0.15-0.72,0.22-1.08
			c0.13,0.09,0.26,0.18,0.39,0.27c-0.22,0.43-0.44,0.86-0.69,1.34c0.59,0.18,1.09,0.34,1.59,0.49c0,0.16-0.01,0.32-0.01,0.48
			c-1.46,0.29-2.92,0.58-4.39,0.86c-0.03-0.12-0.06-0.25-0.09-0.37c0.55-0.42,1.09-0.84,1.94-1.49c-1.09-0.24-1.89-0.41-2.97-0.65
			c-0.24-0.46-0.69-1.23-1.04-2.04c-0.67-1.53,0.11-2.83,1.75-2.58C194.34,13.68,195.53,14.48,196.77,15.02L196.77,15.02z"/>
		<path d="M163.06,10.38c-0.34-1.13-0.59-1.98-0.85-2.84c0.14-0.08,0.27-0.15,0.41-0.23c-0.32-0.06-0.63-0.12-1.07-0.21
			c0.12-0.49,0.24-0.96,0.48-1.92c0.67,1.97,1.51,2.4,2.92,1.34c0.25-0.19,0.99,0.28,1.45,0.43c-0.11-0.65-0.23-1.4-0.36-2.16
			c0.15-0.04,0.3-0.08,0.45-0.12c0.8,1.55,1.64,3.08,2.35,4.67c0.14,0.32-0.27,0.88-0.47,1.47c0.03,0.02,0.3,0.21,0.91,0.64
			c-1.12,0.15-1.95,0.26-2.8,0.37c-0.54-0.71-1.2-1.56-1.91-2.49C164.11,9.66,163.76,9.9,163.06,10.38z"/>
		<path d="M174.77,11.3c0.42,0.21,0.69,0.35,1.06,0.53c-0.19,0.12-0.32,0.28-0.48,0.3c-2.44,0.32-4.01-0.95-5.23-2.83
			c0.44-0.74,0.86-1.43,1.26-2.1c0.56-0.15,1.19-0.3,1.81-0.5c1.02-0.34,1.83-0.25,2.26,0.91c0.17,0.46,0.45,0.87,0.67,1.31
			C176.75,10.13,176.32,11,174.77,11.3z"/>
		<path d="M89.63,11.39c-0.31-0.87-0.49-1.41-0.73-2.09c-0.41-0.36-1.01-0.88-1.52-1.32c0.8-0.68,1.4-1.25,2.06-1.73
			c0.3-0.21,0.73-0.23,1.1-0.34c0.08,0.34,0.26,0.69,0.22,1.02c-0.06,0.5-0.26,0.99-0.5,1.86c1.23-1.11,2.39-1.19,3.23-0.51
			c0.66,0.54,1.02,1.57,1.27,2.45c0.09,0.3-0.48,0.96-0.89,1.17c-0.4,0.2-1.04,0.18-1.47,0c-0.41-0.17-0.74-0.64-1.02-1.03
			C90.77,10.03,90.26,10.13,89.63,11.39z"/>
		<path d="M106.84,7.15c2.09,0.58,2.65,1.99,2.97,4.08c-1.13-0.42-1.98-0.74-3.03-1.13c-0.15,0.57-0.31,1.14-0.5,1.84
			c-1.88-0.52-2.73-2.1-3.55-3.33c0.86-0.26,1.71-0.51,2.51-0.76c-0.35-0.75-0.62-1.32-1.01-2.15c1.45,0.2,2.54,0.34,3.64,0.49
			c0.01,0.13,0.02,0.25,0.03,0.38C107.64,6.72,107.37,6.87,106.84,7.15z"/>
		<path d="M173.8,15.95c-0.41,0.31-0.79,0.6-1.12,0.85c0.82,0.14,1.6,0.09,2.13,0.42c0.39,0.25,0.47,0.99,0.69,1.51
			c-0.15,0.07-0.3,0.14-0.45,0.21c-0.31-0.33-0.63-0.66-1.01-1.07c-1.17,1.33-2.51,0.57-3.79,0.26c-0.28-0.07-0.52-0.55-0.67-0.9
			c-0.27-0.62-0.56-1.25-0.64-1.91c-0.05-0.48,0.07-1.22,0.4-1.46c0.83-0.61,1.83-0.82,2.68,0.04
			C172.65,14.53,173.18,15.22,173.8,15.95z"/>
		<path d="M385.14,7.58c0.66-0.32,1.28-0.79,1.98-0.93c0.74-0.15,1.67-0.21,2.26,0.14c0.42,0.25,0.39,1.24,0.66,2.26
			c1.81,0.31,1.27,1.67,0.44,3.18c-2.14-0.33-3.85-1.3-4.81-3.49c0.7,0.06,1.32,0.11,1.95,0.16c0.03-0.16,0.05-0.33,0.08-0.49
			c-0.89-0.16-1.79-0.33-2.68-0.49C385.05,7.81,385.09,7.7,385.14,7.58z"/>
		<path d="M365.92,8.9c0.56-0.36,1.08-0.87,1.69-1.04c0.46-0.13,1.37,0.03,1.51,0.33c0.45,0.93,0.8,1.99,0.81,3
			c0.01,0.33-1.12,0.93-1.75,0.97c-2.23,0.12-3.5-1.42-4.64-3.05c-0.13-0.18-0.14-0.63-0.01-0.77c0.14-0.15,0.57-0.2,0.78-0.1
			c0.63,0.3,1.22,0.7,1.82,1.06C366.06,9.16,365.99,9.03,365.92,8.9z"/>
		<path d="M122.3,6.95c1.45,0.61,1.82,2,2.24,3.28c0.2,0.61,0.24,1.6-1.03,1.19c-1.29,1.83-2.4,0.17-3.62-0.24
			c0.84-0.32,1.68-0.64,2.73-1.04c-0.98-0.56-1.66-0.95-2.43-1.39c-0.12,0.26-0.3,0.64-0.45,0.95c-0.5-0.03-1.09,0.11-1.42-0.12
			c-0.32-0.23-0.6-1.14-0.51-1.21c0.51-0.36,1.12-0.59,1.72-0.78c0.43-0.14,0.91-0.14,1.37-0.21C121.37,7.24,121.83,7.1,122.3,6.95z
			"/>
		<path d="M101.7,9.07c-0.27,0.17-0.55,0.34-0.84,0.52c0.08,0.1,0.13,0.2,0.19,0.22c0.39,0.09,0.78,0.17,1.17,0.25
			c-0.18,0.58-0.2,1.48-0.57,1.67c-0.76,0.38-1.72,0.38-2.71,0.55c0.16-0.79,0.25-1.25,0.35-1.71c-0.11-0.07-0.23-0.14-0.34-0.21
			c-0.21,0.32-0.42,0.64-0.82,1.24c-0.52-0.69-0.95-1.23-1.35-1.79c-0.24-0.33-0.45-0.69-0.68-1.04c-0.25-0.4-0.5-0.81-0.75-1.21
			c0.54-0.07,1.07-0.14,1.61-0.21c0.06,0.15,0.13,0.3,0.19,0.45c0.31-0.36,0.62-0.73,1.07-1.25c0.53,0.97,1.05,1.91,1.51,2.74
			c0.58-0.28,1.16-0.55,1.74-0.83C101.54,8.68,101.62,8.87,101.7,9.07z"/>
		<path d="M333.8,16.88c0.29,0.27,0.57,0.54,1.17,1.11c-0.14-0.96-0.07-1.78-0.42-2.35c-0.15-0.24-1.16,0.05-2.02,0.12
			c-0.42-0.63-0.26-1.45,0.71-2.05c1.36-0.86,3.57-0.01,4.61,1.57c-0.33,0.85-0.61,1.59-0.89,2.32c0.12,0.06,0.24,0.12,0.36,0.19
			c0.29-0.17,0.59-0.34,1.06-0.61c-0.02,1.81-1.79,0.96-2.39,1.78c0.16-0.39,0.31-0.78,0.54-1.36c-0.88,0.51-1.55,0.91-2.23,1.31
			c-0.27-0.6-0.53-1.2-0.8-1.79C333.6,17.04,333.7,16.96,333.8,16.88z"/>
		<path d="M443.05,7.89c-0.49,1.04-0.77,1.63-1.05,2.21c0.06,0.09,0.12,0.18,0.19,0.27c0.56-0.39,1.11-0.78,2.04-1.42
			c0.07,0.87,0.38,1.67,0.11,2.03c-0.82,1.08-1.98,1.69-3.35,0.93c-1.79-1-3.22-2.36-3.87-4.37c0.11-0.09,0.23-0.19,0.34-0.28
			c0.41,0.52,0.81,1.05,1.04,1.33C439.98,8.37,441.32,8.16,443.05,7.89z"/>
		<path d="M158.3,15.04c0,1.07,0,1.7,0,2.55c-0.22,0.31-0.62,0.87-1.29,1.83c-0.06-0.92-0.1-1.49-0.15-2.15
			c-0.51,0.24-1.05,0.49-1.69,0.79c-0.43-1.42-2.27-2.6-0.68-4.22C155.47,12.84,156.79,13.41,158.3,15.04z"/>
		<path d="M368.08,6.14c-0.62,0.69-1.16,1.29-1.86,2.07c-0.27-0.55-0.5-1.02-0.82-1.67c-0.71,0.23-1.51,0.49-2.65,0.87
			c0.35-0.72,0.55-1.12,0.78-1.61c-0.32-0.4-0.68-0.85-1.03-1.29C364.37,2.25,366.91,3.01,368.08,6.14z"/>
		<path d="M142.15,15.09c-0.95-0.42-1.73-0.77-2.5-1.1c1.21-0.91,3.03-0.67,4.42,0.6c1.94,1.77-0.68,2.54-0.73,4.04
			c-0.51-0.35-0.86-0.58-1.37-0.93c-0.33,0.63-0.6,1.16-0.87,1.68C139.66,17.56,140.01,15.57,142.15,15.09z"/>
		<path d="M152.82,18.39c-1.37-1.03-2.71-1.65-4.42-1.36c-0.51,0.08-1.13-0.55-1.7-0.85c0.21-0.4,0.49-0.77,0.62-1.19
			c0.61-1.88,2.15-1.14,3.24-0.98c1.31,0.19,2.16,1.82,2.05,3.1C152.58,17.46,152.72,17.84,152.82,18.39z"/>
		<path d="M378.91,19.09c-0.34-0.63-0.69-1.26-1.03-1.89c0.14-0.08,0.27-0.16,0.41-0.24c0.23,0.36,0.46,0.73,0.73,1.16
			c0.26-0.62,0.52-1.23,0.8-1.9c-0.73-0.6-1.54-1.26-2.36-1.93c1.1-1.51,3.49-1.12,5.32,1.01
			C381.52,16.55,381.18,18.75,378.91,19.09z"/>
		<path d="M166.66,14.7c0.71,1.03,1.34,1.95,1.96,2.87c-0.08,0.14-0.16,0.28-0.24,0.43c-2.23-0.59-3.95-2.79-6.68-2.34
			c0.44,0.47,0.81,0.88,1.46,1.57c-0.55-0.03-1,0.04-1.06-0.08c-0.45-0.93-1.37-1.82-0.56-2.97c0.73-1.03,2.33-1.01,4.21,0.02
			c-0.23,0.42-0.46,0.83-0.91,1.63C165.63,15.34,166.04,15.09,166.66,14.7z"/>
		<path d="M113.21,11.44c0.79-3.39,0.79-3.39,1.87-4.46c-0.34-0.19-0.66-0.36-0.98-0.54c0.07-0.14,0.14-0.28,0.21-0.42
			c0.35,0.18,0.83,0.27,1.02,0.55c0.51,0.78,0.83,1.67,1.34,2.45c0.63,0.97,0.33,2.01-0.16,2.68c-0.59,0.79-1.65,0.7-2.52,0.04
			C113.76,11.58,113.46,11.54,113.21,11.44z"/>
		<path d="M355.15,17.36c-0.08-1.34-0.42-2.37-0.09-3.08c0.24-0.51,1.42-0.86,2.13-0.79c1.02,0.1,2.37,0.09,2.57,1.65
			c0.01,0.1,0.06,0.18,0.09,0.28c0.15,0.5,0.3,0.99,0.44,1.49c-0.69-0.01-1.59,0.25-2.03-0.08
			C357.24,16.05,356.43,16.19,355.15,17.36z"/>
		<path d="M108.08,18.15c-0.41-1.53-1.12-0.58-1.65-0.34c-1.91-0.64-1.97-2.34-2.44-3.79c-1.13,0.61-1.13,0.61-0.44,2.22
			c-0.76-0.63-1.28-1.06-1.8-1.49c1.23-1.67,3.2-1.75,5.03-0.25C108.38,15.81,108.95,17.18,108.08,18.15z"/>
		<path d="M375.7,9.49c0.76-0.26,1.57-0.59,1.84,0.58c0.26,1.12-0.31,1.8-1.36,2.07c-1.37,0.36-3.57-0.71-4.57-2.18
			c1.3-1.64,2.78-1.33,4.38,0.81C375.9,10.38,375.81,9.98,375.7,9.49z"/>
		<path d="M390.05,15.65c-0.45-0.18-0.9-0.36-1.38-0.56c0,0.21,0,0.55,0,1.03c-0.7-0.59-1.29-1.08-1.9-1.59
			c-0.33,0.47-0.55,0.78-0.79,1.11c0.18,0.07,0.33,0.1,0.44,0.19c0.35,0.29,0.68,0.58,0.99,0.91c0.02,0.02-0.26,0.47-0.4,0.47
			c-0.56,0.02-1.47,0.13-1.63-0.15c-0.44-0.75-0.9-1.79-0.69-2.52c0.16-0.54,1.43-1.15,2.09-1.05c1.23,0.19,2.37,0.88,3.55,1.36
			C390.25,15.13,390.15,15.39,390.05,15.65z"/>
		<path d="M354.25,16.99c-1.6-0.23-3.21-0.46-4.88-0.69c0.07-0.32,0.23-0.76,0.22-1.2c-0.01-0.27-0.29-0.53-0.45-0.8
			c-0.14,0.17-0.25,0.42-0.43,0.49c-0.42,0.18-0.87,0.27-1.31,0.4c-0.09-0.16-0.18-0.32-0.27-0.48c0.7-0.43,1.38-1.19,2.1-1.24
			C351.8,13.33,353.16,15.1,354.25,16.99z"/>
		<path d="M453.93,8.11c0.63,0.44,1.18,0.82,1.73,1.21c1.01-1.46,1.01-1.46,2.06,0.49c-0.27,0.79-0.49,1.45-0.77,2.27
			c-0.51-0.24-1.59,0.42-1.89-1.2c-0.1-0.55-1.53-0.85-2.67-1.42C453.17,8.78,453.55,8.45,453.93,8.11z"/>
		<path d="M76.24,10.35c1.16-0.74,1.99-1.27,2.81-1.8c0.1,0.02,0.2,0.05,0.3,0.07C79.19,9,79.03,9.38,78.81,9.89
			c0.09,0.07,0.43,0.32,0.95,0.72c-2.18,1.21-4.15,2.25-5.46-0.78c-0.21-0.49,0.34-1.31,0.61-2.19c0.29,0.28,0.69,0.52,0.84,0.86
			C76,9.08,76.09,9.74,76.24,10.35z"/>
		<path d="M451.04,12.17c-0.46-0.21-0.92-0.41-1.38-0.62c-0.81,1.16-1.68,0.18-2.47-0.28c-1-0.58-0.54-1.45-0.03-2.01
			c0.54-0.61,1.29-1.45,2.17-0.37c0.72,0.88,1.35,1.84,2.02,2.77C451.25,11.83,451.14,12,451.04,12.17z"/>
		<path d="M112.79,13.71c0,0.77,0,1.46,0,1.77c-0.8,0.88-1.47,1.61-2.28,2.5c-0.61-1.17-1.78-2.12-1.13-3.55
			C110.15,12.69,111.68,13.96,112.79,13.71z"/>
		<path d="M426.47,14.53c-0.96,0.59-1.64,1.01-2.42,1.49c0.14,0.41,0.33,0.99,0.62,1.86c-1.11-0.92-2.07-1.58-2.82-2.43
			c-0.2-0.22,0.07-1.23,0.41-1.5c0.89-0.67,1.91-0.98,2.87,0.05C425.32,14.2,425.69,14.23,426.47,14.53z"/>
		<path d="M128.67,14.07c-0.12,0.68-0.22,1.23-0.35,1.97c-0.35-0.06-0.78-0.13-1.22-0.2c-0.16,0.4-0.38,0.94-0.75,1.82
			c-0.4-0.64-0.7-0.96-0.81-1.33c-0.16-0.51,0.13-1.24-0.83-1.25c-0.07,0-0.12-0.72-0.18-1.11c0.38-0.05,0.76-0.16,1.14-0.13
			c0.19,0.02,0.36,0.29,0.67,0.56c-0.05-0.4-0.08-0.63-0.14-1.08C127.08,13.58,127.89,13.83,128.67,14.07z"/>
		<path d="M463.17,11.28c0.91-0.08,1.82-0.17,2.88-0.26c-0.86-0.52-1.5-0.9-2.14-1.28c0.58-0.58,1.16-1.16,2.04-2.04
			c-0.16,1.69,2.01,2.65,0.36,4.02c-0.96,0.8-2.08,0.63-3.11,0.06C463.19,11.61,463.18,11.45,463.17,11.28z"/>
		<path d="M176.39,20.84c-0.55-0.14-1-0.26-1.6-0.42c0,0.81,0,1.45,0,2.09c-0.6-0.13-1.07-0.24-1.56-0.34
			c0.59-1.69,1.25-3.28,3.67-2.61c0.21,0.54,0.46,1.17,0.76,1.92c-0.68,0.43-1.32,0.83-1.96,1.24c-0.07-0.09-0.14-0.19-0.21-0.28
			C175.77,21.95,176.04,21.47,176.39,20.84z"/>
		<path d="M370.05,7.56c1.77-0.53,3.85-0.43,4.87-2.74c0.42,0.85,0.74,1.48,1.15,2.29c-0.58,0.15-1.06,0.28-1.55,0.39
			c-0.95,0.21-1.84,0.2-2.7,1.09c-1.02,1.06-1.34-0.35-1.73-1.07L370.05,7.56z"/>
		<path d="M311.13,21.57c-0.1,0.16-0.19,0.45-0.32,0.47c-1.48,0.17-2.97,0.32-4.46,0.41c-0.15,0.01-0.5-0.5-0.44-0.63
			c0.13-0.32,0.45-0.78,0.71-0.79c1.47-0.08,2.94-0.04,4.42-0.04C311.06,21.18,311.09,21.38,311.13,21.57z"/>
		<path d="M122.3,6.95c-0.46,0.15-0.93,0.29-1.39,0.44c-0.83-0.14-1.67-0.29-2.55-0.44c0.47-0.64,0.75-1.2,1.19-1.56
			c0.45-0.37,1.06-0.55,1.59-0.81c0.06,0.36,0.12,0.72,0.2,1.14c0.28,0.07,0.75,0.14,1.16,0.32C122.55,6.06,122.37,6.63,122.3,6.95z
			"/>
		<path d="M161.92,20.55c-1.34,0.57-2.55-0.87-4.33-0.66c0.69-1.02,1.22-1.82,1.91-2.85C160.32,18.25,161.01,19.24,161.92,20.55z"/>
		<path d="M392.89,13.42c1.14,0.13,2.28,0.26,3.41,0.38c-0.75,1.88-2.05,2.62-3.59,3.02c-0.09-0.11-0.18-0.22-0.27-0.32
			c0.58-0.43,1.15-0.85,1.84-1.37c-0.69-0.56-1.1-0.9-1.51-1.23C392.81,13.73,392.85,13.58,392.89,13.42z"/>
		<path d="M401.79,13.51c2.5-0.04,2.39,2.02,3.43,3.71c-0.98-0.43-1.57-0.7-2.17-0.96c0.07-0.42,0.13-0.83,0.25-1.58
			c-0.47,0.51-0.7,0.76-0.96,1.04C401.28,15.16,400.74,14.52,401.79,13.51z"/>
		<path d="M340.24,22.02c-1.1,0-2.02,0.06-2.94-0.01c-1.64-0.14-0.09-1.7-0.95-2.42c0.57-0.05,1.14-0.1,1.9-0.16
			c-0.17,0.62-0.27,1-0.4,1.5C338.93,20.56,340.01,20.16,340.24,22.02z"/>
		<path d="M369.67,14.49c0.87-1.19,1.91-1.31,2.88-0.89c0.35,0.15,0.38,1.05,0.66,1.91c0.31,0.11,0.97,0.35,1.64,0.58
			c-0.04,0.16-0.07,0.31-0.11,0.47c-0.51-0.15-1.05-0.24-1.54-0.46c-0.53-0.24-0.98-0.64-1.51-0.89
			C371.1,14.94,370.47,14.77,369.67,14.49z"/>
		<path d="M461.47,10.23c-1.01,0.08-1.04-1.02-1.32-1.85c0.41,0.36,0.81,0.72,1.34,1.18c0.03-0.39-0.04-0.74,0.09-1
			c0.19-0.37,0.52-0.67,0.79-1.01c0.19,0.38,0.5,0.75,0.55,1.15c0.09,0.81,0.03,1.64-0.26,2.77
			C462.27,11.07,461.89,10.66,461.47,10.23z"/>
		<path d="M88.52,13.25c0.1,1.62,1.3,1.14,1.96,1.19c1.41,0.1,1.42-0.02,2.42,1.31c-2.15-0.21-4.16,0.08-5.9-1.57
			C87.51,13.86,87.91,13.62,88.52,13.25z"/>
		<path d="M468.66,9.29c1.77-0.46,3.08-0.8,4.59-1.2c0.02,0.03,0.23,0.38,0.48,0.79c-0.62,0.27-1.15,0.51-1.67,0.74
			c-0.11,0.15-0.23,0.29-0.34,0.44c0.54,0.22,1.08,0.43,1.63,0.65c-0.11,0.1-0.21,0.19-0.32,0.29
			C471.65,10.46,470.27,9.92,468.66,9.29z"/>
		<path d="M370.81,3.28c-0.47,0.36-0.81,0.63-1.15,0.89c-0.16-0.23-0.31-0.47-0.47-0.7c0.61-0.32,1.2-0.84,1.83-0.9
			c0.57-0.05,1.19,0.4,1.91,0.67c-0.42,0.95-0.83,1.89-1.35,3.06C371.29,5.14,371.03,4.12,370.81,3.28z"/>
		<path d="M312.43,20c0.86,0.22,1.65,0.3,2.31,0.63c0.4,0.2,0.69,0.77,0.83,1.24c0.04,0.13-0.63,0.67-0.97,0.67
			c-0.51,0-1.22-0.16-1.5-0.52C312.71,21.52,312.66,20.77,312.43,20z"/>
		<path d="M411,9.83c1.51-0.62,2.33-0.35,2.69,0.97c0.1,0.38-0.23,1.24-0.49,1.3C411.22,12.56,411.69,10.68,411,9.83z"/>
		<path d="M85.48,9.44c-1.23-0.3-2.3-0.9-2.77,0.7c-0.04,0.15-0.89,0.27-1.14,0.1c-0.42-0.29-0.66-0.84-0.96-1.26
			c1.07-0.24,2.12-0.37,3.1-0.71C84.77,7.89,85.08,8.45,85.48,9.44z"/>
		<path d="M110.2,7.99c0.68-0.86,1.32-1.69,1.96-2.51c0.19,0.03,0.39,0.06,0.58,0.08c0.05,0.66,0.38,1.48,0.1,1.94
			C112.33,8.37,111.52,9.23,110.2,7.99z"/>
		<path d="M53.86,10.93c-0.53-2.51,2.31-0.94,2.18-3.03c0.68,0.83,1.04,1.28,1.69,2.07C56.26,10.34,55.12,10.62,53.86,10.93z"/>
		<path d="M430.52,13.89c0.87,0.2,1.74,0.38,2.6,0.6c0.54,0.14,1.14,0.24,1.56,0.56c0.21,0.16,0.06,0.78,0.08,1.19
			c-0.3-0.19-0.61-0.36-0.91-0.56c-0.26-0.18-0.48-0.53-0.74-0.57c-1.09-0.14-2.2-0.18-3.59-0.27c0.37-0.61,0.62-1.04,0.88-1.47
			C430.43,13.55,430.48,13.72,430.52,13.89z"/>
		<path d="M228.72,7.74c-0.52-1.55-1.61-2.86-1.36-4.49c0.16-0.05,0.32-0.11,0.48-0.16c0.2,0.25,0.57,0.51,0.56,0.75
			c-0.03,1.04,0.25,1.68,1.21,2.33C230.37,6.69,229.79,7.46,228.72,7.74z"/>
		<path d="M409.63,6.46c0.33,0.23,0.78,0.39,0.95,0.7c0.09,0.17-0.31,0.58-0.44,0.91c-0.11,0.28-0.16,0.6-0.22,0.9
			c-0.1,0.53-0.18,1.07-0.3,1.78c-0.37-0.26-0.55-0.34-0.66-0.48c-0.36-0.46-0.69-0.94-1.15-1.57c1.22-0.19,2.03-0.65,1.31-2.17
			C409.29,6.5,409.46,6.48,409.63,6.46z"/>
		<path d="M359.29,17.48c1.15,0.38,2.1,0.59,2.93,1.04c0.19,0.11-0.05,1.01-0.1,1.55c-0.51-0.17-1.14-0.2-1.5-0.53
			C360.15,19.11,359.89,18.45,359.29,17.48z"/>
		<path d="M397.78,10.93c-0.27-0.81-0.55-1.61-0.9-2.65c0.61-0.15,1.42-0.53,1.58-0.35c0.66,0.76,1.11,1.69,1.64,2.55
			c-0.14,0.08-0.27,0.17-0.41,0.25c-0.37-0.63-0.75-1.26-1.12-1.88c-0.14,0.05-0.28,0.1-0.42,0.15c0.04,0.34,0.11,0.68,0.12,1.02
			c0.01,0.3-0.04,0.59-0.06,0.89C398.07,10.91,397.93,10.92,397.78,10.93z"/>
		<path d="M405.57,10.86c0.53-0.22,1.06-0.45,1.6-0.68c0.11,0.1,0.22,0.2,0.34,0.3c-0.36,0.41-0.65,1-1.1,1.2
			c-1.17,0.53-1.76,0.27-2.56-0.85C404.67,9.85,404.75,9.85,405.57,10.86z"/>
		<path d="M481.28,10.21c-1.09-0.61-2.19-1.23-3.33-1.87c0.68-1.43,1.85-0.32,2.65-0.1c0.5,0.13,0.74,1.21,1.09,1.86
			C481.56,10.13,481.42,10.17,481.28,10.21z"/>
		<path d="M416.45,7.13c0.6,0.41,1.11,0.76,2.09,1.43c-0.87,0.5-1.6,0.91-2.41,1.37C414.96,9.21,415.7,8.24,416.45,7.13z"/>
		<path d="M393.31,8.91c0.45,0.38,0.73,0.6,1,0.83c1.3-0.86,1.68-0.74,2.33,0.77C395.11,11.5,394.4,11.2,393.31,8.91z"/>
		<path d="M486.17,9.44c0.04,0.65,0.07,1.04,0.09,1.48c0.48-0.32,0.92-0.61,1.35-0.9c0.12,0.17,0.24,0.34,0.36,0.51
			c-0.72,0.48-1.39,1.09-2.18,1.36c-0.33,0.11-0.91-0.54-1.37-0.85C484.97,10.54,485.51,10.05,486.17,9.44z"/>
		<path d="M120.23,13.88c-1.91,0.56-1.87,1.49-1.01,2.69c-0.58-0.6-1.98-0.64-1.05-2.02c-0.51,0.16-0.95,0.3-1.52,0.48
			C117.25,13.5,118.16,13.18,120.23,13.88z"/>
		<path d="M333.99,5.27c-0.5,0.56-0.81,0.91-1.11,1.25c-0.41-0.62-0.92-1.2-1.16-1.87c-0.08-0.23,0.55-0.71,0.85-1.08
			C333,4.08,333.43,4.59,333.99,5.27z"/>
		<path d="M356.78,19.56c2.28-0.14,2.28-0.14,2.93,1.37c-0.72,0.14-1.4,0.27-2.15,0.41C357.3,20.74,357.07,20.22,356.78,19.56z"/>
		<path d="M500,8.77c1.01-0.39,1.85-0.71,2.91-1.12c0.21,0.69,0.45,1.49,0.74,2.42C502.38,9.62,501.35,9.25,500,8.77z"/>
		<path d="M369.93,22.08c-0.59-0.44-1.02-0.69-1.36-1.03c-0.16-0.17-0.29-0.67-0.21-0.73c0.48-0.35,1.02-0.66,1.57-0.89
			c0.09-0.04,0.54,0.36,0.51,0.51C370.31,20.71,370.08,21.47,369.93,22.08z"/>
		<path d="M376.02,3.56c2.47-0.54,2.47-0.54,2.92,0.25c-0.78,0.45-1.56,0.91-2.47,1.44C376.33,4.71,376.18,4.14,376.02,3.56z"/>
		<path d="M199.54,20.44c-0.08,0.58-0.18,1.33-0.3,2.2c-1.33,0.1-1.98-0.48-2.03-1.71C198,20.77,198.72,20.62,199.54,20.44z"/>
		<path d="M82.75,10.99c0.98,0,1.97-0.05,2.95,0.03c0.27,0.02,0.5,0.46,0.75,0.7c-0.33,0.16-0.67,0.48-0.97,0.44
			c-0.93-0.13-1.85-0.39-2.77-0.6C82.72,11.38,82.74,11.18,82.75,10.99z"/>
		<path d="M360.03,5.3c-1.08,0.09-2.26,0.86-2.85-0.68c-0.04-0.1,0.45-0.58,0.61-0.54C358.62,4.27,360.26,2.89,360.03,5.3z"/>
		<path d="M383.62,3.1c0.62-0.06,1.16-0.12,1.71-0.17c0.05,0.73,0.11,1.45,0.17,2.31c-0.73-0.29-1.17-0.46-1.75-0.69
			C383.73,4.29,383.69,3.84,383.62,3.1z"/>
		<path d="M113.86,14.11c0.61,0.67,1.22,1.34,1.92,2.11c-0.83,0.59-1.39,1.65-2.53,0.48c0.81-0.43,2.18-0.65,0.39-1.5
			c-0.16-0.08-0.11-0.59-0.16-0.89C113.6,14.24,113.73,14.18,113.86,14.11z"/>
		<path d="M477.17,11.74c0.53-0.85,0.84-1.35,1.21-1.93c0.48,0.29,0.89,0.53,1.52,0.91c-0.62,0.2-0.98,0.32-1.35,0.44
			c-0.01,0.09-0.01,0.18-0.02,0.27c0.7,0.11,1.4,0.23,2.1,0.34c-0.03,0.16-0.05,0.32-0.08,0.48
			C479.52,12.1,478.49,11.94,477.17,11.74z"/>
		<path d="M135.41,14c-1.67,0.92-2.8,0.97-3.51,0.14C133.08,13.18,133.84,13.15,135.41,14z"/>
		<path d="M326.74,21.72c-1.87,1.7-2.96,1.47-3.84-0.32C324.06,21.5,325.25,21.59,326.74,21.72z"/>
		<path d="M416,13.34c0.75,0.15,1.38,0.28,1.69,0.35c-0.3,1.22-0.57,2.28-0.91,3.67C416.49,15.88,416.28,14.76,416,13.34z"/>
		<path d="M171.84,6.29c-0.29-0.41-0.59-0.83-0.89-1.24c0.07-0.07,0.15-0.15,0.22-0.22c0.31,0.29,0.61,0.57,1.07,1
			c0.45-0.57,0.89-1.13,1.49-1.88c0.3,0.78,0.49,1.26,0.72,1.86C173.52,5.98,172.72,6.13,171.84,6.29z"/>
		<path d="M436.32,11.62c-0.74-0.54-1.31-0.95-1.7-1.24c0.56-0.7,1.06-1.32,1.56-1.95c0.12,0.01,0.25,0.02,0.37,0.02
			C436.48,9.45,436.4,10.46,436.32,11.62z"/>
		<path d="M50,14c0.89,0.39,1.83,0.7,2.62,1.23c0.16,0.11-0.21,1.02-0.34,1.6c-0.87-0.93-1.64-1.76-2.41-2.58
			C49.92,14.16,49.96,14.08,50,14z"/>
		<path d="M407.89,13.93c1.31-0.91,2.35-0.63,2.9,0.78c-1.4,1.24-1.88-0.82-2.93-0.83L407.89,13.93z"/>
		<path d="M318.94,22.02c-0.79,0-1.55,0-2.57,0c0.33-0.57,0.6-1.04,0.94-1.63C317.94,20.94,319.34,20.52,318.94,22.02z"/>
		<path d="M110.74,8.73c0.64,0.27,1.28,0.54,1.92,0.81c-0.17,0.37-0.35,0.74-0.52,1.11c-0.57-0.43-1.13-0.86-1.7-1.29
			C110.53,9.15,110.64,8.94,110.74,8.73z"/>
		<path d="M407.85,13.88c0.24,0.68,0.47,1.35,0.71,2.03c-0.09,0.12-0.18,0.25-0.27,0.37c-0.49-0.28-1.22-0.45-1.4-0.87
			c-0.35-0.78,0.05-1.4,1-1.48C407.89,13.93,407.85,13.88,407.85,13.88z"/>
		<path d="M348.84,4.33c-0.22,1.13-0.43,2.27-0.65,3.4c-0.1,0.02-0.2,0.04-0.31,0.06c-0.25-0.49-0.5-0.99-0.74-1.46
			c0.61-0.69,1.18-1.33,1.74-1.97C348.87,4.36,348.84,4.33,348.84,4.33z"/>
		<path d="M0,8.78c0.49,0.74,0.99,1.48,1.62,2.43C-0.09,11.02-0.5,10.43,0,8.78z"/>
		<path d="M196.77,15.02c0.79,1.38,1.59,2.75,2.38,4.13c-0.16,0.08-0.31,0.17-0.47,0.25C197.98,17.97,196.51,16.93,196.77,15.02
			C196.77,15.02,196.77,15.02,196.77,15.02z"/>
		<path d="M434.75,5.7c0.39,0.81,0.72,1.24,0.78,1.7c0.03,0.24-0.39,0.54-0.61,0.81c-0.31-0.38-0.75-0.71-0.88-1.14
			C433.97,6.81,434.37,6.41,434.75,5.7z"/>
		<path d="M506.89,8.67c-0.46,0.39-0.92,0.79-1.73,1.49c-0.1-0.88-0.16-1.41-0.22-1.94c0.61-0.04,1.21-0.07,1.82-0.11
			C506.81,8.3,506.85,8.48,506.89,8.67z"/>
		<path d="M60.86,13.92c-0.19,0.33-0.38,0.65-0.53,0.92c0.26,0.23,0.49,0.43,0.72,0.63c-0.23,0.12-0.62,0.38-0.65,0.35
			c-0.38-0.46-0.8-0.94-0.97-1.48c-0.05-0.15,0.7-0.55,1.08-0.84C60.62,13.63,60.74,13.77,60.86,13.92z"/>
		<path d="M307.38,4.23c-0.42-0.61-0.9-1.2-1.22-1.86c-0.1-0.2,0.23-0.61,0.36-0.93c0.26,0.2,0.67,0.35,0.76,0.62
			c0.22,0.63,0.3,1.31,0.43,1.97C307.6,4.1,307.49,4.17,307.38,4.23z"/>
		<path d="M101.3,5.53c1.15,0.29,1.82,0.45,2.67,0.67c-0.64,0.51-1.12,0.89-1.75,1.4C101.95,7,101.71,6.46,101.3,5.53z"/>
		<path d="M343.09,21.35c0.64-0.23,1.29-0.46,1.93-0.69c0.11,0.3,0.21,0.6,0.32,0.9c-0.68,0.17-1.36,0.34-2.04,0.52
			C343.23,21.83,343.16,21.59,343.09,21.35z"/>
		<path d="M483.52,10.61c-0.59-0.94-1.05-1.66-1.74-2.75c1.05,0.32,1.7,0.52,2.39,0.73C483.95,9.3,483.77,9.84,483.52,10.61z"/>
		<path d="M36.18,13.9c1.41-0.79,2.06,0.03,2.69,0.89c-0.07,0.13-0.13,0.27-0.2,0.4C37.84,14.75,37.01,14.32,36.18,13.9z"/>
		<path d="M412.72,5.75c-1.37,0-2.3,0-3.24,0c-0.01-0.1-0.02-0.2-0.03-0.3c0.66-0.28,1.32-0.57,2.12-0.9
			C411.82,4.81,412.14,5.14,412.72,5.75z"/>
		<path d="M190.82,22.98c-0.92-0.12-2.09,0.25-2.48-1.74c1.09,0.57,1.86,0.98,2.63,1.38C190.93,22.75,190.87,22.87,190.82,22.98z"/>
		<path d="M5.48,10.86c-0.65-0.08-1.31-0.16-1.96-0.24c0.34-0.32,0.65-0.81,1.04-0.9c0.31-0.07,0.74,0.34,1.12,0.54
			C5.62,10.45,5.55,10.65,5.48,10.86z"/>
		<path d="M489.42,6.74c0.56,0.9,1.11,1.8,1.67,2.71c-0.2,0.13-0.4,0.25-0.6,0.38c-0.55-0.9-1.11-1.8-1.66-2.7
			C489.02,7,489.22,6.87,489.42,6.74z"/>
		<path d="M79.61,15.77c0.77-0.55,1.46-1.04,2.14-1.53C80.72,16.65,80.45,16.81,79.61,15.77z"/>
		<path d="M370.05,15.89c0.91,0.98,1.52,1.64,2.15,2.32C371.12,18.8,370.82,18.51,370.05,15.89z"/>
		<path d="M133.77,15.59c0.75-0.41,1.52-1.11,2.37,0.6c-0.94,0-1.65,0-2.36,0C133.78,15.98,133.78,15.79,133.77,15.59z"/>
		<path d="M32.17,10.56c0.91,0.05,1.81,0.11,2.78,0.16C34.23,11.92,33.51,11.94,32.17,10.56z"/>
		<path d="M370.08,7.53c-0.31-0.65-0.62-1.3-1.07-2.25c0.62,0.03,1.13-0.08,1.4,0.12c0.18,0.14,0.1,0.72,0.03,1.09
			c-0.07,0.37-0.26,0.71-0.39,1.07C370.05,7.56,370.08,7.53,370.08,7.53z"/>
		<path d="M10.08,8.49c0.35,0.43,0.7,0.87,1.06,1.3c-0.33,0.24-0.65,0.48-0.98,0.71C9.94,9.95,9.73,9.4,9.51,8.85
			C9.7,8.73,9.89,8.61,10.08,8.49z"/>
		<path d="M439.65,6.13c-0.61-0.12-1.23-0.25-1.84-0.37c-0.05-0.14-0.11-0.29-0.16-0.43c0.42-0.18,0.87-0.54,1.26-0.49
			c0.39,0.05,0.74,0.51,1.1,0.79C439.9,5.8,439.78,5.96,439.65,6.13z"/>
		<path d="M415.47,5.46c0.81-0.2,1.59-0.4,2.53-0.64c0.14,1.21-0.76,1.12-1.44,1.22C415.58,6.18,415.58,6.16,415.47,5.46z"/>
		<path d="M504.78,13.92c0.22,0.42,0.67,0.88,0.61,1.26c-0.05,0.35-0.65,0.61-1.01,0.92c-0.12-0.08-0.24-0.16-0.37-0.24
			c0.11-0.62,0.22-1.23,0.33-1.85C504.5,13.97,504.64,13.95,504.78,13.92z"/>
		<path d="M348.69,2.28c-0.99,2.1-0.99,2.1-2.18,1.53C347.26,3.28,347.97,2.78,348.69,2.28z"/>
		<path d="M138.64,18.46c-0.52-0.27-1.04-0.53-1.63-0.83c0.34-0.56,0.56-0.93,0.88-1.44c0.38,0.68,0.68,1.22,0.99,1.76
			C138.79,18.11,138.71,18.29,138.64,18.46z"/>
		<path d="M166.31,19.77c-0.9-0.56-1.46-0.92-2.26-1.42C165.57,17.6,166.15,17.95,166.31,19.77z"/>
		<path d="M49.18,8.17c-0.93-0.11-1.76-0.21-2.56-0.3C47.59,6.53,48.13,6.58,49.18,8.17z"/>
		<path d="M96.33,17.15c0.27-0.47,0.5-0.97,0.84-1.37c0.08-0.1,0.57,0.15,0.87,0.24c-0.36,0.5-0.71,1.01-1.07,1.51
			C96.75,17.4,96.54,17.27,96.33,17.15z"/>
		<path d="M214.07,3.34c-0.37,0.47-0.75,0.93-1.12,1.4c-0.17-0.25-0.55-0.61-0.49-0.73c0.23-0.45,0.62-0.82,0.94-1.22
			C213.63,2.98,213.85,3.16,214.07,3.34z"/>
		<path d="M51.27,8.87c0.66,0.42,1.32,0.85,2.04,1.32C52.17,11.02,52.07,10.96,51.27,8.87z"/>
		<path class="st0" d="M297.15,5.58c0.67-0.42,1.34-0.84,2.01-1.26c0.14,0.34,0.29,0.68,0.43,1.01c-0.72,0.29-1.43,0.59-2.15,0.88
			C297.35,6.01,297.25,5.79,297.15,5.58z"/>
		<path class="st0" d="M225.59,21.62c-0.24,0.14-0.57,0.32-0.83,0.48c-0.19-0.61-0.36-1.16-0.58-1.84c0.8,0.05,1.64,0.01,2.41,0.21
			c0.31,0.08,0.69,0.72,0.67,1.08c-0.03,0.36-0.52,0.69-0.8,1.03C226.2,22.3,225.95,22.02,225.59,21.62z"/>
		<path class="st0" d="M382.37,6.8c-1.22,0.42-2.29,0.82-3.39,1.15c-0.21,0.06-0.48-0.11-0.73-0.18c0.08-0.21,0.12-0.58,0.24-0.61
			c1.18-0.28,2.37-0.52,3.56-0.73C382.15,6.41,382.29,6.69,382.37,6.8z"/>
		<path class="st0" d="M327.9,18.54c0.58-0.45,1.15-0.91,1.88-1.48c0.2,0.81,0.4,1.37,0.45,1.94c0.03,0.31-0.2,0.64-0.31,0.97
			c-0.17-0.32-0.35-0.63-0.51-0.96c-0.06-0.12-0.06-0.27-0.11-0.52c-0.43,0.14-0.81,0.27-1.2,0.39
			C328.03,18.76,327.96,18.65,327.9,18.54z"/>
	</g>
</g>
</svg>
